<svg id="Layer_1" data-name="Layer 1" xmlns="http://www.w3.org/2000/svg" viewBox="0 0 404.91 127.02"><defs><style>.cls-1{fill:#fff;}</style></defs><title>Artboard 5 copy 2</title><path class="cls-1" d="M279.26,57.91q0,10.86-5.22,17.51t-14.35,6.66a18.33,18.33,0,0,1-8.54-1.88,16,16,0,0,1-6-5.54l-.83,6.45H236.4V15.93l-7.56-1.29V8.74h16.7V36.85a15.94,15.94,0,0,1,5.87-5.1A18,18,0,0,1,259.59,30a16.69,16.69,0,0,1,14.48,7.42q5.19,7.43,5.19,19.53Zm-9.18-1q0-8.67-3.16-14.1a10.42,10.42,0,0,0-9.65-5.43,12.09,12.09,0,0,0-7.12,2,14.43,14.43,0,0,0-4.61,5.48V67.1a14.19,14.19,0,0,0,4.66,5.52,12.27,12.27,0,0,0,7.17,2q6.45,0,9.58-4.59t3.13-12.16Z"/><path class="cls-1" d="M285.55,55.55q0-11.13,6-18.35T308,30q10.38,0,16.44,7.19t6.05,18.37v1q0,11.22-6,18.37t-16.37,7.14q-10.44,0-16.47-7.17t-6-18.34Zm9.14,1q0,8,3.36,13.17t10,5.2a11.05,11.05,0,0,0,9.88-5.2q3.38-5.19,3.38-13.17v-1q0-7.89-3.38-13.13a11.13,11.13,0,0,0-10-5.24A11,11,0,0,0,298,42.42q-3.34,5.25-3.34,13.13Z"/><path class="cls-1" d="M333.72,75.26l5.39-1.07L353.9,55.73,339.57,37.88l-5.38-1.07V30.92h19.67v5.89l-4.55.55,9.37,12.07,9.42-12.11-4.5-.51V30.92h19.81v5.89L378,37.88,363.69,55.73l14.75,18.46,5.43,1.07v5.85H364.2V75.26l4.45-.51-9.83-12.62L349,74.75l4.5.51v5.85H333.72Z"/><path class="cls-1" d="M251.57,96.81c11.64,15.52,48.86,22.53,78.68,17,13.07-2.41,24.64-7.16,32.17-14.59l4,3.17c-8.21,10.76-22.15,17.49-37.75,20.36-29.93,5.53-66.35-2.93-81.43-23.63Z"/><path class="cls-1" d="M386.8,21.34v-1h7.42v1h-3.09v8.24h-1.24V21.34Z"/><path class="cls-1" d="M397.35,20.3l2.93,7.8,2.94-7.8h1.69v9.28h-1.17V21.86h0l-2.9,7.72h-1.05l-2.9-7.72h0v7.72h-1.17V20.3Z"/><path class="cls-1" d="M53.43,61.48C47.81,75.69,32.86,81.2,23.21,81.2,7.53,81.2,0,74.2,0,55.12S9.22,0,37,0C47,0,54.7,3.92,54.7,14.2c0,5.62-2,9.76-7.42,9.76a7.63,7.63,0,0,1-6-2.76c2.54-1.27,4.87-5.72,4.87-9.75C46.11,8.06,44.42,5,39.65,5,28,5,17.6,32.86,17.6,54.49,17.6,64.24,20.14,71,30.32,71A25.73,25.73,0,0,0,51,60.42Z"/><path class="cls-1" d="M76.64,35.72c-4.14,0-7.42,6.47-8.06,9.33L61.27,79.5H46L61.37,7.42,77.06,5.3,71.34,32c4.45-5.09,9.11-5.93,12.4-5.93,6.78,0,11.77,3.49,11.77,12S90.42,59.47,90.42,65.4c0,2.65,1.06,4.45,4.24,4.45,4.66,0,6.57-3.81,8.9-9.32H108C102.08,77.91,93.92,80.14,88.3,80.14c-9.22,0-12.51-5.94-12.51-12,0-7.21,4.77-20.25,4.77-27C80.56,37.63,79.29,35.72,76.64,35.72Z"/><path class="cls-1" d="M124.87,71.23c8.37,0,13.46-4.66,18.76-10.7h3.6c-6,9.75-15,19.61-29.15,19.61-10,0-16.53-4.88-16.53-16.86,0-12.19,6.89-37.73,28.62-37.73,9.43,0,11.66,4.87,11.66,10.17,0,12.19-11.66,21.63-24.38,22.37-.11,1.48-.21,3-.21,4.24C117.24,69.54,119.78,71.23,124.87,71.23ZM131,31.16c-5.41,0-10.6,11.35-12.73,21.84,8.17-.53,15.38-8.69,15.38-17.49C133.67,32.86,133,31.16,131,31.16Z"/><path class="cls-1" d="M164.93,71.23c8.38,0,13.47-4.66,18.77-10.7h3.6c-6,9.75-15.05,19.61-29.15,19.61-10,0-16.54-4.88-16.54-16.86,0-12.19,6.89-37.73,28.62-37.73,9.44,0,11.66,4.87,11.66,10.17,0,12.19-11.66,21.63-24.38,22.37-.1,1.48-.21,3-.21,4.24C157.3,69.54,159.85,71.23,164.93,71.23Zm6.15-40.07c-5.4,0-10.6,11.35-12.72,21.84,8.16-.53,15.37-8.69,15.37-17.49C173.73,32.86,173.1,31.16,171.08,31.16Z"/><path class="cls-1" d="M205.53,26.5l-1.38,6.57c3.71-3.18,7.74-6.57,12.83-6.57,4.77,0,7.31,3.92,7.31,8,0,3.71-2.44,7.74-7.63,7.74-5.94,0-3-7-6.15-7s-5.09,1.59-7.74,4L194.29,79.5H179l11.24-53Z"/></svg>