<svg id="Layer_1" data-name="Layer 1" xmlns="http://www.w3.org/2000/svg" xmlns:xlink="http://www.w3.org/1999/xlink" viewBox="0 0 110 110"><defs><style>.cls-1,.cls-12,.cls-13,.cls-14,.cls-15,.cls-16,.cls-2,.cls-3,.cls-4,.cls-5,.cls-7,.cls-8,.cls-9{stroke:#292836;}.cls-1,.cls-12,.cls-13,.cls-14,.cls-15,.cls-16,.cls-2,.cls-3,.cls-5,.cls-7,.cls-8,.cls-9{stroke-linecap:round;stroke-linejoin:round;}.cls-1{fill:url(#linear-gradient);}.cls-2{fill:url(#linear-gradient-2);}.cls-3{fill:#e2d242;}.cls-4{fill:#c1cdd9;stroke-miterlimit:10;}.cls-5{fill:#eef7ff;}.cls-12,.cls-6,.cls-7{fill:#fff;}.cls-8{fill:none;}.cls-12,.cls-8{stroke-width:0.5px;}.cls-9{fill:#f8ea47;}.cls-10{fill:#292836;}.cls-11{fill:#00a7b5;}.cls-13{fill:url(#linear-gradient-3);}.cls-14{fill:url(#linear-gradient-4);}.cls-15{fill:url(#linear-gradient-5);}.cls-16{fill:url(#linear-gradient-6);}</style><linearGradient id="linear-gradient" x1="65.79" y1="87.49" x2="70.13" y2="87.49" gradientUnits="userSpaceOnUse"><stop offset="0" stop-color="#494856"/><stop offset="1" stop-color="#292836"/></linearGradient><linearGradient id="linear-gradient-2" x1="70.13" y1="87.49" x2="74.46" y2="87.49" xlink:href="#linear-gradient"/><linearGradient id="linear-gradient-3" x1="1.42" y1="93.64" x2="107.92" y2="93.64" xlink:href="#linear-gradient"/><linearGradient id="linear-gradient-4" x1="47.08" y1="91.32" x2="54.67" y2="91.32" xlink:href="#linear-gradient"/><linearGradient id="linear-gradient-5" x1="57.08" y1="91.32" x2="60.08" y2="91.32" xlink:href="#linear-gradient"/><linearGradient id="linear-gradient-6" x1="65.79" y1="91.32" x2="83.17" y2="91.32" xlink:href="#linear-gradient"/></defs><title>Artboard 2</title><g id="_Group_" data-name="&lt;Group&gt;"><g id="_Group_2" data-name="&lt;Group&gt;"><g id="_Group_3" data-name="&lt;Group&gt;"><path id="_Path_" data-name="&lt;Path&gt;" class="cls-1" d="M69,83.66a1.14,1.14,0,0,0-1.14,1.14v2.48l-2.06,4h3.38v0a1.13,1.13,0,0,0,1-1.1V84.8A1.15,1.15,0,0,0,69,83.66Z"/><path id="_Path_2" data-name="&lt;Path&gt;" class="cls-2" d="M73.32,83.66a1.15,1.15,0,0,0-1.14,1.14v2.48l-2.05,4H73.5v0a1.13,1.13,0,0,0,1-1.1V84.8A1.14,1.14,0,0,0,73.32,83.66Z"/><polyline id="_Path_3" data-name="&lt;Path&gt;" class="cls-3" points="78.06 54.53 78.06 61.03 65.58 61.03 65.58 55.95"/><g id="_Group_4" data-name="&lt;Group&gt;"><polygon id="_Path_4" data-name="&lt;Path&gt;" class="cls-4" points="58.31 46.54 58.31 42.54 76.75 42.54 76.75 55.95 58.31 55.95 58.31 46.54"/><rect id="_Rectangle_" data-name="&lt;Rectangle&gt;" class="cls-5" x="57.08" y="40.2" width="20.98" height="3.89" rx="1.31" ry="1.31"/><g id="_Group_5" data-name="&lt;Group&gt;"><g id="_Group_6" data-name="&lt;Group&gt;"><path id="_Path_5" data-name="&lt;Path&gt;" class="cls-6" d="M68.1,51.94a3.54,3.54,0,0,1-4-2.84.49.49,0,0,1,.39-.59.5.5,0,0,1,.59.39A2.58,2.58,0,0,0,68,51a2.8,2.8,0,0,0,2.57-2.65.52.52,0,0,1,.53-.47.49.49,0,0,1,.47.53A3.79,3.79,0,0,1,68.1,51.94Z"/></g><g id="_Group_7" data-name="&lt;Group&gt;"><path id="_Path_6" data-name="&lt;Path&gt;" class="cls-6" d="M63.87,49.77h-.1a.49.49,0,0,1-.45-.54A1.59,1.59,0,0,1,64,48.09,2.12,2.12,0,0,1,65.86,48a.51.51,0,0,1,.34.62.5.5,0,0,1-.62.34,1.21,1.21,0,0,0-1,0,.64.64,0,0,0-.25.4A.49.49,0,0,1,63.87,49.77Z"/></g></g></g><path id="_Path_7" data-name="&lt;Path&gt;" class="cls-7" d="M76.75,38.5h0a3.81,3.81,0,0,1,3.81,3.81v8.46a3.81,3.81,0,0,1-3.81,3.82h0Z"/><g id="_Group_8" data-name="&lt;Group&gt;"><rect id="_Rectangle_2" data-name="&lt;Rectangle&gt;" class="cls-7" x="58.39" y="55.16" width="3.37" height="1.58" rx="0.79" ry="0.79" transform="translate(4.13 116.03) rotate(-90)"/><rect id="_Rectangle_3" data-name="&lt;Rectangle&gt;" class="cls-7" x="59.93" y="55.16" width="3.38" height="1.58" rx="0.79" ry="0.79" transform="translate(5.66 117.57) rotate(-90)"/><rect id="_Rectangle_4" data-name="&lt;Rectangle&gt;" class="cls-7" x="61.47" y="55.16" width="3.37" height="1.58" rx="0.79" ry="0.79" transform="translate(7.2 119.11) rotate(-90)"/></g><g id="_Group_9" data-name="&lt;Group&gt;"><rect id="_Rectangle_5" data-name="&lt;Rectangle&gt;" class="cls-7" x="75.06" y="47.54" width="3.37" height="1.58" rx="0.79" ry="0.79"/><rect id="_Rectangle_6" data-name="&lt;Rectangle&gt;" class="cls-7" x="75.06" y="49.08" width="3.38" height="1.58" rx="0.79" ry="0.79"/><rect id="_Rectangle_7" data-name="&lt;Rectangle&gt;" class="cls-7" x="75.06" y="50.62" width="3.38" height="1.58" rx="0.79" ry="0.79"/></g><rect id="_Rectangle_8" data-name="&lt;Rectangle&gt;" class="cls-4" x="46" y="17.66" width="2.17" height="73.67" rx="1.08" ry="1.08"/><path id="_Path_8" data-name="&lt;Path&gt;" class="cls-5" d="M78.08,61H73V55.6a1.06,1.06,0,0,0-1.06-1.07h0A3.44,3.44,0,0,0,68.5,58V61H51.38v-.9a.91.91,0,0,0-.9-.9H45a.9.9,0,0,1-.9-.9h0a.91.91,0,0,0-.9-.9H41a.9.9,0,0,0-.9.9V61H15.25V85.2l74.33.06V72.53A11.5,11.5,0,0,0,78.08,61Z"/><g id="_Group_10" data-name="&lt;Group&gt;"><line id="_Path_9" data-name="&lt;Path&gt;" class="cls-8" x1="18.94" y1="69.47" x2="18.94" y2="65.41"/><line id="_Path_10" data-name="&lt;Path&gt;" class="cls-8" x1="20.25" y1="69.47" x2="20.25" y2="65.41"/><line id="_Path_11" data-name="&lt;Path&gt;" class="cls-8" x1="21.56" y1="69.47" x2="21.56" y2="65.41"/><line id="_Path_12" data-name="&lt;Path&gt;" class="cls-8" x1="22.88" y1="69.47" x2="22.88" y2="65.41"/><line id="_Path_13" data-name="&lt;Path&gt;" class="cls-8" x1="24.19" y1="69.47" x2="24.19" y2="65.41"/><line id="_Path_14" data-name="&lt;Path&gt;" class="cls-8" x1="25.5" y1="69.47" x2="25.5" y2="65.41"/><line id="_Path_15" data-name="&lt;Path&gt;" class="cls-8" x1="26.81" y1="69.47" x2="26.81" y2="65.41"/><line id="_Path_16" data-name="&lt;Path&gt;" class="cls-8" x1="28.13" y1="69.47" x2="28.13" y2="65.41"/><line id="_Path_17" data-name="&lt;Path&gt;" class="cls-8" x1="29.44" y1="69.47" x2="29.44" y2="65.41"/><line id="_Path_18" data-name="&lt;Path&gt;" class="cls-8" x1="30.75" y1="69.47" x2="30.75" y2="65.41"/><line id="_Path_19" data-name="&lt;Path&gt;" class="cls-8" x1="32.06" y1="69.47" x2="32.06" y2="65.41"/><line id="_Path_20" data-name="&lt;Path&gt;" class="cls-8" x1="33.38" y1="69.47" x2="33.38" y2="65.41"/><line id="_Path_21" data-name="&lt;Path&gt;" class="cls-8" x1="34.69" y1="69.47" x2="34.69" y2="65.41"/><line id="_Path_22" data-name="&lt;Path&gt;" class="cls-8" x1="36" y1="69.47" x2="36" y2="65.41"/><line id="_Path_23" data-name="&lt;Path&gt;" class="cls-8" x1="37.31" y1="69.47" x2="37.31" y2="65.41"/><line id="_Path_24" data-name="&lt;Path&gt;" class="cls-8" x1="38.63" y1="69.47" x2="38.63" y2="65.41"/></g><rect id="_Rectangle_9" data-name="&lt;Rectangle&gt;" class="cls-5" x="17.42" y="48.53" width="7.46" height="17.8" rx="3.73" ry="3.73"/><path id="_Path_25" data-name="&lt;Path&gt;" class="cls-3" d="M89.24,69.78h-74V85.2l74.33.06S90.59,73,89.24,69.78Z"/><rect id="_Rectangle_10" data-name="&lt;Rectangle&gt;" class="cls-4" x="87.42" y="57.43" width="2.17" height="36.2" rx="1.08" ry="1.08"/><rect id="_Rectangle_11" data-name="&lt;Rectangle&gt;" class="cls-5" x="89.58" y="65.41" width="2.17" height="20.26" rx="1.08" ry="1.08"/><rect id="_Rectangle_12" data-name="&lt;Rectangle&gt;" class="cls-4" x="15.25" y="43.78" width="2.17" height="49.85" rx="1.08" ry="1.08"/><polyline id="_Path_26" data-name="&lt;Path&gt;" class="cls-4" points="25.84 42.53 25.84 50.46 30.31 50.46 30.31 46.22"/><polyline id="_Path_27" data-name="&lt;Path&gt;" class="cls-5" points="40.13 61.03 40.13 64.47 40.13 69.78"/><path id="_Path_28" data-name="&lt;Path&gt;" class="cls-3" d="M27.19,49h3.73A3.08,3.08,0,0,1,34,52v2.09a4.41,4.41,0,0,0,4.42,4.41h1.71V64H27.19Z"/><path id="_Path_29" data-name="&lt;Path&gt;" class="cls-7" d="M40.13,62.57h4.68a2.45,2.45,0,0,1,1.86.86l.84,1a.6.6,0,0,1-.46,1H42.38Z"/><path id="_Path_30" data-name="&lt;Path&gt;" class="cls-7" d="M34.06,42.87h-.22v-4a4,4,0,0,0-8,0v4.25a4,4,0,0,0,4,4h2.43a1.58,1.58,0,0,0,1.57-1.57V44.07h.22a.6.6,0,1,0,0-1.2Z"/><path id="_Path_31" data-name="&lt;Path&gt;" class="cls-9" d="M40.81,62.57H29.5V51.26a2.31,2.31,0,0,0-4.62,0V64.89a2.32,2.32,0,0,0,2.31,2.31H40.81a2.32,2.32,0,1,0,0-4.63Z"/><path id="_Path_32" data-name="&lt;Path&gt;" class="cls-5" d="M34.13,34.87H26.62a2.24,2.24,0,0,0-2.24,2.25v5.41h1.46a14,14,0,0,0,1.5-.08V41.1a.88.88,0,1,1,1.75,0v1c3.68-.94,4.75-3.28,4.75-3.28h.29a2,2,0,0,0,0-4Z"/><path id="_Path_33" data-name="&lt;Path&gt;" class="cls-10" d="M32.84,44.16H31.06a1.94,1.94,0,0,0,1.78,1.42Z"/><line id="_Path_34" data-name="&lt;Path&gt;" class="cls-8" x1="31.5" y1="36.97" x2="33.36" y2="36.97"/><line id="_Path_35" data-name="&lt;Path&gt;" class="cls-8" x1="24.38" y1="41.22" x2="27.34" y2="41.22"/><line id="_Path_36" data-name="&lt;Path&gt;" class="cls-8" x1="24.38" y1="40.03" x2="27.34" y2="40.03"/><line id="_Path_37" data-name="&lt;Path&gt;" class="cls-8" x1="24.38" y1="38.85" x2="27.34" y2="38.85"/><line id="_Path_38" data-name="&lt;Path&gt;" class="cls-8" x1="71.67" y1="56.47" x2="71.67" y2="62.57"/><line id="_Path_39" data-name="&lt;Path&gt;" class="cls-8" x1="51.16" y1="60.96" x2="51.16" y2="64.8"/><line id="_Path_40" data-name="&lt;Path&gt;" class="cls-8" x1="43.71" y1="58.07" x2="43.71" y2="60.78"/><line id="_Path_41" data-name="&lt;Path&gt;" class="cls-8" x1="52.6" y1="63.45" x2="58.83" y2="63.45"/><line id="_Path_42" data-name="&lt;Path&gt;" class="cls-8" x1="61.33" y1="63.45" x2="68" y2="63.45"/><line id="_Path_43" data-name="&lt;Path&gt;" class="cls-8" x1="86.19" y1="69.47" x2="81.94" y2="65.91"/><line id="_Path_44" data-name="&lt;Path&gt;" class="cls-8" x1="87.42" y1="68.12" x2="83.17" y2="64.55"/><line id="_Path_45" data-name="&lt;Path&gt;" class="cls-8" x1="83.17" y1="69.47" x2="80.56" y2="67.2"/><line id="_Path_46" data-name="&lt;Path&gt;" class="cls-8" x1="42.25" y1="68.71" x2="78.83" y2="68.71"/><rect id="_Rectangle_13" data-name="&lt;Rectangle&gt;" class="cls-7" x="43.42" y="32.2" width="7.33" height="11.96" rx="1.67" ry="1.67"/><path id="_Rectangle_14" data-name="&lt;Rectangle&gt;" class="cls-11" d="M44.72,37.59h4.72a0,0,0,0,1,0,0v4.58a.64.64,0,0,1-.64.64H45.37a.64.64,0,0,1-.64-.64V37.59A0,0,0,0,1,44.72,37.59Z"/><rect id="_Rectangle_15" data-name="&lt;Rectangle&gt;" class="cls-7" x="67" y="26.53" width="7.33" height="10.44" rx="3.67" ry="3.67"/><path id="_Path_47" data-name="&lt;Path&gt;" class="cls-3" d="M65.92,30.37h7V40.2h3.83V31a5.19,5.19,0,0,0-5.19-5.19H70a4.07,4.07,0,0,0-4.06,4.07Z"/><rect id="_Rectangle_16" data-name="&lt;Rectangle&gt;" class="cls-12" x="64.77" y="31.32" width="3.08" height="2" rx="1" ry="1"/><rect id="_Rectangle_17" data-name="&lt;Rectangle&gt;" class="cls-12" x="68.58" y="31.32" width="3.08" height="2" rx="1" ry="1"/><path id="_Path_48" data-name="&lt;Path&gt;" class="cls-10" d="M69,34.63h2.57l-1.44,1.28S69,35.56,69,34.63Z"/><path id="_Path_49" data-name="&lt;Path&gt;" class="cls-7" d="M70.29,37V40H64.13A1.85,1.85,0,0,1,66,38.18h4.31"/></g><line id="_Path_50" data-name="&lt;Path&gt;" class="cls-13" x1="1.42" y1="93.64" x2="107.92" y2="93.64"/><line id="_Path_51" data-name="&lt;Path&gt;" class="cls-14" x1="47.08" y1="91.32" x2="54.67" y2="91.32"/><line id="_Path_52" data-name="&lt;Path&gt;" class="cls-15" x1="57.08" y1="91.32" x2="60.08" y2="91.32"/><line id="_Path_53" data-name="&lt;Path&gt;" class="cls-16" x1="65.79" y1="91.32" x2="83.17" y2="91.32"/></g></g></svg>