<svg id="Layer_1" data-name="Layer 1" xmlns="http://www.w3.org/2000/svg" xmlns:xlink="http://www.w3.org/1999/xlink" viewBox="0 0 110 110"><defs><style>.cls-1,.cls-13{fill:none;}.cls-2{fill:#c1cdd9;}.cls-10,.cls-13,.cls-14,.cls-15,.cls-16,.cls-2,.cls-3,.cls-4,.cls-5,.cls-9{stroke:#292836;}.cls-2,.cls-4{stroke-miterlimit:10;}.cls-3{fill:#00a7b5;}.cls-10,.cls-13,.cls-14,.cls-15,.cls-16,.cls-3,.cls-5,.cls-9{stroke-linecap:round;stroke-linejoin:round;}.cls-4,.cls-5,.cls-6{fill:#fff;}.cls-7{fill:#292836;}.cls-8{fill:#f8ea47;}.cls-12,.cls-9{fill:#e2d242;}.cls-10{fill:#eef7ff;}.cls-11{clip-path:url(#clip-path);}.cls-13{stroke-width:0.5px;}.cls-14{fill:url(#linear-gradient);}.cls-15{fill:url(#linear-gradient-2);}.cls-16{fill:url(#linear-gradient-3);}</style><clipPath id="clip-path"><path id="_Clipping_Path_" data-name="&lt;Clipping Path&gt;" class="cls-1" d="M41.94,65.19a3.06,3.06,0,0,1,4.37-2.87l0,0A8.15,8.15,0,0,1,50,66.64a24.63,24.63,0,0,1,1.31,5.58H42.14Z"/></clipPath><linearGradient id="linear-gradient" x1="6.06" y1="83.46" x2="83.31" y2="83.46" gradientUnits="userSpaceOnUse"><stop offset="0" stop-color="#494856"/><stop offset="1" stop-color="#292836"/></linearGradient><linearGradient id="linear-gradient-2" x1="86.56" y1="83.46" x2="97.19" y2="83.46" xlink:href="#linear-gradient"/><linearGradient id="linear-gradient-3" x1="101.19" y1="83.46" x2="103.94" y2="83.46" xlink:href="#linear-gradient"/></defs><title>Artboard 2 copy</title><g id="_Group_" data-name="&lt;Group&gt;"><polyline id="_Path_" data-name="&lt;Path&gt;" class="cls-2" points="35.95 49.99 40.83 49.99 40.83 46.24 45.49 46.24 45.49 49.99 49.84 49.99 49.84 58.08 35.17 58.08"/><path id="_Path_2" data-name="&lt;Path&gt;" class="cls-3" d="M76.45,50H49.83c-.11,2.37-1.08,7.27-7.09,7.27C37,57.26,36,52.58,36,50h-.37a7.5,7.5,0,0,0-7.5,7.5V82.4l27,.38V55.16H74.74v2.1a2.84,2.84,0,1,0,5.67,0V54A4,4,0,0,0,76.45,50Z"/><path id="_Path_3" data-name="&lt;Path&gt;" class="cls-4" d="M51.15,60V83.08H74.42V60c0-4.85-3.55-8.78-7.93-8.78h-7.4C54.71,51.21,51.15,55.14,51.15,60Z"/><path id="_Path_4" data-name="&lt;Path&gt;" class="cls-5" d="M72.58,54.36l8.22,9.51a5.78,5.78,0,0,1-.33,7.93L73,79.08,69,74.3l6.67-7.16-5.83-7"/><path id="_Path_5" data-name="&lt;Path&gt;" class="cls-4" d="M74.74,57.26l-1.51,2.48a1.5,1.5,0,0,0-.22.77h0A1.49,1.49,0,0,0,74.5,62h.24"/><path id="_Path_6" data-name="&lt;Path&gt;" class="cls-4" d="M61.55,48.22V49.6A1.57,1.57,0,0,1,60,51.18H58.32a1.57,1.57,0,0,0-1.52,2c.68,2.25,2.46,5.59,7,5.59A8.38,8.38,0,0,0,71.48,54a1.57,1.57,0,0,0-1.29-2.3l-2.77-.19A1.59,1.59,0,0,1,66,49.9V46.8"/><path id="_Path_7" data-name="&lt;Path&gt;" class="cls-4" d="M74.74,56.8h5.67V61a2.2,2.2,0,0,1-1.33,2l-3.45,1.49a.64.64,0,0,1-.89-.58Z"/><path id="_Rectangle_" data-name="&lt;Rectangle&gt;" class="cls-2" d="M39.36,31.62h7.55a2.5,2.5,0,0,1,2.5,2.5v11a3.22,3.22,0,0,1-3.22,3.22H42.92a6.48,6.48,0,0,1-6.48-6.48V34.54a2.92,2.92,0,0,1,2.92-2.92Z"/><path id="_Compound_Path_" data-name="&lt;Compound Path&gt;" class="cls-4" d="M57.87,43.52V37.87A4.13,4.13,0,0,1,62,33.74h4.28a4.56,4.56,0,0,1,4.56,4.56v2a8.13,8.13,0,0,1-8.12,8.12h0A4.85,4.85,0,0,1,57.87,43.52Z"/><path id="_Path_8" data-name="&lt;Path&gt;" class="cls-6" d="M47.35,42.8H44.72s0,3.13,2.31,3.13Z"/><path id="_Path_9" data-name="&lt;Path&gt;" class="cls-7" d="M38.13,37.42c1.5.37,11.45,1.51,12.9,1a4.74,4.74,0,0,0,2.61-2.5,7.48,7.48,0,0,0,.58-3.63c-.13-1.94-1-4.05-2.81-4.78A6.71,6.71,0,0,0,49,27.16c-4.23,0-8.56.35-12.4,2.11a6.68,6.68,0,0,0-3.16,2.54,8.08,8.08,0,0,0-.69,4.09l0,2.75a6.65,6.65,0,0,0,.73,3.65c.69,1.05,2.29,1.6,3.24.77a3.14,3.14,0,0,0,.79-1.61,21.23,21.23,0,0,0,.63-4"/><path id="_Path_10" data-name="&lt;Path&gt;" class="cls-7" d="M60.32,43.23h2.45s.3,2.55-1.66,2.25Z"/><path id="_Path_11" data-name="&lt;Path&gt;" class="cls-8" d="M58.8,38.08a2.24,2.24,0,0,1-1.95-1.2,4.51,4.51,0,0,1-.45-2.35,3.42,3.42,0,0,1,1.11-2.67c1.16-.86,3.07-.47,3.88-1.65A10.41,10.41,0,0,0,62,28.54a2.34,2.34,0,0,1,2.52-1.29c1,.21,1.89,1.12,2.94,1.05a5,5,0,0,0,1.2-.34,5,5,0,0,1,4.1.44A3,3,0,0,1,74.16,30c.34,1-.15,2.18.12,3.23a3.68,3.68,0,0,0,1.51,2,3.18,3.18,0,0,1,1,.86A2.17,2.17,0,0,1,77,37a5.83,5.83,0,0,1-.36,2.74c-.35.88-.93,1.84-.54,2.71.49,1.11,2.26,1.3,2.53,2.49a1.64,1.64,0,0,1-1,1.7c-.54.25-1.32.47-1.29,1.07s1.17.78,1.51,1.41a1.17,1.17,0,0,1,.11.61,2.9,2.9,0,0,1-2.73,2.74,7.38,7.38,0,0,0-1.82,0c-1.89.54-1.65,3.89-3.54,4.44a2.72,2.72,0,0,1-2-.39,2.82,2.82,0,0,1-1.62-1.81,3.54,3.54,0,0,1,1-2.54,3,3,0,0,0,.87-2.56c-.22-.78-1-1.25-1.49-1.89a3.15,3.15,0,0,1-.44-3c.46-1.15,1.6-2.06,1.59-3.29a1.91,1.91,0,0,0-1.26-1.76,1.29,1.29,0,0,0-1.18.11c-.32.22-.47.6-.73.89a1.65,1.65,0,0,1-2.22.13c-.55-.48-.7-1.26-1.15-1.83A2.25,2.25,0,0,0,59,38.16"/></g><path id="_Path_12" data-name="&lt;Path&gt;" class="cls-5" d="M72.15,78.05s-3,4.36-8.33,1l5.48-4.37Z"/><path id="_Path_13" data-name="&lt;Path&gt;" class="cls-9" d="M54.29,60.48A2.67,2.67,0,0,0,50.83,59l-.15.06a2.66,2.66,0,0,0,1.07,5.14l1,2.46,1.8-.7-1-2.46A2.66,2.66,0,0,0,54.29,60.48Z"/><line id="_Path_14" data-name="&lt;Path&gt;" class="cls-10" x1="49.16" y1="62.49" x2="54.29" y2="60.48"/><path id="_Path_15" data-name="&lt;Path&gt;" class="cls-8" d="M41.94,65.19a3.06,3.06,0,0,1,4.37-2.87l0,0A8.15,8.15,0,0,1,50,66.64a24.63,24.63,0,0,1,1.31,5.58H42.14Z"/><g id="_Clip_Group_" data-name="&lt;Clip Group&gt;"><g class="cls-11"><path id="_Path_16" data-name="&lt;Path&gt;" class="cls-12" d="M50.58,62.84h0a.16.16,0,0,1-.16-.16v-.5a.32.32,0,0,0-.31-.32.3.3,0,0,0-.32.31.65.65,0,0,1-.64.65h0a.63.63,0,0,1-.62-.64.32.32,0,0,0-.31-.34.27.27,0,0,0-.22.09.29.29,0,0,0-.1.22.63.63,0,0,1-.64.65h0a.64.64,0,0,1-.63-.64.3.3,0,0,0-.09-.25.29.29,0,0,0-.22-.1.31.31,0,0,0-.31.31.65.65,0,0,1-.19.47.67.67,0,0,1-.46.18h0a.62.62,0,0,1-.62-.64.33.33,0,0,0-.09-.25.31.31,0,0,0-.22-.09.3.3,0,0,0-.32.31.65.65,0,0,1-.64.65h0a.64.64,0,0,1-.63-.64.33.33,0,0,0-.31-.35h0a.31.31,0,0,0-.31.31.62.62,0,0,1-.2.47.64.64,0,0,1-.45.18h0a.6.6,0,0,1-.44-.19.59.59,0,0,1-.18-.45.32.32,0,0,0-.31-.34h0a.31.31,0,0,0-.31.31.65.65,0,0,1-.19.47.71.71,0,0,1-.45.18h0a.64.64,0,0,1-.45-.19.63.63,0,0,1-.18-.45.33.33,0,0,0-.31-.35h0a.33.33,0,0,0-.32.31.63.63,0,0,1-.64.65h0a.6.6,0,0,1-.44-.19.59.59,0,0,1-.18-.45.33.33,0,0,0-.09-.25.31.31,0,0,0-.22-.09h0a.31.31,0,0,0-.22.09.29.29,0,0,0-.09.22.65.65,0,0,1-.19.47.66.66,0,0,1-.45.18.16.16,0,1,1,0-.32h0a.29.29,0,0,0,.21-.09.32.32,0,0,0,.1-.22A.64.64,0,0,1,37,61.56a.67.67,0,0,1,.18.45.33.33,0,0,0,.08.25.32.32,0,0,0,.23.09h0a.27.27,0,0,0,.22-.09.28.28,0,0,0,.09-.22.66.66,0,0,1,.65-.65.63.63,0,0,1,.62.64.33.33,0,0,0,.09.25.32.32,0,0,0,.22.1h.05a.27.27,0,0,0,.21-.09.32.32,0,0,0,.1-.22.64.64,0,1,1,1.27,0,.33.33,0,0,0,.09.25.28.28,0,0,0,.22.09h0a.31.31,0,0,0,.22-.09.28.28,0,0,0,.09-.22.65.65,0,0,1,.64-.65h0a.63.63,0,0,1,.62.64.33.33,0,0,0,.31.35h0a.31.31,0,0,0,.31-.31.64.64,0,0,1,1.09-.46.63.63,0,0,1,.18.45.32.32,0,0,0,.31.34h0a.29.29,0,0,0,.22-.09.29.29,0,0,0,.1-.22.65.65,0,0,1,.19-.47.69.69,0,0,1,.45-.18.6.6,0,0,1,.44.19.59.59,0,0,1,.18.45.33.33,0,0,0,.31.35h0a.39.39,0,0,0,.23-.09.31.31,0,0,0,.09-.22.63.63,0,0,1,.19-.47.64.64,0,0,1,.45-.18.64.64,0,0,1,.63.64.33.33,0,0,0,.09.25.31.31,0,0,0,.22.09h0a.31.31,0,0,0,.32-.31.64.64,0,0,1,.63-.65h0a.64.64,0,0,1,.63.64v.5A.16.16,0,0,1,50.58,62.84Z"/><path id="_Path_17" data-name="&lt;Path&gt;" class="cls-12" d="M58.34,64.36h0a.16.16,0,0,1-.16-.16v-.5a.29.29,0,0,0-.08-.22.32.32,0,0,0-.22-.1.32.32,0,0,0-.23.09.31.31,0,0,0-.09.22.65.65,0,0,1-.64.65h0a.64.64,0,0,1-.45-.19.63.63,0,0,1-.18-.45.32.32,0,0,0-.31-.34.29.29,0,0,0-.22.08.32.32,0,0,0-.1.22.66.66,0,0,1-.19.48.69.69,0,0,1-.45.18h0a.65.65,0,0,1-.45-.2.67.67,0,0,1-.18-.45.31.31,0,1,0-.62,0,.65.65,0,0,1-.64.65h0a.62.62,0,0,1-.62-.64.32.32,0,0,0-.31-.34h0a.31.31,0,0,0-.31.31.65.65,0,0,1-.64.65h0a.65.65,0,0,1-.45-.2.63.63,0,0,1-.18-.45.31.31,0,0,0-.09-.24.29.29,0,0,0-.22-.1.32.32,0,0,0-.31.31.63.63,0,0,1-.65.65h0a.6.6,0,0,1-.44-.19.59.59,0,0,1-.18-.45.33.33,0,0,0-.09-.25.31.31,0,0,0-.22-.09.36.36,0,0,0-.23.08.36.36,0,0,0-.09.23.65.65,0,0,1-.19.47.61.61,0,0,1-.45.18h0a.65.65,0,0,1-.63-.65.31.31,0,0,0-.09-.24.3.3,0,0,0-.22-.1.33.33,0,0,0-.32.31.63.63,0,0,1-.19.47.6.6,0,0,1-.44.18h-.05a.62.62,0,0,1-.62-.64.33.33,0,0,0-.09-.25.31.31,0,0,0-.22-.09h0a.31.31,0,0,0-.31.31.65.65,0,0,1-.19.47.66.66,0,0,1-.45.18.17.17,0,0,1-.16-.17.16.16,0,0,1,.16-.15h0a.29.29,0,0,0,.21-.09.32.32,0,0,0,.1-.22.64.64,0,0,1,1.09-.46.67.67,0,0,1,.18.45.31.31,0,0,0,.31.34h0a.29.29,0,0,0,.22-.09.29.29,0,0,0,.09-.22.65.65,0,0,1,.64-.65h0a.61.61,0,0,1,.44.19.63.63,0,0,1,.18.45.33.33,0,0,0,.31.35h0a.29.29,0,0,0,.22-.09.32.32,0,0,0,.1-.22.63.63,0,0,1,.63-.65h0a.64.64,0,0,1,.45.19.63.63,0,0,1,.18.45.33.33,0,0,0,.09.25.28.28,0,0,0,.22.09h0a.33.33,0,0,0,.32-.31.65.65,0,0,1,.64-.65.6.6,0,0,1,.44.19.59.59,0,0,1,.18.45.33.33,0,0,0,.09.25.37.37,0,0,0,.22.1h0a.31.31,0,0,0,.31-.31.64.64,0,1,1,1.27,0A.32.32,0,0,0,53,64h0a.33.33,0,0,0,.32-.31.65.65,0,0,1,.19-.47A.69.69,0,0,1,54,63a.62.62,0,0,1,.62.64.33.33,0,0,0,.09.25.37.37,0,0,0,.22.1h0a.3.3,0,0,0,.23-.09.31.31,0,0,0,.09-.22.66.66,0,0,1,.19-.48.64.64,0,0,1,1.08.47.33.33,0,0,0,.09.25.31.31,0,0,0,.22.09h0a.3.3,0,0,0,.32-.31.63.63,0,0,1,.64-.65.64.64,0,0,1,.45.19.67.67,0,0,1,.18.45v.5A.16.16,0,0,1,58.34,64.36Z"/><path id="_Path_18" data-name="&lt;Path&gt;" class="cls-12" d="M43.39,64.14h0a.64.64,0,0,1-.63-.64.32.32,0,0,0-.31-.34.33.33,0,0,0-.22.09.35.35,0,0,0-.1.22.64.64,0,0,1-.64.65h0a.62.62,0,0,1-.62-.64.33.33,0,0,0-.31-.35.39.39,0,0,0-.23.09.31.31,0,0,0-.09.22.64.64,0,0,1-.64.66h0a.64.64,0,0,1-.63-.64.33.33,0,0,0-.09-.25.31.31,0,0,0-.44,0,.3.3,0,0,0-.1.22.64.64,0,0,1-.64.65h0a.64.64,0,0,1-.63-.64.32.32,0,0,0-.3-.35.36.36,0,0,0-.23.09.31.31,0,0,0-.09.22.66.66,0,0,1-.19.48.67.67,0,0,1-.45.18h0a.61.61,0,0,1-.44-.19A.63.63,0,0,1,35,63.4a.32.32,0,0,0-.31-.34.29.29,0,0,0-.22.09.3.3,0,0,0-.1.22.64.64,0,0,1-.63.65h-.05a.64.64,0,0,1-.63-.64.32.32,0,0,0-.31-.35.31.31,0,0,0-.31.31.64.64,0,0,1-.65.66h0a.61.61,0,0,1-.44-.19.63.63,0,0,1-.18-.45.32.32,0,0,0-.31-.34.31.31,0,0,0-.32.31.64.64,0,0,1-.63.65h0a.16.16,0,1,1,0-.32h0a.31.31,0,0,0,.31-.31.64.64,0,0,1,.63-.65h0a.64.64,0,0,1,.63.64.33.33,0,0,0,.09.25.29.29,0,0,0,.22.09h0a.32.32,0,0,0,.32-.3.65.65,0,0,1,.64-.66.64.64,0,0,1,.62.65.33.33,0,0,0,.31.34h.05a.31.31,0,0,0,.31-.31.63.63,0,0,1,.64-.65.64.64,0,0,1,.63.64.33.33,0,0,0,.09.25.29.29,0,0,0,.22.09h0a.29.29,0,0,0,.22-.08.32.32,0,0,0,.1-.22.66.66,0,0,1,.19-.48.67.67,0,0,1,.45-.18.65.65,0,0,1,.63.65.31.31,0,0,0,.3.34h0a.31.31,0,0,0,.31-.31.69.69,0,0,1,.19-.47.65.65,0,0,1,.46-.18.63.63,0,0,1,.62.64.32.32,0,0,0,.31.34h.05a.3.3,0,0,0,.31-.3A.66.66,0,0,1,40,63a.67.67,0,0,1,.44-.18h0a.65.65,0,0,1,.63.65.31.31,0,0,0,.31.34h0a.31.31,0,0,0,.31-.31A.64.64,0,0,1,42,63a.59.59,0,0,1,.44-.18h0a.62.62,0,0,1,.62.64.32.32,0,0,0,.31.34h0a.33.33,0,0,0,.22-.08.28.28,0,0,0,.1-.22.66.66,0,0,1,.19-.48.69.69,0,0,1,.45-.18.68.68,0,0,1,.45.19.67.67,0,0,1,.18.46.16.16,0,0,1-.16.15h0a.16.16,0,0,1-.16-.16.31.31,0,0,0-.09-.22.37.37,0,0,0-.22-.1h0a.31.31,0,0,0-.31.31.63.63,0,0,1-.63.65Z"/><path id="_Path_19" data-name="&lt;Path&gt;" class="cls-12" d="M58.34,65.86h0a.17.17,0,0,1-.16-.17v-.5A.3.3,0,0,0,58.1,65a.31.31,0,0,0-.22-.09.32.32,0,0,0-.23.09.28.28,0,0,0-.09.22.65.65,0,0,1-.64.65h0a.68.68,0,0,1-.45-.19.67.67,0,0,1-.18-.46.33.33,0,0,0-.31-.34h0a.33.33,0,0,0-.32.31.63.63,0,0,1-.64.65h0a.64.64,0,0,1-.45-.19.67.67,0,0,1-.18-.45.31.31,0,0,0-.31-.34h0a.31.31,0,0,0-.31.31.65.65,0,0,1-.64.65h0a.63.63,0,0,1-.62-.64.32.32,0,1,0-.63,0,.63.63,0,0,1-.19.47.64.64,0,0,1-.45.18h0a.64.64,0,0,1-.45-.19.63.63,0,0,1-.18-.45.33.33,0,0,0-.09-.25.28.28,0,0,0-.22-.09.31.31,0,0,0-.22.09.28.28,0,0,0-.09.22.66.66,0,0,1-.2.47.61.61,0,0,1-.45.18h0a.63.63,0,0,1-.62-.64.33.33,0,0,0-.09-.25.32.32,0,0,0-.22-.1.32.32,0,0,0-.23.09.36.36,0,0,0-.09.22.63.63,0,0,1-.19.47.61.61,0,0,1-.45.18h0a.64.64,0,0,1-.63-.64.32.32,0,0,0-.31-.34h0a.32.32,0,0,0-.32.31.64.64,0,0,1-.64.65h0a.6.6,0,0,1-.44-.19.62.62,0,0,1-.18-.45.33.33,0,0,0-.31-.35h0A.31.31,0,0,0,44,65a.63.63,0,0,1-.19.47.66.66,0,0,1-.45.18.16.16,0,0,1,0-.32h0a.29.29,0,0,0,.22-.09.29.29,0,0,0,.1-.22.64.64,0,0,1,.63-.65h0A.64.64,0,0,1,45,65a.33.33,0,0,0,.08.25.33.33,0,0,0,.23.1h0a.32.32,0,0,0,.31-.31.64.64,0,0,1,.65-.65.62.62,0,0,1,.62.64.32.32,0,0,0,.31.34h0a.31.31,0,0,0,.22-.09.29.29,0,0,0,.1-.22.65.65,0,0,1,.19-.47.67.67,0,0,1,.44-.18h0a.64.64,0,0,1,.45.19.63.63,0,0,1,.18.45.33.33,0,0,0,.31.35h0a.29.29,0,0,0,.22-.09.37.37,0,0,0,.1-.22.62.62,0,0,1,.19-.47.63.63,0,0,1,.45-.18.6.6,0,0,1,.44.19.59.59,0,0,1,.18.45.33.33,0,0,0,.09.25.31.31,0,0,0,.22.09h0a.33.33,0,0,0,.23-.09.29.29,0,0,0,.09-.22.65.65,0,0,1,.64-.65.64.64,0,0,1,.63.64.33.33,0,0,0,.09.25.3.3,0,0,0,.22.1h0a.33.33,0,0,0,.32-.31.63.63,0,0,1,.63-.65h0a.62.62,0,0,1,.62.64.33.33,0,0,0,.09.25.31.31,0,0,0,.22.09H55a.31.31,0,0,0,.31-.31.64.64,0,1,1,1.27,0,.33.33,0,0,0,.09.25.32.32,0,0,0,.22.1h0a.31.31,0,0,0,.32-.31.62.62,0,0,1,.19-.47.64.64,0,0,1,.45-.18.64.64,0,0,1,.45.19.67.67,0,0,1,.18.45v.5A.16.16,0,0,1,58.34,65.86Z"/><path id="_Path_20" data-name="&lt;Path&gt;" class="cls-12" d="M43.39,65.64h0a.64.64,0,0,1-.63-.64.33.33,0,0,0-.31-.35.4.4,0,0,0-.22.09.37.37,0,0,0-.1.22.65.65,0,0,1-.64.66h0a.64.64,0,0,1-.62-.65.33.33,0,0,0-.09-.25.31.31,0,0,0-.22-.09.36.36,0,0,0-.23.09.31.31,0,0,0-.09.22.65.65,0,0,1-.64.65h0a.64.64,0,0,1-.63-.64.33.33,0,0,0-.09-.25.31.31,0,0,0-.22-.09.35.35,0,0,0-.22.08.32.32,0,0,0-.1.22.65.65,0,0,1-.64.66h0a.65.65,0,0,1-.63-.65.31.31,0,0,0-.3-.34.32.32,0,0,0-.32.31.64.64,0,0,1-.64.65h0a.61.61,0,0,1-.44-.19A.63.63,0,0,1,35,64.9a.32.32,0,0,0-.31-.34.3.3,0,0,0-.32.3.64.64,0,0,1-.63.66h-.05a.65.65,0,0,1-.45-.2.63.63,0,0,1-.18-.45.31.31,0,0,0-.31-.34.3.3,0,0,0-.31.31.66.66,0,0,1-.2.47.63.63,0,0,1-.45.18h0a.61.61,0,0,1-.44-.19.63.63,0,0,1-.18-.45.32.32,0,0,0-.31-.34.35.35,0,0,0-.22.08.32.32,0,0,0-.1.22.66.66,0,0,1-.19.48.71.71,0,0,1-.45.18.17.17,0,0,1-.16-.17.16.16,0,0,1,.16-.15h0a.36.36,0,0,0,.22-.09.31.31,0,0,0,.09-.22.66.66,0,0,1,.19-.48.72.72,0,0,1,.45-.18.65.65,0,0,1,.63.65.33.33,0,0,0,.09.25.29.29,0,0,0,.22.09h0a.29.29,0,0,0,.22-.09.35.35,0,0,0,.1-.22.63.63,0,0,1,.64-.65.62.62,0,0,1,.62.64.33.33,0,0,0,.09.25.37.37,0,0,0,.22.1h0a.32.32,0,0,0,.32-.31.65.65,0,0,1,.64-.66h0a.65.65,0,0,1,.63.65.33.33,0,0,0,.09.25.29.29,0,0,0,.22.09h0a.33.33,0,0,0,.32-.31.65.65,0,0,1,.64-.65.64.64,0,0,1,.63.64.32.32,0,0,0,.3.35h0a.32.32,0,0,0,.31-.31.63.63,0,0,1,.65-.66.64.64,0,0,1,.44.2.63.63,0,0,1,.18.45.32.32,0,0,0,.31.34h0a.31.31,0,0,0,.32-.31.63.63,0,0,1,.64-.65.64.64,0,0,1,.45.19.67.67,0,0,1,.18.45.31.31,0,0,0,.31.34h0a.31.31,0,0,0,.31-.31.66.66,0,0,1,.2-.48.75.75,0,0,1,.45-.18A.64.64,0,0,1,43,65a.32.32,0,0,0,.31.34h0a.27.27,0,0,0,.21-.09.28.28,0,0,0,.1-.22.65.65,0,0,1,.19-.47.62.62,0,0,1,.44-.18h0A.64.64,0,0,1,45,65a.16.16,0,0,1-.16.16h0a.16.16,0,0,1-.16-.16.31.31,0,0,0-.31-.32.31.31,0,0,0-.22.09A.32.32,0,0,0,44,65a.65.65,0,0,1-.19.47A.62.62,0,0,1,43.39,65.64Z"/><path id="_Path_21" data-name="&lt;Path&gt;" class="cls-12" d="M58.34,67.35h0a.16.16,0,0,1-.16-.16v-.5a.3.3,0,0,0-.08-.22.32.32,0,0,0-.22-.1h0a.31.31,0,0,0-.31.31.65.65,0,0,1-.64.65h-.05a.63.63,0,0,1-.62-.64.32.32,0,0,0-.31-.34h0a.33.33,0,0,0-.32.31.65.65,0,0,1-.19.47.61.61,0,0,1-.45.18h0a.64.64,0,0,1-.45-.19.67.67,0,0,1-.18-.45.32.32,0,0,0-.31-.35.31.31,0,0,0-.31.31.65.65,0,0,1-.19.47.62.62,0,0,1-.46.18h0a.62.62,0,0,1-.62-.64.32.32,0,0,0-.31-.34.31.31,0,0,0-.22.09.29.29,0,0,0-.1.22.63.63,0,0,1-.64.65h0a.64.64,0,0,1-.63-.64.33.33,0,0,0-.09-.25.29.29,0,0,0-.22-.1.31.31,0,0,0-.31.31.64.64,0,0,1-.65.65h0a.62.62,0,0,1-.62-.64.33.33,0,0,0-.09-.25.31.31,0,0,0-.22-.09.32.32,0,0,0-.32.31.65.65,0,0,1-.64.65h0a.64.64,0,0,1-.45-.19.63.63,0,0,1-.18-.45.33.33,0,0,0-.31-.35h0a.33.33,0,0,0-.32.31.62.62,0,0,1-.64.65h0a.6.6,0,0,1-.44-.19.59.59,0,0,1-.18-.45.33.33,0,0,0-.09-.25.31.31,0,0,0-.22-.09h0a.31.31,0,0,0-.31.31.65.65,0,0,1-.19.47.67.67,0,0,1-.45.18.16.16,0,0,1,0-.32h0a.29.29,0,0,0,.21-.09.32.32,0,0,0,.1-.22.65.65,0,0,1,.64-.65.64.64,0,0,1,.45.19.67.67,0,0,1,.18.45.33.33,0,0,0,.08.25.32.32,0,0,0,.23.09h0a.31.31,0,0,0,.31-.31.66.66,0,0,1,.65-.65.63.63,0,0,1,.62.64.33.33,0,0,0,.09.25.32.32,0,0,0,.22.1h0a.31.31,0,0,0,.31-.31.62.62,0,0,1,.64-.65.64.64,0,0,1,.45.19.63.63,0,0,1,.18.45.31.31,0,0,0,.31.34h0a.32.32,0,0,0,.32-.31.65.65,0,0,1,.19-.47.63.63,0,0,1,.45-.18.61.61,0,0,1,.44.19.59.59,0,0,1,.18.45.33.33,0,0,0,.31.35h0a.33.33,0,0,0,.23-.09.31.31,0,0,0,.09-.22.63.63,0,0,1,.19-.47.62.62,0,0,1,.44-.18h0a.64.64,0,0,1,.63.64A.32.32,0,0,0,53,67h0a.31.31,0,0,0,.22-.09.29.29,0,0,0,.1-.22A.63.63,0,0,1,54,66a.63.63,0,0,1,.62.64.33.33,0,0,0,.09.25.32.32,0,0,0,.22.1h0a.3.3,0,0,0,.23-.09.31.31,0,0,0,.09-.22.64.64,0,1,1,1.27,0,.33.33,0,0,0,.09.25.31.31,0,0,0,.22.09h0a.31.31,0,0,0,.32-.31.64.64,0,0,1,.63-.65h0a.64.64,0,0,1,.45.19.67.67,0,0,1,.18.45v.5A.16.16,0,0,1,58.34,67.35Z"/><path id="_Path_22" data-name="&lt;Path&gt;" class="cls-12" d="M43.39,67.14h0a.65.65,0,0,1-.63-.65.31.31,0,0,0-.09-.24.3.3,0,0,0-.22-.1h0a.31.31,0,0,0-.22.09.37.37,0,0,0-.1.22.63.63,0,0,1-.64.65h0a.62.62,0,0,1-.62-.64.32.32,0,0,0-.31-.34.32.32,0,0,0-.23.08.31.31,0,0,0-.09.22.65.65,0,0,1-.64.66h0a.65.65,0,0,1-.63-.65.31.31,0,0,0-.09-.24.32.32,0,0,0-.22-.1h0a.29.29,0,0,0-.22.09.32.32,0,0,0-.1.22.64.64,0,0,1-.64.65h0a.64.64,0,0,1-.63-.64.31.31,0,0,0-.3-.34.3.3,0,0,0-.32.31.65.65,0,0,1-.19.47.67.67,0,0,1-.45.18h0a.66.66,0,0,1-.44-.19.67.67,0,0,1-.18-.46.33.33,0,0,0-.31-.34.29.29,0,0,0-.22.09.32.32,0,0,0-.1.22.63.63,0,0,1-.19.47.6.6,0,0,1-.45.18h0a.64.64,0,0,1-.63-.64.31.31,0,0,0-.31-.34.29.29,0,0,0-.22.09.28.28,0,0,0-.09.22.66.66,0,0,1-.2.47.63.63,0,0,1-.44.18h-.05a.64.64,0,0,1-.62-.65.33.33,0,0,0-.31-.34.31.31,0,0,0-.22.09.32.32,0,0,0-.1.22.64.64,0,0,1-.63.65h0a.16.16,0,0,1,0-.32h0a.31.31,0,0,0,.31-.31.65.65,0,0,1,.19-.47.67.67,0,0,1,.45-.18.64.64,0,0,1,.63.64.33.33,0,0,0,.31.35h0a.34.34,0,0,0,.22-.09.37.37,0,0,0,.1-.22.62.62,0,0,1,.19-.47.6.6,0,0,1,.45-.18.62.62,0,0,1,.62.64.32.32,0,0,0,.31.34h0a.31.31,0,0,0,.32-.31.65.65,0,0,1,.19-.47.63.63,0,0,1,.45-.18h0a.64.64,0,0,1,.63.64.33.33,0,0,0,.09.25.35.35,0,0,0,.22.1h0a.29.29,0,0,0,.22-.09.32.32,0,0,0,.1-.22.63.63,0,0,1,.64-.65.64.64,0,0,1,.63.64.31.31,0,0,0,.3.34h0a.31.31,0,0,0,.31-.31.69.69,0,0,1,.19-.47.66.66,0,0,1,.45-.18A.64.64,0,0,1,39,66a.63.63,0,0,1,.18.45.33.33,0,0,0,.31.35h.05a.31.31,0,0,0,.31-.31.63.63,0,0,1,.63-.65h0a.64.64,0,0,1,.63.64.31.31,0,0,0,.31.34h0a.3.3,0,0,0,.31-.31A.66.66,0,0,1,42,66a.63.63,0,0,1,.45-.18.61.61,0,0,1,.44.19.63.63,0,0,1,.18.45.33.33,0,0,0,.31.35h0a.39.39,0,0,0,.23-.09.31.31,0,0,0,.09-.22.63.63,0,0,1,.63-.65h0a.64.64,0,0,1,.45.19.63.63,0,0,1,.18.45.16.16,0,0,1-.16.16h0a.17.17,0,0,1-.16-.17.32.32,0,0,0-.53-.23.32.32,0,0,0-.1.22.66.66,0,0,1-.19.48A.67.67,0,0,1,43.39,67.14Z"/><path id="_Path_23" data-name="&lt;Path&gt;" class="cls-12" d="M50.58,68.75h0a.16.16,0,0,1-.16-.16v-.5a.33.33,0,0,0-.31-.32.3.3,0,0,0-.32.31.65.65,0,0,1-.64.65h0a.63.63,0,0,1-.62-.64.32.32,0,0,0-.31-.34.27.27,0,0,0-.22.09.3.3,0,0,0-.1.22.63.63,0,0,1-.64.65h0a.64.64,0,0,1-.63-.64.3.3,0,0,0-.09-.25.29.29,0,0,0-.22-.1.31.31,0,0,0-.31.31.65.65,0,0,1-.19.47.67.67,0,0,1-.46.18h0a.62.62,0,0,1-.62-.64.33.33,0,0,0-.09-.25.31.31,0,0,0-.22-.09A.3.3,0,0,0,44,68a.64.64,0,0,1-.64.65h0a.64.64,0,0,1-.63-.64.33.33,0,0,0-.31-.35h0a.31.31,0,0,0-.31.31.62.62,0,0,1-.2.47.64.64,0,0,1-.45.18h0a.6.6,0,0,1-.44-.19.59.59,0,0,1-.18-.45.32.32,0,0,0-.31-.34h0a.31.31,0,0,0-.31.31.65.65,0,0,1-.19.47.71.71,0,0,1-.45.18h0a.64.64,0,0,1-.45-.19.63.63,0,0,1-.18-.45.33.33,0,0,0-.31-.35h0a.33.33,0,0,0-.32.31.62.62,0,0,1-.19.47.57.57,0,0,1-.45.18h0a.6.6,0,0,1-.44-.19.59.59,0,0,1-.18-.45.33.33,0,0,0-.09-.25.31.31,0,0,0-.22-.09h0a.31.31,0,0,0-.22.09.29.29,0,0,0-.09.22.65.65,0,0,1-.19.47.66.66,0,0,1-.45.18.16.16,0,1,1,0-.32h0a.29.29,0,0,0,.21-.09.32.32,0,0,0,.1-.22A.64.64,0,0,1,37,67.47a.67.67,0,0,1,.18.45.33.33,0,0,0,.08.25.32.32,0,0,0,.23.09h0a.27.27,0,0,0,.22-.09.28.28,0,0,0,.09-.22.67.67,0,0,1,.65-.65.63.63,0,0,1,.62.64.33.33,0,0,0,.09.25.32.32,0,0,0,.22.1h.05a.27.27,0,0,0,.21-.09.32.32,0,0,0,.1-.22.64.64,0,1,1,1.27,0,.33.33,0,0,0,.09.25.28.28,0,0,0,.22.09h0a.31.31,0,0,0,.22-.09.28.28,0,0,0,.09-.22.65.65,0,0,1,.64-.65h0A.63.63,0,0,1,43,68a.33.33,0,0,0,.31.35h0a.31.31,0,0,0,.31-.31.64.64,0,0,1,1.09-.46.63.63,0,0,1,.18.45.32.32,0,0,0,.31.34h0a.29.29,0,0,0,.22-.09.29.29,0,0,0,.1-.22.65.65,0,0,1,.19-.47.69.69,0,0,1,.45-.18.6.6,0,0,1,.44.19.62.62,0,0,1,.18.45.33.33,0,0,0,.31.35h0a.33.33,0,0,0,.23-.09.31.31,0,0,0,.09-.22.63.63,0,0,1,.19-.47.64.64,0,0,1,.45-.18.64.64,0,0,1,.63.64.33.33,0,0,0,.09.25.31.31,0,0,0,.22.09h0a.31.31,0,0,0,.32-.31.64.64,0,0,1,.63-.65h0a.64.64,0,0,1,.63.64v.5A.16.16,0,0,1,50.58,68.75Z"/><path id="_Path_24" data-name="&lt;Path&gt;" class="cls-12" d="M58.34,70.27h0a.16.16,0,0,1-.16-.16v-.5a.29.29,0,0,0-.08-.22.32.32,0,0,0-.22-.1.32.32,0,0,0-.23.09.31.31,0,0,0-.09.22.65.65,0,0,1-.64.65h0a.64.64,0,0,1-.45-.19.63.63,0,0,1-.18-.45.32.32,0,0,0-.31-.34.33.33,0,0,0-.22.08.33.33,0,0,0-.1.23.63.63,0,0,1-.64.65h0a.65.65,0,0,1-.45-.2.67.67,0,0,1-.18-.45.31.31,0,1,0-.62,0,.65.65,0,0,1-.64.65h0a.62.62,0,0,1-.62-.64.32.32,0,0,0-.31-.34h0a.31.31,0,0,0-.31.31.65.65,0,0,1-.64.65h0a.68.68,0,0,1-.45-.19.67.67,0,0,1-.18-.46.31.31,0,0,0-.09-.24.29.29,0,0,0-.22-.1.32.32,0,0,0-.31.31.63.63,0,0,1-.65.65h0a.6.6,0,0,1-.44-.19.59.59,0,0,1-.18-.45.33.33,0,0,0-.09-.25.31.31,0,0,0-.22-.09.31.31,0,0,0-.32.31.65.65,0,0,1-.19.47.61.61,0,0,1-.45.18h0a.65.65,0,0,1-.63-.65.32.32,0,0,0-.09-.24.3.3,0,0,0-.22-.1.33.33,0,0,0-.32.31.63.63,0,0,1-.19.47.6.6,0,0,1-.44.18h-.05a.62.62,0,0,1-.62-.64.33.33,0,0,0-.09-.25.31.31,0,0,0-.22-.09h0a.31.31,0,0,0-.31.31.65.65,0,0,1-.19.47.66.66,0,0,1-.45.18.16.16,0,0,1-.16-.16.16.16,0,0,1,.16-.16h0a.29.29,0,0,0,.21-.09.32.32,0,0,0,.1-.22A.64.64,0,0,1,44.78,69a.67.67,0,0,1,.18.45.31.31,0,0,0,.31.34h0a.29.29,0,0,0,.22-.09.29.29,0,0,0,.09-.22.65.65,0,0,1,.64-.65h0a.61.61,0,0,1,.44.19.63.63,0,0,1,.18.45.33.33,0,0,0,.31.35h0a.29.29,0,0,0,.22-.09.32.32,0,0,0,.1-.22.63.63,0,0,1,.63-.65h0a.64.64,0,0,1,.45.19.63.63,0,0,1,.18.45.33.33,0,0,0,.09.25.28.28,0,0,0,.22.09h0a.33.33,0,0,0,.32-.31.65.65,0,0,1,.64-.65.6.6,0,0,1,.44.19.59.59,0,0,1,.18.45.33.33,0,0,0,.09.25.37.37,0,0,0,.22.1h0a.31.31,0,0,0,.31-.31.64.64,0,1,1,1.27,0,.32.32,0,0,0,.31.34h0a.33.33,0,0,0,.32-.31.65.65,0,0,1,.19-.47.69.69,0,0,1,.45-.18.63.63,0,0,1,.62.64.33.33,0,0,0,.09.25.37.37,0,0,0,.22.1h0a.3.3,0,0,0,.23-.09.31.31,0,0,0,.09-.22.62.62,0,0,1,.19-.47.6.6,0,0,1,.45-.18.64.64,0,0,1,.63.64.33.33,0,0,0,.09.25.31.31,0,0,0,.22.09h0a.3.3,0,0,0,.32-.31.63.63,0,0,1,.64-.65.64.64,0,0,1,.45.19.67.67,0,0,1,.18.45v.5A.16.16,0,0,1,58.34,70.27Z"/><path id="_Path_25" data-name="&lt;Path&gt;" class="cls-12" d="M43.39,70.06h0a.64.64,0,0,1-.63-.64.32.32,0,0,0-.31-.34.33.33,0,0,0-.22.09.35.35,0,0,0-.1.22.64.64,0,0,1-.64.65h0a.62.62,0,0,1-.62-.64.33.33,0,0,0-.31-.35.39.39,0,0,0-.23.09.31.31,0,0,0-.09.22.64.64,0,0,1-.64.66h0a.64.64,0,0,1-.63-.64.33.33,0,0,0-.09-.25.31.31,0,0,0-.44,0,.32.32,0,0,0-.1.22.64.64,0,0,1-.64.65h0a.64.64,0,0,1-.63-.64.32.32,0,0,0-.3-.35.43.43,0,0,0-.23.09.31.31,0,0,0-.09.22.66.66,0,0,1-.19.48.67.67,0,0,1-.45.18h0a.67.67,0,0,1-.44-.2.63.63,0,0,1-.18-.45.32.32,0,0,0-.31-.34.29.29,0,0,0-.22.09.32.32,0,0,0-.1.22.64.64,0,0,1-.63.65h-.05a.64.64,0,0,1-.63-.64.32.32,0,0,0-.31-.35.31.31,0,0,0-.31.31.64.64,0,0,1-.65.66h0a.65.65,0,0,1-.62-.65.32.32,0,0,0-.31-.34.31.31,0,0,0-.32.31.64.64,0,0,1-.63.65h0a.16.16,0,0,1,0-.32h0a.31.31,0,0,0,.31-.31.64.64,0,0,1,.63-.65h0a.64.64,0,0,1,.63.64.33.33,0,0,0,.09.25.29.29,0,0,0,.22.09h0a.33.33,0,0,0,.32-.31.65.65,0,0,1,.64-.66.64.64,0,0,1,.62.65.32.32,0,0,0,.31.34h.05A.31.31,0,0,0,34,69.3a.63.63,0,0,1,.64-.65.64.64,0,0,1,.63.64.33.33,0,0,0,.09.25.29.29,0,0,0,.22.09h0a.34.34,0,0,0,.22-.09.32.32,0,0,0,.1-.22.66.66,0,0,1,.19-.48.67.67,0,0,1,.45-.18.65.65,0,0,1,.63.65.31.31,0,0,0,.3.34h0a.31.31,0,0,0,.31-.31.69.69,0,0,1,.19-.47.65.65,0,0,1,.46-.18.63.63,0,0,1,.62.64.32.32,0,0,0,.31.34h.05a.3.3,0,0,0,.31-.3A.66.66,0,0,1,40,68.9a.67.67,0,0,1,.44-.18h0a.65.65,0,0,1,.63.65.31.31,0,0,0,.31.34h0a.31.31,0,0,0,.31-.31.66.66,0,0,1,.2-.47.59.59,0,0,1,.44-.18h0a.62.62,0,0,1,.62.64.32.32,0,0,0,.31.34h0a.33.33,0,0,0,.22-.08.28.28,0,0,0,.1-.22.66.66,0,0,1,.19-.48.69.69,0,0,1,.45-.18.65.65,0,0,1,.45.2.63.63,0,0,1,.18.45.16.16,0,0,1-.16.15h0a.16.16,0,0,1-.16-.16.31.31,0,0,0-.09-.22.37.37,0,0,0-.22-.1h0a.31.31,0,0,0-.31.31.66.66,0,0,1-.19.48A.67.67,0,0,1,43.39,70.06Z"/><path id="_Path_26" data-name="&lt;Path&gt;" class="cls-12" d="M58.34,71.77h0a.17.17,0,0,1-.16-.17v-.5a.3.3,0,0,0-.08-.22.31.31,0,0,0-.22-.09.32.32,0,0,0-.23.09.28.28,0,0,0-.09.22.65.65,0,0,1-.64.65h0a.64.64,0,0,1-.45-.19.66.66,0,0,1-.18-.45.33.33,0,0,0-.31-.35h0a.33.33,0,0,0-.32.31.63.63,0,0,1-.64.65h0a.64.64,0,0,1-.45-.19.67.67,0,0,1-.18-.45.31.31,0,0,0-.31-.34h0a.31.31,0,0,0-.31.31.65.65,0,0,1-.64.65h0a.61.61,0,0,1-.44-.19.66.66,0,0,1-.18-.45.32.32,0,1,0-.63,0,.63.63,0,0,1-.19.47.64.64,0,0,1-.45.18h0a.64.64,0,0,1-.45-.19.63.63,0,0,1-.18-.45.33.33,0,0,0-.09-.25.28.28,0,0,0-.22-.09.31.31,0,0,0-.22.09.28.28,0,0,0-.09.22.66.66,0,0,1-.2.47.61.61,0,0,1-.45.18h0a.63.63,0,0,1-.62-.64.33.33,0,0,0-.09-.25.32.32,0,0,0-.22-.1.32.32,0,0,0-.23.09.36.36,0,0,0-.09.22.62.62,0,0,1-.19.47.57.57,0,0,1-.45.18h0a.64.64,0,0,1-.63-.64.32.32,0,0,0-.31-.34h0a.33.33,0,0,0-.32.31.63.63,0,0,1-.64.65h0a.6.6,0,0,1-.44-.19.59.59,0,0,1-.18-.45.33.33,0,0,0-.31-.35h0a.31.31,0,0,0-.31.31.62.62,0,0,1-.19.47.66.66,0,0,1-.45.18.16.16,0,0,1,0-.32h0a.29.29,0,0,0,.22-.09.29.29,0,0,0,.1-.22.64.64,0,0,1,.63-.65h0a.64.64,0,0,1,.63.64.33.33,0,0,0,.08.25.33.33,0,0,0,.23.1h0a.32.32,0,0,0,.31-.31.64.64,0,0,1,.65-.65.62.62,0,0,1,.62.64.32.32,0,0,0,.31.34h0a.31.31,0,0,0,.22-.09.29.29,0,0,0,.1-.22.65.65,0,0,1,.19-.47.67.67,0,0,1,.44-.18h0a.64.64,0,0,1,.45.19.63.63,0,0,1,.18.45.33.33,0,0,0,.31.35h0a.29.29,0,0,0,.22-.09.37.37,0,0,0,.1-.22.62.62,0,0,1,.19-.47.63.63,0,0,1,.45-.18.6.6,0,0,1,.44.19.59.59,0,0,1,.18.45.33.33,0,0,0,.09.25.31.31,0,0,0,.22.09h0a.33.33,0,0,0,.23-.09.28.28,0,0,0,.09-.22.65.65,0,0,1,.64-.65.64.64,0,0,1,.63.64.33.33,0,0,0,.09.25.3.3,0,0,0,.22.1h0a.33.33,0,0,0,.32-.31.63.63,0,0,1,.63-.65h0a.62.62,0,0,1,.62.64.33.33,0,0,0,.09.25.31.31,0,0,0,.22.09H55a.31.31,0,0,0,.31-.31.64.64,0,1,1,1.27,0,.33.33,0,0,0,.09.25.32.32,0,0,0,.22.1h0a.31.31,0,0,0,.32-.31.62.62,0,0,1,.19-.47.64.64,0,0,1,.45-.18.64.64,0,0,1,.45.19.67.67,0,0,1,.18.45v.5A.16.16,0,0,1,58.34,71.77Z"/><path id="_Path_27" data-name="&lt;Path&gt;" class="cls-12" d="M43.39,71.55h0a.64.64,0,0,1-.63-.64.32.32,0,0,0-.31-.34.33.33,0,0,0-.22.08.37.37,0,0,0-.1.22.65.65,0,0,1-.64.66h0a.64.64,0,0,1-.62-.65.33.33,0,0,0-.09-.25.31.31,0,0,0-.22-.09.36.36,0,0,0-.23.09.31.31,0,0,0-.09.22.65.65,0,0,1-.64.65h0a.64.64,0,0,1-.63-.64.33.33,0,0,0-.09-.25.31.31,0,0,0-.22-.09.35.35,0,0,0-.22.08.32.32,0,0,0-.1.22.65.65,0,0,1-.64.66h0a.65.65,0,0,1-.63-.65.31.31,0,0,0-.3-.34.32.32,0,0,0-.32.31.63.63,0,0,1-.64.65h0a.61.61,0,0,1-.44-.19.63.63,0,0,1-.18-.45.32.32,0,0,0-.31-.34.3.3,0,0,0-.32.3.64.64,0,0,1-.63.66h-.05a.65.65,0,0,1-.45-.2.63.63,0,0,1-.18-.45.31.31,0,0,0-.31-.34.3.3,0,0,0-.31.31.64.64,0,0,1-.2.47.63.63,0,0,1-.45.18h0a.61.61,0,0,1-.44-.19.63.63,0,0,1-.18-.45.32.32,0,0,0-.31-.34.35.35,0,0,0-.22.08.33.33,0,0,0-.1.23.65.65,0,0,1-.19.47.66.66,0,0,1-.45.18.17.17,0,0,1-.16-.17.16.16,0,0,1,.16-.15h0a.36.36,0,0,0,.22-.09.31.31,0,0,0,.09-.22.62.62,0,0,1,.19-.47.63.63,0,0,1,.45-.18.64.64,0,0,1,.63.64.33.33,0,0,0,.09.25.29.29,0,0,0,.22.09h0A.29.29,0,0,0,32,71a.35.35,0,0,0,.1-.22.63.63,0,0,1,.64-.65.62.62,0,0,1,.62.64.33.33,0,0,0,.09.25.37.37,0,0,0,.22.1h0A.32.32,0,0,0,34,70.8a.65.65,0,0,1,.64-.66h0a.65.65,0,0,1,.63.65.33.33,0,0,0,.09.25.29.29,0,0,0,.22.09h0a.33.33,0,0,0,.32-.31.65.65,0,0,1,.64-.65.64.64,0,0,1,.63.64.32.32,0,0,0,.3.35h0a.32.32,0,0,0,.31-.31.63.63,0,0,1,.65-.66.69.69,0,0,1,.44.2.63.63,0,0,1,.18.45.32.32,0,0,0,.31.34h0a.31.31,0,0,0,.32-.31.63.63,0,0,1,.64-.65.64.64,0,0,1,.45.19.67.67,0,0,1,.18.45.32.32,0,0,0,.31.35h0a.31.31,0,0,0,.31-.31.66.66,0,0,1,.2-.48.75.75,0,0,1,.45-.18.64.64,0,0,1,.62.65.32.32,0,0,0,.31.34h0a.33.33,0,0,0,.31-.31.65.65,0,0,1,.19-.47.62.62,0,0,1,.44-.18h0a.64.64,0,0,1,.63.64.16.16,0,0,1-.16.16h0a.16.16,0,0,1-.16-.16.31.31,0,0,0-.31-.32.31.31,0,0,0-.22.09.32.32,0,0,0-.1.22.65.65,0,0,1-.19.47A.62.62,0,0,1,43.39,71.55Z"/><path id="_Path_28" data-name="&lt;Path&gt;" class="cls-12" d="M58.34,73.26h0a.16.16,0,0,1-.16-.16v-.5a.3.3,0,0,0-.08-.22.32.32,0,0,0-.22-.1h0a.31.31,0,0,0-.31.31.65.65,0,0,1-.64.65h-.05a.63.63,0,0,1-.62-.64.32.32,0,0,0-.31-.34h0a.33.33,0,0,0-.32.31.65.65,0,0,1-.19.47.61.61,0,0,1-.45.18h0a.64.64,0,0,1-.45-.19.67.67,0,0,1-.18-.45.32.32,0,0,0-.31-.35.31.31,0,0,0-.31.31.65.65,0,0,1-.19.47.62.62,0,0,1-.46.18h0a.62.62,0,0,1-.62-.64.32.32,0,0,0-.31-.34.31.31,0,0,0-.22.09.3.3,0,0,0-.1.22.63.63,0,0,1-.64.65h0a.64.64,0,0,1-.63-.64.33.33,0,0,0-.09-.25.29.29,0,0,0-.22-.1.31.31,0,0,0-.31.31.64.64,0,0,1-.65.65h0a.62.62,0,0,1-.62-.64.33.33,0,0,0-.09-.25.31.31,0,0,0-.22-.09.32.32,0,0,0-.32.31.65.65,0,0,1-.64.65h0a.64.64,0,0,1-.45-.19.63.63,0,0,1-.18-.45.33.33,0,0,0-.31-.35h0a.33.33,0,0,0-.32.31.62.62,0,0,1-.64.65h0a.6.6,0,0,1-.44-.19.59.59,0,0,1-.18-.45.33.33,0,0,0-.09-.25.31.31,0,0,0-.22-.09h0a.31.31,0,0,0-.31.31.65.65,0,0,1-.19.47.63.63,0,0,1-.45.18.16.16,0,0,1,0-.32h0a.29.29,0,0,0,.21-.09.32.32,0,0,0,.1-.22.65.65,0,0,1,.64-.65.64.64,0,0,1,.45.19.67.67,0,0,1,.18.45.33.33,0,0,0,.08.25.32.32,0,0,0,.23.09h0a.31.31,0,0,0,.31-.31.66.66,0,0,1,.65-.65.63.63,0,0,1,.62.64.33.33,0,0,0,.09.25.32.32,0,0,0,.22.1h0a.31.31,0,0,0,.31-.31.62.62,0,0,1,.64-.65.64.64,0,0,1,.45.19.63.63,0,0,1,.18.45.31.31,0,0,0,.31.34h0a.32.32,0,0,0,.32-.31.65.65,0,0,1,.19-.47.63.63,0,0,1,.45-.18.63.63,0,0,1,.62.64.33.33,0,0,0,.31.35h0a.33.33,0,0,0,.23-.09.31.31,0,0,0,.09-.22.63.63,0,0,1,.19-.47.62.62,0,0,1,.44-.18h0a.64.64,0,0,1,.63.64.32.32,0,0,0,.31.34h0a.31.31,0,0,0,.22-.09.29.29,0,0,0,.1-.22.63.63,0,0,1,.64-.65.63.63,0,0,1,.62.64.33.33,0,0,0,.09.25.32.32,0,0,0,.22.1h0a.3.3,0,0,0,.23-.09.31.31,0,0,0,.09-.22.64.64,0,1,1,1.27,0,.33.33,0,0,0,.09.25.31.31,0,0,0,.22.09h0a.31.31,0,0,0,.32-.31.64.64,0,0,1,.63-.65h0a.64.64,0,0,1,.45.19.69.69,0,0,1,.18.45v.5A.16.16,0,0,1,58.34,73.26Z"/><path id="_Path_29" data-name="&lt;Path&gt;" class="cls-12" d="M43.39,73.05h0a.65.65,0,0,1-.63-.65.31.31,0,0,0-.09-.24.3.3,0,0,0-.22-.1h0a.31.31,0,0,0-.22.09.37.37,0,0,0-.1.22.63.63,0,0,1-.64.65h0a.62.62,0,0,1-.62-.64.32.32,0,0,0-.31-.34.29.29,0,0,0-.23.09.28.28,0,0,0-.09.22.65.65,0,0,1-.64.65h0a.65.65,0,0,1-.63-.65.31.31,0,0,0-.09-.24.32.32,0,0,0-.22-.1h0a.29.29,0,0,0-.22.09.32.32,0,0,0-.1.22.64.64,0,0,1-.64.65h0a.64.64,0,0,1-.63-.64.31.31,0,0,0-.3-.34.3.3,0,0,0-.32.31.65.65,0,0,1-.19.47.67.67,0,0,1-.45.18h0a.66.66,0,0,1-.44-.19A.67.67,0,0,1,35,72.3a.33.33,0,0,0-.31-.34.29.29,0,0,0-.22.09.32.32,0,0,0-.1.22.63.63,0,0,1-.19.47.6.6,0,0,1-.45.18h0a.64.64,0,0,1-.63-.64.31.31,0,0,0-.31-.34.29.29,0,0,0-.22.09.28.28,0,0,0-.09.22.66.66,0,0,1-.2.47.63.63,0,0,1-.44.18h-.05a.63.63,0,0,1-.62-.64.33.33,0,0,0-.31-.35.31.31,0,0,0-.22.09.32.32,0,0,0-.1.22.64.64,0,0,1-.63.65h0a.16.16,0,1,1,0-.32h0a.31.31,0,0,0,.31-.31.65.65,0,0,1,.19-.47.67.67,0,0,1,.45-.18.64.64,0,0,1,.63.64.33.33,0,0,0,.31.35h0a.29.29,0,0,0,.22-.09.37.37,0,0,0,.1-.22.62.62,0,0,1,.19-.47.64.64,0,0,1,.45-.18.62.62,0,0,1,.62.64.32.32,0,0,0,.31.34h0a.31.31,0,0,0,.32-.31.65.65,0,0,1,.19-.47.63.63,0,0,1,.45-.18h0a.64.64,0,0,1,.63.64.33.33,0,0,0,.09.25.3.3,0,0,0,.22.1h0a.29.29,0,0,0,.22-.09.32.32,0,0,0,.1-.22.63.63,0,0,1,.64-.65.64.64,0,0,1,.63.64.31.31,0,0,0,.3.34h0a.31.31,0,0,0,.31-.31.69.69,0,0,1,.19-.47.66.66,0,0,1,.45-.18.64.64,0,0,1,.45.19.63.63,0,0,1,.18.45.33.33,0,0,0,.31.35h.05a.31.31,0,0,0,.31-.31.63.63,0,0,1,.63-.65h0a.64.64,0,0,1,.63.64.31.31,0,0,0,.31.34h0a.3.3,0,0,0,.31-.31.66.66,0,0,1,.2-.47.63.63,0,0,1,.45-.18.61.61,0,0,1,.44.19.63.63,0,0,1,.18.45.33.33,0,0,0,.31.35h0a.39.39,0,0,0,.23-.09.31.31,0,0,0,.09-.22.63.63,0,0,1,.63-.65h0a.64.64,0,0,1,.45.19.63.63,0,0,1,.18.45.16.16,0,0,1-.16.16h0a.17.17,0,0,1-.16-.17.31.31,0,0,0-.31-.31.28.28,0,0,0-.22.09.29.29,0,0,0-.1.22.65.65,0,0,1-.19.47A.67.67,0,0,1,43.39,73.05Z"/></g></g><polyline id="_Path_30" data-name="&lt;Path&gt;" class="cls-3" points="57.52 65.35 59.47 62 63.82 65.35"/><path id="_Path_31" data-name="&lt;Path&gt;" class="cls-8" d="M33.49,76.24h0a.72.72,0,0,1,.73-.72.73.73,0,0,1,.7.73.27.27,0,0,0,.27.31h0a.27.27,0,0,0,.21-.07.32.32,0,0,0,.08-.2.78.78,0,0,1,.22-.53.69.69,0,0,1,.51-.19.68.68,0,0,1,.5.22.73.73,0,0,1,.2.51.26.26,0,0,0,.08.22.25.25,0,0,0,.19.09.29.29,0,0,0,.33-.27.72.72,0,1,1,1.43,0,.3.3,0,0,0,.27.32h0a.32.32,0,0,0,.2-.08.27.27,0,0,0,.08-.19.78.78,0,0,1,.22-.53.74.74,0,0,1,.51-.2.77.77,0,0,1,.5.22.74.74,0,0,1,.2.51.28.28,0,0,0,.08.23.34.34,0,0,0,.19.09h0a.28.28,0,0,0,.28-.28.72.72,0,1,1,1.43,0,.28.28,0,0,0,.27.31h0a.32.32,0,0,0,.2-.08.28.28,0,0,0,.08-.2.72.72,0,0,1,.23-.52.63.63,0,0,1,.5-.2.67.67,0,0,1,.5.22.7.7,0,0,1,.2.51.22.22,0,0,1-.43,0,.28.28,0,0,0-.08-.2.25.25,0,0,0-.2-.09.32.32,0,0,0-.2.08.27.27,0,0,0-.08.19.78.78,0,0,1-.22.53.74.74,0,0,1-.51.2H43.3a.72.72,0,0,1-.69-.73.3.3,0,0,0-.28-.32.28.28,0,0,0-.28.28.72.72,0,0,1-.73.72.77.77,0,0,1-.55-.22.74.74,0,0,1-.19-.51.32.32,0,0,0-.08-.23.34.34,0,0,0-.2-.09.32.32,0,0,0-.2.08.28.28,0,0,0-.08.2.72.72,0,0,1-.23.52.63.63,0,0,1-.5.2h0a.71.71,0,0,1-.69-.73.29.29,0,0,0-.28-.31.27.27,0,0,0-.28.27.72.72,0,0,1-.73.72h0a.68.68,0,0,1-.5-.22.69.69,0,0,1-.19-.51.34.34,0,0,0-.08-.23.28.28,0,0,0-.2-.08.27.27,0,0,0-.28.27.75.75,0,0,1-.23.53.71.71,0,0,1-.51.2h0a.7.7,0,0,1-.69-.71s0,0,0,0a.29.29,0,1,0-.57,0,.23.23,0,0,1-.22.23A.21.21,0,0,1,33.49,76.24Z"/><rect id="_Rectangle_2" data-name="&lt;Rectangle&gt;" class="cls-10" x="28.22" y="77.68" width="27.44" height="5.09" rx="1.31" ry="1.31"/><path id="_Path_32" data-name="&lt;Path&gt;" class="cls-2" d="M42.45,70.76V66.57a1,1,0,0,1,1-1h22a1,1,0,0,1,1,1V83.08H42.45Z"/><g id="_Group_2" data-name="&lt;Group&gt;"><path id="_Path_33" data-name="&lt;Path&gt;" class="cls-6" d="M54.11,77.2a4.64,4.64,0,0,1-4.76-4.26.65.65,0,0,1,.59-.71.65.65,0,0,1,.71.59,3.39,3.39,0,0,0,3.46,3.07,3.67,3.67,0,0,0,3.73-3.07.65.65,0,1,1,1.29.21A5,5,0,0,1,54.11,77.2Z"/></g><path id="_Path_34" data-name="&lt;Path&gt;" class="cls-8" d="M49,81.45h0a.72.72,0,0,1,.73-.72.74.74,0,0,1,.7.73.28.28,0,0,0,.27.31h0a.24.24,0,0,0,.2-.08A.25.25,0,0,0,51,81.5a.71.71,0,0,1,1.23-.5.72.72,0,0,1,.2.5.3.3,0,0,0,.07.23.28.28,0,0,0,.2.09.29.29,0,0,0,.33-.27.73.73,0,0,1,.73-.73.72.72,0,0,1,.7.73.3.3,0,0,0,.27.32h0a.32.32,0,0,0,.21-.08.28.28,0,0,0,.08-.2.78.78,0,0,1,.22-.52.74.74,0,0,1,.51-.2.72.72,0,0,1,.5.22.74.74,0,0,1,.2.51.3.3,0,0,0,.08.23.27.27,0,0,0,.19.08h0a.28.28,0,0,0,.28-.28.72.72,0,1,1,1.43,0,.28.28,0,0,0,.27.31h.05a.26.26,0,0,0,.2-.07.32.32,0,0,0,.08-.2.75.75,0,0,1,.23-.53.66.66,0,0,1,.5-.19.68.68,0,0,1,.5.22.7.7,0,0,1,.2.51.21.21,0,0,1-.22.21.22.22,0,0,1-.21-.22.28.28,0,0,0-.08-.2.25.25,0,0,0-.2-.09.27.27,0,0,0-.28.27.78.78,0,0,1-.22.53.74.74,0,0,1-.51.2h-.05a.7.7,0,0,1-.69-.72.29.29,0,0,0-.28-.32.28.28,0,0,0-.28.27.73.73,0,0,1-.73.73.79.79,0,0,1-.55-.22.75.75,0,0,1-.19-.51.3.3,0,0,0-.08-.23.29.29,0,0,0-.2-.09.32.32,0,0,0-.2.08.28.28,0,0,0-.08.2.74.74,0,0,1-.23.52.7.7,0,0,1-.5.2h-.05a.71.71,0,0,1-.69-.73.31.31,0,0,0-.28-.32.29.29,0,0,0-.29.28.71.71,0,0,1-.73.72h0a.68.68,0,0,1-.5-.22.69.69,0,0,1-.19-.51.32.32,0,0,0-.08-.23.28.28,0,0,0-.2-.08.26.26,0,0,0-.2.07.4.4,0,0,0-.09.2.7.7,0,0,1-.22.53.69.69,0,0,1-.51.19h0a.71.71,0,0,1-.7-.71v0a.28.28,0,0,0-.27-.3.29.29,0,0,0-.29.27.23.23,0,0,1-.22.23A.22.22,0,0,1,49,81.45Z"/><path id="_Path_35" data-name="&lt;Path&gt;" class="cls-8" d="M37,69.8a.72.72,0,0,0,.93-.4.68.68,0,0,0,0-.54.69.69,0,0,0-.41-.39.33.33,0,0,1-.16-.15.28.28,0,0,1,0-.22l0,0a.29.29,0,0,1,.39-.15.71.71,0,0,0,.92-.39.72.72,0,0,0-.42-.94.3.3,0,0,1-.16-.37l0,0a.28.28,0,0,1,.15-.15.29.29,0,0,1,.24,0,.75.75,0,0,0,.55,0,.7.7,0,0,0,.3-.27L39,65.52a.23.23,0,0,1-.12.1.28.28,0,0,1-.24,0,.72.72,0,0,0-.54,0,.77.77,0,0,0-.4.43.73.73,0,0,0,.43.94.28.28,0,1,1-.24.51.71.71,0,0,0-.92.4l0,0a.7.7,0,0,0,0,.55.72.72,0,0,0,.41.39.26.26,0,0,1,.16.15.26.26,0,0,1,0,.21.29.29,0,0,1-.15.16.28.28,0,0,1-.22,0,.22.22,0,1,0-.16.4Z"/><path id="_Path_36" data-name="&lt;Path&gt;" class="cls-8" d="M63.46,72.19a.72.72,0,0,0,.33-.43.73.73,0,0,0-.06-.54.7.7,0,0,0-.44-.33.67.67,0,0,0-.56.08.31.31,0,0,1-.21,0,.23.23,0,0,1-.17-.13l0,0a.28.28,0,0,1,.12-.39.72.72,0,0,0,.27-1,.71.71,0,0,0-1-.25.29.29,0,0,1-.39-.1l0,0a.28.28,0,0,1,0-.22.33.33,0,0,1,.16-.18.75.75,0,0,0,.33-.43.61.61,0,0,0,0-.4l-.4.14a.26.26,0,0,1,0,.15.27.27,0,0,1-.16.18.75.75,0,0,0-.33.43.73.73,0,0,0,.09.58.71.71,0,0,0,1,.25.29.29,0,0,1,.39.11.29.29,0,0,1-.13.39A.72.72,0,0,0,62,71l0,0a.71.71,0,0,0,1,.26.26.26,0,0,1,.21,0,.31.31,0,0,1,.17.13.28.28,0,0,1,0,.22.29.29,0,0,1-.14.17.21.21,0,0,0-.08.29A.22.22,0,0,0,63.46,72.19Z"/><line id="_Path_37" data-name="&lt;Path&gt;" class="cls-13" x1="29.48" y1="79.4" x2="40.41" y2="79.4"/><line id="_Path_38" data-name="&lt;Path&gt;" class="cls-13" x1="50.11" y1="61.01" x2="52.28" y2="60.1"/><line id="_Path_39" data-name="&lt;Path&gt;" class="cls-13" x1="59.79" y1="64.93" x2="59.97" y2="64.14"/><g id="_Group_3" data-name="&lt;Group&gt;"><line id="_Path_40" data-name="&lt;Path&gt;" class="cls-14" x1="6.06" y1="83.46" x2="83.31" y2="83.46"/><line id="_Path_41" data-name="&lt;Path&gt;" class="cls-15" x1="86.56" y1="83.46" x2="97.19" y2="83.46"/><line id="_Path_42" data-name="&lt;Path&gt;" class="cls-16" x1="101.19" y1="83.46" x2="103.94" y2="83.46"/></g></svg>