<svg id="Layer_1" data-name="Layer 1" xmlns="http://www.w3.org/2000/svg" xmlns:xlink="http://www.w3.org/1999/xlink" viewBox="0 0 110 110"><defs><style>.cls-1{fill:#eef7ff;}.cls-1,.cls-10,.cls-13,.cls-3,.cls-4,.cls-5,.cls-6,.cls-7,.cls-8,.cls-9{stroke:#292836;stroke-linecap:round;stroke-linejoin:round;}.cls-2{fill:#292836;}.cls-14,.cls-3{fill:#c1cdd9;}.cls-4,.cls-9{fill:#f8ea47;}.cls-5{fill:url(#linear-gradient);}.cls-6{fill:#e2d242;}.cls-10,.cls-11,.cls-7{fill:#fff;}.cls-8{fill:none;}.cls-10,.cls-13,.cls-8,.cls-9{stroke-width:0.5px;}.cls-12{fill:#00a7b5;}.cls-13{fill:#a9eae1;}</style><linearGradient id="linear-gradient" x1="1.83" y1="92.13" x2="108.33" y2="92.13" gradientUnits="userSpaceOnUse"><stop offset="0" stop-color="#494856"/><stop offset="1" stop-color="#292836"/></linearGradient></defs><title>Artboard 2 copy 2</title><g id="_Group_" data-name="&lt;Group&gt;"><rect id="_Rectangle_" data-name="&lt;Rectangle&gt;" class="cls-1" x="56.75" y="36.51" width="12.53" height="18.31" rx="6.27" ry="6.27"/><rect id="_Rectangle_2" data-name="&lt;Rectangle&gt;" class="cls-1" x="58.74" y="43.29" width="13.16" height="3.65" rx="1.83" ry="1.83" transform="translate(23.85 -22.57) rotate(23.87)"/><path id="_Path_" data-name="&lt;Path&gt;" class="cls-1" d="M68.21,44.9l-1.79-5.48a1.84,1.84,0,0,1,1.17-2.3h0a1.83,1.83,0,0,1,2.3,1.17l3,9a1.85,1.85,0,0,1-1.17,2.31h0"/><g id="_Group_2" data-name="&lt;Group&gt;"><rect id="_Rectangle_3" data-name="&lt;Rectangle&gt;" class="cls-2" x="55.13" y="20.49" width="14.16" height="14.4" rx="7.08" ry="7.08"/><rect id="_Rectangle_4" data-name="&lt;Rectangle&gt;" class="cls-3" x="58.08" y="27.52" width="8.25" height="9.85" rx="4.12" ry="4.12"/><path id="_Path_2" data-name="&lt;Path&gt;" class="cls-2" d="M58.33,29.58a11.24,11.24,0,0,0,4,1.22c1.61,0,4-1.88,4-1.88l-3.15-2.18H60.33"/></g><path id="_Path_3" data-name="&lt;Path&gt;" class="cls-3" d="M75.43,38.8h0a2.33,2.33,0,0,1,1.38,3.25L70.46,54.82,65.91,53,72.66,40A2.33,2.33,0,0,1,75.43,38.8Z"/><path id="_Rectangle_5" data-name="&lt;Rectangle&gt;" class="cls-1" d="M84.08,34.44h0a8.12,8.12,0,0,1,8.12,8.12V61.23a5.26,5.26,0,0,1-5.26,5.26H81.22A5.26,5.26,0,0,1,76,61.23V42.56a8.12,8.12,0,0,1,8.12-8.12Z" transform="matrix(0.98, -0.2, 0.2, 0.98, -8.28, 17.51)"/><path id="_Path_4" data-name="&lt;Path&gt;" class="cls-4" d="M92.05,52.46l.34-.27,2.34,8.28a2.71,2.71,0,0,1-1.54,3.23h0l-.75,7.93L79,70.88l-1-9.75.11-3.83C82.71,57,88.55,55.37,92.05,52.46Z"/><g id="_Group_3" data-name="&lt;Group&gt;"><line id="_Path_5" data-name="&lt;Path&gt;" class="cls-5" x1="1.83" y1="92.13" x2="108.33" y2="92.13"/></g><path id="_Path_6" data-name="&lt;Path&gt;" class="cls-6" d="M88.23,69.63H76.42V55.13a4,4,0,0,0-4-4H17.25l-4,41H92.92V74.32A4.69,4.69,0,0,0,88.23,69.63Z"/><line id="_Path_7" data-name="&lt;Path&gt;" class="cls-4" x1="37.75" y1="76.46" x2="92.92" y2="76.46"/><g id="_Group_4" data-name="&lt;Group&gt;"><path id="_Path_8" data-name="&lt;Path&gt;" class="cls-4" d="M46,49.91a1.89,1.89,0,0,0-3.77,0v2.8H46Z"/><path id="_Path_9" data-name="&lt;Path&gt;" class="cls-7" d="M42.24,52.71v9.87a1.89,1.89,0,0,0,3.77,0V52.71Z"/></g><polyline id="_Path_10" data-name="&lt;Path&gt;" class="cls-7" points="46.01 62.58 52.1 68.67 47.38 68.67 41.39 62.69"/><line id="_Path_11" data-name="&lt;Path&gt;" class="cls-4" x1="37.75" y1="88.88" x2="92.92" y2="88.88"/><path id="_Path_12" data-name="&lt;Path&gt;" class="cls-4" d="M29.13,69.63V55a7.63,7.63,0,0,1,7.62-7.63h0A7.64,7.64,0,0,1,44.38,55V69h9.89a4.87,4.87,0,0,1,4.86,4.86V92.13H45.25V76.46H29.13Z"/><path id="_Path_13" data-name="&lt;Path&gt;" class="cls-8" d="M35.81,60.14a2.83,2.83,0,0,0,2.83-2.84h0a2.83,2.83,0,0,0-2.83-2.83"/><path id="_Path_14" data-name="&lt;Path&gt;" class="cls-9" d="M41.89,60.14a2.84,2.84,0,0,0,2.84-2.84h0a2.84,2.84,0,0,0-2.84-2.83"/><path id="_Path_15" data-name="&lt;Path&gt;" class="cls-4" d="M13.25,92.13v-37a4,4,0,0,1,4-4h0a4,4,0,0,1,4,4v14.5H33.06a4.69,4.69,0,0,1,4.69,4.69V92.13Z"/><g id="_Group_5" data-name="&lt;Group&gt;"><path id="_Path_16" data-name="&lt;Path&gt;" class="cls-1" d="M54.15,92.13s0-.11,0-.17a2.43,2.43,0,0,0-2.42-2.41H50.58A2.42,2.42,0,0,0,48.17,92c0,.06,0,.12,0,.17Z"/><path id="_Path_17" data-name="&lt;Path&gt;" class="cls-1" d="M62.11,92.13s0-.11,0-.17a2.43,2.43,0,0,0-2.42-2.41H58.54A2.42,2.42,0,0,0,56.13,92c0,.06,0,.12,0,.17Z"/></g><line id="_Path_18" data-name="&lt;Path&gt;" class="cls-8" x1="29.13" y1="64.88" x2="44.13" y2="64.88"/><path id="_Path_19" data-name="&lt;Path&gt;" class="cls-8" d="M39.58,69.19H50.63a3,3,0,0,1,2.95,3v5.63"/><g id="_Group_6" data-name="&lt;Group&gt;"><path id="_Path_20" data-name="&lt;Path&gt;" class="cls-2" d="M45.19,40l-1.06,4.43A2.1,2.1,0,0,1,41.6,46h0a2.09,2.09,0,0,1-1.55-2.53l1.42-5.9"/><rect id="_Rectangle_6" data-name="&lt;Rectangle&gt;" class="cls-7" x="34.79" y="33.99" width="8.86" height="12.61" rx="3.67" ry="3.67" transform="translate(67.94 88.64) rotate(-166.5)"/><path id="_Path_21" data-name="&lt;Path&gt;" class="cls-3" d="M45.19,40,37,38l-1.12,4.7A2.32,2.32,0,0,1,33,44.44h0a2.32,2.32,0,0,1-1.71-2.8l1-4A6.26,6.26,0,0,1,39.85,33l1.86.45a4.91,4.91,0,0,1,3.63,5.92Z"/></g><rect id="_Rectangle_7" data-name="&lt;Rectangle&gt;" class="cls-7" x="35.24" y="44.04" width="6.26" height="10.42" rx="2.69" ry="2.69"/><line id="_Path_22" data-name="&lt;Path&gt;" class="cls-8" x1="29.13" y1="65.94" x2="39.19" y2="65.94"/><g id="_Group_7" data-name="&lt;Group&gt;"><path id="_Path_23" data-name="&lt;Path&gt;" class="cls-4" d="M31.71,49.27a1.89,1.89,0,1,0-3.77,0v2.8h3.77Z"/><path id="_Path_24" data-name="&lt;Path&gt;" class="cls-7" d="M27.94,52.07v9.86a1.89,1.89,0,1,0,3.77,0V52.07Z"/></g><path id="_Path_25" data-name="&lt;Path&gt;" class="cls-7" d="M29.34,58.66l6.29-12.47a2,2,0,0,1,2.64-.86h0A2,2,0,0,1,39.14,48L31.65,62.74a2,2,0,0,1-2.64.87h0A2,2,0,0,1,28.15,61"/><path id="_Path_26" data-name="&lt;Path&gt;" class="cls-10" d="M40.29,47.81v3.1a2.2,2.2,0,0,1-2.2,2.19h0"/><line id="_Path_27" data-name="&lt;Path&gt;" class="cls-8" x1="81.08" y1="55.8" x2="78.77" y2="40.3"/><g id="_Group_8" data-name="&lt;Group&gt;"><polygon id="_Path_28" data-name="&lt;Path&gt;" class="cls-3" points="61.33 66.88 61.33 62.88 79.77 62.88 79.77 76.3 61.33 76.3 61.33 66.88"/><rect id="_Rectangle_8" data-name="&lt;Rectangle&gt;" class="cls-1" x="60.1" y="60.55" width="20.98" height="3.89" rx="1.31" ry="1.31"/><g id="_Group_9" data-name="&lt;Group&gt;"><g id="_Group_10" data-name="&lt;Group&gt;"><path id="_Path_29" data-name="&lt;Path&gt;" class="cls-11" d="M71.12,72.29a3.56,3.56,0,0,1-4-2.85.51.51,0,0,1,.4-.59.5.5,0,0,1,.58.39A2.6,2.6,0,0,0,71,71.29a2.79,2.79,0,0,0,2.57-2.64.5.5,0,0,1,.53-.47.49.49,0,0,1,.47.52A3.8,3.8,0,0,1,71.12,72.29Z"/></g><g id="_Group_11" data-name="&lt;Group&gt;"><path id="_Path_30" data-name="&lt;Path&gt;" class="cls-11" d="M66.89,70.12h-.1a.5.5,0,0,1-.45-.55A1.6,1.6,0,0,1,67,68.43a2.12,2.12,0,0,1,1.86-.13.5.5,0,1,1-.29,1,1.26,1.26,0,0,0-1,0,.66.66,0,0,0-.25.41A.5.5,0,0,1,66.89,70.12Z"/></g></g></g><rect id="_Rectangle_9" data-name="&lt;Rectangle&gt;" class="cls-2" x="39.19" y="42.55" width="2.41" height="2" rx="1" ry="1"/><rect id="_Rectangle_10" data-name="&lt;Rectangle&gt;" class="cls-12" x="38.06" y="40.96" width="0.62" height="1.58" rx="0.31" ry="0.31"/><g id="_Group_12" data-name="&lt;Group&gt;"><path id="_Path_31" data-name="&lt;Path&gt;" class="cls-3" d="M74.21,58.13H68.92a.76.76,0,0,0-.75.75v1.46h2.42a2.43,2.43,0,0,0,.78,2h3.84a.76.76,0,0,0,.75-.75L79,60,76.9,57Z"/><path id="_Path_32" data-name="&lt;Path&gt;" class="cls-1" d="M92,48.79,89.48,37.66a2.53,2.53,0,0,0-3.07-1.86h0a2.54,2.54,0,0,0-1.89,3l2.36,10.93-10.76,6.1L79,60l10.34-5.39A5.2,5.2,0,0,0,92,48.79Z"/></g><g id="_Group_13" data-name="&lt;Group&gt;"><rect id="_Rectangle_11" data-name="&lt;Rectangle&gt;" class="cls-7" x="55.23" y="50.34" width="3.37" height="1.58" rx="0.79" ry="0.79" transform="translate(5.78 108.05) rotate(-90)"/><rect id="_Rectangle_12" data-name="&lt;Rectangle&gt;" class="cls-7" x="56.77" y="50.34" width="3.38" height="1.58" rx="0.79" ry="0.79" transform="translate(7.32 109.59) rotate(-90)"/><rect id="_Rectangle_13" data-name="&lt;Rectangle&gt;" class="cls-7" x="58.31" y="50.34" width="3.38" height="1.58" rx="0.79" ry="0.79" transform="translate(8.86 111.13) rotate(-90)"/></g><line id="_Path_33" data-name="&lt;Path&gt;" class="cls-8" x1="78.08" y1="46.07" x2="78.24" y2="47.05"/><line id="_Path_34" data-name="&lt;Path&gt;" class="cls-8" x1="77.77" y1="43.99" x2="77.93" y2="44.97"/><line id="_Path_35" data-name="&lt;Path&gt;" class="cls-8" x1="77.51" y1="41.82" x2="77.68" y2="42.81"/><line id="_Path_36" data-name="&lt;Path&gt;" class="cls-8" x1="78.41" y1="48.65" x2="78.57" y2="49.64"/><line id="_Path_37" data-name="&lt;Path&gt;" class="cls-8" x1="78.74" y1="51.23" x2="78.9" y2="52.22"/><path id="_Path_38" data-name="&lt;Path&gt;" class="cls-3" d="M82.59,35.09,77,21.76l-8.32,3.88,2,4.46L70.38,32a.87.87,0,0,0,1.16.93l.28-.11.87,1.8a1.39,1.39,0,0,0,1.92.66l2.59-1.47,1.28,3"/><polyline id="_Path_39" data-name="&lt;Path&gt;" class="cls-4" points="81.53 58.59 82.54 62.84 84.67 63.14 84.67 69.27"/><polyline id="_Path_40" data-name="&lt;Path&gt;" class="cls-8" points="86.45 56.09 87.5 60.55 91.44 59.62"/><rect id="_Rectangle_14" data-name="&lt;Rectangle&gt;" class="cls-13" x="70.43" y="32.21" width="3.31" height="1.29" rx="0.65" ry="0.65" transform="translate(-7.13 33.63) rotate(-25.06)"/><path id="_Path_41" data-name="&lt;Path&gt;" class="cls-4" d="M77.65,23.56l.06,0L75.79,19l-7.37,3.44a2.47,2.47,0,0,0,2,4.51l.61-.26,3.4-1.61c.75,1.69,2.91,5.83,5.73,4.42Z"/><polyline id="_Path_42" data-name="&lt;Path&gt;" class="cls-3" points="78.05 36.72 76.93 40.3 81.67 40.3 85.33 35.76"/><path id="_Path_43" data-name="&lt;Path&gt;" class="cls-8" d="M50.53,55.53v3.75a1.18,1.18,0,0,1-1.19,1.18h0"/><path id="_Path_44" data-name="&lt;Path&gt;" class="cls-8" d="M50.53,66.21V62.46a1.19,1.19,0,0,0-1.19-1.19h0"/><line id="_Path_45" data-name="&lt;Path&gt;" class="cls-8" x1="39.58" y1="88.88" x2="39.58" y2="91.63"/><line id="_Path_46" data-name="&lt;Path&gt;" class="cls-8" x1="40.92" y1="88.88" x2="40.92" y2="91.63"/><line id="_Path_47" data-name="&lt;Path&gt;" class="cls-8" x1="42.25" y1="88.88" x2="42.25" y2="91.63"/><line id="_Path_48" data-name="&lt;Path&gt;" class="cls-8" x1="43.58" y1="88.88" x2="43.58" y2="91.63"/><line id="_Path_49" data-name="&lt;Path&gt;" class="cls-8" x1="62.92" y1="88.88" x2="62.92" y2="91.63"/><line id="_Path_50" data-name="&lt;Path&gt;" class="cls-8" x1="64.25" y1="88.88" x2="64.25" y2="91.63"/><line id="_Path_51" data-name="&lt;Path&gt;" class="cls-8" x1="65.58" y1="88.88" x2="65.58" y2="91.63"/><line id="_Path_52" data-name="&lt;Path&gt;" class="cls-8" x1="66.92" y1="88.88" x2="66.92" y2="91.63"/><line id="_Path_53" data-name="&lt;Path&gt;" class="cls-8" x1="68.25" y1="88.88" x2="68.25" y2="91.63"/><line id="_Path_54" data-name="&lt;Path&gt;" class="cls-8" x1="69.58" y1="88.88" x2="69.58" y2="91.63"/><line id="_Path_55" data-name="&lt;Path&gt;" class="cls-8" x1="70.92" y1="88.88" x2="70.92" y2="91.63"/><line id="_Path_56" data-name="&lt;Path&gt;" class="cls-8" x1="72.25" y1="88.88" x2="72.25" y2="91.63"/><line id="_Path_57" data-name="&lt;Path&gt;" class="cls-8" x1="73.58" y1="88.88" x2="73.58" y2="91.63"/><line id="_Path_58" data-name="&lt;Path&gt;" class="cls-8" x1="74.92" y1="88.88" x2="74.92" y2="91.63"/><line id="_Path_59" data-name="&lt;Path&gt;" class="cls-8" x1="76.25" y1="88.88" x2="76.25" y2="91.63"/><line id="_Path_60" data-name="&lt;Path&gt;" class="cls-8" x1="77.58" y1="88.88" x2="77.58" y2="91.63"/><line id="_Path_61" data-name="&lt;Path&gt;" class="cls-8" x1="78.92" y1="88.88" x2="78.92" y2="91.63"/><line id="_Path_62" data-name="&lt;Path&gt;" class="cls-8" x1="80.25" y1="88.88" x2="80.25" y2="91.63"/><line id="_Path_63" data-name="&lt;Path&gt;" class="cls-8" x1="81.58" y1="88.88" x2="81.58" y2="91.63"/><line id="_Path_64" data-name="&lt;Path&gt;" class="cls-8" x1="82.92" y1="88.88" x2="82.92" y2="91.63"/><line id="_Path_65" data-name="&lt;Path&gt;" class="cls-8" x1="84.25" y1="88.88" x2="84.25" y2="91.63"/><line id="_Path_66" data-name="&lt;Path&gt;" class="cls-8" x1="85.58" y1="88.88" x2="85.58" y2="91.63"/><line id="_Path_67" data-name="&lt;Path&gt;" class="cls-8" x1="86.92" y1="88.88" x2="86.92" y2="91.63"/><line id="_Path_68" data-name="&lt;Path&gt;" class="cls-8" x1="88.25" y1="88.88" x2="88.25" y2="91.63"/><line id="_Path_69" data-name="&lt;Path&gt;" class="cls-8" x1="89.58" y1="88.88" x2="89.58" y2="91.63"/><line id="_Path_70" data-name="&lt;Path&gt;" class="cls-8" x1="90.92" y1="88.88" x2="90.92" y2="91.63"/><path id="_Rectangle_15" data-name="&lt;Rectangle&gt;" class="cls-6" d="M49.34,39.84H59a0,0,0,0,1,0,0V44a4.21,4.21,0,0,1-4.21,4.21H53.55A4.21,4.21,0,0,1,49.34,44V39.84A0,0,0,0,1,49.34,39.84Z"/><rect id="_Rectangle_16" data-name="&lt;Rectangle&gt;" class="cls-7" x="57.22" y="33.54" width="2.02" height="2.02" rx="1.01" ry="1.01"/><rect id="_Rectangle_17" data-name="&lt;Rectangle&gt;" class="cls-7" x="65.32" y="33.58" width="2.02" height="2.02" rx="1.01" ry="1.01"/><g id="_Group_14" data-name="&lt;Group&gt;"><rect id="_Path_71" data-name="&lt;Path&gt;" class="cls-3" x="57.32" y="40.68" width="3.38" height="1.58" rx="0.79" ry="0.79"/><rect id="_Path_72" data-name="&lt;Path&gt;" class="cls-3" x="57.32" y="42.22" width="3.37" height="1.58" rx="0.79" ry="0.79"/><rect id="_Path_73" data-name="&lt;Path&gt;" class="cls-3" x="57.32" y="43.75" width="3.37" height="1.58" rx="0.79" ry="0.79"/></g><g id="_Group_15" data-name="&lt;Group&gt;"><rect id="_Path_74" data-name="&lt;Path&gt;" class="cls-3" x="47.65" y="40.68" width="3.38" height="1.58" rx="0.79" ry="0.79"/><rect id="_Path_75" data-name="&lt;Path&gt;" class="cls-3" x="47.65" y="42.22" width="3.37" height="1.58" rx="0.79" ry="0.79"/><rect id="_Path_76" data-name="&lt;Path&gt;" class="cls-3" x="47.65" y="43.75" width="3.37" height="1.58" rx="0.79" ry="0.79"/></g><rect id="_Rectangle_18" data-name="&lt;Rectangle&gt;" class="cls-4" x="48" y="30.55" width="8.5" height="5.01" rx="2.51" ry="2.51"/><rect id="_Rectangle_19" data-name="&lt;Rectangle&gt;" class="cls-4" x="51.63" y="25.41" width="7.17" height="3.3" rx="1.65" ry="1.65"/><line id="_Path_77" data-name="&lt;Path&gt;" class="cls-4" x1="54.18" y1="39.84" x2="54.18" y2="35.56"/><line id="_Path_78" data-name="&lt;Path&gt;" class="cls-4" x1="53.99" y1="30.55" x2="53.99" y2="28.77"/><line id="_Path_79" data-name="&lt;Path&gt;" class="cls-4" x1="53.99" y1="25.41" x2="53.99" y2="23.05"/><rect id="_Rectangle_20" data-name="&lt;Rectangle&gt;" class="cls-4" x="48.52" y="21.13" width="6.21" height="2.65" rx="1.33" ry="1.33"/><rect id="_Rectangle_21" data-name="&lt;Rectangle&gt;" class="cls-6" x="47.45" y="32.99" width="3.78" height="3.78" rx="1.89" ry="1.89"/><rect id="_Rectangle_22" data-name="&lt;Rectangle&gt;" class="cls-6" x="48" y="23.07" width="2.33" height="2.33" rx="1.16" ry="1.16"/><line id="_Path_80" data-name="&lt;Path&gt;" class="cls-13" x1="51.03" y1="43" x2="57.32" y2="43"/></g><path class="cls-14" d="M78.77,35.15l-.28,2.37,3,2.29,2.08-2.5s1.71-1.79,1.34-2-4.32-.69-4.32-.69l.82.29Z"/></svg>