<svg id="Layer_1" data-name="Layer 1" xmlns="http://www.w3.org/2000/svg" xmlns:xlink="http://www.w3.org/1999/xlink" viewBox="0 0 110 110"><defs><style>.cls-1,.cls-11,.cls-15{fill:#fff;}.cls-1,.cls-12,.cls-13,.cls-14,.cls-15,.cls-2,.cls-3,.cls-4,.cls-5,.cls-7,.cls-8,.cls-9{stroke:#292836;}.cls-1,.cls-12,.cls-13,.cls-14,.cls-15,.cls-2,.cls-3,.cls-5,.cls-7,.cls-8{stroke-linecap:round;stroke-linejoin:round;}.cls-2{fill:#e2d242;}.cls-3{fill:url(#linear-gradient);}.cls-12,.cls-4{fill:#c1cdd9;}.cls-4,.cls-9{stroke-miterlimit:10;}.cls-5{fill:#eef7ff;}.cls-6{fill:#292836;}.cls-7,.cls-9{fill:none;}.cls-15,.cls-7{stroke-width:0.5px;}.cls-8{fill:#f8ea47;}.cls-10{fill:#00a7b5;}.cls-13{fill:url(#linear-gradient-2);}.cls-14{fill:url(#linear-gradient-3);}</style><linearGradient id="linear-gradient" x1="17.72" y1="90.72" x2="107.77" y2="90.72" gradientUnits="userSpaceOnUse"><stop offset="0" stop-color="#494856"/><stop offset="1" stop-color="#292836"/></linearGradient><linearGradient id="linear-gradient-2" x1="7.97" y1="90.72" x2="15.22" y2="90.72" xlink:href="#linear-gradient"/><linearGradient id="linear-gradient-3" x1="2.97" y1="90.72" x2="5.47" y2="90.72" xlink:href="#linear-gradient"/></defs><title>Artboard 2 copy 3</title><g id="_Group_" data-name="&lt;Group&gt;"><g id="_Group_2" data-name="&lt;Group&gt;"><path id="_Path_" data-name="&lt;Path&gt;" class="cls-1" d="M83.18,26.05A2.08,2.08,0,0,1,85.26,24h1.68a5.56,5.56,0,0,0-5.31-4h0a5.55,5.55,0,0,0-5.54,5.54v1.23a5.55,5.55,0,0,0,5.54,5.54h0a5.75,5.75,0,0,0,1.55-.22v-6Z"/><path id="_Path_2" data-name="&lt;Path&gt;" class="cls-2" d="M85.26,24a2.08,2.08,0,0,0-2.08,2.08v6a5.58,5.58,0,0,0,4-5.32V25.51A5.22,5.22,0,0,0,86.94,24Z"/></g><g id="_Group_3" data-name="&lt;Group&gt;"><line id="_Path_3" data-name="&lt;Path&gt;" class="cls-3" x1="17.72" y1="90.72" x2="107.77" y2="90.72"/></g><polyline id="_Path_4" data-name="&lt;Path&gt;" class="cls-4" points="26.84 90.72 26.84 28.36 67.01 28.36 67.01 90.72 26.84 90.72"/><rect id="_Path_5" data-name="&lt;Path&gt;" class="cls-5" x="67.01" y="28.36" width="30.83" height="62.35"/><rect id="_Rectangle_" data-name="&lt;Rectangle&gt;" class="cls-6" x="80.9" y="56.03" width="4.5" height="10.09" rx="2.25" ry="2.25"/><rect id="_Rectangle_2" data-name="&lt;Rectangle&gt;" class="cls-5" x="53.51" y="64.39" width="44.33" height="3.47" rx="1.73" ry="1.73"/><path id="_Rectangle_3" data-name="&lt;Rectangle&gt;" class="cls-5" d="M55.13,67.85H96.22a1.62,1.62,0,0,1,1.62,1.62V89.09a1.62,1.62,0,0,1-1.62,1.62H55.13a1.62,1.62,0,0,1-1.62-1.62V69.48a1.63,1.63,0,0,1,1.63-1.63Z"/><rect id="_Rectangle_4" data-name="&lt;Rectangle&gt;" class="cls-7" x="55.18" y="70.39" width="10.92" height="8.17" rx="2.25" ry="2.25"/><rect id="_Rectangle_5" data-name="&lt;Rectangle&gt;" class="cls-7" x="55.18" y="80.3" width="10.92" height="8.17" rx="2.25" ry="2.25"/><g id="_Group_4" data-name="&lt;Group&gt;"><path id="_Path_6" data-name="&lt;Path&gt;" class="cls-8" d="M38.39,40.86A2.1,2.1,0,0,0,35.55,40h0a2.1,2.1,0,0,0-.83,2.84l1.35,2.45,3.52-2.27Z"/><path id="_Path_7" data-name="&lt;Path&gt;" class="cls-5" d="M43.11,49.44l-3.52-6.39-3.52,2.27,3.37,6.14a2.09,2.09,0,1,0,3.67-2Z"/></g><rect id="_Rectangle_6" data-name="&lt;Rectangle&gt;" class="cls-7" x="57.09" y="74.03" width="1.56" height="1.25" rx="0.62" ry="0.62"/><rect id="_Rectangle_7" data-name="&lt;Rectangle&gt;" class="cls-7" x="56.75" y="83.76" width="1.56" height="1.25" rx="0.62" ry="0.62"/><polyline id="_Path_8" data-name="&lt;Path&gt;" class="cls-5" points="39.44 51.46 42.98 58.37 46.52 56.37 43.11 49.45"/><rect id="_Path_9" data-name="&lt;Path&gt;" class="cls-4" x="70.43" y="67.85" width="18.5" height="22.87"/><line id="_Path_10" data-name="&lt;Path&gt;" class="cls-7" x1="77.26" y1="67.85" x2="77.26" y2="90.72"/><rect id="_Rectangle_8" data-name="&lt;Rectangle&gt;" class="cls-2" x="41.47" y="54.67" width="5.46" height="13.92" rx="2.73" ry="2.73"/><line id="_Path_11" data-name="&lt;Path&gt;" class="cls-2" x1="44.2" y1="68.59" x2="44.2" y2="76.09"/><rect id="_Rectangle_9" data-name="&lt;Rectangle&gt;" class="cls-2" x="43.95" y="73.27" width="16.44" height="4.52" rx="2.26" ry="2.26"/><polyline id="_Path_12" data-name="&lt;Path&gt;" class="cls-9" points="52.16 77.79 52.16 85.01 46.52 90.65"/><line id="_Path_13" data-name="&lt;Path&gt;" class="cls-9" x1="52.17" y1="85.01" x2="57.87" y2="90.72"/><line id="_Path_14" data-name="&lt;Path&gt;" class="cls-9" x1="52.17" y1="85.47" x2="52.17" y2="90.65"/><rect id="_Rectangle_10" data-name="&lt;Rectangle&gt;" class="cls-5" x="45.84" y="88.36" width="2.88" height="2.18" rx="1.09" ry="1.09"/><rect id="_Rectangle_11" data-name="&lt;Rectangle&gt;" class="cls-5" x="56.09" y="88.36" width="2.88" height="2.18" rx="1.09" ry="1.09"/><rect id="_Rectangle_12" data-name="&lt;Rectangle&gt;" class="cls-5" x="51.43" y="88.25" width="1.46" height="2.41" rx="0.73" ry="0.73"/><rect id="_Rectangle_13" data-name="&lt;Rectangle&gt;" class="cls-6" x="72.22" y="45.39" width="21.92" height="13.5" rx="2.79" ry="2.79"/><rect id="_Rectangle_14" data-name="&lt;Rectangle&gt;" class="cls-6" x="75.68" y="62.72" width="15.04" height="1.67" rx="0.83" ry="0.83"/><rect id="_Rectangle_15" data-name="&lt;Rectangle&gt;" class="cls-10" x="73.76" y="46.68" width="18.83" height="10.91" rx="1.22" ry="1.22"/><rect id="_Path_15" data-name="&lt;Path&gt;" class="cls-11" x="50.26" y="40.99" width="10.38" height="11.67"/><rect id="_Path_16" data-name="&lt;Path&gt;" class="cls-11" x="30.59" y="71.96" width="10.38" height="11.67"/><g id="_Group_5" data-name="&lt;Group&gt;"><polygon id="_Path_17" data-name="&lt;Path&gt;" class="cls-12" points="58.72 55.84 58.72 52.26 75.22 52.26 75.22 64.27 58.72 64.27 58.72 55.84"/><rect id="_Rectangle_16" data-name="&lt;Rectangle&gt;" class="cls-5" x="57.62" y="50.17" width="18.78" height="3.49" rx="1.31" ry="1.31"/><g id="_Group_6" data-name="&lt;Group&gt;"><g id="_Group_7" data-name="&lt;Group&gt;"><path id="_Path_18" data-name="&lt;Path&gt;" class="cls-11" d="M67.48,60.68a3.18,3.18,0,0,1-3.55-2.55.45.45,0,0,1,.88-.18,2.32,2.32,0,0,0,2.58,1.84,2.51,2.51,0,0,0,2.3-2.37.45.45,0,1,1,.9,0A3.41,3.41,0,0,1,67.48,60.68Z"/></g><g id="_Group_8" data-name="&lt;Group&gt;"><path id="_Path_19" data-name="&lt;Path&gt;" class="cls-11" d="M63.69,58.73a.14.14,0,0,1-.09,0,.45.45,0,0,1-.4-.48,1.5,1.5,0,0,1,.61-1,2,2,0,0,1,1.67-.12.45.45,0,0,1-.26.86,1.11,1.11,0,0,0-.91,0,.54.54,0,0,0-.22.36A.44.44,0,0,1,63.69,58.73Z"/></g></g></g><rect id="_Rectangle_17" data-name="&lt;Rectangle&gt;" class="cls-5" x="56.96" y="53.19" width="6.17" height="6.35" rx="0.85" ry="0.85"/><rect id="_Rectangle_18" data-name="&lt;Rectangle&gt;" class="cls-5" x="59" y="51.33" width="1.8" height="2.65" rx="0.54" ry="0.54"/><line id="_Path_20" data-name="&lt;Path&gt;" class="cls-7" x1="58.22" y1="55.5" x2="61.15" y2="55.5"/><line id="_Path_21" data-name="&lt;Path&gt;" class="cls-7" x1="58.22" y1="56.81" x2="61.15" y2="56.81"/><line id="_Path_22" data-name="&lt;Path&gt;" class="cls-7" x1="58.22" y1="58.03" x2="61.15" y2="58.03"/><rect id="_Path_23" data-name="&lt;Path&gt;" class="cls-11" x="83.74" y="30.93" width="10.38" height="11.67"/><rect id="_Rectangle_19" data-name="&lt;Rectangle&gt;" class="cls-12" x="23.65" y="38.08" width="13.87" height="31.15" rx="6.94" ry="6.94"/><path id="_Path_24" data-name="&lt;Path&gt;" class="cls-8" d="M23.65,60.7H37.53V90.55H25.09V69.23h0a1.44,1.44,0,0,1-1.44-1.44Z"/><polyline id="_Path_25" data-name="&lt;Path&gt;" class="cls-8" points="31.93 90.14 31.93 66.12 33.59 66.12"/><g id="_Group_9" data-name="&lt;Group&gt;"><path id="_Path_26" data-name="&lt;Path&gt;" class="cls-6" d="M33,90.72c0-.06,0-.11,0-.17a2.42,2.42,0,0,0-2.42-2.41H29.38A2.41,2.41,0,0,0,27,90.55c0,.06,0,.11,0,.17Z"/><path id="_Path_27" data-name="&lt;Path&gt;" class="cls-6" d="M40.91,90.72c0-.06,0-.11,0-.17a2.42,2.42,0,0,0-2.42-2.41H37.34a2.41,2.41,0,0,0-2.41,2.41c0,.06,0,.11,0,.17Z"/></g><rect id="_Rectangle_20" data-name="&lt;Rectangle&gt;" class="cls-5" x="40.34" y="55.06" width="2.25" height="3.51" rx="1.12" ry="1.12"/><line id="_Path_28" data-name="&lt;Path&gt;" class="cls-5" x1="39.76" y1="51.51" x2="41.47" y2="50.59"/><rect id="_Rectangle_21" data-name="&lt;Rectangle&gt;" class="cls-5" x="40.82" y="53.53" width="6.25" height="3.28" rx="1.49" ry="1.49"/><g id="_Group_10" data-name="&lt;Group&gt;"><path id="_Path_29" data-name="&lt;Path&gt;" class="cls-5" d="M18.57,52.51a3.24,3.24,0,0,0,0,2.37l3.52,7.6a2.2,2.2,0,1,0,4-1.78l-3.29-7.09,3.11-8-4.16-1.44Z"/><path id="_Path_30" data-name="&lt;Path&gt;" class="cls-8" d="M25.79,39.92A2.2,2.2,0,0,0,23,41.18L21.82,44.1c1.34.45,3.17,1.07,4.16,1.43l1.07-2.76A2.22,2.22,0,0,0,25.79,39.92Z"/><path id="_Path_31" data-name="&lt;Path&gt;" class="cls-5" d="M21.81,44.12,26,45.56v0c-1-.36-2.82-1-4.16-1.43Z"/></g><line id="_Path_32" data-name="&lt;Path&gt;" class="cls-13" x1="15.22" y1="90.72" x2="7.97" y2="90.72"/><line id="_Path_33" data-name="&lt;Path&gt;" class="cls-14" x1="5.47" y1="90.72" x2="2.97" y2="90.72"/><path id="_Path_34" data-name="&lt;Path&gt;" class="cls-5" d="M35.55,40l-.94.55a4.94,4.94,0,0,1-6.08-.89l-.89-.94V25.16h9.89v9.59a1.71,1.71,0,0,1-1.71,1.71l-2.77-.53v2.42Z"/><path id="_Path_35" data-name="&lt;Path&gt;" class="cls-6" d="M27.64,31.53s3.51.5,3.51-3.56h6.38V25.16H27.64Z"/><g id="_Group_11" data-name="&lt;Group&gt;"><rect id="_Rectangle_22" data-name="&lt;Rectangle&gt;" class="cls-15" x="32.62" y="30.26" width="3.08" height="2" rx="1" ry="1"/><rect id="_Rectangle_23" data-name="&lt;Rectangle&gt;" class="cls-15" x="36.44" y="30.26" width="3.08" height="2" rx="1" ry="1"/></g><path id="_Path_36" data-name="&lt;Path&gt;" class="cls-5" d="M22.35,62.68s2.66,4.87,6.24,3.21l2-1.44L28.06,60.7A2.29,2.29,0,0,0,25,60h0"/><path id="_Path_37" data-name="&lt;Path&gt;" class="cls-6" d="M26,61.37l2.81-2a1,1,0,0,1,1.41.23l1.1,1.53a1,1,0,0,1-.21,1.4l-2.72,2.06Z"/><line id="_Path_38" data-name="&lt;Path&gt;" class="cls-7" x1="32.76" y1="41.21" x2="32.76" y2="44.1"/><g id="_Group_12" data-name="&lt;Group&gt;"><rect id="_Rectangle_24" data-name="&lt;Rectangle&gt;" class="cls-1" x="70.53" y="27.57" width="3.37" height="1.58" rx="0.79" ry="0.79" transform="translate(43.86 100.58) rotate(-90)"/><rect id="_Rectangle_25" data-name="&lt;Rectangle&gt;" class="cls-1" x="72.07" y="27.57" width="3.38" height="1.58" rx="0.79" ry="0.79" transform="translate(45.4 102.12) rotate(-90)"/><rect id="_Rectangle_26" data-name="&lt;Rectangle&gt;" class="cls-1" x="73.61" y="27.57" width="3.38" height="1.58" rx="0.79" ry="0.79" transform="translate(46.93 103.66) rotate(-90)"/></g><g id="_Group_13" data-name="&lt;Group&gt;"><rect id="_Rectangle_27" data-name="&lt;Rectangle&gt;" class="cls-1" x="84.51" y="27.57" width="3.37" height="1.58" rx="0.79" ry="0.79" transform="translate(57.83 114.56) rotate(-90)"/><rect id="_Rectangle_28" data-name="&lt;Rectangle&gt;" class="cls-1" x="86.05" y="27.57" width="3.38" height="1.58" rx="0.79" ry="0.79" transform="translate(59.37 116.1) rotate(-90)"/><rect id="_Rectangle_29" data-name="&lt;Rectangle&gt;" class="cls-1" x="87.59" y="27.57" width="3.38" height="1.58" rx="0.79" ry="0.79" transform="translate(60.91 117.64) rotate(-90)"/></g><path id="_Path_39" data-name="&lt;Path&gt;" class="cls-1" d="M78.19,27.08v1a.86.86,0,0,0,.86.86h0a.86.86,0,0,0,.85-.86h0"/><rect id="_Rectangle_30" data-name="&lt;Rectangle&gt;" class="cls-6" x="34.65" y="33.84" width="1.78" height="1.22" rx="0.61" ry="0.61"/></g></svg>