<svg id="Layer_1" data-name="Layer 1" xmlns="http://www.w3.org/2000/svg" xmlns:xlink="http://www.w3.org/1999/xlink" viewBox="0 0 238.12 238.12"><defs><style>.cls-1,.cls-11,.cls-12,.cls-13,.cls-22,.cls-4{fill:none;}.cls-2{fill:#f8ea47;}.cls-10,.cls-11,.cls-12,.cls-14,.cls-16,.cls-2,.cls-3{stroke:#292836;}.cls-10,.cls-11,.cls-12,.cls-13,.cls-14,.cls-16,.cls-2,.cls-3,.cls-4{stroke-linecap:round;stroke-linejoin:round;}.cls-3{fill:#eef7ff;}.cls-22,.cls-4{stroke:#494856;}.cls-5{fill:#494856;}.cls-10,.cls-16,.cls-6{fill:#e2d242;}.cls-7{fill:#00a7b5;}.cls-14,.cls-8{fill:#fff;}.cls-9{clip-path:url(#clip-path);}.cls-12,.cls-16{stroke-width:0.5px;}.cls-13{stroke:#c1cdd9;}.cls-15{fill:#c1cdd9;}.cls-17{fill:#292836;}.cls-18{clip-path:url(#clip-path-2);}.cls-19{clip-path:url(#clip-path-3);}.cls-20{clip-path:url(#clip-path-4);}.cls-21{clip-path:url(#clip-path-5);}.cls-22{stroke-miterlimit:10;}</style><clipPath id="clip-path"><polygon id="_Clipping_Path_" data-name="&lt;Clipping Path&gt;" class="cls-1" points="229.69 101.42 217.28 112.2 181.32 106.32 168.34 78.89 229.69 78.89 229.69 101.42"/></clipPath><clipPath id="clip-path-2"><path id="_Clipping_Path_2" data-name="&lt;Clipping Path&gt;" class="cls-1" d="M124.85,84.91c0,2.43-6.49,4.39-14.49,4.39s-14.48-2-14.48-4.39-7.13-24.1,14.48-24.1C130.5,60.81,124.85,82.48,124.85,84.91Z"/></clipPath><clipPath id="clip-path-3"><path id="_Clipping_Path_3" data-name="&lt;Clipping Path&gt;" class="cls-1" d="M133.44,117.63c0,2.43-6.48,4.39-14.48,4.39s-14.49-2-14.49-4.39S97.34,93.53,119,93.53C139.1,93.53,133.44,115.2,133.44,117.63Z"/></clipPath><clipPath id="clip-path-4"><path id="_Clipping_Path_4" data-name="&lt;Clipping Path&gt;" class="cls-1" d="M84.19,105.85c0,2.43-6.48,4.4-14.48,4.4s-14.49-2-14.49-4.4-7.13-24.1,14.49-24.1C89.85,81.75,84.19,103.43,84.19,105.85Z"/></clipPath><clipPath id="clip-path-5"><path id="_Clipping_Path_5" data-name="&lt;Clipping Path&gt;" class="cls-1" d="M187.75,130c0,2.42-6.48,4.39-14.48,4.39s-14.49-2-14.49-4.39-7.13-24.1,14.49-24.1C193.41,105.91,187.75,127.58,187.75,130Z"/></clipPath></defs><title>Artboard 2 copy 5</title><path id="_Path_" data-name="&lt;Path&gt;" class="cls-2" d="M146.83,77.49,133.29,88.4a6.11,6.11,0,0,0-2.14,6l1.92,9,8.39-1.53-1.88-8.87,7.25-3.77"/><path id="_Path_2" data-name="&lt;Path&gt;" class="cls-2" d="M175.62,93.42V80.52S161.79,74.3,150,76.74l-3.17.75,1.42,59.31,27.37,6.63Z"/><polyline id="_Path_3" data-name="&lt;Path&gt;" class="cls-2" points="171.58 78.89 189.83 85.68 195.98 99.3 189.46 101.54 183.78 90.74 173.77 88.93"/><path id="_Path_4" data-name="&lt;Path&gt;" class="cls-3" d="M148.25,136.8l-1.42-59.31,3.17-.75.55,14.19a3.74,3.74,0,0,0,3.09,3.54L162.15,96a3.74,3.74,0,0,0,4.39-3.68V77.49l5,1.4V90.76a2.89,2.89,0,0,0,4,2.66h0v50Z"/><line id="_Path_5" data-name="&lt;Path&gt;" class="cls-4" x1="202.66" y1="97.65" x2="180.87" y2="106.5"/><g id="_Group_" data-name="&lt;Group&gt;"><path id="_Path_6" data-name="&lt;Path&gt;" class="cls-5" d="M180.87,120.67a.5.5,0,0,1-.5-.5V106.5a.5.5,0,0,1,.31-.46l21.8-8.85a.45.45,0,0,1,.46,0,.48.48,0,0,1,.22.41v12.28a.5.5,0,0,1-.5.5.51.51,0,0,1-.5-.5V98.39l-20.79,8.45v13.33A.51.51,0,0,1,180.87,120.67Z"/><g id="_Group_2" data-name="&lt;Group&gt;"><path id="_Path_7" data-name="&lt;Path&gt;" class="cls-5" d="M180.79,107l39.3,6.15h.08a.5.5,0,0,0,.07-1L183,106.32l-2.53.36A.5.5,0,0,0,180.79,107Z"/><path id="_Path_8" data-name="&lt;Path&gt;" class="cls-5" d="M231.4,101.15l-28.67-4a.36.36,0,0,0-.25,0L180.68,106a.5.5,0,0,0-.31.52s0,.08,0,.12l2.53-.36-.23,0,20-8.13,28.53,4a.51.51,0,0,0,.57-.43A.51.51,0,0,0,231.4,101.15Z"/></g></g><polygon id="_Path_9" data-name="&lt;Path&gt;" class="cls-6" points="27.27 96.72 27.27 140.02 86.23 155.39 86.23 110.8 27.27 96.72"/><polygon id="_Path_10" data-name="&lt;Path&gt;" class="cls-7" points="48.29 129.45 48.29 178.97 173.77 209.8 173.77 161.43 48.29 129.45"/><path id="_Path_11" data-name="&lt;Path&gt;" class="cls-8" d="M8.29,92.17l23.37-9.43,98.71,22.38s5.9,3.65,1.34,9.48-32,11-32,11l111.64,25.71-33.14,14.49-129-31.63s-8.14-3.13-3.49-9.91l40.89-13Z"/><g id="_Clip_Group_" data-name="&lt;Clip Group&gt;"><g class="cls-9"><g id="_Group_3" data-name="&lt;Group&gt;"><g id="_Group_4" data-name="&lt;Group&gt;"><g id="_Group_5" data-name="&lt;Group&gt;"><polyline id="_Path_12" data-name="&lt;Path&gt;" class="cls-7" points="195.63 90.73 196.92 93.5 198.23 96.33"/><path id="_Path_13" data-name="&lt;Path&gt;" class="cls-5" d="M198.23,96.83a.49.49,0,0,1-.45-.29l-2.6-5.6a.49.49,0,0,1,.24-.66.5.5,0,0,1,.67.24l2.59,5.6a.49.49,0,0,1-.24.66A.54.54,0,0,1,198.23,96.83Z"/></g><path id="_Path_14" data-name="&lt;Path&gt;" class="cls-5" d="M194.27,94.15a.25.25,0,0,1,0-.5l2.5-.38.82-2.68a.27.27,0,0,1,.32-.17.25.25,0,0,1,.16.32l-.87,2.83a.25.25,0,0,1-.21.17l-2.65.4Z"/><g id="_Group_6" data-name="&lt;Group&gt;"><path id="_Path_15" data-name="&lt;Path&gt;" class="cls-8" d="M204.85,99.44l.75-8s-10.69,1.56-12.83,7.3,7.63,4.86,7.63,4.86l4.09-.71Z"/><path id="_Compound_Path_" data-name="&lt;Compound Path&gt;" class="cls-5" d="M199.05,104.11c-1.89,0-5.13-.27-6.47-2a3.51,3.51,0,0,1-.28-3.55c2.22-6,12.78-7.56,13.23-7.62a.49.49,0,0,1,.57.54l-.75,8h0l-.36,3.42a.5.5,0,0,1-.41.44l-4.1.71C200.4,104.07,199.84,104.11,199.05,104.11ZM205,92c-2.28.44-10.08,2.25-11.8,6.87a2.56,2.56,0,0,0,.13,2.59c1.3,1.7,5.48,1.73,7,1.59l3.69-.64.31-3Z"/></g><path id="_Path_16" data-name="&lt;Path&gt;" class="cls-5" d="M203.27,100.36a.25.25,0,0,1-.25-.25l0-5.41a.25.25,0,0,1,.25-.25h0a.25.25,0,0,1,.25.25l0,5.41a.25.25,0,0,1-.25.25Z"/><path id="_Path_17" data-name="&lt;Path&gt;" class="cls-5" d="M201.86,102.79a.25.25,0,0,1-.24-.17l-1.93-5.8a.26.26,0,0,1,.16-.32.25.25,0,0,1,.31.16l1.94,5.8a.26.26,0,0,1-.16.32Z"/><path id="_Path_18" data-name="&lt;Path&gt;" class="cls-5" d="M199.45,96a.26.26,0,0,1-.24-.16l-.34-.94a.24.24,0,0,1,.15-.32.25.25,0,0,1,.32.15l.34.94a.25.25,0,0,1-.15.32Z"/><path id="_Path_19" data-name="&lt;Path&gt;" class="cls-5" d="M201.29,103.56a.3.3,0,0,1-.16,0l-6.65-5.44a.25.25,0,0,1,.32-.39l6.65,5.44a.25.25,0,0,1,0,.35A.25.25,0,0,1,201.29,103.56Z"/><g id="_Group_7" data-name="&lt;Group&gt;"><path id="_Path_20" data-name="&lt;Path&gt;" class="cls-7" d="M200.9,89.82l2.39-.41a.83.83,0,0,0,.67-.88l0-.3a.8.8,0,0,0-.94-.73l-2.4.42a.82.82,0,0,0-.66.87l0,.31A.8.8,0,0,0,200.9,89.82Z"/><path id="_Compound_Path_2" data-name="&lt;Compound Path&gt;" class="cls-5" d="M200.75,90.33a1.31,1.31,0,0,1-.79-.26,1.27,1.27,0,0,1-.5-.92l0-.31a1.33,1.33,0,0,1,1.08-1.42L202.9,87a1.31,1.31,0,0,1,1,.25,1.27,1.27,0,0,1,.5.92l0,.31a1.33,1.33,0,0,1-1.08,1.41l-2.4.41h0A.9.9,0,0,1,200.75,90.33ZM203.14,88h-.07l-2.39.41a.32.32,0,0,0-.26.33l0,.31a.3.3,0,0,0,.12.22.29.29,0,0,0,.24.06l2.4-.42a.31.31,0,0,0,.25-.33l0-.31a.27.27,0,0,0-.11-.22A.3.3,0,0,0,203.14,88Z"/></g><g id="_Group_8" data-name="&lt;Group&gt;"><path id="_Path_21" data-name="&lt;Path&gt;" class="cls-7" d="M191.2,95.19l2.4-.42a.83.83,0,0,0,.67-.87l0-.31a.8.8,0,0,0-1-.72l-2.39.41a.82.82,0,0,0-.67.87l0,.31A.8.8,0,0,0,191.2,95.19Z"/><path id="_Compound_Path_3" data-name="&lt;Compound Path&gt;" class="cls-5" d="M191.05,95.7a1.25,1.25,0,0,1-.78-.27,1.32,1.32,0,0,1-.51-.92l0-.31a1.33,1.33,0,0,1,1.08-1.41l2.4-.42a1.31,1.31,0,0,1,1.53,1.17l0,.31a1.33,1.33,0,0,1-1.09,1.41l-2.39.42Zm2.39-2.35h-.06l-2.4.41a.33.33,0,0,0-.25.34l0,.31a.33.33,0,0,0,.11.22.36.36,0,0,0,.25,0h0l2.39-.41a.33.33,0,0,0,.26-.33l0-.31a.32.32,0,0,0-.3-.29Z"/></g><g id="_Group_9" data-name="&lt;Group&gt;"><path id="_Path_22" data-name="&lt;Path&gt;" class="cls-7" d="M199.24,93.75l2.39-.41a.83.83,0,0,0,.67-.88l0-.3a.8.8,0,0,0-.94-.73l-2.4.42a.83.83,0,0,0-.67.87l0,.31A.8.8,0,0,0,199.24,93.75Z"/><path id="_Compound_Path_4" data-name="&lt;Compound Path&gt;" class="cls-5" d="M199.09,94.26a1.29,1.29,0,0,1-1.3-1.18l0-.31a1.33,1.33,0,0,1,1.08-1.42l2.39-.41a1.3,1.3,0,0,1,1.53,1.17l0,.31a1.33,1.33,0,0,1-1.08,1.41l-2.4.41A.93.93,0,0,1,199.09,94.26Zm2.38-2.34h-.06l-2.39.41a.32.32,0,0,0-.26.33l0,.31a.3.3,0,0,0,.12.22.29.29,0,0,0,.24.06h0l2.4-.42a.31.31,0,0,0,.25-.33l0-.31a.3.3,0,0,0-.11-.22A.33.33,0,0,0,201.47,91.92Z"/></g><g id="_Group_10" data-name="&lt;Group&gt;"><path id="_Path_23" data-name="&lt;Path&gt;" class="cls-7" d="M188.46,92.1l2.4-.41a.82.82,0,0,0,.66-.87l0-.31a.8.8,0,0,0-.95-.72l-2.39.41a.82.82,0,0,0-.67.87l0,.31A.79.79,0,0,0,188.46,92.1Z"/><path id="_Compound_Path_5" data-name="&lt;Compound Path&gt;" class="cls-5" d="M188.31,92.62A1.3,1.3,0,0,1,187,91.43l0-.31a1.32,1.32,0,0,1,1.08-1.41l2.4-.42a1.33,1.33,0,0,1,1,.25,1.27,1.27,0,0,1,.5.92l0,.31a1.32,1.32,0,0,1-1.08,1.41l-2.4.42Zm2.39-2.35h-.06l-2.4.41A.34.34,0,0,0,188,91l0,.31a.3.3,0,0,0,.12.22.33.33,0,0,0,.24,0h0l2.4-.41a.34.34,0,0,0,.26-.33l0-.32a.32.32,0,0,0-.12-.22A.28.28,0,0,0,190.7,90.27Z"/></g><g id="_Group_11" data-name="&lt;Group&gt;"><path id="_Path_24" data-name="&lt;Path&gt;" class="cls-7" d="M196,88.28l2.4-.41A.82.82,0,0,0,199,87l0-.31a.79.79,0,0,0-.94-.72l-2.4.41a.82.82,0,0,0-.67.87l0,.31A.79.79,0,0,0,196,88.28Z"/><path id="_Compound_Path_6" data-name="&lt;Compound Path&gt;" class="cls-5" d="M195.82,88.8a1.26,1.26,0,0,1-.79-.27,1.32,1.32,0,0,1-.51-.92l0-.31a1.32,1.32,0,0,1,1.08-1.41l2.4-.42a1.31,1.31,0,0,1,1.53,1.17l0,.31a1.33,1.33,0,0,1-1.09,1.41l-2.39.42h0Zm2.38-2.35h-.06l-2.4.41a.33.33,0,0,0-.25.34l0,.3a.36.36,0,0,0,.11.23.31.31,0,0,0,.25.05l2.39-.41a.34.34,0,0,0,.26-.34l0-.3a.31.31,0,0,0-.12-.23A.28.28,0,0,0,198.2,86.45Z"/></g><g id="_Group_12" data-name="&lt;Group&gt;"><g id="_Group_13" data-name="&lt;Group&gt;"><path id="_Path_25" data-name="&lt;Path&gt;" class="cls-8" d="M197.05,89.36A2.31,2.31,0,0,1,199,87l1.33-.23-3.06,3.34A1.69,1.69,0,0,1,197.05,89.36Z"/><path id="_Compound_Path_7" data-name="&lt;Compound Path&gt;" class="cls-5" d="M197.27,90.57h-.06a.51.51,0,0,1-.38-.25,2.34,2.34,0,0,1-.28-.92h0a2.81,2.81,0,0,1,2.37-2.93l1.33-.23a.48.48,0,0,1,.52.25.5.5,0,0,1-.07.58l-3.06,3.34A.52.52,0,0,1,197.27,90.57Zm1.7-3.1A1.88,1.88,0,0,0,197.55,89Z"/></g><g id="_Group_14" data-name="&lt;Group&gt;"><path id="_Path_26" data-name="&lt;Path&gt;" class="cls-8" d="M198.94,91.05a2,2,0,0,1-1.67-1l3.06-3.34,1.6-.28S201.46,89.83,198.94,91.05Z"/><path id="_Compound_Path_8" data-name="&lt;Compound Path&gt;" class="cls-5" d="M198.94,91.55h0a2.45,2.45,0,0,1-2.1-1.23.51.51,0,0,1,.07-.58L200,86.39a.54.54,0,0,1,.29-.15l1.6-.28a.48.48,0,0,1,.43.13.49.49,0,0,1,.15.43c0,.15-.54,3.66-3.27,5A.54.54,0,0,1,198.94,91.55Zm-1-1.44a1.42,1.42,0,0,0,.92.43,5.54,5.54,0,0,0,2.44-3.47l-.69.12Z"/></g></g><g id="_Group_15" data-name="&lt;Group&gt;"><g id="_Group_16" data-name="&lt;Group&gt;"><path id="_Path_27" data-name="&lt;Path&gt;" class="cls-8" d="M195.8,89.89a2.93,2.93,0,0,0-3.54-2.51l-2,.35,5.42,3.33A3.29,3.29,0,0,0,195.8,89.89Z"/><path id="_Compound_Path_9" data-name="&lt;Compound Path&gt;" class="cls-5" d="M195.67,91.56a.5.5,0,0,1-.26-.08L190,88.16a.51.51,0,0,1-.22-.52.48.48,0,0,1,.4-.4l2-.35a3.67,3.67,0,0,1,2.85.66,3.22,3.22,0,0,1,1.26,2.3h0a3.3,3.3,0,0,1-.14,1.35.55.55,0,0,1-.3.33A.57.57,0,0,1,195.67,91.56Zm-4-3.56,3.67,2.25c0-.11,0-.21,0-.31a2.23,2.23,0,0,0-.88-1.59,2.62,2.62,0,0,0-2.07-.47Z"/></g><g id="_Group_17" data-name="&lt;Group&gt;"><path id="_Path_28" data-name="&lt;Path&gt;" class="cls-8" d="M193.49,93.34a3.6,3.6,0,0,0,2.18-2.28l-5.42-3.33-2.43.42S189.46,92.85,193.49,93.34Z"/><path id="_Compound_Path_10" data-name="&lt;Compound Path&gt;" class="cls-5" d="M193.49,93.84h-.06c-4.29-.53-6-5.32-6.08-5.53a.49.49,0,0,1,0-.41.49.49,0,0,1,.35-.24l2.42-.42a.49.49,0,0,1,.35.07l5.42,3.32a.52.52,0,0,1,.22.57,4.11,4.11,0,0,1-2.49,2.61A.47.47,0,0,1,193.49,93.84Zm-5-5.3c.55,1.18,2.1,3.87,4.9,4.29a3.16,3.16,0,0,0,1.62-1.56l-4.9-3Z"/></g></g><path id="_Path_29" data-name="&lt;Path&gt;" class="cls-5" d="M196.67,93.47a.26.26,0,0,1-.25-.21.25.25,0,0,1,.21-.29l1.61-.28a.24.24,0,0,1,.29.2.25.25,0,0,1-.2.29l-1.62.28Z"/></g><polygon id="_Path_30" data-name="&lt;Path&gt;" class="cls-10" points="204.49 102.86 204.29 106.04 201.15 106.58 200.86 103.49 204.49 102.86"/><path id="_Compound_Path_11" data-name="&lt;Compound Path&gt;" class="cls-5" d="M198.79,113.85a.53.53,0,0,1-.38-.18.51.51,0,0,1-.09-.49l2.36-6.76a.51.51,0,0,1,.39-.33l3.14-.54a.49.49,0,0,1,.39.09.51.51,0,0,1,.19.35l.59,6.26a.5.5,0,0,1-.41.54l-6.09,1Zm2.74-6.82-2,5.68,4.79-.83-.49-5.25Z"/><path id="_Path_31" data-name="&lt;Path&gt;" class="cls-5" d="M203.05,110.26a.25.25,0,0,1-.25-.23l-.35-3.69a.25.25,0,0,1,.23-.27.23.23,0,0,1,.27.22l.35,3.69a.26.26,0,0,1-.23.28Z"/></g><g id="_Group_18" data-name="&lt;Group&gt;"><g id="_Group_19" data-name="&lt;Group&gt;"><g id="_Group_20" data-name="&lt;Group&gt;"><polyline id="_Path_32" data-name="&lt;Path&gt;" class="cls-7" points="187.72 95.72 188.07 98.79 188.44 101.93"/><path id="_Path_33" data-name="&lt;Path&gt;" class="cls-5" d="M188.43,102.43a.5.5,0,0,1-.49-.44l-.71-6.21a.5.5,0,0,1,.44-.56.52.52,0,0,1,.55.45l.71,6.2a.5.5,0,0,1-.44.56Z"/></g><path id="_Path_34" data-name="&lt;Path&gt;" class="cls-5" d="M188.07,99a.23.23,0,0,1-.17-.07l-2.06-2a.25.25,0,1,1,.35-.36l1.93,1.84,2.1-1a.25.25,0,0,1,.21.45L188.18,99Z"/><g id="_Group_21" data-name="&lt;Group&gt;"><path id="_Path_35" data-name="&lt;Path&gt;" class="cls-8" d="M184.82,108.17l-4.49-6.49s9-4.42,13.49-.65-3.55,8.28-3.55,8.28l-3.51,1.6Z"/><path id="_Compound_Path_12" data-name="&lt;Compound Path&gt;" class="cls-5" d="M186.76,111.41a.48.48,0,0,1-.41-.21l-1.94-2.74h0L179.92,102a.5.5,0,0,1-.07-.41.51.51,0,0,1,.26-.33c.38-.18,9.39-4.52,14-.58a3.71,3.71,0,0,1,1.51,3.22c-.3,3.12-4.94,5.77-5.14,5.88L187,111.37A.45.45,0,0,1,186.76,111.41Zm-1.53-3.53,1.7,2.41,3.14-1.43s4.34-2.48,4.59-5.09a2.72,2.72,0,0,0-1.16-2.36c-3.56-3-10.45-.37-12.42.48Z"/></g><path id="_Path_36" data-name="&lt;Path&gt;" class="cls-5" d="M186.37,108.14a.25.25,0,0,1-.22-.12l-2.6-4.67a.25.25,0,0,1,.09-.34.26.26,0,0,1,.35.09l2.6,4.67a.26.26,0,0,1-.1.34A.27.27,0,0,1,186.37,108.14Z"/><path id="_Path_37" data-name="&lt;Path&gt;" class="cls-5" d="M188.65,109.47a.26.26,0,0,1-.25-.19l-1.32-6a.24.24,0,0,1,.19-.29.23.23,0,0,1,.29.19l1.33,6a.26.26,0,0,1-.19.3Z"/><path id="_Path_38" data-name="&lt;Path&gt;" class="cls-5" d="M187.23,102.37a.25.25,0,0,1-.25-.2l-.19-1a.25.25,0,0,1,.19-.29.25.25,0,0,1,.3.2l.19,1a.24.24,0,0,1-.2.29Z"/><path id="_Path_39" data-name="&lt;Path&gt;" class="cls-5" d="M189.46,109.83l-.07,0a.25.25,0,0,1-.17-.31l2.51-8.25a.27.27,0,0,1,.31-.17.25.25,0,0,1,.17.32l-2.51,8.25A.25.25,0,0,1,189.46,109.83Z"/><g id="_Group_22" data-name="&lt;Group&gt;"><rect id="_Rectangle_" data-name="&lt;Rectangle&gt;" class="cls-7" x="179.94" y="96.39" width="3.77" height="1.92" rx="0.83" ry="0.83" transform="translate(-23.99 84.05) rotate(-24.47)"/><path id="_Compound_Path_13" data-name="&lt;Compound Path&gt;" class="cls-5" d="M180.92,99.24a1.33,1.33,0,0,1-1.21-.78l-.11-.25a1.32,1.32,0,0,1,.66-1.75l1.92-.88a1.32,1.32,0,0,1,1.76.66l.11.24a1.32,1.32,0,0,1-.66,1.76h0l-1.92.88A1.37,1.37,0,0,1,180.92,99.24Zm1.81-2.78a.31.31,0,0,0-.13,0l-1.93.88a.33.33,0,0,0-.16.43l.11.25a.42.42,0,0,0,.18.17.35.35,0,0,0,.25,0l1.93-.88a.32.32,0,0,0,.16-.43l-.11-.25A.32.32,0,0,0,182.73,96.46Z"/></g><g id="_Group_23" data-name="&lt;Group&gt;"><rect id="_Rectangle_2" data-name="&lt;Rectangle&gt;" class="cls-7" x="190.06" y="95.77" width="3.77" height="1.92" rx="0.83" ry="0.83" transform="translate(-22.82 88.18) rotate(-24.47)"/><path id="_Compound_Path_14" data-name="&lt;Compound Path&gt;" class="cls-5" d="M191,98.62a1.34,1.34,0,0,1-1.21-.78l-.11-.25a1.33,1.33,0,0,1,.66-1.75l1.93-.88a1.33,1.33,0,0,1,1.76.66l.11.24a1.33,1.33,0,0,1-.66,1.76h0l-1.93.88A1.33,1.33,0,0,1,191,98.62Zm1.82-2.78a.35.35,0,0,0-.14,0l-1.92.88a.33.33,0,0,0-.17.43l.11.25a.34.34,0,0,0,.44.16l1.93-.88a.33.33,0,0,0,.16-.43l-.11-.25a.32.32,0,0,0-.19-.17Z"/></g><g id="_Group_24" data-name="&lt;Group&gt;"><rect id="_Rectangle_3" data-name="&lt;Rectangle&gt;" class="cls-7" x="183.14" y="98.87" width="3.77" height="1.92" rx="0.83" ry="0.83" transform="translate(-24.73 85.6) rotate(-24.47)"/><path id="_Compound_Path_15" data-name="&lt;Compound Path&gt;" class="cls-5" d="M184.12,101.72a1.33,1.33,0,0,1-1.21-.78l-.11-.25a1.27,1.27,0,0,1,0-1,1.34,1.34,0,0,1,.69-.75l1.92-.87a1.34,1.34,0,0,1,1,0,1.31,1.31,0,0,1,.74.7l.11.24a1.32,1.32,0,0,1-.65,1.76h0l-1.93.88A1.37,1.37,0,0,1,184.12,101.72Zm1.81-2.78a.31.31,0,0,0-.13,0l-1.93.88a.33.33,0,0,0-.16.43l.11.24a.33.33,0,0,0,.43.17l1.93-.88a.32.32,0,0,0,.16-.43l-.11-.25a.3.3,0,0,0-.18-.17Z"/></g><g id="_Group_25" data-name="&lt;Group&gt;"><rect id="_Rectangle_4" data-name="&lt;Rectangle&gt;" class="cls-7" x="190.69" y="91.64" width="3.77" height="1.92" rx="0.83" ry="0.83" transform="translate(-21.06 88.07) rotate(-24.47)"/><path id="_Compound_Path_16" data-name="&lt;Compound Path&gt;" class="cls-5" d="M191.67,94.49a1.34,1.34,0,0,1-1.21-.77l-.11-.25a1.29,1.29,0,0,1,0-1,1.32,1.32,0,0,1,.69-.74l1.93-.87a1.32,1.32,0,0,1,1.75.65l.12.25a1.34,1.34,0,0,1-.66,1.76h0l-1.93.87A1.37,1.37,0,0,1,191.67,94.49Zm1.81-2.77a.31.31,0,0,0-.13,0l-1.93.87a.33.33,0,0,0-.16.43l.11.25a.32.32,0,0,0,.19.17.31.31,0,0,0,.25,0l1.92-.87a.34.34,0,0,0,.16-.44l-.11-.24A.32.32,0,0,0,193.48,91.72Z"/></g><g id="_Group_26" data-name="&lt;Group&gt;"><rect id="_Rectangle_5" data-name="&lt;Rectangle&gt;" class="cls-7" x="183.02" y="92.41" width="3.77" height="1.92" rx="0.83" ry="0.83" transform="translate(-22.07 84.96) rotate(-24.47)"/><path id="_Compound_Path_17" data-name="&lt;Compound Path&gt;" class="cls-5" d="M184,95.26a1.32,1.32,0,0,1-1.21-.78l-.11-.25a1.31,1.31,0,0,1,.65-1.75l1.93-.88a1.32,1.32,0,0,1,1.76.66l.11.24a1.33,1.33,0,0,1-.66,1.76h0l-1.92.88A1.37,1.37,0,0,1,184,95.26Zm1.81-2.78a.28.28,0,0,0-.13,0l-1.93.88a.3.3,0,0,0-.17.18.31.31,0,0,0,0,.25l.11.24a.32.32,0,0,0,.43.17l1.93-.88a.33.33,0,0,0,.16-.43l-.11-.25A.34.34,0,0,0,185.81,92.48Z"/></g><g id="_Group_27" data-name="&lt;Group&gt;"><g id="_Group_28" data-name="&lt;Group&gt;"><path id="_Path_40" data-name="&lt;Path&gt;" class="cls-8" d="M186,95.3a2,2,0,0,0-2.68-1l-1.15.52,4,1.22A2,2,0,0,0,186,95.3Z"/><path id="_Compound_Path_18" data-name="&lt;Compound Path&gt;" class="cls-5" d="M186.14,96.54l-.15,0-4-1.22a.51.51,0,0,1-.06-.94l1.14-.51a2.49,2.49,0,0,1,1.93-.07,2.56,2.56,0,0,1,1.42,1.32h0a2.53,2.53,0,0,1,.21.92.49.49,0,0,1-.19.42A.47.47,0,0,1,186.14,96.54Zm-2.59-1.81,1.83.56A1.52,1.52,0,0,0,183.55,94.73Z"/></g><g id="_Group_29" data-name="&lt;Group&gt;"><path id="_Path_41" data-name="&lt;Path&gt;" class="cls-8" d="M185.31,97.78a2,2,0,0,0,.82-1.74l-4-1.22-1.37.63S182.77,98.09,185.31,97.78Z"/><path id="_Compound_Path_19" data-name="&lt;Compound Path&gt;" class="cls-5" d="M184.89,98.3c-2.55,0-4.45-2.44-4.53-2.55a.54.54,0,0,1-.09-.43.51.51,0,0,1,.28-.33l1.38-.63a.47.47,0,0,1,.35,0l4,1.22a.51.51,0,0,1,.35.46,2.5,2.5,0,0,1-1,2.16.51.51,0,0,1-.24.1A3.85,3.85,0,0,1,184.89,98.3Zm-3.31-2.68a4.86,4.86,0,0,0,3.54,1.68,1.55,1.55,0,0,0,.49-.9l-3.44-1.05Z"/></g></g><g id="_Group_30" data-name="&lt;Group&gt;"><g id="_Group_31" data-name="&lt;Group&gt;"><path id="_Path_42" data-name="&lt;Path&gt;" class="cls-8" d="M187.19,95.09A3.08,3.08,0,0,1,188.71,91l1.73-.79L187.86,96A2.84,2.84,0,0,1,187.19,95.09Z"/><path id="_Compound_Path_20" data-name="&lt;Compound Path&gt;" class="cls-5" d="M187.86,96.52a.5.5,0,0,1-.35-.14,3.59,3.59,0,0,1-.78-1.08h0a3.57,3.57,0,0,1,1.77-4.72l1.73-.79a.5.5,0,0,1,.66.66l-2.58,5.78a.47.47,0,0,1-.36.28Zm-.22-1.64a.77.77,0,0,0,.1.18l1.7-3.81-.52.24a2.57,2.57,0,0,0-1.28,3.39Z"/></g><g id="_Group_32" data-name="&lt;Group&gt;"><path id="_Path_43" data-name="&lt;Path&gt;" class="cls-8" d="M190.66,96.81a3.05,3.05,0,0,1-2.8-.79l2.58-5.78,2.08-.94S193.54,94.21,190.66,96.81Z"/><path id="_Compound_Path_21" data-name="&lt;Compound Path&gt;" class="cls-5" d="M190,97.39a3.58,3.58,0,0,1-2.48-1,.49.49,0,0,1-.11-.56L190,90a.51.51,0,0,1,.25-.25l2.09-1a.5.5,0,0,1,.43,0,.49.49,0,0,1,.26.34c.05.22,1,5.24-2,8a.48.48,0,0,1-.22.12A3.46,3.46,0,0,1,190,97.39Zm-1.52-1.51a2.52,2.52,0,0,0,1.95.47c2-1.86,1.85-5,1.7-6.32l-1.3.59Z"/></g></g><path id="_Path_44" data-name="&lt;Path&gt;" class="cls-5" d="M186.74,99.3a.25.25,0,0,1-.22-.15.24.24,0,0,1,.12-.33l1.39-.63a.24.24,0,0,1,.33.12.25.25,0,0,1-.13.33l-1.38.63A.23.23,0,0,1,186.74,99.3Z"/></g><polygon id="_Path_45" data-name="&lt;Path&gt;" class="cls-10" points="186.76 110.91 188.46 113.54 191.16 112.31 189.88 109.49 186.76 110.91"/><path id="_Compound_Path_22" data-name="&lt;Compound Path&gt;" class="cls-5" d="M191.05,119.73a.52.52,0,0,1-.46-.29L188,113.75a.52.52,0,0,1,0-.39.49.49,0,0,1,.26-.27l2.7-1.23a.49.49,0,0,1,.54.08l5.12,4.53a.49.49,0,0,1,.16.45.48.48,0,0,1-.28.38l-5.23,2.38A.54.54,0,0,1,191.05,119.73Zm-1.93-5.94,2.18,4.78,4.07-1.86-4.3-3.81Z"/><path id="_Path_46" data-name="&lt;Path&gt;" class="cls-5" d="M191.35,116.52a.24.24,0,0,1-.22-.14L189.6,113a.25.25,0,0,1,.12-.33.25.25,0,0,1,.33.12l1.53,3.36a.25.25,0,0,1-.12.33A.22.22,0,0,1,191.35,116.52Z"/></g><g id="_Group_33" data-name="&lt;Group&gt;"><g id="_Group_34" data-name="&lt;Group&gt;"><g id="_Group_35" data-name="&lt;Group&gt;"><polyline id="_Path_47" data-name="&lt;Path&gt;" class="cls-7" points="205.02 98.84 204.63 101.87 204.24 104.96"/><path id="_Path_48" data-name="&lt;Path&gt;" class="cls-5" d="M204.24,105.46h-.07a.51.51,0,0,1-.43-.56l.78-6.12a.5.5,0,1,1,1,.12l-.78,6.13A.49.49,0,0,1,204.24,105.46Z"/></g><path id="_Path_49" data-name="&lt;Path&gt;" class="cls-5" d="M204.63,102.12l-.1,0L202.07,101a.25.25,0,0,1-.13-.32.25.25,0,0,1,.33-.13l2.32,1,2.13-1.83a.25.25,0,0,1,.32.38l-2.25,1.94A.23.23,0,0,1,204.63,102.12Z"/><g id="_Group_36" data-name="&lt;Group&gt;"><path id="_Path_50" data-name="&lt;Path&gt;" class="cls-8" d="M208.19,111.11l4.9-6.39s-9.88-4.37-14.74-.64,3.88,8.16,3.88,8.16l3.84,1.58Z"/><path id="_Compound_Path_23" data-name="&lt;Compound Path&gt;" class="cls-5" d="M206.07,114.32a.43.43,0,0,1-.19,0L202,112.71c-.26-.13-5.36-2.76-5.65-5.88a3.52,3.52,0,0,1,1.65-3.15c5-3.86,14.84.4,15.26.58a.51.51,0,0,1,.28.34.49.49,0,0,1-.09.42l-4.9,6.4h0l-2.12,2.71A.49.49,0,0,1,206.07,114.32Zm-2.43-11.25a8.15,8.15,0,0,0-5,1.4,2.58,2.58,0,0,0-1.26,2.27c.19,2.13,3.72,4.37,5.06,5.06l3.46,1.42,1.89-2.41,4.5-5.88A26.26,26.26,0,0,0,203.64,103.07Z"/></g><path id="_Path_51" data-name="&lt;Path&gt;" class="cls-5" d="M206.49,111.09a.31.31,0,0,1-.13,0,.27.27,0,0,1-.08-.35l2.85-4.6a.24.24,0,0,1,.34-.08.24.24,0,0,1,.08.34l-2.84,4.6A.25.25,0,0,1,206.49,111.09Z"/><path id="_Path_52" data-name="&lt;Path&gt;" class="cls-5" d="M204,112.4H204a.26.26,0,0,1-.19-.31l1.45-5.94a.26.26,0,0,1,.31-.18.25.25,0,0,1,.18.3l-1.45,5.94A.24.24,0,0,1,204,112.4Z"/><path id="_Path_53" data-name="&lt;Path&gt;" class="cls-5" d="M205.56,105.4h-.05a.25.25,0,0,1-.2-.29l.22-1a.25.25,0,0,1,.29-.19.27.27,0,0,1,.2.3l-.22,1A.25.25,0,0,1,205.56,105.4Z"/><path id="_Path_54" data-name="&lt;Path&gt;" class="cls-5" d="M203.12,112.75a.24.24,0,0,1-.24-.17l-2.74-8.14a.25.25,0,0,1,.47-.16l2.74,8.14a.24.24,0,0,1-.15.32Z"/><g id="_Group_37" data-name="&lt;Group&gt;"><path id="_Path_55" data-name="&lt;Path&gt;" class="cls-7" d="M210,100.87l2.25.92a.82.82,0,0,0,1-.38l.14-.28A.8.8,0,0,0,213,100l-2.25-.93a.83.83,0,0,0-1,.39l-.14.27A.81.81,0,0,0,210,100.87Z"/><path id="_Compound_Path_24" data-name="&lt;Compound Path&gt;" class="cls-5" d="M212.5,102.35a1.28,1.28,0,0,1-.48-.09l-2.25-.93a1.3,1.3,0,0,1-.74-.75,1.33,1.33,0,0,1,.06-1l.14-.28a1.35,1.35,0,0,1,1.67-.62l2.25.92a1.3,1.3,0,0,1,.67,1.81l-.14.27A1.32,1.32,0,0,1,212.5,102.35Zm-2.08-2.81a.32.32,0,0,0-.29.16L210,100a.31.31,0,0,0,0,.25.32.32,0,0,0,.18.18h0l2.25.92a.32.32,0,0,0,.39-.15l.14-.27a.32.32,0,0,0,0-.25.29.29,0,0,0-.18-.18l-2.25-.92A.18.18,0,0,0,210.42,99.54Z"/></g><g id="_Group_38" data-name="&lt;Group&gt;"><path id="_Path_56" data-name="&lt;Path&gt;" class="cls-7" d="M198.89,100.26l2.25.92a.83.83,0,0,0,1-.38l.14-.28a.79.79,0,0,0-.41-1.11l-2.25-.93a.83.83,0,0,0-1,.39l-.14.27A.81.81,0,0,0,198.89,100.26Z"/><path id="_Compound_Path_25" data-name="&lt;Compound Path&gt;" class="cls-5" d="M201.43,101.74a1.18,1.18,0,0,1-.48-.1l-2.25-.92h0A1.31,1.31,0,0,1,198,100a1.28,1.28,0,0,1,.06-1l.14-.28a1.33,1.33,0,0,1,1.67-.62l2.25.92a1.31,1.31,0,0,1,.73.75,1.28,1.28,0,0,1-.06,1l-.14.28A1.34,1.34,0,0,1,201.43,101.74Zm-2.35-1.95,2.25.93a.33.33,0,0,0,.4-.15l.14-.28a.36.36,0,0,0,0-.25.33.33,0,0,0-.18-.17l-2.25-.93a.35.35,0,0,0-.4.15l-.13.28a.28.28,0,0,0,0,.25.29.29,0,0,0,.17.17Z"/></g><g id="_Group_39" data-name="&lt;Group&gt;"><path id="_Path_57" data-name="&lt;Path&gt;" class="cls-7" d="M206.46,103.31l2.25.93a.83.83,0,0,0,1-.39l.14-.27a.8.8,0,0,0-.42-1.12l-2.24-.92a.83.83,0,0,0-1,.38l-.13.28A.79.79,0,0,0,206.46,103.31Z"/><path id="_Compound_Path_26" data-name="&lt;Compound Path&gt;" class="cls-5" d="M209,104.79a1.32,1.32,0,0,1-.48-.09l-2.25-.92a1.3,1.3,0,0,1-.73-.76,1.29,1.29,0,0,1,.06-1l.14-.27a1.32,1.32,0,0,1,1.66-.62l2.25.92a1.3,1.3,0,0,1,.74.75,1.33,1.33,0,0,1-.06,1l-.14.28A1.36,1.36,0,0,1,209,104.79ZM206.92,102a.33.33,0,0,0-.29.17l-.14.28a.29.29,0,0,0,.16.42h0l2.25.92a.32.32,0,0,0,.39-.14l.14-.28a.31.31,0,0,0,0-.25.28.28,0,0,0-.18-.17L207,102Z"/></g><g id="_Group_40" data-name="&lt;Group&gt;"><path id="_Path_58" data-name="&lt;Path&gt;" class="cls-7" d="M198.21,96.19l2.25.92a.82.82,0,0,0,1-.38l.14-.28a.8.8,0,0,0-.42-1.11L199,94.41a.83.83,0,0,0-1,.39l-.14.28A.8.8,0,0,0,198.21,96.19Z"/><path id="_Compound_Path_27" data-name="&lt;Compound Path&gt;" class="cls-5" d="M200.75,97.67a1.32,1.32,0,0,1-.48-.09L198,96.65h0a1.3,1.3,0,0,1-.74-.75,1.33,1.33,0,0,1,.07-1.05l.14-.28a1.34,1.34,0,0,1,1.66-.62l2.25.93a1.27,1.27,0,0,1,.74.75,1.29,1.29,0,0,1-.07,1.05l-.14.27A1.32,1.32,0,0,1,200.75,97.67Zm-2.35-1.94,2.25.92a.31.31,0,0,0,.39-.15l.14-.27a.3.3,0,0,0-.16-.43l-2.25-.92a.32.32,0,0,0-.39.14l-.14.28a.31.31,0,0,0,0,.25.32.32,0,0,0,.18.18Z"/></g><g id="_Group_41" data-name="&lt;Group&gt;"><path id="_Path_59" data-name="&lt;Path&gt;" class="cls-7" d="M206.59,96.94l2.25.93a.83.83,0,0,0,1-.39l.14-.27a.8.8,0,0,0-.41-1.12l-2.25-.92a.82.82,0,0,0-1,.38l-.14.28A.79.79,0,0,0,206.59,96.94Z"/><path id="_Compound_Path_28" data-name="&lt;Compound Path&gt;" class="cls-5" d="M209.14,98.42a1.37,1.37,0,0,1-.49-.09l-2.25-.92a1.33,1.33,0,0,1-.73-.76,1.29,1.29,0,0,1,.06-1.05l.14-.27a1.32,1.32,0,0,1,1.67-.62l2.25.92a1.31,1.31,0,0,1,.73.75,1.28,1.28,0,0,1-.06,1.05l-.14.28A1.33,1.33,0,0,1,209.14,98.42Zm-2.08-2.81a.33.33,0,0,0-.29.17l-.15.28a.29.29,0,0,0,0,.24.3.3,0,0,0,.17.18h0l2.24.92a.33.33,0,0,0,.4-.14l.14-.28a.31.31,0,0,0,0-.25.35.35,0,0,0-.18-.18l-2.25-.92Z"/></g><g id="_Group_42" data-name="&lt;Group&gt;"><g id="_Group_43" data-name="&lt;Group&gt;"><path id="_Path_60" data-name="&lt;Path&gt;" class="cls-8" d="M206.94,98.43a2.32,2.32,0,0,1,2.93-1l1.25.51-4.37,1.2A1.72,1.72,0,0,1,206.94,98.43Z"/><path id="_Compound_Path_29" data-name="&lt;Compound Path&gt;" class="cls-5" d="M206.75,99.65a.45.45,0,0,1-.31-.11.48.48,0,0,1-.19-.41,2.3,2.3,0,0,1,.25-.93h0A2.82,2.82,0,0,1,210.06,97l1.25.52a.49.49,0,0,1,.31.49.5.5,0,0,1-.37.45l-4.37,1.21ZM209,97.76a1.81,1.81,0,0,0-1.43.66l2-.56A1.76,1.76,0,0,0,209,97.76Z"/></g><g id="_Group_44" data-name="&lt;Group&gt;"><path id="_Path_61" data-name="&lt;Path&gt;" class="cls-8" d="M207.65,100.87a2,2,0,0,1-.9-1.72l4.37-1.2,1.51.62S210.43,101.17,207.65,100.87Z"/><path id="_Compound_Path_30" data-name="&lt;Compound Path&gt;" class="cls-5" d="M208.11,101.39a4.36,4.36,0,0,1-.51,0,.35.35,0,0,1-.22-.08,2.43,2.43,0,0,1-1.13-2.15.5.5,0,0,1,.37-.46l4.37-1.2a.44.44,0,0,1,.32,0l1.51.61a.54.54,0,0,1,.29.35.5.5,0,0,1-.1.44C212.92,99,210.86,101.39,208.11,101.39Zm-.28-1a5.56,5.56,0,0,0,3.92-1.63l-.66-.27-3.81,1A1.44,1.44,0,0,0,207.83,100.38Z"/></g></g><g id="_Group_45" data-name="&lt;Group&gt;"><g id="_Group_46" data-name="&lt;Group&gt;"><path id="_Path_62" data-name="&lt;Path&gt;" class="cls-8" d="M205.6,98.22a2.93,2.93,0,0,0-1.66-4l-1.89-.77,2.82,5.69A2.93,2.93,0,0,0,205.6,98.22Z"/><path id="_Compound_Path_31" data-name="&lt;Compound Path&gt;" class="cls-5" d="M204.87,99.64h-.1a.5.5,0,0,1-.35-.27l-2.82-5.7a.5.5,0,0,1,.08-.56.49.49,0,0,1,.56-.13l1.89.78a3.66,3.66,0,0,1,2.06,2.08,3.25,3.25,0,0,1-.14,2.61h0a3.47,3.47,0,0,1-.85,1.07A.51.51,0,0,1,204.87,99.64Zm-1.79-5.24L205,98.26a1.91,1.91,0,0,0,.16-.27,2.2,2.2,0,0,0,.1-1.81,2.65,2.65,0,0,0-1.5-1.51Z"/></g><g id="_Group_47" data-name="&lt;Group&gt;"><path id="_Path_63" data-name="&lt;Path&gt;" class="cls-8" d="M201.81,99.91a3.58,3.58,0,0,0,3.06-.78l-2.82-5.69-2.28-.94S198.66,97.35,201.81,99.91Z"/><path id="_Compound_Path_32" data-name="&lt;Compound Path&gt;" class="cls-5" d="M202.54,100.49a3.91,3.91,0,0,1-.83-.09.49.49,0,0,1-.22-.1c-3.35-2.73-2.25-7.7-2.21-7.91a.51.51,0,0,1,.26-.33.48.48,0,0,1,.42,0l2.28.93a.55.55,0,0,1,.26.24l2.82,5.7a.5.5,0,0,1-.12.6A4.08,4.08,0,0,1,202.54,100.49Zm-.51-1a3.17,3.17,0,0,0,2.21-.45l-2.56-5.16-1.52-.63C200,94.5,199.88,97.61,202,99.44Z"/></g></g><path id="_Path_64" data-name="&lt;Path&gt;" class="cls-5" d="M206.09,102.37l-.1,0-1.51-.62a.26.26,0,0,1-.14-.33.25.25,0,0,1,.33-.14l1.51.63a.24.24,0,0,1,.14.32A.26.26,0,0,1,206.09,102.37Z"/></g><polygon id="_Path_65" data-name="&lt;Path&gt;" class="cls-10" points="206.07 113.82 204.21 116.41 201.26 115.2 202.66 112.42 206.07 113.82"/><path id="_Compound_Path_33" data-name="&lt;Compound Path&gt;" class="cls-5" d="M201.38,122.52a.63.63,0,0,1-.19,0l-5.71-2.35a.51.51,0,0,1-.31-.39.54.54,0,0,1,.18-.47l5.6-4.47a.5.5,0,0,1,.5-.07l3,1.21a.5.5,0,0,1,.28.29.51.51,0,0,1,0,.4l-2.83,5.61A.5.5,0,0,1,201.38,122.52Zm-4.74-3,4.5,1.84,2.38-4.71-2.18-.9Z"/><path id="_Path_66" data-name="&lt;Path&gt;" class="cls-5" d="M201.05,119.36a.2.2,0,0,1-.11,0,.24.24,0,0,1-.12-.33l1.67-3.31a.26.26,0,0,1,.34-.12.26.26,0,0,1,.11.34l-1.67,3.31A.24.24,0,0,1,201.05,119.36Z"/></g></g></g><line id="_Path_67" data-name="&lt;Path&gt;" class="cls-11" x1="192.9" y1="147.04" x2="199.31" y2="148.47"/><line id="_Path_68" data-name="&lt;Path&gt;" class="cls-11" x1="176.84" y1="143.43" x2="188.32" y2="146.01"/><path id="_Path_69" data-name="&lt;Path&gt;" class="cls-11" d="M36,83.64l92.28,20.64a6.31,6.31,0,0,1,.54,12.18L99,126l74.07,16.62"/><path id="_Path_70" data-name="&lt;Path&gt;" class="cls-11" d="M23.42,95.8l63.73,15.26L48.89,122.14a6.23,6.23,0,0,0,.28,12l121,29"/><line id="_Path_71" data-name="&lt;Path&gt;" class="cls-11" x1="13.37" y1="93.39" x2="21.38" y2="95.31"/><line id="_Path_72" data-name="&lt;Path&gt;" class="cls-11" x1="5.46" y1="91.49" x2="11.12" y2="92.85"/><line id="_Path_73" data-name="&lt;Path&gt;" class="cls-12" x1="44.41" y1="128.54" x2="192.16" y2="163.14"/><line id="_Path_74" data-name="&lt;Path&gt;" class="cls-13" x1="67.89" y1="119.01" x2="84.1" y2="122.84"/><line id="_Path_75" data-name="&lt;Path&gt;" class="cls-13" x1="86.23" y1="113.59" x2="102.43" y2="117.41"/><line id="_Path_76" data-name="&lt;Path&gt;" class="cls-13" x1="99.69" y1="108.49" x2="115.89" y2="112.31"/><polyline id="_Path_77" data-name="&lt;Path&gt;" class="cls-12" points="99.04 126.22 89.42 123.97 133.19 109.83"/><polyline id="_Path_78" data-name="&lt;Path&gt;" class="cls-12" points="87.15 111.06 95.36 108.56 18.77 90.17"/><line id="_Path_79" data-name="&lt;Path&gt;" class="cls-13" x1="93.27" y1="105.93" x2="106.58" y2="101.06"/><line id="_Path_80" data-name="&lt;Path&gt;" class="cls-13" x1="75.99" y1="101.94" x2="89.31" y2="97.06"/><line id="_Path_81" data-name="&lt;Path&gt;" class="cls-13" x1="58.72" y1="97.94" x2="72.03" y2="93.07"/><line id="_Path_82" data-name="&lt;Path&gt;" class="cls-13" x1="41.45" y1="93.95" x2="54.76" y2="89.08"/><line id="_Path_83" data-name="&lt;Path&gt;" class="cls-13" x1="24.17" y1="89.96" x2="37.49" y2="85.08"/><line id="_Path_84" data-name="&lt;Path&gt;" class="cls-13" x1="148.59" y1="148.61" x2="162.83" y2="143.11"/><line id="_Path_85" data-name="&lt;Path&gt;" class="cls-13" x1="130.12" y1="144.67" x2="144.36" y2="139.17"/><g id="_Group_48" data-name="&lt;Group&gt;"><path id="_Path_86" data-name="&lt;Path&gt;" class="cls-3" d="M123.22,92.54l-3.72,13.63c0,1.53-4.11,2.78-9.18,2.78s-9.18-1.25-9.18-2.78h0L97.42,92.29"/><path id="_Path_87" data-name="&lt;Path&gt;" class="cls-14" d="M124.85,84.91l-.63,5.88c0,2.32-6.2,4.2-13.86,4.2s-13.85-1.88-13.85-4.2h0L96,85"/><line id="_Path_88" data-name="&lt;Path&gt;" class="cls-12" x1="104.96" y1="108.42" x2="102.31" y2="94.21"/><line id="_Path_89" data-name="&lt;Path&gt;" class="cls-12" x1="108.13" y1="108.95" x2="107.69" y2="94.99"/><ellipse id="_Path_90" data-name="&lt;Path&gt;" class="cls-15" cx="110.36" cy="84.91" rx="14.48" ry="4.39"/><line id="_Path_91" data-name="&lt;Path&gt;" class="cls-12" x1="111.91" y1="108.91" x2="112.72" y2="94.93"/><line id="_Path_92" data-name="&lt;Path&gt;" class="cls-12" x1="115.33" y1="108.42" x2="118.42" y2="94.21"/><path id="_Path_93" data-name="&lt;Path&gt;" class="cls-12" d="M97.42,88.15s3.14,2.48,12.66,2.32"/><path id="_Path_94" data-name="&lt;Path&gt;" class="cls-12" d="M114.39,90.28s6.63-.44,9-2.13"/><path id="_Path_95" data-name="&lt;Path&gt;" class="cls-12" d="M117.84,91.23a25.21,25.21,0,0,0,4.37-1"/><path id="_Path_96" data-name="&lt;Path&gt;" class="cls-12" d="M105.44,93.42a37.09,37.09,0,0,0,6.47.16"/><path id="_Path_97" data-name="&lt;Path&gt;" class="cls-16" d="M99,98.22s11.84,3.68,22.76-.37l-1.23,4.52s-10.76,5-20.52-.4Z"/><g id="_Group_49" data-name="&lt;Group&gt;"><path id="_Path_98" data-name="&lt;Path&gt;" class="cls-2" d="M109.91,101.85c.1-4.27-7.57-8.42-7.13-3.64s7.13,3.64,7.13,3.64"/><path id="_Path_99" data-name="&lt;Path&gt;" class="cls-16" d="M109.91,101.47c-5.4-1.06-4.4-5.15-4.4-5.15l.46.31a10.79,10.79,0,0,1,3.94,4.84Z"/></g><g id="_Group_50" data-name="&lt;Group&gt;"><path id="_Path_100" data-name="&lt;Path&gt;" class="cls-2" d="M110.81,102.25c-.09-4.27,7.57-8.42,7.13-3.65s-7.13,3.65-7.13,3.65"/><path id="_Path_101" data-name="&lt;Path&gt;" class="cls-16" d="M110.81,101.87c5.4-1.07,4.4-5.15,4.4-5.15l-.45.3a10.83,10.83,0,0,0-4,4.85Z"/></g><path id="_Path_102" data-name="&lt;Path&gt;" class="cls-2" d="M109.56,102.37s-4.44,2.93-2.09,7.08l3.64,1.35s-2.85-4-.51-8"/><path id="_Path_103" data-name="&lt;Path&gt;" class="cls-2" d="M110.91,102.77s-.78,7.43,4.68,7.53l2.83-1.88s-5.7-2.18-6.63-6.26"/><path id="_Path_104" data-name="&lt;Path&gt;" class="cls-17" d="M96.26,84.91c0-1.9,5.79-4,14.1-4s14.11,2.12,14.11,4h.76c0-3-7.56-4.77-14.87-4.77S95.5,81.92,95.5,84.91h.76Z"/><ellipse id="_Path_105" data-name="&lt;Path&gt;" class="cls-2" cx="110.6" cy="101.71" rx="1.31" ry="1.09"/><g id="_Clip_Group_2" data-name="&lt;Clip Group&gt;"><g class="cls-18"><ellipse id="_Path_106" data-name="&lt;Path&gt;" class="cls-10" cx="121.17" cy="85.5" rx="3.46" ry="2.72" transform="translate(15.82 189.87) rotate(-79.94)"/><path id="_Path_107" data-name="&lt;Path&gt;" class="cls-12" d="M119.4,84.2a5.77,5.77,0,0,0,3.66,1.41"/><path id="_Path_108" data-name="&lt;Path&gt;" class="cls-12" d="M118.86,85.63A5.77,5.77,0,0,0,122.52,87"/><ellipse id="_Path_109" data-name="&lt;Path&gt;" class="cls-2" cx="109.28" cy="89.31" rx="2.83" ry="3.46" transform="translate(-24.9 45.56) rotate(-21.2)"/><ellipse id="_Path_110" data-name="&lt;Path&gt;" class="cls-2" cx="109.3" cy="75.06" rx="2.91" ry="3.46"/><path id="_Path_111" data-name="&lt;Path&gt;" class="cls-12" d="M107.34,74.83a5.77,5.77,0,0,0,3.91-.24"/><path id="_Path_112" data-name="&lt;Path&gt;" class="cls-12" d="M107.34,76.37a5.77,5.77,0,0,0,3.91-.24"/><path id="_Path_113" data-name="&lt;Path&gt;" class="cls-12" d="M107.3,89.27a5.82,5.82,0,0,0,3.82-.88"/></g></g><path id="_Path_114" data-name="&lt;Path&gt;" class="cls-1" d="M110.36,88.93c8.32,0,14.11-2.12,14.11-4H96.26C96.26,86.81,102.05,88.93,110.36,88.93Z"/><path id="_Path_115" data-name="&lt;Path&gt;" class="cls-1" d="M110.36,80.89c-8.31,0-14.1,2.12-14.1,4h28.21C124.47,83,118.68,80.89,110.36,80.89Z"/><path id="_Path_116" data-name="&lt;Path&gt;" class="cls-17" d="M124.47,84.91c0,1.9-5.79,4-14.11,4s-14.1-2.12-14.1-4H95.5c0,3,7.56,4.77,14.86,4.77s14.87-1.78,14.87-4.77Z"/></g><g id="_Group_51" data-name="&lt;Group&gt;"><path id="_Path_117" data-name="&lt;Path&gt;" class="cls-3" d="M67.15,78.8,63.43,92.43c0,1.54-4.11,2.78-9.18,2.78S45.07,94,45.07,92.43h0L41.35,78.55"/><path id="_Path_118" data-name="&lt;Path&gt;" class="cls-14" d="M68.78,71.17l-.63,5.88c0,2.32-6.2,4.2-13.86,4.2s-13.85-1.88-13.85-4.2h0L40,71.24"/><line id="_Path_119" data-name="&lt;Path&gt;" class="cls-12" x1="48.88" y1="94.69" x2="46.24" y2="80.47"/><line id="_Path_120" data-name="&lt;Path&gt;" class="cls-12" x1="52.06" y1="95.21" x2="51.62" y2="81.25"/><ellipse id="_Path_121" data-name="&lt;Path&gt;" class="cls-15" cx="54.29" cy="71.17" rx="14.48" ry="4.39"/><line id="_Path_122" data-name="&lt;Path&gt;" class="cls-12" x1="55.84" y1="95.17" x2="56.65" y2="81.19"/><line id="_Path_123" data-name="&lt;Path&gt;" class="cls-12" x1="59.26" y1="94.69" x2="62.35" y2="80.47"/><path id="_Path_124" data-name="&lt;Path&gt;" class="cls-12" d="M41.35,74.41S44.49,76.89,54,76.74"/><path id="_Path_125" data-name="&lt;Path&gt;" class="cls-12" d="M58.31,76.55s6.63-.44,9-2.14"/><path id="_Path_126" data-name="&lt;Path&gt;" class="cls-12" d="M61.77,77.49a25.84,25.84,0,0,0,4.37-.94"/><path id="_Path_127" data-name="&lt;Path&gt;" class="cls-12" d="M49.36,79.68a37.23,37.23,0,0,0,6.48.16"/><path id="_Path_128" data-name="&lt;Path&gt;" class="cls-16" d="M42.94,84.48s11.84,3.68,22.76-.36l-1.23,4.52s-10.76,5-20.52-.41Z"/><g id="_Group_52" data-name="&lt;Group&gt;"><path id="_Path_129" data-name="&lt;Path&gt;" class="cls-2" d="M53.84,88.12c.1-4.28-7.57-8.43-7.13-3.65s7.13,3.65,7.13,3.65"/><path id="_Path_130" data-name="&lt;Path&gt;" class="cls-16" d="M53.84,87.74c-5.4-1.07-4.4-5.16-4.4-5.16l.45.31a10.78,10.78,0,0,1,4,4.85Z"/></g><g id="_Group_53" data-name="&lt;Group&gt;"><path id="_Path_131" data-name="&lt;Path&gt;" class="cls-2" d="M54.74,88.51c-.09-4.27,7.57-8.42,7.13-3.64s-7.13,3.64-7.13,3.64"/><path id="_Path_132" data-name="&lt;Path&gt;" class="cls-16" d="M54.74,88.13c5.4-1.06,4.4-5.15,4.4-5.15l-.45.31a10.75,10.75,0,0,0-3.95,4.84Z"/></g><path id="_Path_133" data-name="&lt;Path&gt;" class="cls-2" d="M53.49,88.63S49,91.56,51.4,95.71L55,97.06s-2.85-4-.51-8"/><path id="_Path_134" data-name="&lt;Path&gt;" class="cls-2" d="M54.84,89s-.79,7.44,4.67,7.53l2.84-1.87s-5.7-2.19-6.63-6.27"/><path id="_Path_135" data-name="&lt;Path&gt;" class="cls-17" d="M40.19,71.17c0-1.9,5.79-4,14.1-4s14.11,2.11,14.11,4h.75c0-3-7.55-4.77-14.86-4.77s-14.86,1.79-14.86,4.77h.76Z"/><ellipse id="_Path_136" data-name="&lt;Path&gt;" class="cls-2" cx="54.53" cy="87.97" rx="1.31" ry="1.09"/><path id="_Path_137" data-name="&lt;Path&gt;" class="cls-1" d="M54.29,75.19c8.32,0,14.11-2.12,14.11-4H40.19C40.19,73.07,46,75.19,54.29,75.19Z"/><path id="_Path_138" data-name="&lt;Path&gt;" class="cls-1" d="M54.29,67.16c-8.31,0-14.1,2.11-14.1,4H68.4C68.4,69.27,62.61,67.16,54.29,67.16Z"/><path id="_Path_139" data-name="&lt;Path&gt;" class="cls-17" d="M68.4,71.17c0,1.9-5.79,4-14.11,4s-14.1-2.12-14.1-4h-.76c0,3,7.56,4.77,14.86,4.77s14.86-1.78,14.86-4.77Z"/></g><polygon id="_Path_140" data-name="&lt;Path&gt;" class="cls-2" points="42.87 92.52 53.23 110.09 61.65 118.44 54.41 120.67 46.24 113.91 42.55 105.79 42.87 92.52"/><line id="_Path_141" data-name="&lt;Path&gt;" class="cls-13" x1="111.64" y1="140.73" x2="125.88" y2="135.23"/><line id="_Path_142" data-name="&lt;Path&gt;" class="cls-13" x1="93.16" y1="136.8" x2="107.4" y2="131.29"/><line id="_Path_143" data-name="&lt;Path&gt;" class="cls-13" x1="74.69" y1="132.86" x2="88.93" y2="127.35"/><g id="_Group_54" data-name="&lt;Group&gt;"><path id="_Path_144" data-name="&lt;Path&gt;" class="cls-2" d="M175.62,119.29l-2,.66a20,20,0,0,1-10.6.47l-15.21-3.49v3.48L163,123.89a20,20,0,0,0,10.6-.47l2-.66"/></g><g id="_Group_55" data-name="&lt;Group&gt;"><path id="_Path_145" data-name="&lt;Path&gt;" class="cls-3" d="M131.82,125.26l-3.72,13.63c0,1.53-4.11,2.78-9.18,2.78s-9.18-1.25-9.18-2.78h0L106,125"/><path id="_Path_146" data-name="&lt;Path&gt;" class="cls-14" d="M133.44,117.63l-.63,5.88c0,2.32-6.2,4.2-13.85,4.2s-13.86-1.88-13.86-4.2h0l-.47-5.82"/><line id="_Path_147" data-name="&lt;Path&gt;" class="cls-12" x1="113.55" y1="141.14" x2="110.91" y2="126.92"/><line id="_Path_148" data-name="&lt;Path&gt;" class="cls-12" x1="116.73" y1="141.67" x2="116.29" y2="127.71"/><ellipse id="_Path_149" data-name="&lt;Path&gt;" class="cls-15" cx="118.96" cy="117.63" rx="14.48" ry="4.39"/><line id="_Path_150" data-name="&lt;Path&gt;" class="cls-12" x1="120.5" y1="141.63" x2="121.31" y2="127.65"/><line id="_Path_151" data-name="&lt;Path&gt;" class="cls-12" x1="123.92" y1="141.14" x2="127.01" y2="126.92"/><path id="_Path_152" data-name="&lt;Path&gt;" class="cls-12" d="M106,120.87s3.14,2.48,12.66,2.32"/><path id="_Path_153" data-name="&lt;Path&gt;" class="cls-12" d="M123,123s6.63-.44,9-2.13"/><path id="_Path_154" data-name="&lt;Path&gt;" class="cls-12" d="M126.44,124a25,25,0,0,0,4.36-1"/><path id="_Path_155" data-name="&lt;Path&gt;" class="cls-12" d="M114,126.14a37.09,37.09,0,0,0,6.47.16"/><path id="_Path_156" data-name="&lt;Path&gt;" class="cls-16" d="M107.61,130.94s11.83,3.67,22.76-.37l-1.24,4.52s-10.76,5-20.52-.4Z"/><g id="_Group_56" data-name="&lt;Group&gt;"><path id="_Path_157" data-name="&lt;Path&gt;" class="cls-2" d="M118.51,134.57c.09-4.27-7.58-8.42-7.14-3.64s7.14,3.64,7.14,3.64"/><path id="_Path_158" data-name="&lt;Path&gt;" class="cls-16" d="M118.51,134.19c-5.41-1.07-4.4-5.15-4.4-5.15l.45.3a10.89,10.89,0,0,1,4,4.85Z"/></g><g id="_Group_57" data-name="&lt;Group&gt;"><path id="_Path_159" data-name="&lt;Path&gt;" class="cls-2" d="M119.41,135c-.1-4.27,7.57-8.42,7.13-3.65s-7.13,3.65-7.13,3.65"/><path id="_Path_160" data-name="&lt;Path&gt;" class="cls-16" d="M119.4,134.59c5.41-1.07,4.4-5.15,4.4-5.15l-.45.3a10.84,10.84,0,0,0-3.95,4.85Z"/></g><path id="_Path_161" data-name="&lt;Path&gt;" class="cls-2" d="M118.16,135.09s-4.45,2.93-2.09,7.08l3.64,1.35s-2.85-4.05-.51-8"/><path id="_Path_162" data-name="&lt;Path&gt;" class="cls-2" d="M119.5,135.49s-.78,7.43,4.68,7.53l2.83-1.88s-5.69-2.18-6.62-6.26"/><path id="_Path_163" data-name="&lt;Path&gt;" class="cls-17" d="M104.85,117.63c0-1.9,5.79-4,14.11-4s14.11,2.12,14.11,4h.75c0-3-7.56-4.77-14.86-4.77s-14.86,1.78-14.86,4.77h.75Z"/><ellipse id="_Path_164" data-name="&lt;Path&gt;" class="cls-2" cx="119.2" cy="134.43" rx="1.31" ry="1.09"/><g id="_Clip_Group_3" data-name="&lt;Clip Group&gt;"><g class="cls-19"><circle id="_Path_165" data-name="&lt;Path&gt;" class="cls-10" cx="110.09" cy="118.94" r="3.46"/><ellipse id="_Path_166" data-name="&lt;Path&gt;" class="cls-10" cx="129.76" cy="118.22" rx="3.46" ry="2.72" transform="translate(-9.31 225.34) rotate(-79.94)"/><path id="_Path_167" data-name="&lt;Path&gt;" class="cls-14" d="M112.38,108a3.16,3.16,0,0,0-3-2.15l-1.72-5.31-2.06.67,1.74,5.38a3.16,3.16,0,0,0-1,3.41l5.58,16.6,6.82.61Z"/><path id="_Path_168" data-name="&lt;Path&gt;" class="cls-12" d="M128,116.92a5.76,5.76,0,0,0,3.65,1.41"/><path id="_Path_169" data-name="&lt;Path&gt;" class="cls-12" d="M127.46,118.35a5.76,5.76,0,0,0,3.65,1.41"/><ellipse id="_Path_170" data-name="&lt;Path&gt;" class="cls-2" cx="117.88" cy="122.03" rx="2.83" ry="3.46" transform="translate(-36.15 50.88) rotate(-21.2)"/><polyline id="_Path_171" data-name="&lt;Path&gt;" class="cls-15" points="112.82 112.05 110.53 112.78 112.57 118.84 114.9 118.18"/><ellipse id="_Path_172" data-name="&lt;Path&gt;" class="cls-2" cx="125.88" cy="120.48" rx="2.91" ry="3.46"/><path id="_Path_173" data-name="&lt;Path&gt;" class="cls-12" d="M123.92,120.25a5.77,5.77,0,0,0,3.91-.24"/><path id="_Path_174" data-name="&lt;Path&gt;" class="cls-12" d="M115.89,122a5.82,5.82,0,0,0,3.82-.88"/></g></g><path id="_Path_175" data-name="&lt;Path&gt;" class="cls-1" d="M119,121.65c8.31,0,14.1-2.12,14.11-4H104.85C104.85,119.53,110.64,121.65,119,121.65Z"/><path id="_Path_176" data-name="&lt;Path&gt;" class="cls-1" d="M119,113.61c-8.32,0-14.11,2.12-14.11,4h28.22C133.07,115.73,127.27,113.61,119,113.61Z"/><path id="_Path_177" data-name="&lt;Path&gt;" class="cls-17" d="M133.07,117.63c0,1.9-5.8,4-14.11,4s-14.11-2.12-14.11-4h-.75c0,3,7.55,4.77,14.86,4.77s14.86-1.78,14.86-4.77Z"/><rect id="_Rectangle_6" data-name="&lt;Rectangle&gt;" class="cls-2" x="104.93" y="99.21" width="2.92" height="2.1" rx="0.72" ry="0.72" transform="translate(-27.37 41.28) rotate(-19.51)"/><line id="_Path_178" data-name="&lt;Path&gt;" class="cls-12" x1="106.39" y1="104.09" x2="108.56" y2="103.29"/></g><g id="_Group_58" data-name="&lt;Group&gt;"><path id="_Path_179" data-name="&lt;Path&gt;" class="cls-3" d="M82.57,113.48l-3.72,13.63c0,1.54-4.11,2.78-9.18,2.78s-9.18-1.24-9.18-2.78h0l-3.72-13.88"/><path id="_Path_180" data-name="&lt;Path&gt;" class="cls-14" d="M84.19,105.85l-.63,5.88c0,2.32-6.2,4.2-13.85,4.2s-13.86-1.88-13.86-4.2h0l-.47-5.81"/><line id="_Path_181" data-name="&lt;Path&gt;" class="cls-12" x1="64.3" y1="129.37" x2="61.65" y2="115.15"/><line id="_Path_182" data-name="&lt;Path&gt;" class="cls-12" x1="67.48" y1="129.89" x2="67.04" y2="115.93"/><ellipse id="_Path_183" data-name="&lt;Path&gt;" class="cls-15" cx="69.71" cy="105.85" rx="14.48" ry="4.39"/><line id="_Path_184" data-name="&lt;Path&gt;" class="cls-12" x1="71.25" y1="129.85" x2="72.06" y2="115.87"/><line id="_Path_185" data-name="&lt;Path&gt;" class="cls-12" x1="74.67" y1="129.37" x2="77.76" y2="115.15"/><path id="_Path_186" data-name="&lt;Path&gt;" class="cls-12" d="M56.77,109.09s3.13,2.48,12.65,2.32"/><path id="_Path_187" data-name="&lt;Path&gt;" class="cls-12" d="M73.73,111.23s6.63-.44,9-2.14"/><path id="_Path_188" data-name="&lt;Path&gt;" class="cls-12" d="M77.18,112.17a25.84,25.84,0,0,0,4.37-.94"/><path id="_Path_189" data-name="&lt;Path&gt;" class="cls-12" d="M64.78,114.36a37.09,37.09,0,0,0,6.47.16"/><path id="_Path_190" data-name="&lt;Path&gt;" class="cls-16" d="M58.36,119.16s11.83,3.68,22.76-.37l-1.24,4.53s-10.76,5-20.52-.41Z"/><g id="_Group_59" data-name="&lt;Group&gt;"><path id="_Path_191" data-name="&lt;Path&gt;" class="cls-2" d="M69.26,122.8c.09-4.28-7.58-8.43-7.14-3.65s7.14,3.65,7.14,3.65"/><path id="_Path_192" data-name="&lt;Path&gt;" class="cls-16" d="M69.26,122.42c-5.41-1.07-4.4-5.16-4.4-5.16l.45.31a10.84,10.84,0,0,1,4,4.85Z"/></g><g id="_Group_60" data-name="&lt;Group&gt;"><path id="_Path_193" data-name="&lt;Path&gt;" class="cls-2" d="M70.15,123.19c-.09-4.27,7.58-8.42,7.14-3.64s-7.14,3.64-7.14,3.64"/><path id="_Path_194" data-name="&lt;Path&gt;" class="cls-16" d="M70.15,122.81c5.41-1.06,4.4-5.15,4.4-5.15l-.45.3a10.89,10.89,0,0,0-3.95,4.85Z"/></g><path id="_Path_195" data-name="&lt;Path&gt;" class="cls-2" d="M68.9,123.31s-4.44,2.93-2.08,7.08l3.64,1.35s-2.85-4.05-.52-8"/><path id="_Path_196" data-name="&lt;Path&gt;" class="cls-2" d="M70.25,123.71s-.78,7.43,4.68,7.53l2.83-1.87s-5.7-2.19-6.62-6.27"/><path id="_Path_197" data-name="&lt;Path&gt;" class="cls-17" d="M55.6,105.85c0-1.9,5.79-4,14.11-4s14.1,2.11,14.1,4h.76c0-3-7.56-4.77-14.86-4.77s-14.86,1.79-14.86,4.77h.75Z"/><ellipse id="_Path_198" data-name="&lt;Path&gt;" class="cls-2" cx="69.94" cy="122.65" rx="1.31" ry="1.09"/><g id="_Clip_Group_4" data-name="&lt;Clip Group&gt;"><g class="cls-20"><ellipse id="_Path_199" data-name="&lt;Path&gt;" class="cls-10" cx="80.51" cy="106.44" rx="3.46" ry="2.72" transform="translate(-38.36 167.12) rotate(-79.94)"/><path id="_Path_200" data-name="&lt;Path&gt;" class="cls-12" d="M78.74,105.14a5.85,5.85,0,0,0,3.66,1.42"/><path id="_Path_201" data-name="&lt;Path&gt;" class="cls-12" d="M78.21,106.57A5.81,5.81,0,0,0,81.86,108"/><ellipse id="_Path_202" data-name="&lt;Path&gt;" class="cls-2" cx="68.63" cy="110.25" rx="2.83" ry="3.46" transform="translate(-35.22 32.28) rotate(-21.2)"/><ellipse id="_Path_203" data-name="&lt;Path&gt;" class="cls-2" cx="76.63" cy="108.71" rx="2.91" ry="3.46"/><path id="_Path_204" data-name="&lt;Path&gt;" class="cls-12" d="M74.67,108.48a5.84,5.84,0,0,0,3.91-.24"/><path id="_Path_205" data-name="&lt;Path&gt;" class="cls-12" d="M66.64,110.21a5.82,5.82,0,0,0,3.82-.88"/></g></g><path id="_Path_206" data-name="&lt;Path&gt;" class="cls-1" d="M69.71,109.87c8.31,0,14.1-2.12,14.1-4H55.6C55.6,107.75,61.39,109.87,69.71,109.87Z"/><path id="_Path_207" data-name="&lt;Path&gt;" class="cls-1" d="M69.71,101.84c-8.32,0-14.11,2.11-14.11,4H83.81C83.81,104,78,101.84,69.71,101.84Z"/><path id="_Path_208" data-name="&lt;Path&gt;" class="cls-17" d="M83.81,105.85c0,1.9-5.79,4-14.1,4s-14.11-2.12-14.11-4h-.75c0,3,7.55,4.77,14.86,4.77s14.86-1.78,14.86-4.77Z"/></g><g id="_Group_61" data-name="&lt;Group&gt;"><path id="_Path_209" data-name="&lt;Path&gt;" class="cls-3" d="M186.13,137.64l-3.72,13.62c0,1.54-4.11,2.79-9.18,2.79s-9.18-1.25-9.18-2.79h0l-3.72-13.87"/><path id="_Path_210" data-name="&lt;Path&gt;" class="cls-14" d="M187.75,130l-.63,5.87c0,2.32-6.2,4.21-13.85,4.21s-13.86-1.89-13.86-4.21h0l-.47-5.81"/><line id="_Path_211" data-name="&lt;Path&gt;" class="cls-12" x1="167.86" y1="153.52" x2="165.22" y2="139.3"/><line id="_Path_212" data-name="&lt;Path&gt;" class="cls-12" x1="171.04" y1="154.05" x2="170.6" y2="140.09"/><ellipse id="_Path_213" data-name="&lt;Path&gt;" class="cls-15" cx="173.27" cy="130.01" rx="14.48" ry="4.39"/><line id="_Path_214" data-name="&lt;Path&gt;" class="cls-12" x1="174.81" y1="154.01" x2="175.62" y2="140.02"/><line id="_Path_215" data-name="&lt;Path&gt;" class="cls-12" x1="178.23" y1="153.52" x2="181.32" y2="139.3"/><path id="_Path_216" data-name="&lt;Path&gt;" class="cls-12" d="M160.33,133.24s3.14,2.49,12.66,2.33"/><path id="_Path_217" data-name="&lt;Path&gt;" class="cls-12" d="M177.29,135.38s6.63-.44,9-2.14"/><path id="_Path_218" data-name="&lt;Path&gt;" class="cls-12" d="M180.75,136.32a25.6,25.6,0,0,0,4.36-.94"/><path id="_Path_219" data-name="&lt;Path&gt;" class="cls-12" d="M168.34,138.52a37.64,37.64,0,0,0,6.47.15"/><path id="_Path_220" data-name="&lt;Path&gt;" class="cls-16" d="M161.92,143.32s11.83,3.67,22.76-.37l-1.24,4.52s-10.76,5-20.52-.4Z"/><g id="_Group_62" data-name="&lt;Group&gt;"><path id="_Path_221" data-name="&lt;Path&gt;" class="cls-2" d="M172.82,147c.09-4.27-7.58-8.42-7.14-3.65s7.14,3.65,7.14,3.65"/><path id="_Path_222" data-name="&lt;Path&gt;" class="cls-16" d="M172.82,146.57c-5.41-1.07-4.4-5.15-4.4-5.15l.45.3a10.84,10.84,0,0,1,3.95,4.85Z"/></g><g id="_Group_63" data-name="&lt;Group&gt;"><path id="_Path_223" data-name="&lt;Path&gt;" class="cls-2" d="M173.72,147.35c-.1-4.27,7.57-8.42,7.13-3.65s-7.13,3.65-7.13,3.65"/><path id="_Path_224" data-name="&lt;Path&gt;" class="cls-16" d="M173.71,147c5.41-1.07,4.4-5.15,4.4-5.15l-.45.3a10.84,10.84,0,0,0-3.95,4.85Z"/></g><path id="_Path_225" data-name="&lt;Path&gt;" class="cls-2" d="M172.47,147.46s-4.45,2.94-2.09,7.09L174,155.9s-2.85-4.06-.51-8"/><path id="_Path_226" data-name="&lt;Path&gt;" class="cls-2" d="M173.81,147.87s-.78,7.43,4.68,7.52l2.83-1.87s-5.69-2.19-6.62-6.27"/><path id="_Path_227" data-name="&lt;Path&gt;" class="cls-17" d="M159.16,130c0-1.9,5.79-4,14.11-4s14.11,2.12,14.11,4h.75c0-3-7.56-4.77-14.86-4.77S158.41,127,158.41,130h.75Z"/><ellipse id="_Path_228" data-name="&lt;Path&gt;" class="cls-2" cx="173.51" cy="146.81" rx="1.31" ry="1.09"/><g id="_Clip_Group_5" data-name="&lt;Clip Group&gt;"><g class="cls-21"><circle id="_Path_229" data-name="&lt;Path&gt;" class="cls-10" cx="164.4" cy="131.31" r="3.46"/><polyline id="_Path_230" data-name="&lt;Path&gt;" class="cls-2" points="179.78 120.98 178.83 123.92 177.85 126.93"/><polyline id="_Path_231" data-name="&lt;Path&gt;" class="cls-12" points="177.77 121.28 178.83 123.92 181.32 123.86"/><ellipse id="_Path_232" data-name="&lt;Path&gt;" class="cls-10" cx="184.07" cy="130.6" rx="3.46" ry="2.72" transform="translate(23.33 289.03) rotate(-79.94)"/><path id="_Path_233" data-name="&lt;Path&gt;" class="cls-14" d="M166.69,120.4a3.15,3.15,0,0,0-3-2.15L162,112.94l-2.06.67,1.74,5.38a3.16,3.16,0,0,0-1,3.41l5.58,16.6,6.82.6Z"/><path id="_Path_234" data-name="&lt;Path&gt;" class="cls-12" d="M182.31,129.3a5.82,5.82,0,0,0,3.65,1.41"/><path id="_Path_235" data-name="&lt;Path&gt;" class="cls-14" d="M172,131.11l-1.4-7.76s10.07-.29,12.55,5-6.66,6.07-6.66,6.07h-3.86"/><path id="_Path_236" data-name="&lt;Path&gt;" class="cls-12" d="M181.77,130.73a5.76,5.76,0,0,0,3.65,1.41"/><ellipse id="_Path_237" data-name="&lt;Path&gt;" class="cls-2" cx="172.19" cy="134.41" rx="2.83" ry="3.46" transform="translate(-36.95 71.36) rotate(-21.2)"/><polyline id="_Path_238" data-name="&lt;Path&gt;" class="cls-15" points="167.13 124.43 164.84 125.15 166.88 131.21 169.21 130.55"/><ellipse id="_Path_239" data-name="&lt;Path&gt;" class="cls-2" cx="180.19" cy="132.86" rx="2.91" ry="3.46"/><path id="_Path_240" data-name="&lt;Path&gt;" class="cls-12" d="M178.23,132.63a5.77,5.77,0,0,0,3.91-.24"/><path id="_Path_241" data-name="&lt;Path&gt;" class="cls-12" d="M170.2,134.36a5.75,5.75,0,0,0,3.82-.88"/><line id="_Path_242" data-name="&lt;Path&gt;" class="cls-12" x1="173.51" y1="131.5" x2="173.07" y2="126.17"/><line id="_Path_243" data-name="&lt;Path&gt;" class="cls-12" x1="175.03" y1="133.65" x2="176.32" y2="127.62"/><line id="_Path_244" data-name="&lt;Path&gt;" class="cls-12" x1="176.91" y1="125.61" x2="176.68" y2="126.6"/><polyline id="_Path_245" data-name="&lt;Path&gt;" class="cls-12" points="175.62 134.31 177.29 132.01 177.98 130.64 179.52 129.6 181.32 127.84"/><rect id="_Rectangle_7" data-name="&lt;Rectangle&gt;" class="cls-2" x="171.85" y="119.06" width="3.77" height="1.92" rx="0.83" ry="0.83"/><rect id="_Rectangle_8" data-name="&lt;Rectangle&gt;" class="cls-2" x="181.32" y="122.69" width="3.77" height="1.92" rx="0.83" ry="0.83"/><rect id="_Rectangle_9" data-name="&lt;Rectangle&gt;" class="cls-2" x="173.74" y="122.64" width="3.77" height="1.92" rx="0.83" ry="0.83"/><rect id="_Rectangle_10" data-name="&lt;Rectangle&gt;" class="cls-2" x="183.6" y="119.19" width="3.77" height="1.92" rx="0.83" ry="0.83"/><rect id="_Rectangle_11" data-name="&lt;Rectangle&gt;" class="cls-2" x="176.3" y="116.71" width="3.77" height="1.92" rx="0.83" ry="0.83"/><g id="_Group_64" data-name="&lt;Group&gt;"><path id="_Path_246" data-name="&lt;Path&gt;" class="cls-14" d="M178.35,119.87a2,2,0,0,0-2-2h-1.25l3.13,2.76A2,2,0,0,0,178.35,119.87Z"/><path id="_Path_247" data-name="&lt;Path&gt;" class="cls-14" d="M176.73,121.86a2,2,0,0,0,1.47-1.25l-3.13-2.76h-1.52S174.29,121.08,176.73,121.86Z"/></g><g id="_Group_65" data-name="&lt;Group&gt;"><path id="_Path_248" data-name="&lt;Path&gt;" class="cls-14" d="M179.55,120.19a3.08,3.08,0,0,1,3.07-3.07h1.9l-4.74,4.19A3,3,0,0,1,179.55,120.19Z"/><path id="_Path_249" data-name="&lt;Path&gt;" class="cls-14" d="M182,123.19a3,3,0,0,1-2.22-1.88l4.74-4.19h2.29S185.7,122,182,123.19Z"/></g><line id="_Path_250" data-name="&lt;Path&gt;" class="cls-12" x1="177.51" y1="123.6" x2="179.03" y2="123.6"/></g></g><path id="_Path_251" data-name="&lt;Path&gt;" class="cls-1" d="M173.27,134c8.31,0,14.1-2.11,14.11-4H159.16C159.16,131.91,165,134,173.27,134Z"/><path id="_Path_252" data-name="&lt;Path&gt;" class="cls-1" d="M173.27,126c-8.32,0-14.11,2.12-14.11,4h28.22C187.38,128.11,181.58,126,173.27,126Z"/><path id="_Path_253" data-name="&lt;Path&gt;" class="cls-17" d="M187.38,130c0,1.9-5.8,4-14.11,4s-14.11-2.11-14.11-4h-.75c0,3,7.55,4.77,14.86,4.77S188.13,133,188.13,130Z"/><rect id="_Rectangle_12" data-name="&lt;Rectangle&gt;" class="cls-2" x="159.24" y="111.59" width="2.92" height="2.1" rx="0.72" ry="0.72" transform="translate(-28.39 60.13) rotate(-19.51)"/><line id="_Path_254" data-name="&lt;Path&gt;" class="cls-12" x1="160.7" y1="116.47" x2="162.87" y2="115.67"/></g><path id="_Path_255" data-name="&lt;Path&gt;" class="cls-5" d="M180.79,107l39.3,6.15h.08a.5.5,0,0,0,.07-1L183,106.32l-2.53.36A.5.5,0,0,0,180.79,107Z"/><g id="_Group_66" data-name="&lt;Group&gt;"><g id="_Group_67" data-name="&lt;Group&gt;"><g id="_Group_68" data-name="&lt;Group&gt;"><polyline id="_Path_256" data-name="&lt;Path&gt;" class="cls-7" points="138.43 86.25 138.06 89.32 137.67 92.46"/><path id="_Path_257" data-name="&lt;Path&gt;" class="cls-17" d="M137.55,92.94a.51.51,0,0,1-.38-.55l.77-6.2a.49.49,0,0,1,.55-.43.52.52,0,0,1,.44.55l-.76,6.21a.5.5,0,0,1-.56.43Z"/></g><path id="_Path_258" data-name="&lt;Path&gt;" class="cls-17" d="M138,89.56a.21.21,0,0,1-.15-.11l-1.55-2.39a.25.25,0,0,1,.08-.34.24.24,0,0,1,.34.07L138.17,89l2.27-.49a.25.25,0,0,1,.3.19.26.26,0,0,1-.19.3l-2.44.52Z"/><g id="_Group_69" data-name="&lt;Group&gt;"><path id="_Path_259" data-name="&lt;Path&gt;" class="cls-8" d="M132.69,97.67l-2.84-7.35s9.83-2.19,13.27,2.53-5.39,7.21-5.39,7.21l-3.8.74Z"/><path id="_Compound_Path_34" data-name="&lt;Compound Path&gt;" class="cls-17" d="M133.82,101.28a.48.48,0,0,1-.35-.3l-1.24-3.12h0l-2.84-7.35a.51.51,0,0,1,0-.42.49.49,0,0,1,.33-.25c.41-.1,10.19-2.2,13.78,2.72a3.68,3.68,0,0,1,.72,3.48c-1,3-6.16,4.45-6.38,4.51l-3.83.75A.49.49,0,0,1,133.82,101.28Zm-.66-3.79,1.09,2.74,3.38-.66s4.81-1.39,5.66-3.87a2.71,2.71,0,0,0-.57-2.56c-2.76-3.76-10.08-2.81-12.19-2.44Z"/></g><path id="_Path_260" data-name="&lt;Path&gt;" class="cls-17" d="M134.21,98a.25.25,0,0,1-.19-.17l-1.43-5.15a.25.25,0,0,1,.17-.31.25.25,0,0,1,.31.17l1.44,5.15a.27.27,0,0,1-.18.31Z"/><path id="_Path_261" data-name="&lt;Path&gt;" class="cls-17" d="M136.11,99.84a.25.25,0,0,1-.19-.25l.12-6.17a.24.24,0,0,1,.25-.24.24.24,0,0,1,.25.25l-.12,6.17a.25.25,0,0,1-.26.24Z"/><path id="_Path_262" data-name="&lt;Path&gt;" class="cls-17" d="M136.39,92.6a.26.26,0,0,1-.19-.26l0-1a.26.26,0,0,1,.27-.24.25.25,0,0,1,.23.26l0,1a.25.25,0,0,1-.26.23Z"/><path id="_Path_263" data-name="&lt;Path&gt;" class="cls-17" d="M136.82,100.37a.09.09,0,0,1-.07,0,.25.25,0,0,1-.09-.34L141,92.57a.26.26,0,0,1,.35-.09.25.25,0,0,1,.08.34l-4.37,7.43A.24.24,0,0,1,136.82,100.37Z"/><g id="_Group_70" data-name="&lt;Group&gt;"><rect id="_Rectangle_13" data-name="&lt;Rectangle&gt;" class="cls-7" x="130.43" y="85.49" width="3.77" height="1.92" rx="0.83" ry="0.83" transform="translate(-13.97 26.6) rotate(-10.91)"/><path id="_Compound_Path_35" data-name="&lt;Compound Path&gt;" class="cls-17" d="M131,88.07a1.32,1.32,0,0,1-1-1l-.05-.27A1.32,1.32,0,0,1,131,85.22l2.08-.4a1.33,1.33,0,0,1,1.56,1.05l.05.26a1.34,1.34,0,0,1-1.05,1.56h0l-2.08.4A1.31,1.31,0,0,1,131,88.07Zm2.41-2.27h-.14l-2.08.4a.34.34,0,0,0-.26.38l0,.27a.35.35,0,0,0,.14.2.37.37,0,0,0,.25.06l2.08-.41a.34.34,0,0,0,.26-.38l-.06-.26A.32.32,0,0,0,133.41,85.8Z"/></g><g id="_Group_71" data-name="&lt;Group&gt;"><rect id="_Rectangle_14" data-name="&lt;Rectangle&gt;" class="cls-7" x="140.42" y="87.26" width="3.77" height="1.92" rx="0.83" ry="0.83" transform="translate(-14.12 28.53) rotate(-10.91)"/><path id="_Compound_Path_36" data-name="&lt;Compound Path&gt;" class="cls-17" d="M141,89.85a1.34,1.34,0,0,1-1-1l-.05-.27A1.32,1.32,0,0,1,141,87l2.08-.4a1.32,1.32,0,0,1,1.55,1l.06.26a1.35,1.35,0,0,1-1.06,1.56h0l-2.08.4A1.5,1.5,0,0,1,141,89.85Zm2.42-2.28h-.14l-2.08.4a.34.34,0,0,0-.26.38l.05.27a.34.34,0,0,0,.38.26l2.08-.4a.33.33,0,0,0,.26-.39l-.05-.26a.28.28,0,0,0-.14-.21Z"/></g><g id="_Group_72" data-name="&lt;Group&gt;"><rect id="_Rectangle_15" data-name="&lt;Rectangle&gt;" class="cls-7" x="132.96" y="88.65" width="3.77" height="1.92" rx="0.83" ry="0.83" transform="matrix(0.98, -0.19, 0.19, 0.98, -14.52, 27.14)"/><path id="_Compound_Path_37" data-name="&lt;Compound Path&gt;" class="cls-17" d="M133.53,91.24a1.35,1.35,0,0,1-1-1l-.05-.27a1.34,1.34,0,0,1,1.05-1.55l2.08-.4a1.31,1.31,0,0,1,1,.2,1.35,1.35,0,0,1,.56.85l.05.26a1.34,1.34,0,0,1-1.05,1.56h0l-2.08.4A1.31,1.31,0,0,1,133.53,91.24ZM135.94,89h-.14l-2.08.4a.34.34,0,0,0-.26.38l0,.27a.35.35,0,0,0,.39.26l2.08-.4a.35.35,0,0,0,.26-.39l-.06-.26a.3.3,0,0,0-.13-.21Z"/></g><g id="_Group_73" data-name="&lt;Group&gt;"><rect id="_Rectangle_16" data-name="&lt;Rectangle&gt;" class="cls-7" x="142" y="83.4" width="3.77" height="1.92" rx="0.83" ry="0.83" transform="translate(-13.37 28.76) rotate(-10.91)"/><path id="_Compound_Path_38" data-name="&lt;Compound Path&gt;" class="cls-17" d="M142.56,86a1.32,1.32,0,0,1-1-1l0-.26a1.31,1.31,0,0,1,.2-1,1.35,1.35,0,0,1,.85-.56l2.08-.4a1.33,1.33,0,0,1,1.55,1.06l.05.26a1.33,1.33,0,0,1-1.05,1.56h0l-2.08.4A1.32,1.32,0,0,1,142.56,86ZM145,83.71h-.13l-2.08.4a.32.32,0,0,0-.26.38l.05.27a.28.28,0,0,0,.14.2.3.3,0,0,0,.24.05l2.08-.4a.34.34,0,0,0,.26-.38l-.05-.26A.35.35,0,0,0,145,83.71Z"/></g><g id="_Group_74" data-name="&lt;Group&gt;"><rect id="_Rectangle_17" data-name="&lt;Rectangle&gt;" class="cls-7" x="134.36" y="82.34" width="3.77" height="1.92" rx="0.83" ry="0.83" transform="translate(-13.3 27.29) rotate(-10.91)"/><path id="_Compound_Path_39" data-name="&lt;Compound Path&gt;" class="cls-17" d="M134.92,84.93a1.32,1.32,0,0,1-1-1l-.06-.27a1.34,1.34,0,0,1,.21-1,1.31,1.31,0,0,1,.85-.56l2.08-.4a1.32,1.32,0,0,1,1.55,1l.05.26a1.33,1.33,0,0,1-1.05,1.56h0l-2.08.4A1.32,1.32,0,0,1,134.92,84.93Zm2.41-2.28a.29.29,0,0,0-.13,0l-2.08.4a.34.34,0,0,0-.21.14.3.3,0,0,0,0,.24l0,.27a.33.33,0,0,0,.38.26l2.08-.4a.35.35,0,0,0,.26-.39l0-.26A.35.35,0,0,0,137.33,82.65Z"/></g><g id="_Group_75" data-name="&lt;Group&gt;"><g id="_Group_76" data-name="&lt;Group&gt;"><path id="_Path_264" data-name="&lt;Path&gt;" class="cls-8" d="M136.82,85.43a2,2,0,0,0-2.38-1.6l-1.23.24,3.6,2.12A1.94,1.94,0,0,0,136.82,85.43Z"/><path id="_Compound_Path_40" data-name="&lt;Compound Path&gt;" class="cls-17" d="M136.7,86.68a.35.35,0,0,1-.14-.06L133,84.5a.51.51,0,0,1,.16-.93l1.23-.23a2.49,2.49,0,0,1,1.89.39,2.52,2.52,0,0,1,1.07,1.61h0a2.48,2.48,0,0,1,0,.94.52.52,0,0,1-.29.37A.59.59,0,0,1,136.7,86.68Zm-2.09-2.37,1.65,1A1.53,1.53,0,0,0,134.61,84.31Z"/></g><g id="_Group_77" data-name="&lt;Group&gt;"><path id="_Path_265" data-name="&lt;Path&gt;" class="cls-8" d="M135.61,87.69a2,2,0,0,0,1.2-1.5l-3.6-2.12-1.48.28S133.06,87.39,135.61,87.69Z"/><path id="_Compound_Path_41" data-name="&lt;Compound Path&gt;" class="cls-17" d="M135.08,88.1c-2.49-.6-3.75-3.42-3.81-3.55a.5.5,0,0,1,0-.43.52.52,0,0,1,.35-.26l1.49-.29a.54.54,0,0,1,.35.06l3.6,2.13a.5.5,0,0,1,.24.52,2.55,2.55,0,0,1-1.51,1.87.54.54,0,0,1-.25,0A2.43,2.43,0,0,1,135.08,88.1Zm-2.59-3.39a4.82,4.82,0,0,0,3,2.46,1.53,1.53,0,0,0,.69-.75l-3.1-1.83Z"/></g></g><g id="_Group_78" data-name="&lt;Group&gt;"><g id="_Group_79" data-name="&lt;Group&gt;"><path id="_Path_266" data-name="&lt;Path&gt;" class="cls-8" d="M138.06,85.51a3.08,3.08,0,0,1,2.43-3.59l1.87-.36-3.87,5A3.25,3.25,0,0,1,138.06,85.51Z"/><path id="_Compound_Path_42" data-name="&lt;Compound Path&gt;" class="cls-17" d="M138.37,87.06a.49.49,0,0,1-.3-.21,3.48,3.48,0,0,1-.5-1.24h0a3.58,3.58,0,0,1,2.83-4.18l1.86-.36a.49.49,0,0,1,.52.23.5.5,0,0,1,0,.57l-3.86,5a.53.53,0,0,1-.42.2Zm.18-1.64,0,.2,2.55-3.31-.56.1a2.59,2.59,0,0,0-2,3Z"/></g><g id="_Group_80" data-name="&lt;Group&gt;"><path id="_Path_267" data-name="&lt;Path&gt;" class="cls-8" d="M141,88a3.11,3.11,0,0,1-2.54-1.42l3.87-5,2.25-.43S144.44,86.15,141,88Z"/><path id="_Compound_Path_43" data-name="&lt;Compound Path&gt;" class="cls-17" d="M140.24,88.4a3.58,3.58,0,0,1-2.17-1.55.51.51,0,0,1,0-.58l3.86-5a.54.54,0,0,1,.3-.19l2.25-.43a.5.5,0,0,1,.42.11.47.47,0,0,1,.17.4c0,.21-.21,5.33-3.83,7.29a.54.54,0,0,1-.25.06A4.17,4.17,0,0,1,140.24,88.4Zm-1.12-1.82a2.51,2.51,0,0,0,1.79.91c2.33-1.35,3-4.41,3.14-5.74l-1.41.27Z"/></g></g><path id="_Path_268" data-name="&lt;Path&gt;" class="cls-17" d="M136.64,89.5a.23.23,0,0,1-.18-.2.25.25,0,0,1,.19-.29l1.5-.29a.25.25,0,0,1,.29.2.24.24,0,0,1-.2.29l-1.49.29A.21.21,0,0,1,136.64,89.5Z"/></g><polygon id="_Path_269" data-name="&lt;Path&gt;" class="cls-10" points="133.93 100.8 134.97 103.75 137.89 103.19 137.3 100.15 133.93 100.8"/><path id="_Compound_Path_44" data-name="&lt;Compound Path&gt;" class="cls-17" d="M137.1,112.52a.49.49,0,0,1-.38-.39L135.54,106a.49.49,0,0,1,.08-.37.47.47,0,0,1,.32-.21l2.91-.56a.5.5,0,0,1,.51.2l3.91,5.61a.52.52,0,0,1,0,.47.49.49,0,0,1-.37.31l-5.64,1.09A.5.5,0,0,1,137.1,112.52Zm-.48-6.23,1,5.16,4.4-.85-3.29-4.71Z"/><path id="_Path_270" data-name="&lt;Path&gt;" class="cls-17" d="M138.15,109.48a.26.26,0,0,1-.19-.2l-.7-3.62a.25.25,0,1,1,.49-.09l.7,3.62a.25.25,0,0,1-.2.29Z"/></g><path id="_Path_271" data-name="&lt;Path&gt;" class="cls-22" d="M200.13,140.34v-9.25l-.42-.07c-2-.3-2.66-1.87-2.66-4.09h0l3.08.47v-5h0a4.47,4.47,0,0,1-3.45-4.44v-2.71l8.74,1.34v2.7c0,2.16-1.55,3.68-3.45,3.39h0v7.6l3,.47v.43a2.72,2.72,0,0,1-3,3h0v6.47"/><rect id="_Rectangle_18" data-name="&lt;Rectangle&gt;" class="cls-3" x="138.92" y="99.57" width="2.46" height="4.51" rx="1.23" ry="1.23" transform="translate(-22.5 42.2) rotate(-15.87)"/><rect id="_Rectangle_19" data-name="&lt;Rectangle&gt;" class="cls-3" x="134.69" y="100.23" width="5.16" height="8.32" rx="1.74" ry="1.74" transform="matrix(0.97, -0.25, 0.25, 0.97, -21.96, 38.16)"/><line id="_Path_272" data-name="&lt;Path&gt;" class="cls-12" x1="139.08" y1="101.87" x2="135.46" y2="102.77"/><line id="_Path_273" data-name="&lt;Path&gt;" class="cls-12" x1="139.69" y1="103.7" x2="136.07" y2="104.61"/><line id="_Path_274" data-name="&lt;Path&gt;" class="cls-12" x1="140.22" y1="105.55" x2="136.59" y2="106.46"/><path id="_Path_275" data-name="&lt;Path&gt;" class="cls-3" d="M150,76.74s1.89,7.55,6.71,7.55,9.83-6.8,9.83-6.8S158,74.76,150,76.74Z"/><line id="_Path_276" data-name="&lt;Path&gt;" class="cls-12" x1="156.71" y1="84.29" x2="156.71" y2="88.72"/><rect id="_Rectangle_20" data-name="&lt;Rectangle&gt;" class="cls-12" x="158.27" y="85.62" width="0.9" height="0.96" rx="0.45" ry="0.45"/><polyline id="_Path_277" data-name="&lt;Path&gt;" class="cls-12" points="182.58 87.69 183.78 90.74 184.68 87.69"/><polyline id="_Path_278" data-name="&lt;Path&gt;" class="cls-12" points="152.29 98.25 152.29 107.47 163.58 109.89 163.58 99.27"/><polyline id="_Path_279" data-name="&lt;Path&gt;" class="cls-12" points="169.24 111.36 169.24 116.47 173.07 114.81 173.07 110.38"/><polyline id="_Path_280" data-name="&lt;Path&gt;" class="cls-12" points="153.17 129.15 153.17 133.99 157.15 134.88 157.15 138.62"/><path id="_Path_281" data-name="&lt;Path&gt;" class="cls-3" d="M162.64,77.93,158.72,60H145.28l4,12.4a3.12,3.12,0,0,0,3.23,2.15l2.11-.17.63,5.79"/><rect id="_Rectangle_21" data-name="&lt;Rectangle&gt;" class="cls-2" x="143.42" y="54.22" width="18.83" height="8.58" rx="4.29" ry="4.29"/><path id="_Path_282" data-name="&lt;Path&gt;" class="cls-3" d="M159.17,64.85h0a1.66,1.66,0,0,1,1.66,1.66v1.12a1.67,1.67,0,0,1-1.66,1.66h0"/><path id="_Path_283" data-name="&lt;Path&gt;" class="cls-3" d="M161.58,60.81l1,6.48a5.46,5.46,0,0,1-1.14,4.28l-.15.18"/><polyline id="_Path_284" data-name="&lt;Path&gt;" class="cls-3" points="148.16 67.07 147.25 70.47 150 70.47"/><path id="_Path_285" data-name="&lt;Path&gt;" class="cls-14" d="M58.75,95.58a3.13,3.13,0,0,0-3-2.14l-1.72-5.31L52,88.79l1.74,5.38a3.14,3.14,0,0,0-1,3.41l5.08,16L64,111.42Z"/><polyline id="_Path_286" data-name="&lt;Path&gt;" class="cls-15" points="59.78 102.54 57.49 103.27 59.53 109.33 61.86 108.67"/><g id="_Group_81" data-name="&lt;Group&gt;"><path id="_Path_287" data-name="&lt;Path&gt;" class="cls-2" d="M14.08,158.46V99.59a5.85,5.85,0,0,1,4-5.56c5-1.66,13.75-3.89,21.62-2.26l3.16.75-1.41,59.3"/><path id="_Path_288" data-name="&lt;Path&gt;" class="cls-3" d="M41.46,151.82l1.41-59.3-3.16-.75L39.16,106a3.75,3.75,0,0,1-3.1,3.54L27.55,111a3.74,3.74,0,0,1-4.38-3.69V92.52l-5,1.4v11.87a2.9,2.9,0,0,1-4,2.66h0v50"/><g id="_Group_82" data-name="&lt;Group&gt;"><path id="_Path_289" data-name="&lt;Path&gt;" class="cls-2" d="M14.08,134.32l2,.66a20,20,0,0,0,10.59.47L41.93,132v3.47l-15.21,3.49a20,20,0,0,1-10.59-.47l-2-.66"/></g><path id="_Path_290" data-name="&lt;Path&gt;" class="cls-3" d="M39.71,91.77s-1.9,7.55-6.71,7.55-9.83-6.8-9.83-6.8S31.71,89.79,39.71,91.77Z"/><line id="_Path_291" data-name="&lt;Path&gt;" class="cls-12" x1="33" y1="99.32" x2="33" y2="103.74"/><rect id="_Rectangle_22" data-name="&lt;Rectangle&gt;" class="cls-12" x="30.53" y="100.64" width="0.9" height="0.96" rx="0.45" ry="0.45" transform="translate(61.97 202.25) rotate(-180)"/><polyline id="_Path_292" data-name="&lt;Path&gt;" class="cls-12" points="37.41 113.28 37.41 122.49 26.12 124.92 26.12 114.3"/><polyline id="_Path_293" data-name="&lt;Path&gt;" class="cls-12" points="20.46 126.39 20.46 131.49 16.63 129.84 16.63 125.41"/><polyline id="_Path_294" data-name="&lt;Path&gt;" class="cls-12" points="36.53 144.17 36.53 149.01 32.56 149.91 32.56 162.47"/></g><path id="_Path_295" data-name="&lt;Path&gt;" class="cls-14" d="M48.56,101.89l3.76-3.45,4-2.64,4.28,1.59,1.78,3.74a3.08,3.08,0,0,1,.27,1.77l-.31,2.2-1.43-1.29-5.75,2.08-1.58-1.21-4.11,2.73"/><path id="_Path_296" data-name="&lt;Path&gt;" class="cls-2" d="M17.37,107.42l12.82,9.84a8.14,8.14,0,0,0,8.85.21l13-10L50.71,99.3,34.54,112.17,17.37,96.32"/><rect id="_Rectangle_23" data-name="&lt;Rectangle&gt;" class="cls-2" x="51.42" y="87.15" width="2.92" height="2.1" rx="0.72" ry="0.72" transform="translate(-26.42 22.72) rotate(-19.51)"/><line id="_Path_297" data-name="&lt;Path&gt;" class="cls-12" x1="53.24" y1="91.88" x2="55.41" y2="91.14"/><path id="_Path_298" data-name="&lt;Path&gt;" class="cls-12" d="M58.36,112.17a3.8,3.8,0,0,1,4.33-1.55"/><line id="_Path_299" data-name="&lt;Path&gt;" class="cls-3" x1="41.35" y1="155.9" x2="41.35" y2="160.14"/><line id="_Path_300" data-name="&lt;Path&gt;" class="cls-3" x1="14.08" y1="161.02" x2="14.08" y2="171.47"/><line id="_Path_301" data-name="&lt;Path&gt;" class="cls-12" x1="32.56" y1="166.25" x2="32.56" y2="169.62"/><g id="_Group_83" data-name="&lt;Group&gt;"><rect id="_Rectangle_24" data-name="&lt;Rectangle&gt;" class="cls-17" x="22.81" y="79" width="6.54" height="8.05" rx="3.27" ry="3.27"/><rect id="_Rectangle_25" data-name="&lt;Rectangle&gt;" class="cls-3" x="24.72" y="81.01" width="2.34" height="4.04" rx="0.96" ry="0.96"/><path id="_Path_302" data-name="&lt;Path&gt;" class="cls-17" d="M27.29,86.9l-.15-.18A5.51,5.51,0,0,1,26,82.44L27,76l2.34,1.53Z"/><path id="_Path_303" data-name="&lt;Path&gt;" class="cls-3" d="M25.94,93.08l3.92-17.94H43.31l-4,12.39a3.11,3.11,0,0,1-3.22,2.16L34,89.52l-.62,5.78"/><rect id="_Rectangle_26" data-name="&lt;Rectangle&gt;" class="cls-2" x="26.33" y="69.37" width="18.83" height="8.58" rx="4.29" ry="4.29" transform="translate(71.5 147.33) rotate(-180)"/><path id="_Path_304" data-name="&lt;Path&gt;" class="cls-3" d="M29.41,80h0a1.66,1.66,0,0,0-1.66,1.65v1.13a1.66,1.66,0,0,0,1.66,1.65h0"/><path id="_Path_305" data-name="&lt;Path&gt;" class="cls-3" d="M40.42,82.22l.53,2a1.14,1.14,0,0,1-1.09,1.43H38.58"/></g><path id="_Path_306" data-name="&lt;Path&gt;" class="cls-3" d="M46.24,44.14,105,56.64v7s.12,2.67,6.15,2.67,6.16-2.67,6.16-2.67V43.47L48.88,30.14"/><path id="_Path_307" data-name="&lt;Path&gt;" class="cls-12" d="M105.44,60.81s5.73,3.13,11.43,0"/><line id="_Path_308" data-name="&lt;Path&gt;" class="cls-12" x1="114.93" y1="45.14" x2="106.78" y2="53.14"/><line id="_Path_309" data-name="&lt;Path&gt;" class="cls-12" x1="51.35" y1="35.97" x2="92.33" y2="44.14"/><line id="_Path_310" data-name="&lt;Path&gt;" class="cls-12" x1="59.67" y1="41.06" x2="100.66" y2="49.22"/></svg>