<svg id="Layer_1" data-name="Layer 1" xmlns="http://www.w3.org/2000/svg" viewBox="0 0 238.12 238.12"><defs><style>.cls-1{fill:#fff;}.cls-1,.cls-2,.cls-3,.cls-4,.cls-6,.cls-7,.cls-8{stroke:#292836;stroke-linecap:round;stroke-linejoin:round;}.cls-2{fill:#c1cdd9;}.cls-3{fill:#eef7ff;}.cls-10,.cls-4{fill:#f8ea47;}.cls-5{fill:#00a7b5;}.cls-6{fill:none;stroke-width:0.5px;}.cls-7,.cls-9{fill:#292836;}.cls-8{fill:#e2d242;}</style></defs><title>Artboard 2 copy 7</title><path id="_Path_" data-name="&lt;Path&gt;" class="cls-1" d="M71.93,124.88l2.22-1.15h0a2.87,2.87,0,0,0-1.75-2l-.47-.19"/><path id="_Path_2" data-name="&lt;Path&gt;" class="cls-1" d="M71.93,117.06l2.75.52.75,1.85a1.36,1.36,0,0,0,.13.24l.81,1.18H75.19a1.27,1.27,0,0,1-1.11-.67h0a1.24,1.24,0,0,0-1-.67l-1.12-.07"/><path id="_Path_3" data-name="&lt;Path&gt;" class="cls-2" d="M44.14,90.27,38,110.13a6.56,6.56,0,0,0,3,7.65l3.87,2.2"/><polyline id="_Path_4" data-name="&lt;Path&gt;" class="cls-3" points="50.42 87.01 50.42 83.89 61.7 83.89 61.7 87.71"/><polyline id="_Path_5" data-name="&lt;Path&gt;" class="cls-4" points="50.42 200.88 45.26 137.06 56.42 132.51 71.93 142.79 69.6 191.53"/><path id="_Path_6" data-name="&lt;Path&gt;" class="cls-3" d="M95.45,94.36l-5.61-1V91.75l1.21-4.56.8-.59.21-.81a1.87,1.87,0,0,1,1.84-1.41h.65a2.14,2.14,0,0,1,2.11,2.42l-1.21,7.56"/><path id="_Path_7" data-name="&lt;Path&gt;" class="cls-3" d="M68,88.94,87,100.63l1.24-7.16a2.54,2.54,0,0,1,2.56-2.12l2.21,0a2.56,2.56,0,0,1,2.48,3L93.51,106a5,5,0,0,1-6.94,3.68L71.93,103l-3.55,1-1.63-.82-.79-2Z"/><polygon id="_Path_8" data-name="&lt;Path&gt;" class="cls-5" points="121.31 23.99 121.31 173 172.61 185.5 172.61 37.62 121.31 23.99"/><polyline id="_Path_9" data-name="&lt;Path&gt;" class="cls-1" points="91.85 86.61 88.57 80.4 100.15 80.76 94.59 87.39 92.57 87.39"/><path id="_Path_10" data-name="&lt;Path&gt;" class="cls-6" d="M87,100.63s4.33.71,4.33,3.74"/><line id="_Path_11" data-name="&lt;Path&gt;" class="cls-6" x1="88.57" y1="99.52" x2="90.81" y2="100.26"/><path id="_Path_12" data-name="&lt;Path&gt;" class="cls-3" d="M68,100.42V88.94a44.52,44.52,0,0,0-9.92-1.58L47.6,86.88a3.52,3.52,0,0,0-.91.09,3.32,3.32,0,0,0-2.55,3.3l1,43.24-4.27,10.27,12.38,3.06L55,137.73l1.39,9.63,2.34.81,13.17,2.1V103A2.8,2.8,0,0,1,68,100.42Z"/><path id="_Path_13" data-name="&lt;Path&gt;" class="cls-3" d="M90,91.44l.75-4.12a.88.88,0,0,1,.88-.72h0a1,1,0,0,1,1,1.13l-.1.61a1.46,1.46,0,0,0,2.1-1"/><path id="_Path_14" data-name="&lt;Path&gt;" class="cls-3" d="M90.66,84.76h-1v.91a.88.88,0,0,0,.48.78l.64.32"/><path id="_Path_15" data-name="&lt;Path&gt;" class="cls-1" d="M96.68,80.4l3.17-3.17A8.73,8.73,0,0,1,106,74.67h0"/><path id="_Path_16" data-name="&lt;Path&gt;" class="cls-1" d="M94.59,80.4V77A3.38,3.38,0,0,1,98,73.62h0"/><path id="_Path_17" data-name="&lt;Path&gt;" class="cls-1" d="M92.53,80.4V74.81a1.72,1.72,0,0,0-1.72-1.72h0a1.73,1.73,0,0,0-1.73,1.72v.77"/><line id="_Path_18" data-name="&lt;Path&gt;" class="cls-1" x1="90.79" y1="80.4" x2="90.79" y2="77.53"/><path id="_Path_19" data-name="&lt;Path&gt;" class="cls-1" d="M101.66,75.85h0a9.25,9.25,0,0,1,2.73,6.57v.87"/><line id="_Path_20" data-name="&lt;Path&gt;" class="cls-1" x1="104.39" y1="79.57" x2="106.74" y2="79.57"/><rect id="_Rectangle_" data-name="&lt;Rectangle&gt;" class="cls-4" x="103.42" y="83.29" width="1.93" height="4.35" rx="0.97" ry="0.97"/><rect id="_Rectangle_2" data-name="&lt;Rectangle&gt;" class="cls-4" x="91.56" y="80.4" width="1.93" height="4.35" rx="0.97" ry="0.97"/><rect id="_Rectangle_3" data-name="&lt;Rectangle&gt;" class="cls-4" x="97.97" y="73.09" width="1.93" height="4.35" rx="0.97" ry="0.97"/><rect id="_Rectangle_4" data-name="&lt;Rectangle&gt;" class="cls-4" x="106.74" y="78.96" width="1.93" height="4.35" rx="0.97" ry="0.97"/><rect id="_Rectangle_5" data-name="&lt;Rectangle&gt;" class="cls-4" x="102.06" y="95.17" width="1.93" height="4.35" rx="0.97" ry="0.97" transform="translate(187.74 -16.29) rotate(83.33)"/><rect id="_Rectangle_6" data-name="&lt;Rectangle&gt;" class="cls-4" x="105.77" y="103.07" width="1.93" height="4.35" rx="0.97" ry="0.97" transform="matrix(-0.41, 0.91, -0.91, -0.41, 246.26, 50.45)"/><line id="_Path_21" data-name="&lt;Path&gt;" class="cls-6" x1="71.93" y1="102.99" x2="69.6" y2="100.63"/><polyline id="_Path_22" data-name="&lt;Path&gt;" class="cls-6" points="54.33 149.54 56.42 152.32 58.59 194.27"/><path id="_Path_23" data-name="&lt;Path&gt;" class="cls-6" d="M66,154s-.8,6.9,4.8,8"/><rect id="_Rectangle_7" data-name="&lt;Rectangle&gt;" class="cls-1" x="106.03" y="72.22" width="7.05" height="4.9" rx="2.45" ry="2.45"/><path id="_Path_24" data-name="&lt;Path&gt;" class="cls-1" d="M108.48,72.22s.21,8.18,4.6,8.18V74.67S113.53,71.76,108.48,72.22Z"/><g id="_Group_" data-name="&lt;Group&gt;"><path id="_Path_25" data-name="&lt;Path&gt;" class="cls-1" d="M87.22,82.2l-.29-3.41a2.34,2.34,0,0,1,4.66-.38l0,.62-4.25,3.84A2.13,2.13,0,0,1,87.22,82.2Z"/></g><g id="_Group_2" data-name="&lt;Group&gt;"><path id="_Path_26" data-name="&lt;Path&gt;" class="cls-1" d="M102,115.25l2.79.84a2,2,0,0,1-1.16,3.81l-.51-.16-1.7-4.57A1.93,1.93,0,0,1,102,115.25Z"/></g><g id="_Group_3" data-name="&lt;Group&gt;"><path id="_Path_27" data-name="&lt;Path&gt;" class="cls-7" d="M59.56,60.36l-5.44-.1a6.33,6.33,0,0,0-6.44,6.33v7.79a5.83,5.83,0,0,0,1.65,4.06l1.1,1.13h5l3.74-5.95V71.78a2.16,2.16,0,0,1,2.16-2.15h.38l3.51-3.87V64.45C65.21,59.59,59.56,60.36,59.56,60.36Z"/><path id="_Path_28" data-name="&lt;Path&gt;" class="cls-1" d="M59.16,71.6v2l-3.74,5.95h-5v4.32H60.49V81.14l2.89-1.33A3.16,3.16,0,0,0,65.21,77V65.76L61.7,69.63h-.56A2,2,0,0,0,59.16,71.6Z"/></g><polyline id="_Path_29" data-name="&lt;Path&gt;" class="cls-1" points="65.21 71.12 66.38 74.67 65.21 75.26"/><line id="_Path_30" data-name="&lt;Path&gt;" class="cls-4" x1="69.32" y1="194.43" x2="69.14" y2="197.29"/><line id="_Path_31" data-name="&lt;Path&gt;" class="cls-4" x1="68.79" y1="200.66" x2="68.61" y2="203.52"/><line id="_Path_32" data-name="&lt;Path&gt;" class="cls-6" x1="59" y1="199.11" x2="59.2" y2="203.83"/><polyline id="_Path_33" data-name="&lt;Path&gt;" class="cls-4" points="121.31 173 159.79 173 159.79 34.21"/><g id="_Group_4" data-name="&lt;Group&gt;"><polyline id="_Path_34" data-name="&lt;Path&gt;" class="cls-6" points="129.86 110.38 129.86 72.54 147.18 72.54"/><polyline id="_Path_35" data-name="&lt;Path&gt;" class="cls-6" points="132.73 108.88 153.07 108.88 153.07 101.54"/><polyline id="_Path_36" data-name="&lt;Path&gt;" class="cls-6" points="132.73 111.04 155.5 111.04 155.5 102.38"/></g><g id="_Group_5" data-name="&lt;Group&gt;"><line id="_Path_37" data-name="&lt;Path&gt;" class="cls-6" x1="129.86" y1="61.83" x2="129.86" y2="26.2"/><polyline id="_Path_38" data-name="&lt;Path&gt;" class="cls-6" points="132.73 60.33 153.07 60.33 153.07 52.99"/><polyline id="_Path_39" data-name="&lt;Path&gt;" class="cls-6" points="132.73 62.49 155.5 62.49 155.5 53.83"/></g><path id="_Path_40" data-name="&lt;Path&gt;" class="cls-3" d="M154,74.49,141.84,86.77l-12.53,2.84-1.76,4.75,14-2.36a12.29,12.29,0,0,0,5.18-2.19l9.43-6.94Z"/><path id="_Path_41" data-name="&lt;Path&gt;" class="cls-8" d="M153.81,77V75.53a3,3,0,0,1,3.69-2.94L172.25,76v27.29L156.11,100l-2.3-13.22Z"/><path id="_Path_42" data-name="&lt;Path&gt;" class="cls-8" d="M154.43,78.15l-5.5,4.55s1.94,5.75,7.83,4.79"/><path id="_Path_43" data-name="&lt;Path&gt;" class="cls-8" d="M164.32,79.57l-5.65,4.68s2,5.91,8.05,4.92"/><path id="_Path_44" data-name="&lt;Path&gt;" class="cls-3" d="M156.11,100s-8.64,5.41-5.14,18.58,10.33,60.18,10.33,60.18l-3.21,7.58,9.69-2v-4.88l4.47,6.05V103.25Z"/><path id="_Path_45" data-name="&lt;Path&gt;" class="cls-9" d="M155.67,61.17c-.63.46-1.61.21-2.22.7a2,2,0,0,0-.4,2,3.9,3.9,0,0,1,.16,2.1,4.49,4.49,0,0,1-1.28,1.51,1.62,1.62,0,0,0-.53,1.79c.41.77,1.74.75,2,1.59a2.09,2.09,0,0,1-.25,1.34c-.16.44-.2,1,.18,1.29s.94,0,1.37-.26c2.12-1.1,4.68-.48,7.06-.61a.39.39,0,0,0,.26-.09.33.33,0,0,0,.08-.26l.22-3.09"/><polyline id="_Path_46" data-name="&lt;Path&gt;" class="cls-6" points="164.53 185 165.19 179.58 165.84 185"/><line id="_Path_47" data-name="&lt;Path&gt;" class="cls-6" x1="163.03" y1="129.33" x2="167.78" y2="179.45"/><path id="_Path_48" data-name="&lt;Path&gt;" class="cls-3" d="M132.46,93.61l-7.26,1.2a3.47,3.47,0,0,1-2.89-.86l-2.53-2.33a3.79,3.79,0,0,1-1.23-2.79h0a.79.79,0,0,1,1.2-.68L123,90.08l1.51-.71V87.64l1.27.58a32,32,0,0,0,3.56,1.39c1.35.43,3.55,1.51,3.15,4"/><path id="_Path_49" data-name="&lt;Path&gt;" class="cls-6" d="M124.48,89.37s1.45,2.54,4,2.42"/><polyline id="_Path_50" data-name="&lt;Path&gt;" class="cls-6" points="126.49 92.7 124.48 92.7 123.47 90.95 122.72 90.33"/><path id="_Path_51" data-name="&lt;Path&gt;" class="cls-3" d="M169.8,75.32s-7.42,5.6-12.3,4.17,0-7,0-7h4.72L162.13,69l-4.5.91-2.19-9.67a6.67,6.67,0,0,1,2.14-6.53l1.74-1.5a5.79,5.79,0,0,1,6.26-.85h0a8,8,0,0,1,4.35,8.91l-2.15,9.64v3.71Z"/><path id="_Path_52" data-name="&lt;Path&gt;" class="cls-3" d="M157.1,65.25s-1.41.18-1.83-.91c0,0,1.47-1,1.4-1.79"/><path id="_Path_53" data-name="&lt;Path&gt;" class="cls-9" d="M158,66.12l3.42-.86s-.25,2.36-1.92,2.57S158,66.12,158,66.12Z"/><path id="_Path_54" data-name="&lt;Path&gt;" class="cls-10" d="M163.55,59.45l-.57,1.9s-.17,1.09.7,1.2.77-1,.77-1Z"/><path id="_Path_55" data-name="&lt;Path&gt;" class="cls-9" d="M172.61,53.15l-.07-1a1.49,1.49,0,0,1-1.7-1.41c0-.42.18-.82.22-1.23a1.89,1.89,0,0,0-1.63-2c-1.44-.13-2.65,1.42-4.09,1.24a6.61,6.61,0,0,1-1.88-.85A3.93,3.93,0,0,0,158.79,49a12.11,12.11,0,0,1-.87,1.25c-1.17,1.27-3.42,1.1-4.45,2.49a3.47,3.47,0,0,0-.58,1.75,4.26,4.26,0,0,0,.5,2.79,2.28,2.28,0,0,0,2.49,1c.85.31,1.76-.22,2.57-.64a11.51,11.51,0,0,1,2.46-1.16c.6-.13,1.46.15,1.34.75a1.15,1.15,0,0,1-.39.57c-.43.4-.85,1-.55,1.52s1.08.41,1.58.1a4.8,4.8,0,0,1,1.5-.89,1.54,1.54,0,0,1,1.55.74,2.14,2.14,0,0,1,.13,1.77c-.16.46-.45.88-.58,1.35-.36,1.3,1.83,1.77,1.21,3.34a11.82,11.82,0,0,1-.79,1.2,2,2,0,0,0,.55,2.5c.55.42,1.37.61,1.58,1.27s-.46,1.38-.61,2.11a1.58,1.58,0,0,0,.87,1.73,3.48,3.48,0,0,1,.52.24c.46.34.38,1,.24,1.61s-.24,1.27.22,1.62a1.56,1.56,0,0,0,1.24.1l2.07-.44q0-7.23,0-14.46Z"/><path id="_Path_56" data-name="&lt;Path&gt;" class="cls-3" d="M170.78,94.36v5.4a1.94,1.94,0,0,0,.74,1.53l.84.67a.92.92,0,0,0,1.47-.53l.14-.66v-5.5l-3.19-.91"/><path id="_Path_57" data-name="&lt;Path&gt;" class="cls-3" d="M170.78,100.41v4.34s1.5,1,1.47-2.59Z"/><line id="_Path_58" data-name="&lt;Path&gt;" class="cls-6" x1="152.85" y1="127.09" x2="172.61" y2="130.75"/><g id="_Group_6" data-name="&lt;Group&gt;"><path id="_Path_59" data-name="&lt;Path&gt;" class="cls-9" d="M172.25,103.25,156.11,100s-8.64,5.41-5.14,18.58c.58,2.19,1.25,5.31,2,9,4.71.69,12.72,2,19.31,3.11Z"/><path id="_Path_60" data-name="&lt;Path&gt;" class="cls-3" d="M172.25,130.68c-6.59-1.1-14.6-2.42-19.31-3.11l0,.16,19.28,3.06Z"/></g><line id="_Path_61" data-name="&lt;Path&gt;" class="cls-6" x1="156.89" y1="150.17" x2="160.59" y2="150.17"/><line id="_Path_62" data-name="&lt;Path&gt;" class="cls-6" x1="165.16" y1="150.27" x2="168.86" y2="150.27"/><path id="_Path_63" data-name="&lt;Path&gt;" class="cls-6" d="M159.71,72.22s-.58,3.63,1.72,3.63,7.29-2.76,7.29-2.76"/><polyline id="_Path_64" data-name="&lt;Path&gt;" class="cls-6" points="129.63 160.08 129.63 122.25 146.96 122.25"/><polyline id="_Path_65" data-name="&lt;Path&gt;" class="cls-6" points="132.51 158.58 152.85 158.58 152.85 151.25"/><polyline id="_Path_66" data-name="&lt;Path&gt;" class="cls-6" points="132.51 160.75 155.27 160.75 155.27 152.08"/><rect id="_Rectangle_8" data-name="&lt;Rectangle&gt;" class="cls-3" x="120.13" y="48.08" width="2.25" height="8.92" rx="1.12" ry="1.12"/><rect id="_Rectangle_9" data-name="&lt;Rectangle&gt;" class="cls-3" x="120.13" y="133.6" width="2.25" height="8.92" rx="1.12" ry="1.12"/><line id="_Path_67" data-name="&lt;Path&gt;" class="cls-3" x1="160.03" y1="170.24" x2="166.72" y2="170.24"/><polyline id="_Path_68" data-name="&lt;Path&gt;" class="cls-6" points="121.26 174.75 121.26 189.75 106.15 195.86 106.15 208.33 95.49 212.83"/><line id="_Path_69" data-name="&lt;Path&gt;" class="cls-6" x1="92.63" y1="214.58" x2="88.22" y2="216.5"/><polyline id="_Path_70" data-name="&lt;Path&gt;" class="cls-6" points="123.8 190.91 173.97 205.58 173.97 190.91"/><line id="_Path_71" data-name="&lt;Path&gt;" class="cls-6" x1="181.45" y1="187.68" x2="198.45" y2="192.96"/><line id="_Path_72" data-name="&lt;Path&gt;" class="cls-6" x1="116.1" y1="171.91" x2="93.23" y2="164.75"/><path id="_Path_73" data-name="&lt;Path&gt;" class="cls-6" d="M158.67,59.91a2,2,0,0,0,1.84.75"/><line id="_Path_74" data-name="&lt;Path&gt;" class="cls-4" x1="167.05" y1="170.24" x2="171.84" y2="170.24"/></svg>