<svg id="Layer_1" data-name="Layer 1" xmlns="http://www.w3.org/2000/svg" xmlns:xlink="http://www.w3.org/1999/xlink" viewBox="0 0 238.12 238.12"><defs><style>.cls-1,.cls-14,.cls-7{fill:none;}.cls-2{fill:#c1cdd9;}.cls-3,.cls-5{fill:#00a7b5;}.cls-13,.cls-4{fill:#eef7ff;}.cls-12,.cls-13,.cls-14,.cls-4,.cls-5,.cls-6,.cls-7,.cls-8,.cls-9{stroke:#292836;stroke-linecap:round;stroke-linejoin:round;}.cls-6{fill:#f8ea47;}.cls-11,.cls-8{fill:#292836;}.cls-10,.cls-12,.cls-9{fill:#e2d242;}.cls-12,.cls-13,.cls-14{stroke-width:0.5px;}.cls-15{clip-path:url(#clip-path);}.cls-16{fill:#494856;}</style><clipPath id="clip-path"><path id="_Clipping_Path_" data-name="&lt;Clipping Path&gt;" class="cls-1" d="M192,54.06a.8.8,0,0,0,.47-1,.79.79,0,0,0-1-.47l-7.07,2.58a.72.72,0,0,1-.91-.41l-.06-.15a.73.73,0,0,1,.42-1l2-.72a.78.78,0,0,0,.47-1,.8.8,0,0,0-1-.47l-6.91,2.71a.71.71,0,0,1-.9-.39l0-.09a.71.71,0,0,1,.41-1l13.1-5a.78.78,0,0,0,.46-1,.77.77,0,0,0-1-.47l-8.49,3.1A.73.73,0,0,1,181,49c0-.1-.09-.2-.13-.31a.72.72,0,0,1,.4-1l4.53-1.65a.78.78,0,0,0,.47-1,.8.8,0,0,0-1-.47l-7.48,2.88a.71.71,0,0,1-.88-.35l-.06-.11a.73.73,0,0,1,.4-1l9.73-3.7a.77.77,0,0,0,.47-1,.8.8,0,0,0-1-.47l-10.93,4c-1.55.32-3.08.86-4.6,1.27-2.83.76-5.75,1.06-8.61,1.62s-10.81,3.58-11.83,10.87c-1.26,9,5.7,9.54,5.7,9.54-1.3-5.22,2.69-7.45,4.83-7.49a7,7,0,0,1,2.33.51l5.16,1.76a1.28,1.28,0,0,1,.58.32,1.3,1.3,0,0,1,.22.51c.56,2.14,1.13,4.27,1.69,6.41l1.63-4.09a3.24,3.24,0,0,1,.48-.9,3.29,3.29,0,0,1,1.24-.79l10.46-4.51L182.29,61l9.22-3.57A.78.78,0,1,0,191,56l-8.11,3.16a.72.72,0,0,1-.92-.44v0a.72.72,0,0,1,.43-.91Z"/></clipPath></defs><title>Artboard 2 copy 6</title><g id="_Group_" data-name="&lt;Group&gt;"><polygon id="_Path_" data-name="&lt;Path&gt;" class="cls-2" points="32.91 76.66 32.91 186.66 129.82 157.52 129.78 155.68 32.91 76.66"/><polygon id="_Path_2" data-name="&lt;Path&gt;" class="cls-3" points="127.35 49.22 32.91 75.29 32.91 76.66 129.78 155.68 127.35 49.22"/></g><line id="_Path_3" data-name="&lt;Path&gt;" class="cls-4" x1="182.65" y1="166.03" x2="167.34" y2="171.61"/><path id="_Path_4" data-name="&lt;Path&gt;" class="cls-4" d="M146.62,100.6,161,73.46a3.37,3.37,0,0,1,4.29-1.53h0a3.37,3.37,0,0,1,1.48,5l-16.7,24.72"/><path id="_Path_5" data-name="&lt;Path&gt;" class="cls-5" d="M189.2,95.88c15-2.59,11.5,18,11.5,18l-29.14,11.24,6.05-25.41Z"/><polygon id="_Path_6" data-name="&lt;Path&gt;" class="cls-4" points="171.56 125.14 158.09 176.32 163.62 172.68 165.08 167.5 167.37 171.43 166.27 160.36 181.85 121.41 171.56 125.14"/><path id="_Path_7" data-name="&lt;Path&gt;" class="cls-4" d="M163.17,91.23s-5.83,1.06-4.36-5.19A57.56,57.56,0,0,1,164.23,73s7.64-4.61,16.18,2.49l8.79,20.43s-5.42,5-11.59,3.85l-8.25-9.85Z"/><g id="_Group_2" data-name="&lt;Group&gt;"><path id="_Path_8" data-name="&lt;Path&gt;" class="cls-6" d="M180.41,75.45A17.66,17.66,0,0,0,175,72.29s-4.63,12-9.41,12.46-5.45-2.9-5.46-3A35.06,35.06,0,0,0,158.81,86c-1.47,6.25,4.36,5.19,4.36,5.19l6.19-1.35,8.25,9.85c6.17,1.18,11.59-3.85,11.59-3.85Z"/></g><g id="_Group_3" data-name="&lt;Group&gt;"><path id="_Path_9" data-name="&lt;Path&gt;" class="cls-7" d="M131.49,124.86v-9.78l6.27-11.33a3.47,3.47,0,0,1,3.14-2l4.58.28"/><path id="_Path_10" data-name="&lt;Path&gt;" class="cls-7" d="M157.37,118.69l6-11.89c.78-1.54.05-3.41-1.37-3.51l-19.39-1.37"/><path id="_Path_11" data-name="&lt;Path&gt;" class="cls-8" d="M108.16,149a21.12,21.12,0,0,1,3.59-15.23,17.07,17.07,0,0,1,9-6.46,16.41,16.41,0,0,1,10.12.45,15.33,15.33,0,0,1,6.6,4.47,14.22,14.22,0,0,1,3.25,8.21"/><polygon id="_Path_12" data-name="&lt;Path&gt;" class="cls-9" points="78.43 131.64 77.39 129.39 131.48 113.97 158.91 114.94 158.69 117.15 131.51 116.19 78.43 131.64"/><ellipse id="_Path_13" data-name="&lt;Path&gt;" class="cls-5" cx="135.85" cy="146.38" rx="10.68" ry="8.62" transform="translate(-35.47 248.99) rotate(-78.06)"/><polyline id="_Path_14" data-name="&lt;Path&gt;" class="cls-7" points="146.35 153.97 146.35 168.2 95.88 182.14 109.71 189.2"/><path id="_Path_15" data-name="&lt;Path&gt;" class="cls-10" d="M126.54,188.43a.24.24,0,0,0-.33-.23l-9,2.85a.81.81,0,0,1-1.06-.84h0a.94.94,0,0,1,.64-.81l2.67-.84a.29.29,0,0,0,.2-.31l-.09-.61a.25.25,0,0,0-.33-.2l-6.14,1.95a.3.3,0,0,0-.2.3l.09.61a.23.23,0,0,0,.21.19l-.06,1.88a.29.29,0,0,0-.14.23l0,.63a.29.29,0,0,0,.07.17l-.55,1.8-.24.08a.3.3,0,0,0-.19.31l.1.61s0,0,0,0l-.12.4-1.77,1.56-1,.31a.3.3,0,0,0-.2.29l0,.42-.91.8,1.21-.38h0l6.07-1.92h0l4.86-1.54a.28.28,0,0,0,.2-.28l-.05-.63a.23.23,0,0,0-.32-.22s-3.47,1.17-4.6,1.45c-1.36.35-.64-1,0-1.18.42-.1,1.66-.44,1.66-.44a.29.29,0,0,0,.2-.31l-.1-.61a.25.25,0,0,0-.33-.2s-1.45.76-1.22-.49a1,1,0,0,1,.64-.81l9.78-3.1a.3.3,0,0,0,.2-.27Z"/><path id="_Path_16" data-name="&lt;Path&gt;" class="cls-10" d="M174.5,174.86a.23.23,0,0,0-.32-.23l-9,2.84a.81.81,0,0,1-1.07-.83h0a.94.94,0,0,1,.64-.81l2.67-.85a.29.29,0,0,0,.2-.3l-.09-.61a.24.24,0,0,0-.33-.2l-6.14,1.94a.3.3,0,0,0-.19.31l.09.61a.22.22,0,0,0,.2.19l-.06,1.87a.3.3,0,0,0-.14.23l0,.64a.26.26,0,0,0,.07.17l-.56,1.8-.23.07a.29.29,0,0,0-.2.31l.1.62s0,0,0,0l-.12.39-1.77,1.56-1,.32a.3.3,0,0,0-.2.29l0,.42-.9.8,1.2-.38h0l6.08-1.92h0l4.86-1.54a.3.3,0,0,0,.2-.29l0-.63a.25.25,0,0,0-.33-.22s-3.47,1.17-4.6,1.46c-1.36.34-.64-1,0-1.18l1.67-.45a.28.28,0,0,0,.19-.31l-.1-.61a.25.25,0,0,0-.33-.19s-1.45.75-1.22-.49a1,1,0,0,1,.64-.81l9.78-3.1a.32.32,0,0,0,.2-.28Z"/><polyline id="_Path_17" data-name="&lt;Path&gt;" class="cls-1" points="99.34 157.8 99.34 147.13 117.14 142.45 117.14 137.96 134.56 133.57 134.56 156.71 108.42 164.55 102.69 161.03"/><ellipse id="_Path_18" data-name="&lt;Path&gt;" class="cls-11" cx="144.56" cy="174.21" rx="6.08" ry="4.41" transform="translate(-70.53 244.78) rotate(-68.48)"/><path id="_Compound_Path_" data-name="&lt;Compound Path&gt;" class="cls-6" d="M158.8,175.08V116L93,134.06l12.34,27.58v.64l.25-.07,1.47,3.29L157,151.82V174L108.6,187.3v.17c-.06,0-.12,0-.18,0-2.77.76-5,4.14-5,7.55s2.25,5.56,5,4.8,5-4.14,5-7.55a5.48,5.48,0,0,0-1.31-3.77l40.47-11.08a8.72,8.72,0,0,0-1.58,4.91c0,3.41,2.25,5.56,5,4.8s5-4.14,5-7.55A4.91,4.91,0,0,0,158.8,175.08ZM101,146.9l-3.29-7.36,3.29-.91Zm0-10.46-4.17,1.14-.94-2.1,5.11-1.4Zm4.36,18.72-.59.16-2.07-4.62.09,0V138.14l2.57-.7Zm0-19.92-2.57.71v-2.36l2.57-.71Zm49.72-16,1.94-.53v2.36l-1.94.54Zm0,4.56,1.94-.53V141l-1.94.53Zm-45.36,38.76-1.52.41-1-2.35v-3.78l2.57-.7Zm0-8.62-2.57.71V137l2.57-.7Zm0-19.91-2.57.7v-2.36l2.57-.7Zm4.35,27.33-2.57.71v-6.42l2.57-.7Zm0-8.61-2.57.7V135.76l2.57-.71Zm0-19.91-2.57.7V131.2l2.57-.71Zm4.36,27.33-2.57.7v-6.41l2.57-.71Zm0-8.61-2.57.7V134.56l2.57-.7Zm0-19.92-2.57.71V130l2.57-.71ZM122.78,159l-2.57.7v-6.42l2.57-.7Zm0-8.62-2.57.71V133.37l2.57-.7Zm0-19.91-2.57.7v-2.36l2.57-.7Zm4.36,27.33-2.57.71v-6.42l2.57-.7Zm0-8.61-2.57.7V132.18l2.57-.71Zm0-19.91-2.57.7v-2.36l2.57-.71Zm4.35,27.33-2.57.7V150.9l2.57-.71Zm0-8.61-2.57.7V131l2.57-.7Zm0-19.92-2.57.71v-2.36l2.57-.71Zm4.36,27.34-2.57.7V149.7l2.57-.7Zm0-8.62-2.57.71V129.79l2.57-.7Zm0-19.91-2.57.7v-2.36l2.57-.7Zm4.36,27.33-2.57.71v-6.42l2.57-.7Zm0-8.61-2.57.7V128.6l2.57-.71Zm0-19.91-2.57.7V124l2.57-.71ZM144.56,153l-2.57.7v-6.41l2.57-.71Zm0-8.61-2.57.7V127.4l2.57-.7Zm0-19.92-2.57.71v-2.36l2.57-.71Zm4.36,27.34-2.57.7v-6.42l2.57-.7Zm0-8.62-2.57.71V126.21l2.57-.7Zm0-19.91-2.57.7v-2.36l2.57-.7Zm4.36,27.33-2.57.71v-6.42l2.57-.7Zm0-8.61-2.57.7V125l2.57-.71Zm0-19.91-2.57.7v-2.36l2.57-.71Zm1.79,21.62,1.94-.54v6.42l-1.94.53Z"/><polygon id="_Path_19" data-name="&lt;Path&gt;" class="cls-9" points="107.14 165.3 93.01 159.13 77.19 129.3 93.01 134.06 107.14 165.3"/><ellipse id="_Path_20" data-name="&lt;Path&gt;" class="cls-11" cx="94.09" cy="187.2" rx="6.08" ry="4.41" transform="translate(-114.57 206.06) rotate(-68.48)"/><path id="_Path_21" data-name="&lt;Path&gt;" class="cls-5" d="M160.93,104.47l-19.44-.92a.67.67,0,0,1-.64-.74l.2-1.89a.68.68,0,0,1,.7-.6l19.44.92a.66.66,0,0,1,.63.74l-.19,1.89A.68.68,0,0,1,160.93,104.47Z"/><path id="_Path_22" data-name="&lt;Path&gt;" class="cls-11" d="M168.39,118.89l.08.6a.27.27,0,0,1-.18.29l-7.74,2.45a.25.25,0,0,1-.34-.21l-.09-.6a.26.26,0,0,1,.18-.29l7.74-2.46A.27.27,0,0,1,168.39,118.89Z"/><path id="_Path_23" data-name="&lt;Path&gt;" class="cls-11" d="M168.39,115.25l.08.6a.27.27,0,0,1-.18.29l-7.74,2.45a.25.25,0,0,1-.34-.21l-.09-.6a.26.26,0,0,1,.18-.29L168,115A.27.27,0,0,1,168.39,115.25Z"/><path id="_Path_24" data-name="&lt;Path&gt;" class="cls-11" d="M167.83,121.78l.09.6a.26.26,0,0,1-.18.29L163.67,124a.26.26,0,0,1-.35-.21l-.08-.6a.27.27,0,0,1,.18-.29l4.07-1.29A.25.25,0,0,1,167.83,121.78Z"/><path id="_Path_25" data-name="&lt;Path&gt;" class="cls-11" d="M164.82,130.55l.09.6a.27.27,0,0,1-.18.29l-3.61,1.14a.26.26,0,0,1-.35-.21l-.08-.6a.26.26,0,0,1,.18-.29l3.61-1.15A.26.26,0,0,1,164.82,130.55Z"/><path id="_Path_26" data-name="&lt;Path&gt;" class="cls-11" d="M165.3,149.1l.09.6a.27.27,0,0,1-.18.29l-3.62,1.15a.26.26,0,0,1-.34-.22l-.09-.6a.29.29,0,0,1,.19-.29l3.61-1.14A.25.25,0,0,1,165.3,149.1Z"/><path id="_Path_27" data-name="&lt;Path&gt;" class="cls-11" d="M169,138.93l.09.6a.28.28,0,0,1-.18.3l-7.74,2.45a.27.27,0,0,1-.35-.22l-.08-.6a.27.27,0,0,1,.18-.29l7.74-2.45A.25.25,0,0,1,169,138.93Z"/><path id="_Path_28" data-name="&lt;Path&gt;" class="cls-11" d="M171.49,142.3l.08.6a.27.27,0,0,1-.18.29l-6.14,1.94a.25.25,0,0,1-.34-.21l-.09-.6A.27.27,0,0,1,165,144l6.14-1.95A.27.27,0,0,1,171.49,142.3Z"/></g><path id="_Path_29" data-name="&lt;Path&gt;" class="cls-4" d="M156.17,99.59,175.89,76a3.37,3.37,0,0,1,4.52-.59h0a3.37,3.37,0,0,1,.4,5.19l-21.49,20.68"/><path id="_Path_30" data-name="&lt;Path&gt;" class="cls-4" d="M148,98.52l4.14.13a.11.11,0,0,1,.08,0,.1.1,0,0,1,0,.07,1.64,1.64,0,0,1-1.06,1.5,3.93,3.93,0,0,1-1.93.16"/><ellipse id="_Path_31" data-name="&lt;Path&gt;" class="cls-12" cx="108.29" cy="193.72" rx="3.87" ry="2.53" transform="translate(-108.35 241.86) rotate(-73.32)"/><ellipse id="_Path_32" data-name="&lt;Path&gt;" class="cls-12" cx="156.26" cy="181.32" rx="3.87" ry="2.53" transform="translate(-62.28 278.96) rotate(-73.32)"/><path id="_Path_33" data-name="&lt;Path&gt;" class="cls-4" d="M144.34,104.36s-2-3.62-1-5.93a11.22,11.22,0,0,1,6.18.62s-.56,6-1.18,6S144.34,104.36,144.34,104.36Z"/><path id="_Path_34" data-name="&lt;Path&gt;" class="cls-4" d="M154.43,97.69s-1.32,3.94-.5,7l4,.31,1.75-1.06-1.25-.44,1-3.48h.87S160.43,97.57,154.43,97.69Z"/><line id="_Path_35" data-name="&lt;Path&gt;" class="cls-13" x1="145.4" y1="104.32" x2="144.77" y2="101.09"/><line id="_Path_36" data-name="&lt;Path&gt;" class="cls-13" x1="146.89" y1="104.64" x2="146.76" y2="101.35"/><polygon id="_Path_37" data-name="&lt;Path&gt;" class="cls-4" points="208.7 129.29 204.62 129.53 204.62 129.53 197.17 129.29 190.59 141.72 204.7 135.78 204.7 135.78 206.61 143.2 208.7 135.5 208.7 134.28 207.61 134.72 208.7 132.4 208.7 129.29"/><line id="_Path_38" data-name="&lt;Path&gt;" class="cls-13" x1="155.24" y1="104.47" x2="155.11" y2="101.18"/><line id="_Path_39" data-name="&lt;Path&gt;" class="cls-13" x1="156.61" y1="104.6" x2="156.48" y2="101.32"/><path id="_Path_40" data-name="&lt;Path&gt;" class="cls-4" d="M185.91,119.61l1.09,18.3a4.08,4.08,0,0,0,3.59,3.81h0a4.07,4.07,0,0,0,4.44-3.14l5.67-24.68Z"/><path id="_Path_41" data-name="&lt;Path&gt;" class="cls-14" d="M197.79,100a2,2,0,0,0-.78.54,4.27,4.27,0,0,0-.79,4.38,4.54,4.54,0,0,0,4.31,2.8"/><path id="_Path_42" data-name="&lt;Path&gt;" class="cls-14" d="M177.14,107.39a5.47,5.47,0,0,1,2.27,9.66A9.54,9.54,0,0,1,175,118.7"/><path id="_Path_43" data-name="&lt;Path&gt;" class="cls-14" d="M188.27,117.22a4.88,4.88,0,0,1-.84-2.75,4.64,4.64,0,0,1,9.1-1.43"/><path id="_Path_44" data-name="&lt;Path&gt;" class="cls-14" d="M183.37,101.26a5.42,5.42,0,0,0,7.93,4,4,4,0,0,0,1.19-.92,4.28,4.28,0,0,0,.88-2.67,5.27,5.27,0,0,0-.73-2.88,3.68,3.68,0,0,0-2.4-1.67"/><path id="_Path_45" data-name="&lt;Path&gt;" class="cls-14" d="M160.12,81.8s.67,3.45,5.46,3S175,72.29,175,72.29"/><line id="_Path_46" data-name="&lt;Path&gt;" class="cls-14" x1="165.1" y1="84.81" x2="166.35" y2="82.13"/><path id="_Path_47" data-name="&lt;Path&gt;" class="cls-4" d="M166.64,76.47l-.45-5.07a40.45,40.45,0,0,1-3.66,2.78,13.88,13.88,0,0,1-5.86-5c-2.1-3.26-1.37-10.52.86-13.69h0a4.65,4.65,0,0,1,5.16-1.79l4,1.2a6.32,6.32,0,0,1,4.48,5.66L172,71.66"/><path id="_Path_48" data-name="&lt;Path&gt;" class="cls-11" d="M192,54.06a.8.8,0,0,0,.47-1,.79.79,0,0,0-1-.47l-7.07,2.58a.72.72,0,0,1-.91-.41l-.06-.15a.73.73,0,0,1,.42-1l2-.72a.78.78,0,0,0,.47-1,.8.8,0,0,0-1-.47l-6.91,2.71a.71.71,0,0,1-.9-.39l0-.09a.71.71,0,0,1,.41-1l13.1-5a.78.78,0,0,0,.46-1,.77.77,0,0,0-1-.47l-8.49,3.1A.73.73,0,0,1,181,49c0-.1-.09-.2-.13-.31a.72.72,0,0,1,.4-1l4.53-1.65a.78.78,0,0,0,.47-1,.8.8,0,0,0-1-.47l-7.48,2.88a.71.71,0,0,1-.88-.35l-.06-.11a.73.73,0,0,1,.4-1l9.73-3.7a.77.77,0,0,0,.47-1,.8.8,0,0,0-1-.47l-10.93,4c-1.55.32-3.08.86-4.6,1.27-2.83.76-5.75,1.06-8.61,1.62s-10.81,3.58-11.83,10.87c-1.26,9,5.7,9.54,5.7,9.54-1.3-5.22,2.69-7.45,4.83-7.49a7,7,0,0,1,2.33.51l5.16,1.76a1.28,1.28,0,0,1,.58.32,1.3,1.3,0,0,1,.22.51c.56,2.14,1.13,4.27,1.69,6.41l1.63-4.09a3.24,3.24,0,0,1,.48-.9,3.29,3.29,0,0,1,1.24-.79l10.46-4.51L182.29,61l9.22-3.57A.78.78,0,1,0,191,56l-8.11,3.16a.72.72,0,0,1-.92-.44v0a.72.72,0,0,1,.43-.91Z"/><path id="_Path_49" data-name="&lt;Path&gt;" class="cls-11" d="M156.6,58.56l2.1,2.83c1.23,1.66,2.6,3.42,4.58,4,2.82.83,5.78-1,8.71-.76a6.54,6.54,0,0,0-2.57-2.14,10.94,10.94,0,0,0-1.7-.36,7.64,7.64,0,0,1-4.55-2.83"/><g id="_Clip_Group_" data-name="&lt;Clip Group&gt;"><g class="cls-15"><path id="_Path_50" data-name="&lt;Path&gt;" class="cls-16" d="M175.86,65A29.33,29.33,0,0,0,147.28,54.4l2.23-3.94s21.35-3.92,28.19,13.25"/></g></g><path id="_Path_51" data-name="&lt;Path&gt;" class="cls-13" d="M160.49,52.21a5.74,5.74,0,0,1-3.71-4.15,8.78,8.78,0,0,1,4.3.3,4.44,4.44,0,0,1,2.48,2.79,8.59,8.59,0,0,1,.26,1.83"/><path id="_Path_52" data-name="&lt;Path&gt;" class="cls-13" d="M166.16,53.62a5.73,5.73,0,0,0,3.71-4.14,8.79,8.79,0,0,0-4.3.3,4.44,4.44,0,0,0-2.48,2.79,9.28,9.28,0,0,0-.26,1.83"/><path id="_Path_53" data-name="&lt;Path&gt;" class="cls-13" d="M157.4,68.17a4.14,4.14,0,0,1-.39,2.19.42.42,0,0,0,.2.64,3.21,3.21,0,0,0,2.15,0"/><path id="_Path_54" data-name="&lt;Path&gt;" class="cls-3" d="M161.89,66.54c.52.43.76,1.13,1.28,1.56a1.83,1.83,0,0,0,2,.17c.17-.1.35-.28.3-.49a.38.38,0,0,0-.37-.25,1.31,1.31,0,0,0-.47.09,1.7,1.7,0,0,1-1,.07c-.67-.23-1-1.11-1.7-1.22"/><rect id="_Rectangle_" data-name="&lt;Rectangle&gt;" class="cls-3" x="167.88" y="66.05" width="3.73" height="1.12" rx="0.56" ry="0.56" transform="translate(-12.12 53.38) rotate(-17.26)"/><rect id="_Rectangle_2" data-name="&lt;Rectangle&gt;" class="cls-3" x="155.77" y="64.84" width="1.86" height="0.56" rx="0.28" ry="0.28" transform="translate(89.02 220.73) rotate(-89.06)"/><path id="_Path_55" data-name="&lt;Path&gt;" class="cls-3" d="M159.66,65c.15.13.18.38.34.51a.59.59,0,0,0,.26.1.24.24,0,0,0,.22,0,.2.2,0,0,0,.06-.09.53.53,0,0,0,0-.25.61.61,0,0,0-.23-.37c-.12-.1-.26-.16-.39-.25a1.73,1.73,0,0,1-.54-.6,3.54,3.54,0,0,0,.24,1"/><line id="_Path_56" data-name="&lt;Path&gt;" class="cls-4" x1="201.05" y1="136.82" x2="203.29" y2="129.48"/><path id="_Path_57" data-name="&lt;Path&gt;" class="cls-10" d="M176.8,108.75s4.19.38,3.75,4.57-5.56,4.62-5.56,4.62Z"/><path id="_Path_58" data-name="&lt;Path&gt;" class="cls-10" d="M189.28,116.57s-2.1-3.63,1-5.21,5.68,2.54,5.68,2.54Z"/><g id="_Group_4" data-name="&lt;Group&gt;"><path id="_Path_59" data-name="&lt;Path&gt;" class="cls-10" d="M191.58,99.62a4.43,4.43,0,0,0-1.5-1.93,20.64,20.64,0,0,1-5.28,3.3,4.76,4.76,0,0,0,.32,1.3,3.53,3.53,0,1,0,6.46-2.67Z"/></g><g id="_Group_5" data-name="&lt;Group&gt;"><path id="_Path_60" data-name="&lt;Path&gt;" class="cls-10" d="M197.36,104.91a2.51,2.51,0,0,0,2.36,1.73l-1.59-5.33A3.37,3.37,0,0,0,197.36,104.91Z"/><path id="_Path_61" data-name="&lt;Path&gt;" class="cls-10" d="M200.11,106.62a35.68,35.68,0,0,0-1.49-5.8,5.64,5.64,0,0,0-.49.49l1.59,5.33Z"/></g><line id="_Path_62" data-name="&lt;Path&gt;" class="cls-5" x1="164.3" y1="153.77" x2="169.02" y2="153.47"/><line id="_Path_63" data-name="&lt;Path&gt;" class="cls-5" x1="196.29" y1="159.29" x2="211.92" y2="153.32"/><line id="_Path_64" data-name="&lt;Path&gt;" class="cls-5" x1="200.28" y1="159.85" x2="210.43" y2="155.98"/><line id="_Path_65" data-name="&lt;Path&gt;" class="cls-5" x1="203.7" y1="160.63" x2="209.33" y2="158.48"/><line id="_Path_66" data-name="&lt;Path&gt;" class="cls-5" x1="200.28" y1="155.98" x2="205.92" y2="153.83"/><line id="_Path_67" data-name="&lt;Path&gt;" class="cls-5" x1="174.53" y1="165.3" x2="191.94" y2="158.53"/><line id="_Path_68" data-name="&lt;Path&gt;" class="cls-14" x1="47.03" y1="142.29" x2="47.03" y2="83.47"/><polyline id="_Path_69" data-name="&lt;Path&gt;" class="cls-14" points="53.36 92.88 108.42 76.47 100.11 76.47 100.11 63.63"/><line id="_Path_70" data-name="&lt;Path&gt;" class="cls-14" x1="47.03" y1="98.25" x2="114.06" y2="77.63"/><line id="_Path_71" data-name="&lt;Path&gt;" class="cls-14" x1="114.06" y1="62.09" x2="114.06" y2="109.69"/><line id="_Path_72" data-name="&lt;Path&gt;" class="cls-14" x1="113.7" y1="74.84" x2="109.95" y2="76.04"/><polygon id="_Path_73" data-name="&lt;Path&gt;" class="cls-14" points="81.36 81.5 81.36 72.29 89.86 69.69 89.86 79.13 81.36 81.5"/><ellipse id="_Path_74" data-name="&lt;Path&gt;" class="cls-14" cx="85.59" cy="76.9" rx="2.02" ry="1.63" transform="matrix(0.61, -0.79, 0.79, 0.61, -27.63, 97.39)"/><polygon id="_Path_75" data-name="&lt;Path&gt;" class="cls-14" points="66.65 85.89 66.65 76.68 75.15 74.07 75.15 83.52 66.65 85.89"/><ellipse id="_Path_76" data-name="&lt;Path&gt;" class="cls-14" cx="70.87" cy="81.29" rx="2.02" ry="1.63" transform="translate(-36.79 87.47) rotate(-52.2)"/><line id="_Path_77" data-name="&lt;Path&gt;" class="cls-14" x1="65.53" y1="76.9" x2="61.95" y2="76.9"/><line id="_Path_78" data-name="&lt;Path&gt;" class="cls-14" x1="65.95" y1="84.81" x2="62.36" y2="84.81"/><line id="_Path_79" data-name="&lt;Path&gt;" class="cls-14" x1="81.36" y1="81.5" x2="77.78" y2="81.5"/><line id="_Path_80" data-name="&lt;Path&gt;" class="cls-14" x1="81.36" y1="72.29" x2="77.78" y2="72.29"/><line id="_Path_81" data-name="&lt;Path&gt;" class="cls-14" x1="89.86" y1="69.69" x2="85.61" y2="69.69"/><polygon id="_Path_82" data-name="&lt;Path&gt;" class="cls-14" points="93.01 78.44 93.01 69.97 94.85 68.13 94.85 66.15 96.51 66.15 96.51 67.88 98.56 69.92 98.56 76.77 93.01 78.44"/><polyline id="_Path_83" data-name="&lt;Path&gt;" class="cls-14" points="47.03 119.75 114.06 99.99 102.78 99.48"/><line id="_Path_84" data-name="&lt;Path&gt;" class="cls-14" x1="47.03" y1="122.82" x2="114.06" y2="102.4"/><line id="_Path_85" data-name="&lt;Path&gt;" class="cls-14" x1="100.99" y1="98.97" x2="100.99" y2="86.79"/><polyline id="_Path_86" data-name="&lt;Path&gt;" class="cls-14" points="26.11 103.85 41.86 99.48 41.86 173.85 17.61 181.32"/><polyline id="_Path_87" data-name="&lt;Path&gt;" class="cls-14" points="140.85 69.69 118.15 77.63 118.15 102.7"/><polyline id="_Path_88" data-name="&lt;Path&gt;" class="cls-14" points="81.36 138.63 61.95 143.2 61.95 147.3 61.95 165.3 64.99 168.33 87.38 162.09 87.86 154.97"/><line id="_Path_89" data-name="&lt;Path&gt;" class="cls-2" x1="61.95" y1="147.3" x2="80.89" y2="142.77"/><polyline id="_Path_90" data-name="&lt;Path&gt;" class="cls-14" points="66.65 147.81 69.09 152.58 66.65 161.91"/><polyline id="_Path_91" data-name="&lt;Path&gt;" class="cls-14" points="56.36 160.63 56.36 142.73 71.42 138.3 77.78 138.3"/><polygon id="_Path_92" data-name="&lt;Path&gt;" class="cls-14" points="64.16 111 64.16 100.45 79.57 95.65 79.57 105.86 64.16 111"/><path id="_Path_93" data-name="&lt;Path&gt;" class="cls-13" d="M66.2,119.15l-2.35.68c-2.78.79-4.56-.87-4-3.7h0a3.51,3.51,0,0,1,2.22-2.38l2.35-.67c2.79-.8,4.57.87,4,3.7h0A3.47,3.47,0,0,1,66.2,119.15Z"/><path id="_Path_94" data-name="&lt;Path&gt;" class="cls-13" d="M98.59,84l-2.35.67c-2.79.8-4.57-.87-4-3.7h0a3.47,3.47,0,0,1,2.22-2.37l2.35-.68c2.78-.79,4.57.87,4,3.7h0A3.51,3.51,0,0,1,98.59,84Z"/><line id="_Path_95" data-name="&lt;Path&gt;" class="cls-14" x1="179.2" y1="82.88" x2="182.95" y2="91.04"/><path id="_Path_96" data-name="&lt;Path&gt;" class="cls-14" d="M170.74,91s3.06,1,3.81-1.41"/><path id="_Path_97" data-name="&lt;Path&gt;" class="cls-14" d="M176.28,97.69s6.05.82,10-2"/><line id="_Path_98" data-name="&lt;Path&gt;" class="cls-14" x1="167.92" y1="89.13" x2="169.01" y2="89.96"/><line id="_Path_99" data-name="&lt;Path&gt;" class="cls-14" x1="155.24" y1="87.82" x2="156.98" y2="88.08"/><path id="_Path_100" data-name="&lt;Path&gt;" class="cls-7" d="M177.15,84.16s9.9,8.6,22,2.49l-2-6.15c-11.74,5.5-15.83-4-15.83-4"/><polygon id="_Path_101" data-name="&lt;Path&gt;" class="cls-7" points="197.12 80.5 195.36 75.5 212.86 67.49 220.11 81.25 201.05 90.43 197.12 80.5"/><polyline id="_Path_102" data-name="&lt;Path&gt;" class="cls-7" points="195.36 75.5 193.78 77.96 199.64 93.46 201.05 90.43"/><polyline id="_Path_103" data-name="&lt;Path&gt;" class="cls-7" points="199.64 93.46 218.36 85.29 220.11 81.25"/><line id="_Path_104" data-name="&lt;Path&gt;" class="cls-14" x1="210.95" y1="70.66" x2="216.2" y2="80.29"/><polyline id="_Path_105" data-name="&lt;Path&gt;" class="cls-14" points="201.78 87.36 202.78 84.8 200.53 83.47 201.05 81.25 199.12 79.88 199.72 77.79 197.7 76.47"/><rect id="_Rectangle_3" data-name="&lt;Rectangle&gt;" class="cls-14" x="203.29" y="75.47" width="6.59" height="7.18" rx="3.29" ry="3.29" transform="translate(-14 95.48) rotate(-25.2)"/><line id="_Path_106" data-name="&lt;Path&gt;" class="cls-14" x1="203.7" y1="89.16" x2="202.78" y2="92.09"/><line id="_Path_107" data-name="&lt;Path&gt;" class="cls-14" x1="206.21" y1="87.94" x2="205.29" y2="90.87"/><line id="_Path_108" data-name="&lt;Path&gt;" class="cls-14" x1="208.72" y1="86.72" x2="207.8" y2="89.66"/><line id="_Path_109" data-name="&lt;Path&gt;" class="cls-14" x1="211.23" y1="85.51" x2="210.32" y2="88.44"/><line id="_Path_110" data-name="&lt;Path&gt;" class="cls-14" x1="213.75" y1="84.29" x2="212.83" y2="87.22"/><line id="_Path_111" data-name="&lt;Path&gt;" class="cls-14" x1="216.26" y1="83.07" x2="215.34" y2="86.01"/></svg>