<svg id="Layer_1" data-name="Layer 1" xmlns="http://www.w3.org/2000/svg" viewBox="0 0 238.12 238.12"><defs><style>.cls-1,.cls-5{fill:#c1cdd9;}.cls-1,.cls-10,.cls-2,.cls-3,.cls-4,.cls-6,.cls-7,.cls-9{stroke:#292836;stroke-linecap:round;stroke-linejoin:round;}.cls-2{fill:#00a7b5;}.cls-3{fill:#f8ea47;}.cls-4{fill:#e2d242;}.cls-10,.cls-6{fill:none;}.cls-7,.cls-9{fill:#eef7ff;}.cls-8{fill:#494856;}.cls-9{stroke-width:2px;}.cls-10{stroke-width:0.5px;}</style></defs><title>Artboard 2 copy 8</title><g id="_Group_" data-name="&lt;Group&gt;"><path id="_Rectangle_" data-name="&lt;Rectangle&gt;" class="cls-1" d="M177.23,185.34h14.3a0,0,0,0,1,0,0v8.25a4.21,4.21,0,0,1-4.21,4.21h-5.89a4.21,4.21,0,0,1-4.21-4.21v-8.25A0,0,0,0,1,177.23,185.34Z"/><rect id="_Rectangle_2" data-name="&lt;Rectangle&gt;" class="cls-2" x="175.25" y="171.6" width="12.58" height="7.42" rx="2.51" ry="2.51"/><rect id="_Rectangle_3" data-name="&lt;Rectangle&gt;" class="cls-2" x="180.61" y="164" width="10.6" height="4.89" rx="1.65" ry="1.65"/><line id="_Path_" data-name="&lt;Path&gt;" class="cls-3" x1="184.38" y1="185.34" x2="184.38" y2="179.02"/><line id="_Path_2" data-name="&lt;Path&gt;" class="cls-3" x1="184.12" y1="171.6" x2="184.12" y2="168.97"/><line id="_Path_3" data-name="&lt;Path&gt;" class="cls-3" x1="184.12" y1="164" x2="184.12" y2="160.51"/><rect id="_Rectangle_4" data-name="&lt;Rectangle&gt;" class="cls-2" x="176.01" y="157.66" width="9.2" height="3.92" rx="1.33" ry="1.33"/><rect id="_Rectangle_5" data-name="&lt;Rectangle&gt;" class="cls-4" x="174.43" y="175.22" width="5.6" height="5.6" rx="1.89" ry="1.89"/><rect id="_Rectangle_6" data-name="&lt;Rectangle&gt;" class="cls-4" x="175.25" y="160.53" width="3.44" height="3.44" rx="1.16" ry="1.16"/><line id="_Path_4" data-name="&lt;Path&gt;" class="cls-4" x1="179.73" y1="190.03" x2="189.04" y2="190.03"/></g><g id="_Group_2" data-name="&lt;Group&gt;"><rect id="_Rectangle_7" data-name="&lt;Rectangle&gt;" class="cls-5" x="54.39" y="41.53" width="119.39" height="127.95" rx="12" ry="12"/><g id="_Group_3" data-name="&lt;Group&gt;"><rect id="_Rectangle_8" data-name="&lt;Rectangle&gt;" class="cls-2" x="69.13" y="67.5" width="37.35" height="8.15" rx="3.9" ry="3.9"/><rect id="_Rectangle_9" data-name="&lt;Rectangle&gt;" class="cls-4" x="121.69" y="67.5" width="37.35" height="8.15" rx="3.9" ry="3.9"/></g><path id="_Path_5" data-name="&lt;Path&gt;" class="cls-6" d="M59,99.39v59.17a6,6,0,0,0,6,6H163.2a6,6,0,0,0,6-6V148.29"/><path id="_Path_6" data-name="&lt;Path&gt;" class="cls-6" d="M120.89,46.42H65a6,6,0,0,0-6,6V85.13"/><path id="_Path_7" data-name="&lt;Path&gt;" class="cls-6" d="M169.22,115.48v-63a6,6,0,0,0-6-6h-7.67"/><line id="_Path_8" data-name="&lt;Path&gt;" class="cls-6" x1="169.22" y1="134.02" x2="169.22" y2="121.8"/><line id="_Path_9" data-name="&lt;Path&gt;" class="cls-6" x1="128.92" y1="46.42" x2="147.39" y2="46.42"/><rect id="_Rectangle_10" data-name="&lt;Rectangle&gt;" class="cls-7" x="69.13" y="92.12" width="89.92" height="8.15" rx="3.9" ry="3.9"/><rect id="_Rectangle_11" data-name="&lt;Rectangle&gt;" class="cls-7" x="69.13" y="125.87" width="89.92" height="28.93" rx="5" ry="5"/><rect id="_Rectangle_12" data-name="&lt;Rectangle&gt;" class="cls-4" x="69.13" y="109.03" width="89.92" height="8.15" rx="3.9" ry="3.9"/><rect id="_Rectangle_13" data-name="&lt;Rectangle&gt;" class="cls-8" x="69.13" y="52.12" width="34.77" height="3.53" rx="1.69" ry="1.69"/><rect id="_Rectangle_14" data-name="&lt;Rectangle&gt;" class="cls-8" x="69.13" y="87.12" width="22.65" height="1.86" rx="0.89" ry="0.89"/><rect id="_Rectangle_15" data-name="&lt;Rectangle&gt;" class="cls-8" x="69.13" y="104.57" width="22.65" height="1.86" rx="0.89" ry="0.89"/><rect id="_Rectangle_16" data-name="&lt;Rectangle&gt;" class="cls-8" x="69.13" y="121.8" width="22.65" height="1.86" rx="0.89" ry="0.89"/><rect id="_Rectangle_17" data-name="&lt;Rectangle&gt;" class="cls-8" x="69.13" y="62.85" width="22.65" height="1.86" rx="0.89" ry="0.89"/></g><path id="_Path_10" data-name="&lt;Path&gt;" class="cls-7" d="M73.91,85.22l.62-5.59-1.71-18,11.62-.88,3.47,3.13V78a3.74,3.74,0,0,1-3.25,3.7l-1.79.23v6.63"/><polyline id="_Path_11" data-name="&lt;Path&gt;" class="cls-7" points="71.81 84.37 71.81 81.46 85.28 82.57 85.28 86.75"/><path id="_Path_12" data-name="&lt;Path&gt;" class="cls-7" d="M64,87.25a23.72,23.72,0,0,1,14.19-3.17A16.9,16.9,0,0,1,90.28,91l-4.7,36.78H61.28Z"/><path id="_Path_13" data-name="&lt;Path&gt;" class="cls-7" d="M88.8,99.4l10.5,10.25a4,4,0,0,0,5.66.14h0a4,4,0,0,0,.13-5.66L103,101.92,90.23,88.52l-7.36-3.3"/><path id="_Path_14" data-name="&lt;Path&gt;" class="cls-7" d="M105,109.79c4-3.91,7.23-23.64,7.23-23.64l-5.34-2.07-6,15.59,2.37,3.27"/><path id="_Path_15" data-name="&lt;Path&gt;" class="cls-7" d="M65.64,86.37C61.28,88,50,101.67,50,101.67L40.84,125.5l4.69,2.28,9-20.26,9.39-8.44"/><path id="_Path_16" data-name="&lt;Path&gt;" class="cls-7" d="M107.48,84.33v-5a2.69,2.69,0,0,1,.44-1.46l1.21-1.83a2.78,2.78,0,0,1,2.32-1.26h0l-1.31,2.63a.84.84,0,0,0,.15,1h0a.86.86,0,0,0,1.48-.48l.42-3.13,2,2.18a2.31,2.31,0,0,1,.6,1.74l-.22,2.66A4.1,4.1,0,0,1,113.35,84l-1.89,1.84Z"/><line id="_Path_17" data-name="&lt;Path&gt;" class="cls-9" x1="111.53" y1="77.31" x2="104.75" y2="70.33"/><line id="_Path_18" data-name="&lt;Path&gt;" class="cls-9" x1="115.11" y1="80.35" x2="117.24" y2="82.57"/><line id="_Path_19" data-name="&lt;Path&gt;" class="cls-7" x1="104.75" y1="71.06" x2="106.91" y2="73.13"/><line id="_Path_20" data-name="&lt;Path&gt;" class="cls-7" x1="109.28" y1="85.08" x2="108.14" y2="88.54"/><polygon id="_Path_21" data-name="&lt;Path&gt;" class="cls-4" points="61.28 127.78 58.92 156.13 39.03 181.5 41.53 198.5 43.16 198.5 46.44 198.5 47.41 186.38 50.78 181.77 68.41 160.63 71.86 148.25 85.34 130.5 85.58 127.78 61.28 127.78"/><line id="_Path_22" data-name="&lt;Path&gt;" class="cls-7" x1="44.21" y1="127.14" x2="45.12" y2="123.92"/><polyline id="_Path_23" data-name="&lt;Path&gt;" class="cls-4" points="85.58 127.78 80.13 189.13 76.62 189.13 77.12 192.75 88.03 195.75 88.03 198.5 70.78 198.5 71.91 145.88 68.41 141.13"/><path id="_Path_24" data-name="&lt;Path&gt;" class="cls-7" d="M39.85,127.15l-1.38,2.39a2.12,2.12,0,0,0-.11.21l-1,2.18a2.13,2.13,0,0,0,1,2.77h0a2.13,2.13,0,0,0,1.83,0l3.51-1.64a2.15,2.15,0,0,0,1.06-1.1l.66-1.59a2.08,2.08,0,0,0,0-1.64l-.24-.59a2.13,2.13,0,0,0-1-1.08l-1.58-.77A2.13,2.13,0,0,0,39.85,127.15Z"/><path id="_Path_25" data-name="&lt;Path&gt;" class="cls-10" d="M43.75,133.07l-2.51-2.15,1.88-.42a1.49,1.49,0,0,1-.92-1.67"/><polyline id="_Path_26" data-name="&lt;Path&gt;" class="cls-10" points="37.61 134.02 40.53 132.75 40.53 131.46"/><line id="_Path_27" data-name="&lt;Path&gt;" class="cls-10" x1="113.68" y1="76.45" x2="113.28" y2="79.75"/><path id="_Path_28" data-name="&lt;Path&gt;" class="cls-4" d="M74.46,78.89h5.9l2.51-9.39,1.57.83L88,67.88s3.25.62,3.25-1.5V62.9a5.83,5.83,0,0,0-6.14-5.83l-7,.36A5.84,5.84,0,0,0,72.59,64Z"/><rect id="_Rectangle_18" data-name="&lt;Rectangle&gt;" class="cls-7" x="86.72" y="70.33" width="2.56" height="4.31" rx="1.28" ry="1.28"/><polyline id="_Path_29" data-name="&lt;Path&gt;" class="cls-7" points="88 74.64 89.28 76.08 87.91 76.45"/><line id="_Path_30" data-name="&lt;Path&gt;" class="cls-4" x1="70.98" y1="189.13" x2="80.13" y2="189.13"/><path id="_Path_31" data-name="&lt;Path&gt;" class="cls-4" d="M44.21,175.75l.63.56a7.46,7.46,0,0,1,2.5,5.47l.07,4.6"/><path id="_Path_32" data-name="&lt;Path&gt;" class="cls-10" d="M39,181.5h2a3.1,3.1,0,0,1,3.08,2.74l1.21,10.34"/><path id="_Path_33" data-name="&lt;Path&gt;" class="cls-10" d="M78.22,127.78s-2.38,8.72,6.22,8.72"/><line id="_Path_34" data-name="&lt;Path&gt;" class="cls-10" x1="81.18" y1="135.94" x2="77.2" y2="188.04"/><line id="_Path_35" data-name="&lt;Path&gt;" class="cls-10" x1="67.7" y1="138" x2="67.7" y2="130.95"/><line id="_Path_36" data-name="&lt;Path&gt;" class="cls-10" x1="62.31" y1="129.5" x2="75.78" y2="129.5"/><line id="_Path_37" data-name="&lt;Path&gt;" class="cls-10" x1="102.16" y1="99.5" x2="104.75" y2="100.25"/><line id="_Path_38" data-name="&lt;Path&gt;" class="cls-10" x1="52.03" y1="104.36" x2="54.53" y2="107.52"/><line id="_Path_39" data-name="&lt;Path&gt;" class="cls-10" x1="63.95" y1="88.54" x2="62.78" y2="94.08"/><line id="_Path_40" data-name="&lt;Path&gt;" class="cls-10" x1="71.81" y1="85.86" x2="81.18" y2="87.5"/><line id="_Path_41" data-name="&lt;Path&gt;" class="cls-6" x1="88.03" y1="198.5" x2="150.28" y2="198.5"/><line id="_Path_42" data-name="&lt;Path&gt;" class="cls-6" x1="46.44" y1="198.5" x2="70.98" y2="198.5"/><line id="_Path_43" data-name="&lt;Path&gt;" class="cls-6" x1="157.03" y1="198.5" x2="166.03" y2="198.5"/><line id="_Path_44" data-name="&lt;Path&gt;" class="cls-6" x1="176.53" y1="198.5" x2="199.03" y2="198.5"/><line id="_Path_45" data-name="&lt;Path&gt;" class="cls-10" x1="87.81" y1="99.5" x2="84.44" y2="104.36"/><line id="_Path_46" data-name="&lt;Path&gt;" class="cls-10" x1="86.12" y1="104.57" x2="83.66" y2="123.92"/><line id="_Path_47" data-name="&lt;Path&gt;" class="cls-10" x1="87.81" y1="98.5" x2="84.44" y2="99.39"/></svg>