<svg id="Layer_1" data-name="Layer 1" xmlns="http://www.w3.org/2000/svg" viewBox="0 0 238.12 238.12"><defs><style>.cls-1,.cls-4{fill:#eef7ff;}.cls-2{fill:#292836;}.cls-3{fill:#00a7b5;}.cls-3,.cls-4,.cls-5,.cls-6,.cls-7,.cls-8,.cls-9{stroke:#292836;}.cls-10,.cls-3,.cls-4,.cls-5,.cls-6,.cls-7,.cls-8,.cls-9{stroke-linecap:round;stroke-linejoin:round;}.cls-5{fill:#c1cdd9;}.cls-10,.cls-6,.cls-9{fill:none;}.cls-7{fill:#e2d242;}.cls-8{fill:#f8ea47;}.cls-9{stroke-width:0.5px;}.cls-10{stroke:#fff;}.cls-11{fill:#fff;}</style></defs><title>Artboard 2 copy 9</title><rect id="_Rectangle_" data-name="&lt;Rectangle&gt;" class="cls-1" x="52.38" y="133.19" width="125.5" height="63.76" rx="12" ry="12"/><rect id="_Rectangle_2" data-name="&lt;Rectangle&gt;" class="cls-2" x="133.55" y="73.4" width="7.17" height="11.5" rx="3.58" ry="3.58"/><rect id="_Rectangle_3" data-name="&lt;Rectangle&gt;" class="cls-3" x="147.54" y="64.15" width="13.34" height="12.33" rx="3.63" ry="3.63"/><polyline id="_Path_" data-name="&lt;Path&gt;" class="cls-4" points="144.12 96.22 144.12 92.65 150.97 92.65 150.97 95.75"/><path id="_Path_2" data-name="&lt;Path&gt;" class="cls-4" d="M146.08,93.4h-6.45a52.8,52.8,0,0,1-2.5-15.25c0-8,9-7.25,9-7.25l7,1.38L151,95.75"/><path id="_Path_3" data-name="&lt;Path&gt;" class="cls-5" d="M129.67,128.15V108.34a7,7,0,0,1,7-7h6.6V96.4a.76.76,0,0,1,.75-.75h7.26a.76.76,0,0,1,.75.75v5.25h8.17a7.17,7.17,0,0,1,7.16,7.17v24.12"/><line id="_Path_4" data-name="&lt;Path&gt;" class="cls-6" x1="43.05" y1="132.94" x2="182.78" y2="132.94"/><line id="_Path_5" data-name="&lt;Path&gt;" class="cls-6" x1="43.05" y1="135.87" x2="182.78" y2="135.87"/><line id="_Path_6" data-name="&lt;Path&gt;" class="cls-6" x1="62.28" y1="135.87" x2="62.28" y2="173.65"/><line id="_Path_7" data-name="&lt;Path&gt;" class="cls-6" x1="66.75" y1="135.87" x2="66.75" y2="149.55"/><rect id="_Rectangle_4" data-name="&lt;Rectangle&gt;" class="cls-7" x="78.55" y="141.87" width="3.82" height="3.82" rx="1.91" ry="1.91"/><rect id="_Rectangle_5" data-name="&lt;Rectangle&gt;" class="cls-7" x="118.84" y="141.87" width="15.58" height="3.82" rx="1.91" ry="1.91"/><line id="_Path_8" data-name="&lt;Path&gt;" class="cls-6" x1="94.3" y1="135.87" x2="94.3" y2="150.56"/><rect id="_Rectangle_6" data-name="&lt;Rectangle&gt;" class="cls-3" x="100.63" y="127.15" width="56.75" height="5.79" rx="2.89" ry="2.89"/><rect id="_Path_9" data-name="&lt;Path&gt;" class="cls-8" x="64.88" y="86.4" width="49" height="30.5"/><polygon id="_Path_10" data-name="&lt;Path&gt;" class="cls-8" points="80.46 125.4 80.46 106.4 89.94 106.4 89.94 129.4 80.46 129.4 80.46 125.4"/><polyline id="_Path_11" data-name="&lt;Path&gt;" class="cls-5" points="158.72 110.82 158.72 124.61 144.72 122.9"/><rect id="_Rectangle_7" data-name="&lt;Rectangle&gt;" class="cls-7" x="66.98" y="129.4" width="39.27" height="2.75" rx="1.37" ry="1.37"/><polygon id="_Path_12" data-name="&lt;Path&gt;" class="cls-7" points="92.88 129.4 92.88 101.65 89.94 106.4 89.94 129.4 92.88 129.4"/><polygon id="_Path_13" data-name="&lt;Path&gt;" class="cls-4" points="80.46 106.4 84.13 101.65 92.88 101.65 89.94 106.4 80.46 106.4"/><polyline id="_Path_14" data-name="&lt;Path&gt;" class="cls-7" points="113.88 86.4 116.38 86.4 116.38 116.9 113.88 116.9"/><g id="_Group_" data-name="&lt;Group&gt;"><rect id="_Rectangle_8" data-name="&lt;Rectangle&gt;" class="cls-4" x="121.09" y="124.61" width="6.42" height="2.12" rx="1.06" ry="1.06"/><path id="_Rectangle_9" data-name="&lt;Rectangle&gt;" class="cls-4" d="M114.24,122.9h7.85a1.37,1.37,0,0,1,1.37,1.37v1.43a1.45,1.45,0,0,1-1.45,1.45h-7.76a1.41,1.41,0,0,1-1.41-1.41v-1.43A1.41,1.41,0,0,1,114.24,122.9Z"/><line id="_Path_15" data-name="&lt;Path&gt;" class="cls-9" x1="120.72" y1="126.74" x2="120.72" y2="123.24"/><line id="_Path_16" data-name="&lt;Path&gt;" class="cls-9" x1="115.35" y1="126.74" x2="115.35" y2="123.24"/><line id="_Path_17" data-name="&lt;Path&gt;" class="cls-9" x1="118.14" y1="126.74" x2="118.14" y2="123.24"/></g><g id="_Group_2" data-name="&lt;Group&gt;"><rect id="_Rectangle_10" data-name="&lt;Rectangle&gt;" class="cls-4" x="133.92" y="124.61" width="6.42" height="2.12" rx="1.06" ry="1.06" transform="translate(274.27 251.35) rotate(180)"/><path id="_Rectangle_11" data-name="&lt;Rectangle&gt;" class="cls-4" d="M139.39,122.9h7.76a1.45,1.45,0,0,1,1.45,1.45v1.43a1.37,1.37,0,0,1-1.37,1.37h-7.85a1.41,1.41,0,0,1-1.41-1.41v-1.43a1.41,1.41,0,0,1,1.41-1.41Z" transform="translate(286.58 250.06) rotate(-180)"/><line id="_Path_18" data-name="&lt;Path&gt;" class="cls-9" x1="140.72" y1="126.74" x2="140.72" y2="123.24"/><line id="_Path_19" data-name="&lt;Path&gt;" class="cls-9" x1="146.08" y1="126.74" x2="146.08" y2="123.24"/><line id="_Path_20" data-name="&lt;Path&gt;" class="cls-9" x1="143.29" y1="126.74" x2="143.29" y2="123.24"/></g><path id="_Path_21" data-name="&lt;Path&gt;" class="cls-5" d="M134.42,110.82l-2.79,6.9s2.63,3.56,5.5,3.56v3.33"/><path id="_Path_22" data-name="&lt;Path&gt;" class="cls-9" d="M142.51,104s.75,1.5,4.12,1.5"/><line id="_Path_23" data-name="&lt;Path&gt;" class="cls-9" x1="134.42" y1="109.53" x2="133.13" y2="106.4"/><line id="_Path_24" data-name="&lt;Path&gt;" class="cls-9" x1="158.72" y1="109.53" x2="161.26" y2="105.53"/><path id="_Path_25" data-name="&lt;Path&gt;" class="cls-9" d="M158.72,124.61A5.31,5.31,0,0,1,162,129.4"/><path id="_Path_26" data-name="&lt;Path&gt;" class="cls-3" d="M139.07,79.94h0a4.65,4.65,0,0,1-3.18-4.14v-3a4.3,4.3,0,0,1,4.3-4.3H152a4.29,4.29,0,0,1,4.3,4.3v11a4.29,4.29,0,0,1-4.3,4.3h0l-.82,3.77-3.6-8V79.72Z"/><rect id="_Rectangle_12" data-name="&lt;Rectangle&gt;" class="cls-2" x="151.11" y="74.07" width="7.17" height="11.5" rx="3.58" ry="3.58"/><rect id="_Rectangle_13" data-name="&lt;Rectangle&gt;" class="cls-2" x="153.13" y="69.9" width="3.13" height="5.5" rx="0.9" ry="0.9"/><polygon id="_Path_27" data-name="&lt;Path&gt;" class="cls-2" points="156.26 70.8 136.39 70.8 137.95 69.16 140.82 68.53 153.13 68.69 154.7 69.51 156.26 70.8"/><polyline id="_Path_28" data-name="&lt;Path&gt;" class="cls-10" points="153.13 76.49 153.13 80.22 156.8 80.22"/><polyline id="_Path_29" data-name="&lt;Path&gt;" class="cls-6" points="154.7 84.9 154.7 90.4 143.29 90.4"/><rect id="_Rectangle_14" data-name="&lt;Rectangle&gt;" class="cls-2" x="142.02" y="89.49" width="4.83" height="1.83" rx="0.92" ry="0.92"/><path id="_Path_30" data-name="&lt;Path&gt;" class="cls-4" d="M111.35,40.68H68.53a7.13,7.13,0,0,0-7.1,7.11V67.32a7.13,7.13,0,0,0,7.1,7.11h39.35L118.46,81V47.79A7.13,7.13,0,0,0,111.35,40.68Z"/><line id="_Path_31" data-name="&lt;Path&gt;" class="cls-4" x1="68.13" y1="47.65" x2="109.26" y2="47.65"/><line id="_Path_32" data-name="&lt;Path&gt;" class="cls-4" x1="68.13" y1="53.32" x2="109.26" y2="53.32"/><g id="_Group_3" data-name="&lt;Group&gt;"><polygon id="_Path_33" data-name="&lt;Path&gt;" class="cls-9" points="78.13 60.72 78.13 65.33 89.1 70.04 100.63 65.38 100.63 60.72 89.1 64.48 78.13 60.72"/><polyline id="_Path_34" data-name="&lt;Path&gt;" class="cls-9" points="78.13 60.72 89.1 58.27 100.63 60.72"/></g><rect id="_Path_35" data-name="&lt;Path&gt;" class="cls-11" x="146.08" y="154.32" width="25.8" height="19.33"/><polyline id="_Path_36" data-name="&lt;Path&gt;" class="cls-9" points="146.08 154.32 146.08 173.65 171.88 173.65"/><rect id="_Rectangle_15" data-name="&lt;Rectangle&gt;" class="cls-8" x="156.13" y="150.56" width="5.71" height="7.59" rx="0.36" ry="0.36"/><path id="_Path_37" data-name="&lt;Path&gt;" class="cls-6" d="M152.38,164.78s.25,5.19,7,5.19,6.75-5.19,6.75-5.19"/><rect id="_Rectangle_16" data-name="&lt;Rectangle&gt;" class="cls-8" x="154.76" y="160.72" width="2.74" height="4.83" rx="1.37" ry="1.37"/><rect id="_Rectangle_17" data-name="&lt;Rectangle&gt;" class="cls-8" x="160.86" y="160.72" width="2.74" height="4.83" rx="1.37" ry="1.37"/><rect id="_Path_38" data-name="&lt;Path&gt;" class="cls-9" x="112.92" y="167.37" width="13.72" height="13.78"/><line id="_Path_39" data-name="&lt;Path&gt;" class="cls-9" x1="115.63" y1="169.97" x2="119.77" y2="169.97"/><line id="_Path_40" data-name="&lt;Path&gt;" class="cls-9" x1="115.63" y1="172.15" x2="119.77" y2="172.15"/><line id="_Path_41" data-name="&lt;Path&gt;" class="cls-9" x1="115.63" y1="174.34" x2="123.88" y2="174.34"/><line id="_Path_42" data-name="&lt;Path&gt;" class="cls-9" x1="115.63" y1="178.65" x2="123.88" y2="178.65"/><line id="_Path_43" data-name="&lt;Path&gt;" class="cls-6" x1="66.75" y1="153.03" x2="66.75" y2="183.53"/><line id="_Path_44" data-name="&lt;Path&gt;" class="cls-6" x1="173.88" y1="135.9" x2="173.88" y2="148.65"/><line id="_Path_45" data-name="&lt;Path&gt;" class="cls-6" x1="159.99" y1="135.9" x2="159.99" y2="140.32"/><line id="_Path_46" data-name="&lt;Path&gt;" class="cls-9" x1="94.3" y1="154.32" x2="140.34" y2="154.32"/><line id="_Path_47" data-name="&lt;Path&gt;" class="cls-9" x1="89.1" y1="64.48" x2="89.1" y2="70.04"/><line id="_Path_48" data-name="&lt;Path&gt;" class="cls-6" x1="37.56" y1="197.65" x2="197.08" y2="197.65"/></svg>