<svg id="Layer_1" data-name="Layer 1" xmlns="http://www.w3.org/2000/svg" viewBox="0 0 238.12 238.12"><defs><style>.cls-1{fill:#eef7ff;}.cls-1,.cls-2,.cls-3,.cls-6,.cls-7,.cls-8{stroke:#292836;stroke-linecap:round;stroke-linejoin:round;}.cls-2,.cls-7{fill:none;}.cls-3,.cls-9{fill:#c1cdd9;}.cls-4{fill:#292836;}.cls-5{fill:#fff;}.cls-6{fill:#f8ea47;}.cls-7{stroke-width:0.5px;}.cls-8{fill:#00a7b5;}</style></defs><title>Artboard 2 copy 4</title><g id="_Group_" data-name="&lt;Group&gt;"><polyline id="_Path_" data-name="&lt;Path&gt;" class="cls-1" points="61.56 47.27 156.73 47.27 188.45 47.27"/><path id="_Path_2" data-name="&lt;Path&gt;" class="cls-2" d="M209.6,158.28h-4.37c-1.15,0-4.83-25.75-31.85-25.75-26.54,0-30.75,25.75-30.75,25.75H63.4"/><line id="_Path_3" data-name="&lt;Path&gt;" class="cls-2" x1="47.21" y1="191.6" x2="179.03" y2="191.6"/><line id="_Path_4" data-name="&lt;Path&gt;" class="cls-2" x1="185" y1="191.6" x2="205.23" y2="191.6"/><polyline id="_Path_5" data-name="&lt;Path&gt;" class="cls-3" points="50.09 150.21 61.22 142.66 136.5 145.4 136.5 158.28 38.19 158.28 43.6 154.61"/><circle id="_Path_6" data-name="&lt;Path&gt;" class="cls-4" cx="173.38" cy="164.52" r="26.53"/><circle id="_Path_7" data-name="&lt;Path&gt;" class="cls-2" cx="173.38" cy="164.52" r="26.53"/><path id="_Rectangle_" data-name="&lt;Rectangle&gt;" class="cls-4" d="M51.68,53.68h89a0,0,0,0,1,0,0V145.4a0,0,0,0,1,0,0H66.8a15.13,15.13,0,0,1-15.13-15.13V53.68A0,0,0,0,1,51.68,53.68Z"/><circle id="_Path_8" data-name="&lt;Path&gt;" class="cls-5" cx="173.38" cy="164.52" r="12.76"/><path id="_Path_9" data-name="&lt;Path&gt;" class="cls-1" d="M136.5,58.89V164.52h43.27a8.68,8.68,0,0,0,8.68-8.68V67.57a8.68,8.68,0,0,0-8.68-8.68Z"/><rect id="_Rectangle_2" data-name="&lt;Rectangle&gt;" class="cls-1" x="141.56" y="106.09" width="11.95" height="2.76" rx="1.38" ry="1.38"/><path id="_Rectangle_3" data-name="&lt;Rectangle&gt;" class="cls-6" d="M136.5,120.8h52a0,0,0,0,1,0,0V155.5a9,9,0,0,1-9,9H136.5a0,0,0,0,1,0,0V120.8A0,0,0,0,1,136.5,120.8Z"/><line id="_Path_10" data-name="&lt;Path&gt;" class="cls-7" x1="141.56" y1="148.16" x2="182.01" y2="148.16"/><polyline id="_Path_11" data-name="&lt;Path&gt;" class="cls-7" points="141.56 112.53 141.56 117.13 159.72 117.13 159.72 101.03"/><line id="_Path_12" data-name="&lt;Path&gt;" class="cls-7" x1="141.56" y1="73.45" x2="182.01" y2="73.45"/><line id="_Path_13" data-name="&lt;Path&gt;" class="cls-7" x1="186.19" y1="61.74" x2="186.19" y2="160.34"/><line id="_Path_14" data-name="&lt;Path&gt;" class="cls-1" x1="58.65" y1="53.68" x2="183.7" y2="53.68"/><polyline id="_Path_15" data-name="&lt;Path&gt;" class="cls-2" points="205.23 158.28 205.23 163.33 210.75 163.33"/><line id="_Path_16" data-name="&lt;Path&gt;" class="cls-2" x1="136.5" y1="163.33" x2="53.98" y2="163.33"/><line id="_Path_17" data-name="&lt;Path&gt;" class="cls-2" x1="50.3" y1="163.33" x2="41.33" y2="163.33"/><line id="_Path_18" data-name="&lt;Path&gt;" class="cls-2" x1="190.98" y1="53.68" x2="205.23" y2="53.68"/><line id="_Path_19" data-name="&lt;Path&gt;" class="cls-2" x1="199.91" y1="53.68" x2="199.91" y2="146.78"/><line id="_Path_20" data-name="&lt;Path&gt;" class="cls-8" x1="56.35" y1="53.68" x2="38.19" y2="53.68"/><line id="_Path_21" data-name="&lt;Path&gt;" class="cls-8" x1="57.66" y1="47.27" x2="25.01" y2="47.27"/><polyline id="_Path_22" data-name="&lt;Path&gt;" class="cls-1" points="33.93 164.52 60.72 164.52 60.72 55.06 59.44 53.78 42.64 53.78"/><polygon id="_Path_23" data-name="&lt;Path&gt;" class="cls-1" points="60.72 158.04 78.01 145.4 78.01 114.85 60.72 114.85 60.72 158.04"/><line id="_Path_24" data-name="&lt;Path&gt;" class="cls-1" x1="75.26" y1="117.13" x2="60.72" y2="126.44"/><line id="_Path_25" data-name="&lt;Path&gt;" class="cls-1" x1="60.72" y1="132.53" x2="78.01" y2="120.8"/><polygon id="_Path_26" data-name="&lt;Path&gt;" class="cls-1" points="69.37 114.85 60.72 119.6 60.72 88.94 69.37 83.77 69.37 114.85"/><polygon id="_Path_27" data-name="&lt;Path&gt;" class="cls-1" points="69.37 83.77 60.72 83.77 60.72 88.94 69.37 83.77"/><line id="_Path_28" data-name="&lt;Path&gt;" class="cls-1" x1="60.72" y1="95.44" x2="69.37" y2="90.27"/></g><polygon id="_Path_29" data-name="&lt;Path&gt;" class="cls-1" points="94.57 124.06 94.57 134.44 80.95 143.38 80.95 132.53 94.57 124.06"/><path id="_Path_30" data-name="&lt;Path&gt;" class="cls-3" d="M118.12,100.23l-4.71.72c-3,.46-2.83,1.13-4.28,3.82l-5.37,10,3.89,3.37,4.69-5.22-1.26-2.52"/><path id="_Path_31" data-name="&lt;Path&gt;" class="cls-3" d="M107.68,117.55v.37a2.89,2.89,0,0,1-2.88,2.88h-4.32a2.88,2.88,0,0,1-2.88-2.88v-.75a2.89,2.89,0,0,1,2.88-2.88h4"/><polygon id="_Path_32" data-name="&lt;Path&gt;" class="cls-1" points="94.26 114.85 101.51 114.85 101.51 118.44 97.6 120.8 92.21 120.8 91.43 114.85 94.26 114.85"/><polygon id="_Path_33" data-name="&lt;Path&gt;" class="cls-1" points="80.95 118.11 96.16 118.11 84.45 126.08 80.95 118.11"/><polygon id="_Path_34" data-name="&lt;Path&gt;" class="cls-1" points="80.95 143.38 65.76 143.38 65.76 131.48 81.47 131.48 80.95 143.38"/><polygon id="_Path_35" data-name="&lt;Path&gt;" class="cls-1" points="80.95 131.49 65.76 131.49 65.76 127.35 81.47 127.35 80.95 131.49"/><polygon id="_Path_36" data-name="&lt;Path&gt;" class="cls-1" points="96.16 118.11 96.16 122.94 86.18 130.01 84.45 126.08 96.16 118.11"/><path id="_Path_37" data-name="&lt;Path&gt;" class="cls-1" d="M64.31,107.58,67,102.64l2.48-10.27a4.08,4.08,0,0,1,5-3l3.62,1A4.54,4.54,0,0,1,81.4,95.8l-2.34,9.68a1.92,1.92,0,0,1-2.69,1.28L74,105.62,72,110.37"/><path id="_Path_38" data-name="&lt;Path&gt;" class="cls-8" d="M45.82,191.05,44,144.75a21,21,0,0,1,.93-6.15l8.29-26.75A7.75,7.75,0,0,1,61,106.41l11,.58a7.74,7.74,0,0,1,7.14,9.48L66.8,145.4c-.08.38,0-.38,0,0l2.57,40.7,6.27,5.5Z"/><g id="_Group_2" data-name="&lt;Group&gt;"><path id="_Path_39" data-name="&lt;Path&gt;" class="cls-8" d="M65.2,149.52c0-.35-.08.33,0,0Z"/><polygon id="_Path_40" data-name="&lt;Path&gt;" class="cls-9" points="73.08 190.73 67.66 185.97 46.31 185.97 46.48 190.23 73.08 190.73"/></g><path id="_Path_41" data-name="&lt;Path&gt;" class="cls-3" d="M72.6,120.8l2.82,5.87,6.25,13a4,4,0,0,0,3.61,2.27h0A4,4,0,0,0,89,136.31L77,109.15"/><path id="_Path_42" data-name="&lt;Path&gt;" class="cls-6" d="M81,96l3.23-2.26a1.35,1.35,0,0,0-.53-2.44l-2.7-.5"/><path id="_Path_43" data-name="&lt;Path&gt;" class="cls-6" d="M68,97.69s7.54,2.78,13-1.72c0,0,3.06-8.37-5.69-8.37-8.5,0-7.27,9.67-7.27,9.67"/><line id="_Path_44" data-name="&lt;Path&gt;" class="cls-7" x1="45.57" y1="184.61" x2="66.76" y2="184.61"/><line id="_Path_45" data-name="&lt;Path&gt;" class="cls-7" x1="56.17" y1="184.61" x2="54.93" y2="152.6"/><path id="_Path_46" data-name="&lt;Path&gt;" class="cls-7" d="M66.76,151.76h0a5.07,5.07,0,0,1-5.06-5.06v-4"/><path id="_Path_47" data-name="&lt;Path&gt;" class="cls-7" d="M61,106.41,60,108.89a3,3,0,0,0,2.75,4.21h5A4.69,4.69,0,0,0,72,110.26l1.34-3.09"/><path id="_Path_48" data-name="&lt;Path&gt;" class="cls-7" d="M75.26,108.85l-4,10.44a6.86,6.86,0,0,0,2.19,7.91l.21.15"/><path id="_Path_49" data-name="&lt;Path&gt;" class="cls-8" d="M117.43,123.1l-7-14a6.5,6.5,0,0,1,5.74-9.4l8.58-.09a6.5,6.5,0,0,1,5.88,3.58l5.86,11.68v9.21Z"/><path id="_Path_50" data-name="&lt;Path&gt;" class="cls-1" d="M115.14,102.55l-.1.49a2.49,2.49,0,0,0,2.5,3h0a2.51,2.51,0,0,0,2.2-1.46l1.76-3.93"/><polyline id="_Path_51" data-name="&lt;Path&gt;" class="cls-7" points="47.21 135.85 60.26 135.85 64.23 135.85 66.76 138.48"/><rect id="_Rectangle_4" data-name="&lt;Rectangle&gt;" class="cls-1" x="69.58" y="95.17" width="3.02" height="1.19" rx="0.59" ry="0.59"/><path id="_Path_52" data-name="&lt;Path&gt;" class="cls-1" d="M112,90.57s-.33,7.92,2,10.92,8.17-1.3,8.17-1.3,3-5.53,2.5-9.62-2.46-7.41-6.31-7.41S111.71,85.05,112,90.57Z"/><path id="_Path_53" data-name="&lt;Path&gt;" class="cls-6" d="M112,91.35h7.69a5.69,5.69,0,0,1,4,1.68l.59.59V89a5.79,5.79,0,0,0-5.79-5.79h-.74A5.79,5.79,0,0,0,112,89Z"/><rect id="_Rectangle_5" data-name="&lt;Rectangle&gt;" class="cls-6" x="109.26" y="90.27" width="11.88" height="2.58" rx="1.29" ry="1.29"/><rect id="_Rectangle_6" data-name="&lt;Rectangle&gt;" class="cls-4" x="111.96" y="97.27" width="6.37" height="2.27" rx="1.14" ry="1.14"/><path id="_Path_54" data-name="&lt;Path&gt;" class="cls-1" d="M113.18,95s-1.75,1.75-1.75,2.75h3"/><g id="_Group_3" data-name="&lt;Group&gt;"><polygon id="_Path_55" data-name="&lt;Path&gt;" class="cls-6" points="93.43 173.66 93.43 165.98 128.82 165.98 128.82 191.73 93.43 191.73 93.43 173.66"/><rect id="_Rectangle_7" data-name="&lt;Rectangle&gt;" class="cls-8" x="91.07" y="161.5" width="40.27" height="7.48" rx="1.31" ry="1.31"/><g id="_Group_4" data-name="&lt;Group&gt;"><g id="_Group_5" data-name="&lt;Group&gt;"><path id="_Path_56" data-name="&lt;Path&gt;" class="cls-5" d="M112.22,184a6.83,6.83,0,0,1-7.62-5.47,1,1,0,0,1,1.88-.38,5,5,0,0,0,5.54,3.94,5.39,5.39,0,0,0,4.94-5.08,1,1,0,1,1,1.92.1A7.29,7.29,0,0,1,112.22,184Z"/></g><g id="_Group_6" data-name="&lt;Group&gt;"><path id="_Path_57" data-name="&lt;Path&gt;" class="cls-5" d="M104.09,179.87h-.19a1,1,0,0,1-.87-1,3.2,3.2,0,0,1,1.31-2.2,4.09,4.09,0,0,1,3.57-.26,1,1,0,1,1-.55,1.84,2.39,2.39,0,0,0-1.94,0,1.21,1.21,0,0,0-.48.79A1,1,0,0,1,104.09,179.87Z"/></g></g></g><path id="_Path_58" data-name="&lt;Path&gt;" class="cls-9" d="M132.39,109.76l-1.69,2.06-4.39-1.45-2-2.9a8.68,8.68,0,0,1,2.69-5.93S128.7,101,132.39,109.76Z"/><path id="_Path_59" data-name="&lt;Path&gt;" class="cls-8" d="M117.43,123.1l1.24,20.55a4.55,4.55,0,0,0,3.73,4.22l14.1,2.6v-7.81l-7.68-3.22V130"/><path id="_Path_60" data-name="&lt;Path&gt;" class="cls-8" d="M122.84,129.38l3.1,2.83v15.08a4.69,4.69,0,0,0,3.86,4.62l4.38.8V145l2.32-20.9-20.37-.8"/><polyline id="_Path_61" data-name="&lt;Path&gt;" class="cls-3" points="124.28 105.97 115.48 119.2 103.76 126.08 105.76 130.01 120.26 124.06 129.76 111.04"/><polygon id="_Path_62" data-name="&lt;Path&gt;" class="cls-1" points="103.76 126.08 99.26 126.08 96.47 127.69 95.24 130.6 97.6 132.1 105.76 130.01 103.76 126.08"/><path id="_Path_63" data-name="&lt;Path&gt;" class="cls-7" d="M114,101.49l-1.2,3.65a3.12,3.12,0,0,0,.2,2.45l1.29,2.44a3.14,3.14,0,0,0,2.78,1.68h1.09a3.16,3.16,0,0,0,2.71-1.55l.24-.41a3.12,3.12,0,0,0,.42-1.94h0a8.56,8.56,0,0,1,1.59-6l1.19-1.62"/><line id="_Path_64" data-name="&lt;Path&gt;" class="cls-7" x1="128.26" y1="113.1" x2="132.64" y2="120.8"/><path id="_Path_65" data-name="&lt;Path&gt;" class="cls-7" d="M126.64,100.23s-3.17,2.64-3,5.78"/><path id="_Path_66" data-name="&lt;Path&gt;" class="cls-7" d="M129.22,112.4s1.5,2.75,3.88-2"/><polygon id="_Path_67" data-name="&lt;Path&gt;" class="cls-8" points="134.18 152.71 136.5 151.35 136.5 140.77 134.53 141.83 134.18 145.32 134.18 152.71"/><line id="_Path_68" data-name="&lt;Path&gt;" class="cls-7" x1="65.28" y1="133.72" x2="67.74" y2="126.44"/><g id="_Group_7" data-name="&lt;Group&gt;"><path id="_Path_69" data-name="&lt;Path&gt;" class="cls-8" d="M66.8,145.4c0-.38-.08.38,0,0Z"/></g></svg>