<svg id="Layer_1" data-name="Layer 1" xmlns="http://www.w3.org/2000/svg" xmlns:xlink="http://www.w3.org/1999/xlink" viewBox="0 0 145.68 288.67"><defs><style>.cls-1,.cls-12,.cls-22,.cls-3,.cls-7,.cls-8{fill:none;}.cls-15,.cls-2{fill:#f8ea47;}.cls-3{stroke:#f8ea47;}.cls-25,.cls-3{stroke-miterlimit:10;}.cls-14,.cls-20,.cls-4{fill:#eef7ff;}.cls-25,.cls-5{fill:#c1cdd9;}.cls-14,.cls-15,.cls-19,.cls-20,.cls-23,.cls-25,.cls-26,.cls-27,.cls-6,.cls-7,.cls-8{stroke:#292836;}.cls-12,.cls-14,.cls-15,.cls-19,.cls-20,.cls-22,.cls-23,.cls-26,.cls-27,.cls-6,.cls-7,.cls-8{stroke-linecap:round;stroke-linejoin:round;}.cls-6{fill:url(#linear-gradient);}.cls-20,.cls-27,.cls-8{stroke-width:0.5px;}.cls-9{clip-path:url(#clip-path);}.cls-10,.cls-26{fill:#00a7b5;}.cls-11{clip-path:url(#clip-path-2);}.cls-12{stroke:#e2d242;}.cls-13{fill:#292836;}.cls-16{fill:#fff;}.cls-17{clip-path:url(#clip-path-3);}.cls-18{clip-path:url(#clip-path-4);}.cls-19,.cls-21,.cls-27{fill:#e2d242;}.cls-22{stroke:#fff;}.cls-23{fill:url(#linear-gradient-2);}.cls-24{clip-path:url(#clip-path-5);}.cls-28{clip-path:url(#clip-path-6);}</style><linearGradient id="linear-gradient" x1="72.6" y1="215.72" x2="73.35" y2="258.72" gradientUnits="userSpaceOnUse"><stop offset="0" stop-color="#494856"/><stop offset="1" stop-color="#292836"/></linearGradient><clipPath id="clip-path"><polygon id="_Clipping_Path_" data-name="&lt;Clipping Path&gt;" class="cls-1" points="12.45 234.43 -18.12 192.4 159.55 192.23 133.31 228.93 68.45 247.72 12.45 234.43"/></clipPath><clipPath id="clip-path-2"><path id="_Clipping_Path_2" data-name="&lt;Clipping Path&gt;" class="cls-2" d="M30.75,240.44l34-10.71a41.24,41.24,0,0,1,23.58-.36l30.15,8.5L63.65,256.08"/></clipPath><clipPath id="clip-path-3"><path id="_Clipping_Path_3" data-name="&lt;Clipping Path&gt;" class="cls-1" d="M85.34,113.35l12.57-.42a4.36,4.36,0,0,1,4.5,4.27l.17,8.88a4.35,4.35,0,0,1-4.29,4.43l-13,.21"/></clipPath><clipPath id="clip-path-4"><polygon id="_Clipping_Path_4" data-name="&lt;Clipping Path&gt;" class="cls-1" points="26.72 71.94 81.05 56.2 127.96 67.33 73.63 83.07 26.72 71.94"/></clipPath><linearGradient id="linear-gradient-2" x1="198.13" y1="240.34" x2="252.54" y2="240.34" gradientTransform="matrix(1, -0.05, 0.05, 1, -195.77, -80.7)" xlink:href="#linear-gradient"/><clipPath id="clip-path-5"><polygon id="_Clipping_Path_5" data-name="&lt;Clipping Path&gt;" class="cls-1" points="35.29 160.66 47.38 143.1 85.66 132.94 75.59 149.3 35.29 160.66"/></clipPath><clipPath id="clip-path-6"><path id="_Clipping_Path_6" data-name="&lt;Clipping Path&gt;" class="cls-1" d="M108.26,205.55v8.26a2.91,2.91,0,0,1-2.23,2.82l-8.64,2.07a2.89,2.89,0,0,1-3.57-2.82V208.7Z"/></clipPath></defs><title>Artboard 1</title><path id="_Path_" data-name="&lt;Path&gt;" class="cls-2" d="M115,71.87h0a1.65,1.65,0,1,1,0-3.3.67.67,0,0,0,.73-.64v-.1a.65.65,0,0,0-.18-.46.61.61,0,0,0-.46-.2,1.69,1.69,0,0,1-1.21-.51,1.63,1.63,0,0,1-.46-1.18,1.66,1.66,0,0,1,.51-1.16,1.72,1.72,0,0,1,1.18-.45.72.72,0,0,0,.53-.18.7.7,0,0,0,.2-.46.68.68,0,0,0-.63-.76,1.66,1.66,0,1,1,0-3.31.67.67,0,0,0,.73-.63v-.1a.65.65,0,0,0-.63-.66,1.7,1.7,0,0,1-1.22-.52,1.61,1.61,0,0,1-.46-1.17,1.66,1.66,0,0,1,.51-1.16,1.73,1.73,0,0,1,1.18-.46.72.72,0,0,0,.53-.17.63.63,0,0,0,.2-.46v-.1a.63.63,0,0,0-.63-.66,1.66,1.66,0,1,1,0-3.31.66.66,0,0,0,.73-.63V49a.6.6,0,0,0-.17-.46.63.63,0,0,0-.46-.2,1.74,1.74,0,0,1-1.22-.52,1.65,1.65,0,0,1-.45-1.18,1.61,1.61,0,0,1,.51-1.15,1.67,1.67,0,0,1,1.18-.46.5.5,0,0,1,.48.52.49.49,0,0,1-.51.48.65.65,0,0,0-.46.18.65.65,0,0,0,0,.92.59.59,0,0,0,.45.2,1.74,1.74,0,0,1,1.22.52,1.64,1.64,0,0,1,.45,1.17v.1a1.67,1.67,0,0,1-1.69,1.62.67.67,0,0,0-.73.63.65.65,0,0,0,.64.66A1.73,1.73,0,0,1,116.51,55a1.73,1.73,0,0,1-1.18.46.67.67,0,0,0-.53.17.72.72,0,0,0-.2.46.65.65,0,0,0,.18.46.61.61,0,0,0,.46.2,1.74,1.74,0,0,1,1.22.52,1.64,1.64,0,0,1,.45,1.17v.1a1.66,1.66,0,0,1-1.69,1.62.69.69,0,0,0-.73.63.66.66,0,0,0,.64.67,1.66,1.66,0,0,1,1.67,1.69v.1a1.61,1.61,0,0,1-.51,1.15,1.67,1.67,0,0,1-1.18.46.71.71,0,0,0-.53.17.67.67,0,0,0-.2.46.65.65,0,0,0,.18.46.66.66,0,0,0,.46.21,1.65,1.65,0,0,1,1.21.51,1.63,1.63,0,0,1,.46,1.18V68A1.66,1.66,0,0,1,115,69.57H115a.67.67,0,0,0-.71.63.66.66,0,0,0,.63.67.51.51,0,0,1,.52.51A.47.47,0,0,1,115,71.87Z"/><path id="_Path_2" data-name="&lt;Path&gt;" class="cls-3" d="M38.78,79.89A1.15,1.15,0,0,0,37.6,81h0a1.16,1.16,0,0,0,1.12,1.18h.06a1.15,1.15,0,0,1,1.13,1.17v.1a1.15,1.15,0,0,1-1.17,1.13h-.07a1.14,1.14,0,0,0-1.17,1.12h0a1.15,1.15,0,0,0,1.12,1.18h.06a1.15,1.15,0,0,1,1.13,1.17v.1a1.15,1.15,0,0,1-1.17,1.13h-.07a1.14,1.14,0,0,0-1.17,1.12h0A1.15,1.15,0,0,0,38.5,91.6h.06a1.14,1.14,0,0,1,1.12,1.18v.1A1.15,1.15,0,0,1,38.5,94h-.06a1.15,1.15,0,0,0-1.18,1.12h0a1.16,1.16,0,0,0,1.13,1.18h.06a1.14,1.14,0,0,1,1.12,1.18v.1a1.15,1.15,0,0,1-1.18,1.12h-.06a1.16,1.16,0,0,0-1.18,1.12h0A1.16,1.16,0,0,0,38.28,101h.06a1.14,1.14,0,0,1,1.12,1.18v.1a1.16,1.16,0,0,1-1.18,1.12h-.06A1.15,1.15,0,0,0,37,104.52h0a1.16,1.16,0,0,0,1.13,1.18h.06"/><path id="_Path_3" data-name="&lt;Path&gt;" class="cls-3" d="M115.5,111.94a1.15,1.15,0,0,0-1.17,1.12h0a1.14,1.14,0,0,0,1.12,1.18h.06a1.15,1.15,0,0,1,1.12,1.18v.1a1.14,1.14,0,0,1-1.18,1.12h-.06a1.16,1.16,0,0,0-1.18,1.12h0a1.15,1.15,0,0,0,1.13,1.18h.06a1.15,1.15,0,0,1,1.12,1.18v.1a1.14,1.14,0,0,1-1.18,1.12h-.06a1.17,1.17,0,0,0-1.18,1.13h0a1.15,1.15,0,0,0,1.13,1.17h.06a1.16,1.16,0,0,1,1.12,1.18v.1a1.14,1.14,0,0,1-1.18,1.12h-.06a1.16,1.16,0,0,0-1.18,1.13h0a1.15,1.15,0,0,0,1.13,1.17h.06a1.14,1.14,0,0,1,1.12,1.17v.1a1.16,1.16,0,0,1-1.18,1.13h-.06a1.16,1.16,0,0,0-1.18,1.13h0A1.15,1.15,0,0,0,115,133h.07a1.15,1.15,0,0,1,1.12,1.17v.1a1.16,1.16,0,0,1-1.18,1.13H115a1.15,1.15,0,0,0-1.18,1.13h0a1.14,1.14,0,0,0,1.12,1.17H115"/><path id="_Path_4" data-name="&lt;Path&gt;" class="cls-3" d="M57.75,163.68a1.14,1.14,0,0,0-1.18,1.12h0A1.16,1.16,0,0,0,57.69,166h.07a1.15,1.15,0,0,1,1.12,1.17v.1a1.17,1.17,0,0,1-1.18,1.13h-.06a1.14,1.14,0,0,0-1.18,1.12h0a1.16,1.16,0,0,0,1.12,1.18h.06a1.15,1.15,0,0,1,1.13,1.18v.1a1.15,1.15,0,0,1-1.17,1.12h-.07a1.14,1.14,0,0,0-1.17,1.12h0a1.14,1.14,0,0,0,1.12,1.18h.06a1.15,1.15,0,0,1,1.13,1.18v.1a1.15,1.15,0,0,1-1.17,1.12h-.07a1.14,1.14,0,0,0-1.17,1.12h0a1.14,1.14,0,0,0,1.12,1.18h.06a1.14,1.14,0,0,1,1.12,1.18v.1a1.15,1.15,0,0,1-1.18,1.12H57.3a1.16,1.16,0,0,0-1.18,1.12h0a1.16,1.16,0,0,0,1.13,1.18h.06A1.14,1.14,0,0,1,58.43,186v.1a1.14,1.14,0,0,1-1.18,1.12h-.06A1.16,1.16,0,0,0,56,188.3h0a1.16,1.16,0,0,0,1.13,1.18h.06"/><g id="_Group_" data-name="&lt;Group&gt;"><polygon id="_Path_5" data-name="&lt;Path&gt;" class="cls-4" points="12.45 273.76 68.45 287.36 68.45 247.72 12.45 234.43 12.45 273.76"/><polygon id="_Path_6" data-name="&lt;Path&gt;" class="cls-5" points="68.45 247.72 68.45 287.36 133.31 267.43 133.31 228.93 68.45 247.72"/><polygon id="_Path_7" data-name="&lt;Path&gt;" class="cls-6" points="12.45 234.43 77.31 215.64 133.31 228.93 68.45 247.72 12.45 234.43"/><polygon id="_Path_8" data-name="&lt;Path&gt;" class="cls-7" points="12.45 273.76 12.45 234.43 77.31 215.64 133.31 228.93 133.31 267.43 68.45 287.36 12.45 273.76"/><line id="_Path_9" data-name="&lt;Path&gt;" class="cls-8" x1="12.45" y1="237.18" x2="24.47" y2="240.09"/><line id="_Path_10" data-name="&lt;Path&gt;" class="cls-8" x1="12.45" y1="239.36" x2="24.47" y2="242.27"/><line id="_Path_11" data-name="&lt;Path&gt;" class="cls-8" x1="12.45" y1="241.55" x2="24.47" y2="244.46"/><line id="_Path_12" data-name="&lt;Path&gt;" class="cls-8" x1="27.82" y1="240.82" x2="41.95" y2="244.27"/><line id="_Path_13" data-name="&lt;Path&gt;" class="cls-8" x1="27.82" y1="242.82" x2="38.47" y2="245.34"/><line id="_Path_14" data-name="&lt;Path&gt;" class="cls-8" x1="41.95" y1="255.63" x2="56.09" y2="259.08"/><line id="_Path_15" data-name="&lt;Path&gt;" class="cls-8" x1="41.95" y1="257.63" x2="52.61" y2="260.16"/><line id="_Path_16" data-name="&lt;Path&gt;" class="cls-8" x1="133.31" y1="231.72" x2="97.1" y2="242.64"/><line id="_Path_17" data-name="&lt;Path&gt;" class="cls-8" x1="133.31" y1="234.62" x2="97.1" y2="245.55"/><line id="_Path_18" data-name="&lt;Path&gt;" class="cls-8" x1="133.31" y1="237.53" x2="97.1" y2="248.46"/><line id="_Path_19" data-name="&lt;Path&gt;" class="cls-8" x1="133.31" y1="240.44" x2="97.1" y2="251.37"/><line id="_Path_20" data-name="&lt;Path&gt;" class="cls-8" x1="133.31" y1="243.35" x2="97.1" y2="254.28"/><line id="_Path_21" data-name="&lt;Path&gt;" class="cls-8" x1="133.31" y1="246.26" x2="97.1" y2="257.18"/><line id="_Path_22" data-name="&lt;Path&gt;" class="cls-8" x1="133.31" y1="249.17" x2="97.1" y2="260.09"/><line id="_Path_23" data-name="&lt;Path&gt;" class="cls-8" x1="133.31" y1="252.07" x2="97.1" y2="263"/><line id="_Path_24" data-name="&lt;Path&gt;" class="cls-8" x1="133.31" y1="254.98" x2="97.1" y2="265.91"/><line id="_Path_25" data-name="&lt;Path&gt;" class="cls-8" x1="133.31" y1="257.89" x2="97.1" y2="268.82"/><line id="_Path_26" data-name="&lt;Path&gt;" class="cls-8" x1="133.31" y1="260.8" x2="97.1" y2="271.73"/><line id="_Path_27" data-name="&lt;Path&gt;" class="cls-8" x1="133.31" y1="263.71" x2="97.1" y2="274.64"/><line id="_Path_28" data-name="&lt;Path&gt;" class="cls-8" x1="12.45" y1="243.58" x2="24.47" y2="246.49"/><line id="_Path_29" data-name="&lt;Path&gt;" class="cls-8" x1="12.45" y1="245.77" x2="24.47" y2="248.67"/><line id="_Path_30" data-name="&lt;Path&gt;" class="cls-8" x1="12.45" y1="247.95" x2="24.47" y2="250.86"/><line id="_Path_31" data-name="&lt;Path&gt;" class="cls-8" x1="12.45" y1="254.63" x2="24.47" y2="257.54"/><line id="_Path_32" data-name="&lt;Path&gt;" class="cls-8" x1="12.45" y1="256.94" x2="24.47" y2="259.85"/><line id="_Path_33" data-name="&lt;Path&gt;" class="cls-8" x1="12.45" y1="261.31" x2="24.47" y2="264.22"/><line id="_Path_34" data-name="&lt;Path&gt;" class="cls-8" x1="12.45" y1="263.62" x2="24.47" y2="266.53"/><line id="_Path_35" data-name="&lt;Path&gt;" class="cls-8" x1="12.45" y1="265.8" x2="24.47" y2="268.71"/><line id="_Path_36" data-name="&lt;Path&gt;" class="cls-8" x1="12.45" y1="270.3" x2="24.47" y2="273.21"/><g id="_Clip_Group_" data-name="&lt;Clip Group&gt;"><g class="cls-9"><path id="_Path_37" data-name="&lt;Path&gt;" class="cls-2" d="M29.48,245.62a.32.32,0,0,1-.14,0A.5.5,0,0,1,29,245c.17-.56.32-1.13.46-1.7a1,1,0,0,0-.09-.82.33.33,0,0,0-.28-.13,1.39,1.39,0,0,1-1.11-.5,2,2,0,0,1-.34-1.62,2.29,2.29,0,0,1,1.92-2,1.26,1.26,0,0,0,1-1.18v-.14a.93.93,0,0,0-.2-.75.35.35,0,0,0-.31-.11,1.4,1.4,0,0,1-1.17-.37,1.92,1.92,0,0,1-.54-1.5,2.16,2.16,0,0,1,1.64-2.1,1.16,1.16,0,0,0,.8-1.22v-.12a.91.91,0,0,0-.29-.69.37.37,0,0,0-.34-.07,1.46,1.46,0,0,1-1.22-.24,1.93,1.93,0,0,1-.72-1.36,2.07,2.07,0,0,1,1.36-2.23,1.08,1.08,0,0,0,.63-1.23l.47-.21-.49.09a.87.87,0,0,0-.36-.61.4.4,0,0,0-.37,0,1.54,1.54,0,0,1-1.25-.09,1.88,1.88,0,0,1-.86-1.22,2,2,0,0,1,1.06-2.32,1,1,0,0,0,.47-1.23l0-.12a.79.79,0,0,0-.41-.52.48.48,0,0,0-.39,0,1.51,1.51,0,0,1-1.26.06,1.84,1.84,0,0,1-1-1.06,2,2,0,0,1,.78-2.39.93.93,0,0,0,.32-1.21l-.05-.1a.76.76,0,0,0-.46-.44.49.49,0,0,0-.41.06,1.62,1.62,0,0,1-1.25.21,1.81,1.81,0,0,1-1.1-.9,1.89,1.89,0,0,1,.49-2.42.88.88,0,0,0,.17-1.18l.36-.37-.42.27a.78.78,0,0,0-.5-.35.5.5,0,0,0-.41.11,1.64,1.64,0,0,1-1.23.36,1.71,1.71,0,0,1-1.17-.72,1.83,1.83,0,0,1,.19-2.42.83.83,0,0,0,0-1.15L21,205a.76.76,0,0,0-.52-.27.59.59,0,0,0-.4.17,1.67,1.67,0,0,1-1.18.51,1.74,1.74,0,0,1-1.24-.54,1.79,1.79,0,0,1-.1-2.4.49.49,0,0,1,.7-.05.51.51,0,0,1,.06.71.79.79,0,0,0,.06,1.05.75.75,0,0,0,.52.23.54.54,0,0,0,.42-.17,1.62,1.62,0,0,1,1.19-.51,1.75,1.75,0,0,1,1.25.63l.07.08a1.8,1.8,0,0,1-.08,2.5.86.86,0,0,0-.1,1.13.79.79,0,0,0,.51.32.56.56,0,0,0,.42-.11,1.5,1.5,0,0,1,1.24-.36,1.78,1.78,0,0,1,1.18.8l.06.1a1.85,1.85,0,0,1-.39,2.5.92.92,0,0,0-.23,1.17.78.78,0,0,0,.48.4.49.49,0,0,0,.41-.06,1.54,1.54,0,0,1,1.27-.2,1.78,1.78,0,0,1,1.08,1l.05.11a1.9,1.9,0,0,1-.68,2.48,1,1,0,0,0-.38,1.19.81.81,0,0,0,.44.48.48.48,0,0,0,.39,0,1.45,1.45,0,0,1,1.28-.05,1.8,1.8,0,0,1,1,1.14l0,.11a2,2,0,0,1-1,2.43,1,1,0,0,0-.53,1.2.86.86,0,0,0,.38.56.46.46,0,0,0,.38,0,1.45,1.45,0,0,1,1.26.1,1.83,1.83,0,0,1,.83,1.3l0,.12a2.06,2.06,0,0,1-1.29,2.34,1.12,1.12,0,0,0-.69,1.2.94.94,0,0,0,.31.65.44.44,0,0,0,.35.07,1.45,1.45,0,0,1,1.23.25,1.86,1.86,0,0,1,.68,1.44v.13a2.12,2.12,0,0,1-1.58,2.22,1.21,1.21,0,0,0-.86,1.18.91.91,0,0,0,.23.72.38.38,0,0,0,.31.11,1.41,1.41,0,0,1,1.19.39,1.9,1.9,0,0,1,.48,1.57v.13a2.23,2.23,0,0,1-1.87,2.08,1.32,1.32,0,0,0-1.05,1.14,1,1,0,0,0,.13.79.37.37,0,0,0,.28.14,1.35,1.35,0,0,1,1.12.51,2,2,0,0,1,.28,1.68c-.14.58-.3,1.16-.46,1.74A.51.51,0,0,1,29.48,245.62Z"/><path id="_Path_38" data-name="&lt;Path&gt;" class="cls-2" d="M112.77,246.55a.51.51,0,0,1-.48-.36c-.16-.58-.32-1.16-.46-1.74a1.93,1.93,0,0,1,.28-1.68,1.31,1.31,0,0,1,1.06-.51.4.4,0,0,0,.34-.14,1,1,0,0,0,.13-.8,1.34,1.34,0,0,0-1-1.13,2.24,2.24,0,0,1-1.93-2.08l0-.14a1.92,1.92,0,0,1,.49-1.56,1.35,1.35,0,0,1,1.13-.39.43.43,0,0,0,.37-.11.91.91,0,0,0,.23-.72,1.23,1.23,0,0,0-.8-1.17,2.13,2.13,0,0,1-1.64-2.23v-.13a1.86,1.86,0,0,1,.68-1.44,1.37,1.37,0,0,1,1.17-.26.46.46,0,0,0,.41-.07.89.89,0,0,0,.31-.64,1.11,1.11,0,0,0-.63-1.18,2.06,2.06,0,0,1-1.35-2.36l0-.13a1.83,1.83,0,0,1,.83-1.29,1.43,1.43,0,0,1,1.21-.12.49.49,0,0,0,.43,0,.86.86,0,0,0,.38-.57,1,1,0,0,0-.47-1.17,2,2,0,0,1-1-2.45l0-.12a1.85,1.85,0,0,1,1-1.14,1.45,1.45,0,0,1,1.22,0,.52.52,0,0,0,.45,0,.84.84,0,0,0,.44-.48,1,1,0,0,0-.33-1.16,1.91,1.91,0,0,1-.73-2.51l.05-.11a1.75,1.75,0,0,1,1.08-1,1.46,1.46,0,0,1,1.22.17.58.58,0,0,0,.46.09.81.81,0,0,0,.48-.4.91.91,0,0,0-.19-1.14,1.86,1.86,0,0,1-.43-2.53l.06-.1a1.78,1.78,0,0,1,1.18-.8,1.49,1.49,0,0,1,1.2.32.63.63,0,0,0,.46.15.79.79,0,0,0,.51-.32.84.84,0,0,0-.06-1.09,1.82,1.82,0,0,1-.13-2.54l.08-.09a1.74,1.74,0,0,1,1.24-.62,1.44,1.44,0,0,1,1.16.47.6.6,0,0,0,.46.21.72.72,0,0,0,.52-.24.79.79,0,0,0,.06-1,.5.5,0,0,1,.76-.65,1.8,1.8,0,0,1-1.34,2.94,1.5,1.5,0,0,1-1.13-.47.58.58,0,0,0-.45-.21.72.72,0,0,0-.52.27l-.46-.23.39.32a.81.81,0,0,0,0,1.1,1.85,1.85,0,0,1,.24,2.47,1.77,1.77,0,0,1-1.17.72A1.55,1.55,0,0,1,119,210a.56.56,0,0,0-.46-.15.78.78,0,0,0-.5.35l-.06.1a.87.87,0,0,0,.12,1.14,1.91,1.91,0,0,1,.54,2.46,1.76,1.76,0,0,1-1.1.89,1.5,1.5,0,0,1-1.19-.17.53.53,0,0,0-.47-.09.77.77,0,0,0-.46.43l0,.11a.94.94,0,0,0,.26,1.18,2,2,0,0,1,.84,2.42,1.84,1.84,0,0,1-1,1.06,1.48,1.48,0,0,1-1.2,0,.49.49,0,0,0-.45,0,.81.81,0,0,0-.42.52l-.51,0,.48.15a1,1,0,0,0,.4,1.2,2,2,0,0,1,1.13,2.35,1.84,1.84,0,0,1-.86,1.22,1.5,1.5,0,0,1-1.19.11.46.46,0,0,0-.43,0,.87.87,0,0,0-.36.6l0,.12a1.1,1.1,0,0,0,.56,1.22,2.09,2.09,0,0,1,1.43,2.24,1.93,1.93,0,0,1-.72,1.37,1.44,1.44,0,0,1-1.15.25.42.42,0,0,0-.41.06.88.88,0,0,0-.29.68l-.5.11.5,0a1.16,1.16,0,0,0,.73,1.2,2.19,2.19,0,0,1,1.71,2.12,1.92,1.92,0,0,1-.54,1.5,1.4,1.4,0,0,1-1.1.38c-.2,0-.3,0-.38.1a.92.92,0,0,0-.2.75l-.48.19.49-.05c.07.65.55,1.16.92,1.17a2.31,2.31,0,0,1,2,2,2,2,0,0,1-.34,1.62,1.39,1.39,0,0,1-1,.5.38.38,0,0,0-.35.13,1,1,0,0,0-.09.82c.14.57.29,1.13.46,1.7a.51.51,0,0,1-.35.62Z"/><path id="_Path_39" data-name="&lt;Path&gt;" class="cls-10" d="M30.75,240.44l34-10.71a41.24,41.24,0,0,1,23.58-.36l30.15,8.5L63.65,256.08"/><path id="_Path_40" data-name="&lt;Path&gt;" class="cls-2" d="M101.58,251h0a.5.5,0,0,1-.49-.51l0-1.25a.65.65,0,0,0-.63-.66,1.7,1.7,0,0,1-1.22-.52,1.65,1.65,0,0,1,1.23-2.79.72.72,0,0,0,.53-.17.67.67,0,0,0,.2-.46.68.68,0,0,0-.63-.77,1.67,1.67,0,0,1-1.68-1.69,1.65,1.65,0,0,1,1.69-1.61.67.67,0,0,0,.73-.63v-.1a.61.61,0,0,0-.18-.46.66.66,0,0,0-.45-.21,1.69,1.69,0,0,1-1.22-.51,1.65,1.65,0,0,1,.06-2.33,1.67,1.67,0,0,1,1.17-.46.75.75,0,0,0,.53-.18.61.61,0,0,0,.2-.45v-.1a.66.66,0,0,0-.64-.67,1.65,1.65,0,1,1,0-3.3h.06a.65.65,0,0,0,.7-.63v-.1a.67.67,0,0,0-.18-.47.7.7,0,0,0-.46-.2,1.69,1.69,0,0,1-1.22-.51,1.66,1.66,0,0,1-.45-1.18,1.61,1.61,0,0,1,.51-1.15,1.67,1.67,0,0,1,1.18-.46.74.74,0,0,0,.52-.18.66.66,0,0,0,.21-.45.69.69,0,0,0-.64-.77,1.66,1.66,0,0,1-1.67-1.69,1.65,1.65,0,0,1,1.69-1.61.69.69,0,0,0,.73-.63v-.1a.67.67,0,0,0-.18-.47.7.7,0,0,0-.46-.2,1.65,1.65,0,0,1-1.21-.51,1.63,1.63,0,0,1-.46-1.18,1.66,1.66,0,0,1,.51-1.16,1.77,1.77,0,0,1,1.18-.45.77.77,0,0,0,.53-.18.69.69,0,0,0,.2-.45v-.1a.66.66,0,0,0-.64-.67A1.66,1.66,0,0,1,99.58,214a1.65,1.65,0,0,1,1.69-1.61.5.5,0,0,1,.49.51.51.51,0,0,1-.51.49h0a.65.65,0,0,0,0,1.3,1.66,1.66,0,0,1,1.67,1.69,1.71,1.71,0,0,1-.51,1.26,1.77,1.77,0,0,1-1.18.45.67.67,0,0,0-.53.18.65.65,0,0,0-.2.45.67.67,0,0,0,.18.47.65.65,0,0,0,.45.2,1.65,1.65,0,0,1,1.22.51,1.63,1.63,0,0,1,.46,1.18v.1a1.67,1.67,0,0,1-1.69,1.61.67.67,0,0,0-.73.63.66.66,0,0,0,.63.67,1.67,1.67,0,0,1,1.68,1.69v.1A1.66,1.66,0,0,1,101,227.5a.64.64,0,0,0-.53.18.61.61,0,0,0-.2.46.62.62,0,0,0,.18.46.61.61,0,0,0,.45.2,1.65,1.65,0,0,1,1.22.51,1.63,1.63,0,0,1,.46,1.18v.1a1.64,1.64,0,0,1-1.68,1.61.66.66,0,0,0-.73.64.65.65,0,0,0,.63.66,1.68,1.68,0,0,1,1.68,1.69,1.66,1.66,0,0,1-1.7,1.71.63.63,0,0,0-.52.18.61.61,0,0,0-.2.46.6.6,0,0,0,.17.46.63.63,0,0,0,.46.2,1.74,1.74,0,0,1,1.22.52,1.62,1.62,0,0,1,.45,1.17v.1a1.64,1.64,0,0,1-1.69,1.61.69.69,0,0,0-.73.64.66.66,0,0,0,.64.66,1.67,1.67,0,0,1,1.67,1.69v.1a1.64,1.64,0,0,1-.51,1.16,1.71,1.71,0,0,1-1.18.45.71.71,0,0,0-.53.18.7.7,0,0,0-.2.46.65.65,0,0,0,.18.46.61.61,0,0,0,.46.2,1.74,1.74,0,0,1,1.22.52,1.64,1.64,0,0,1,.45,1.17l0,1.26A.5.5,0,0,1,101.58,251Z"/><path id="_Path_41" data-name="&lt;Path&gt;" class="cls-2" d="M87.7,259.4h0a.49.49,0,0,1-.49-.51l0-1.25a.65.65,0,0,0-.64-.66,1.66,1.66,0,1,1,0-3.31.06.06,0,0,0,.06,0,.67.67,0,0,0,.71-.63.74.74,0,0,0-.18-.56.61.61,0,0,0-.46-.2,1.69,1.69,0,0,1-1.21-.52,1.64,1.64,0,0,1,.05-2.33,1.67,1.67,0,0,1,1.18-.46.64.64,0,0,0,.73-.63.67.67,0,0,0-.64-.76,1.69,1.69,0,0,1-1.21-.52,1.61,1.61,0,0,1-.46-1.18,1.66,1.66,0,0,1,1.65-1.61h.06a.67.67,0,0,0,.71-.63v-.1a.65.65,0,0,0-.63-.66,1.7,1.7,0,0,1-1.22-.52,1.64,1.64,0,0,1,.05-2.33,1.67,1.67,0,0,1,1.18-.46.72.72,0,0,0,.53-.17.67.67,0,0,0,.2-.46v-.1a.65.65,0,0,0-.63-.67,1.67,1.67,0,0,1-1.68-1.69,1.62,1.62,0,0,1,1.69-1.61.66.66,0,0,0,.73-.63.74.74,0,0,0-.18-.57.69.69,0,0,0-.45-.2,1.65,1.65,0,1,1,0-3.3h.07a.67.67,0,0,0,.5-.18.61.61,0,0,0,.2-.45v-.1a.65.65,0,0,0-.63-.67,1.69,1.69,0,0,1-1.22-.51,1.66,1.66,0,0,1-.45-1.18,1.63,1.63,0,0,1,1.68-1.61.71.71,0,0,0,.53-.18.61.61,0,0,0,.2-.45v-.1a.67.67,0,0,0-.18-.47.72.72,0,0,0-.46-.2,1.69,1.69,0,0,1-1.22-.51,1.66,1.66,0,0,1-.45-1.18,1.66,1.66,0,0,1,1.69-1.61.5.5,0,0,1,.48.51.51.51,0,0,1-.51.49.72.72,0,0,0-.46.18.61.61,0,0,0-.2.46.62.62,0,0,0,.18.46.61.61,0,0,0,.45.2A1.66,1.66,0,0,1,89,224.76a1.76,1.76,0,0,1-.52,1.26,1.67,1.67,0,0,1-1.18.45.67.67,0,0,0-.72.64.62.62,0,0,0,.18.46.61.61,0,0,0,.45.2,1.66,1.66,0,0,1,1.67,1.69v.1a1.66,1.66,0,0,1-.51,1.16,1.72,1.72,0,0,1-1.18.45.65.65,0,0,0-.55,1.1.63.63,0,0,0,.46.2,1.73,1.73,0,0,1,1.22.51,1.73,1.73,0,0,1-1.24,2.89.67.67,0,0,0-.73.64.64.64,0,0,0,.64.66,1.67,1.67,0,0,1,1.67,1.69v.1a1.66,1.66,0,0,1-.51,1.16,1.72,1.72,0,0,1-1.18.45.71.71,0,0,0-.53.18.7.7,0,0,0-.2.46.65.65,0,0,0,.18.46.61.61,0,0,0,.46.2,1.74,1.74,0,0,1,1.22.52,1.64,1.64,0,0,1,.45,1.17,1.71,1.71,0,0,1-1.69,1.72.69.69,0,0,0-.73.63.65.65,0,0,0,.18.46.61.61,0,0,0,.46.2,1.68,1.68,0,0,1,1.67,1.69v.11a1.61,1.61,0,0,1-.51,1.15,1.72,1.72,0,0,1-1.18.46.64.64,0,0,0-.73.63.65.65,0,0,0,.18.46.61.61,0,0,0,.45.2,1.7,1.7,0,0,1,1.22.52,1.63,1.63,0,0,1,.46,1.18,1.71,1.71,0,0,1-1.69,1.71.65.65,0,1,0-.1,1.3,1.67,1.67,0,0,1,1.68,1.69l0,1.25A.5.5,0,0,1,87.7,259.4Z"/><path id="_Path_42" data-name="&lt;Path&gt;" class="cls-2" d="M77,238.47h0a.5.5,0,0,1-.49-.51l0-1.25a.64.64,0,0,0-.17-.46.7.7,0,0,0-.46-.21,1.69,1.69,0,0,1-1.22-.51,1.65,1.65,0,0,1,.06-2.33,1.67,1.67,0,0,1,1.18-.46.74.74,0,0,0,.52-.18.61.61,0,0,0,.2-.45.68.68,0,0,0-.63-.77,1.65,1.65,0,1,1,0-3.3h.06a.65.65,0,0,0,.7-.63v-.1a.67.67,0,0,0-.18-.47.7.7,0,0,0-.46-.2,1.69,1.69,0,0,1-1.22-.51,1.66,1.66,0,0,1-.45-1.18A1.61,1.61,0,0,1,75,223.8a1.67,1.67,0,0,1,1.18-.46.72.72,0,0,0,.52-.18.66.66,0,0,0,.21-.45v-.1a.66.66,0,0,0-.64-.67,1.66,1.66,0,0,1-1.67-1.69,1.7,1.7,0,0,1,1.69-1.61A.69.69,0,0,0,77,218v-.1a.67.67,0,0,0-.18-.47.7.7,0,0,0-.46-.2,1.65,1.65,0,0,1-1.21-.51,1.63,1.63,0,0,1-.46-1.18,1.66,1.66,0,0,1,.51-1.16,1.71,1.71,0,0,1,1.18-.45.72.72,0,0,0,.53-.18.72.72,0,0,0-.43-1.22,1.67,1.67,0,0,1-1.68-1.69,1.65,1.65,0,0,1,1.69-1.61.69.69,0,0,0,.73-.63v-.1A.63.63,0,0,0,77,208a.65.65,0,0,0-.45-.2,1.65,1.65,0,0,1-1.22-.51,1.63,1.63,0,0,1-.46-1.18,1.66,1.66,0,0,1,.51-1.16,1.71,1.71,0,0,1,1.18-.45.77.77,0,0,0,.53-.18.65.65,0,0,0,.2-.46v-.1a.65.65,0,0,0-.63-.66A1.67,1.67,0,0,1,75,201.45a1.69,1.69,0,0,1,1.69-1.61.49.49,0,0,1,.49.51.53.53,0,0,1-.51.49h0a.65.65,0,0,0-.65.63.66.66,0,0,0,.64.67,1.72,1.72,0,0,1,1.16,2.94,1.69,1.69,0,0,1-1.18.46.67.67,0,0,0-.53.18.69.69,0,0,0-.2.45.67.67,0,0,0,.18.47.7.7,0,0,0,.46.2,1.69,1.69,0,0,1,1.22.51,1.66,1.66,0,0,1,.45,1.18v.1a1.65,1.65,0,0,1-1.69,1.61.69.69,0,0,0-.73.63.66.66,0,0,0,.64.67,1.66,1.66,0,0,1,1.67,1.69v.1a1.66,1.66,0,0,1-.51,1.16,1.77,1.77,0,0,1-1.18.45.71.71,0,0,0-.53.18.65.65,0,0,0-.2.45.67.67,0,0,0,.18.47.65.65,0,0,0,.45.2,1.65,1.65,0,0,1,1.22.51,1.63,1.63,0,0,1,.46,1.18v.1a1.63,1.63,0,0,1-1.69,1.61.69.69,0,0,0-.73.63.66.66,0,0,0,.63.67,1.67,1.67,0,0,1,1.68,1.69,1.66,1.66,0,0,1-1.69,1.71.66.66,0,0,0-.53.18.61.61,0,0,0-.2.46.62.62,0,0,0,.18.46.61.61,0,0,0,.45.2,1.65,1.65,0,0,1,1.22.51,1.63,1.63,0,0,1,.46,1.18v.1A1.63,1.63,0,0,1,76.07,229a.7.7,0,0,0-.72.64.65.65,0,0,0,.63.66A1.68,1.68,0,0,1,77.66,232v.1a1.66,1.66,0,0,1-.51,1.16,1.71,1.71,0,0,1-1.18.45.67.67,0,0,0-.52.18.61.61,0,0,0-.2.46.6.6,0,0,0,.17.46.63.63,0,0,0,.46.2,1.73,1.73,0,0,1,1.22.51,1.66,1.66,0,0,1,.45,1.18l0,1.25A.49.49,0,0,1,77,238.47Z"/><path id="_Path_43" data-name="&lt;Path&gt;" class="cls-2" d="M51.55,253.25h0a.5.5,0,0,1-.48-.52l0-1.25a.66.66,0,0,0-.64-.66,1.69,1.69,0,0,1-1.22-.51,1.66,1.66,0,0,1,1.24-2.79.67.67,0,0,0,.72-.64.7.7,0,0,0-.17-.56.61.61,0,0,0-.46-.2,1.74,1.74,0,0,1-1.22-.52,1.62,1.62,0,0,1-.45-1.17,1.65,1.65,0,0,1,1.65-1.61h.06a.69.69,0,0,0,.5-.18.66.66,0,0,0,.21-.46v-.1a.65.65,0,0,0-.18-.46.61.61,0,0,0-.46-.2,1.74,1.74,0,0,1-1.22-.52,1.62,1.62,0,0,1-.45-1.17,1.65,1.65,0,0,1,1.69-1.62.67.67,0,0,0,.73-.63.74.74,0,0,0-.18-.56.61.61,0,0,0-.46-.2,1.69,1.69,0,0,1-1.21-.52A1.61,1.61,0,0,1,49.1,235a1.64,1.64,0,0,1,1.69-1.62.75.75,0,0,0,.53-.17.7.7,0,0,0,.2-.46v-.1a.65.65,0,0,0-.18-.46.61.61,0,0,0-.45-.2,1.7,1.7,0,0,1-1.22-.52,1.63,1.63,0,0,1-.46-1.18,1.69,1.69,0,0,1,1.69-1.61.67.67,0,0,0,.73-.63.7.7,0,0,0-.18-.56.66.66,0,0,0-.45-.21,1.65,1.65,0,1,1,0-3.3.66.66,0,0,0,.73-.63v-.1a.61.61,0,0,0-.18-.46.66.66,0,0,0-.45-.21,1.65,1.65,0,1,1,0-3.3.68.68,0,0,0,.73-.63.74.74,0,0,0-.18-.57.69.69,0,0,0-.45-.2,1.65,1.65,0,1,1,0-3.3.5.5,0,0,1,.49.51.51.51,0,0,1-.51.49h0a.65.65,0,0,0,0,1.3,1.69,1.69,0,0,1,1.22.51,1.66,1.66,0,0,1,.45,1.18,1.69,1.69,0,0,1-1.69,1.71.71.71,0,0,0-.73.64.65.65,0,0,0,.18.46.61.61,0,0,0,.46.2,1.74,1.74,0,0,1,1.22.52,1.62,1.62,0,0,1,.45,1.17v.1A1.65,1.65,0,0,1,51.05,225a.69.69,0,0,0-.73.64.65.65,0,0,0,.64.66,1.74,1.74,0,0,1,1.22.52,1.62,1.62,0,0,1,.45,1.17,1.66,1.66,0,0,1-1.69,1.72.68.68,0,0,0-.73.63.65.65,0,0,0,.18.46.61.61,0,0,0,.46.2,1.69,1.69,0,0,1,1.21.52,1.61,1.61,0,0,1,.46,1.17v.1A1.62,1.62,0,0,1,52,234a1.72,1.72,0,0,1-1.18.46.66.66,0,0,0-.73.63.65.65,0,0,0,.18.46.61.61,0,0,0,.46.2,1.69,1.69,0,0,1,1.21.52,1.63,1.63,0,0,1,.46,1.18,1.68,1.68,0,0,1-1.65,1.71H50.7a.67.67,0,0,0-.71.63.61.61,0,0,0,.18.46.66.66,0,0,0,.45.21,1.65,1.65,0,0,1,1.22.51,1.63,1.63,0,0,1,.46,1.18v.1a1.67,1.67,0,0,1-.52,1.15,1.74,1.74,0,0,1-1.17.46.66.66,0,0,0-.73.63.61.61,0,0,0,.18.46.66.66,0,0,0,.45.21,1.65,1.65,0,0,1,1.22.51,1.63,1.63,0,0,1,.46,1.18,1.68,1.68,0,0,1-1.69,1.71.66.66,0,0,0-.73.63.65.65,0,0,0,.18.47.69.69,0,0,0,.45.2,1.67,1.67,0,0,1,1.68,1.69l0,1.25A.51.51,0,0,1,51.55,253.25Z"/><path id="_Path_44" data-name="&lt;Path&gt;" class="cls-2" d="M38.59,267.53h0a.5.5,0,0,1-.49-.51l0-1.25a.65.65,0,0,0-.63-.66,1.72,1.72,0,0,1-1.22-.52,1.63,1.63,0,0,1-.46-1.17,1.67,1.67,0,0,1,.52-1.16,1.74,1.74,0,0,1,1.17-.46.71.71,0,0,0,.53-.17.63.63,0,0,0,.2-.46.67.67,0,0,0-.63-.76,1.67,1.67,0,0,1-1.67-1.69,1.65,1.65,0,0,1,1.65-1.62h.06a.65.65,0,0,0,.7-.63v-.1a.65.65,0,0,0-.18-.46.61.61,0,0,0-.46-.2,1.74,1.74,0,0,1-1.22-.52A1.65,1.65,0,0,1,36,254a1.61,1.61,0,0,1,.51-1.15,1.72,1.72,0,0,1,1.18-.46.79.79,0,0,0,.52-.17.68.68,0,0,0,.21-.46.69.69,0,0,0-.64-.77,1.65,1.65,0,1,1,0-3.3.67.67,0,0,0,.73-.63V247a.65.65,0,0,0-.18-.46.66.66,0,0,0-.46-.21,1.65,1.65,0,0,1-1.21-.51,1.64,1.64,0,0,1,.05-2.33A1.72,1.72,0,0,1,38,243a.72.72,0,0,0,.53-.18A.72.72,0,0,0,38,241.6a1.65,1.65,0,1,1,0-3.3h.06a.67.67,0,0,0,.71-.63v-.1a.63.63,0,0,0-.18-.47.69.69,0,0,0-.45-.2,1.65,1.65,0,0,1-1.22-.51,1.64,1.64,0,0,1,.05-2.33,1.67,1.67,0,0,1,1.18-.46.77.77,0,0,0,.53-.18.65.65,0,0,0,.2-.45.68.68,0,0,0-.63-.77,1.67,1.67,0,0,1-1.68-1.69,1.65,1.65,0,0,1,1.69-1.61.5.5,0,0,1,.49.51.51.51,0,0,1-.51.49h0a.65.65,0,0,0,0,1.3,1.66,1.66,0,0,1,1.67,1.69,1.71,1.71,0,0,1-.51,1.26,1.65,1.65,0,0,1-1.18.45.67.67,0,0,0-.53.18.7.7,0,0,0-.2.46.67.67,0,0,0,.18.46.61.61,0,0,0,.46.2,1.69,1.69,0,0,1,1.22.51,1.66,1.66,0,0,1,.45,1.18v.1a1.66,1.66,0,0,1-1.69,1.61.67.67,0,0,0-.73.64.66.66,0,0,0,.64.66,1.67,1.67,0,0,1,1.67,1.69,1.71,1.71,0,0,1-.51,1.26A1.65,1.65,0,0,1,38,244a.71.71,0,0,0-.53.18.65.65,0,0,0,0,.92.61.61,0,0,0,.45.2,1.69,1.69,0,0,1,1.22.51,1.63,1.63,0,0,1,.46,1.18v.1a1.65,1.65,0,0,1-1.65,1.61h-.06a.68.68,0,0,0-.71.64.65.65,0,0,0,.63.66,1.67,1.67,0,0,1,1.68,1.69,1.76,1.76,0,0,1-.52,1.26,1.64,1.64,0,0,1-1.17.45.72.72,0,0,0-.53.18.65.65,0,0,0,.43,1.12,1.7,1.7,0,0,1,1.22.52,1.63,1.63,0,0,1,.46,1.17v.1a1.65,1.65,0,0,1-1.68,1.62.64.64,0,0,0-.73.63.63.63,0,0,0,.63.66,1.68,1.68,0,0,1,1.68,1.69,1.73,1.73,0,0,1-.52,1.26,1.67,1.67,0,0,1-1.18.46A.63.63,0,0,0,37,263a.68.68,0,0,0-.21.46.65.65,0,0,0,.18.46.63.63,0,0,0,.46.2,1.74,1.74,0,0,1,1.22.52,1.65,1.65,0,0,1,.45,1.18l0,1.25A.48.48,0,0,1,38.59,267.53Z"/><g id="_Clip_Group_2" data-name="&lt;Clip Group&gt;"><path id="_Clipping_Path_7" data-name="&lt;Clipping Path&gt;" class="cls-2" d="M30.75,240.44l34-10.71a41.24,41.24,0,0,1,23.58-.36l30.15,8.5L63.65,256.08"/><g class="cls-11"><g id="_Group_2" data-name="&lt;Group&gt;"><path id="_Path_45" data-name="&lt;Path&gt;" class="cls-12" d="M50.25,232.19a1.48,1.48,0,0,0,1.5-1.46v-.08a1.48,1.48,0,0,1,1.5-1.46h0a1.48,1.48,0,0,1,1.46,1.5v.08a1.48,1.48,0,0,0,1.46,1.5h.13a1.48,1.48,0,0,0,1.5-1.46v-.08a1.48,1.48,0,0,1,1.5-1.46h0a1.47,1.47,0,0,1,1.45,1.5v.08a1.47,1.47,0,0,0,1.46,1.49h.13a1.48,1.48,0,0,0,1.5-1.46v-.08a1.47,1.47,0,0,1,1.49-1.46h0a1.48,1.48,0,0,1,1.46,1.5v.08a1.47,1.47,0,0,0,1.46,1.49h.13A1.47,1.47,0,0,0,69.86,231v-.09a1.49,1.49,0,0,1,1.5-1.45h0a1.47,1.47,0,0,1,1.46,1.49V231a1.48,1.48,0,0,0,1.46,1.5h.13A1.47,1.47,0,0,0,75.9,231V231a1.48,1.48,0,0,1,1.5-1.46h0a1.48,1.48,0,0,1,1.46,1.5v.08a1.47,1.47,0,0,0,1.45,1.5h.13a1.48,1.48,0,0,0,1.5-1.46V231a1.48,1.48,0,0,1,1.5-1.46h0a1.48,1.48,0,0,1,1.46,1.5v.08a1.48,1.48,0,0,0,1.46,1.5h.13A1.48,1.48,0,0,0,88,231.2v-.08a1.48,1.48,0,0,1,1.5-1.46h0a1.47,1.47,0,0,1,1.45,1.5v.08a1.48,1.48,0,0,0,1.46,1.49h.13a1.48,1.48,0,0,0,1.5-1.46v-.08a1.47,1.47,0,0,1,1.49-1.46h0A1.47,1.47,0,0,1,97,231.23l0,1.56"/><path id="_Path_46" data-name="&lt;Path&gt;" class="cls-12" d="M74.46,236.93a1.48,1.48,0,0,0,1.5-1.46v-.08a1.47,1.47,0,0,1,1.49-1.46h0a1.47,1.47,0,0,1,1.46,1.49v.09A1.47,1.47,0,0,0,80.37,237h.13A1.47,1.47,0,0,0,82,235.55v-.09A1.47,1.47,0,0,1,83.49,234h0A1.47,1.47,0,0,1,85,235.5v.08a1.48,1.48,0,0,0,1.46,1.5h.13A1.47,1.47,0,0,0,88,235.62v-.08a1.48,1.48,0,0,1,1.5-1.46h0a1.48,1.48,0,0,1,1.46,1.5v.08a1.48,1.48,0,0,0,1.46,1.5h.12a1.48,1.48,0,0,0,1.5-1.46v-.08a1.48,1.48,0,0,1,1.5-1.46h0a1.48,1.48,0,0,1,1.46,1.5v.08a1.47,1.47,0,0,0,1.45,1.5h.13a1.48,1.48,0,0,0,1.5-1.46v-.08a1.48,1.48,0,0,1,1.5-1.46h0a1.47,1.47,0,0,1,1.45,1.5v.08a1.48,1.48,0,0,0,1.46,1.49h.13a1.47,1.47,0,0,0,1.5-1.45v-.08a1.47,1.47,0,0,1,1.49-1.46h0a1.47,1.47,0,0,1,1.46,1.49v.08a1.48,1.48,0,0,0,1.46,1.5h.13a1.47,1.47,0,0,0,1.49-1.46v-.08a1.48,1.48,0,0,1,1.49-1.46h0a1.49,1.49,0,0,1,1.46,1.5V236a1.48,1.48,0,0,0,1.46,1.5h.13a1.47,1.47,0,0,0,1.49-1.46v-.08a1.48,1.48,0,0,1,1.5-1.46h0a1.48,1.48,0,0,1,1.46,1.5l0,1.56"/><path id="_Path_47" data-name="&lt;Path&gt;" class="cls-12" d="M32.23,236.31a1.48,1.48,0,0,0,1.5-1.46v-.08a1.48,1.48,0,0,1,1.49-1.46h0a1.49,1.49,0,0,1,1.46,1.5v.08a1.48,1.48,0,0,0,1.46,1.5h.13a1.47,1.47,0,0,0,1.49-1.46v-.08a1.5,1.5,0,0,1,1.5-1.46h0a1.48,1.48,0,0,1,1.46,1.5V235a1.48,1.48,0,0,0,1.46,1.5h.13A1.47,1.47,0,0,0,45.8,235v-.08a1.48,1.48,0,0,1,1.5-1.46h0a1.48,1.48,0,0,1,1.46,1.5v.08a1.47,1.47,0,0,0,1.46,1.49h.12a1.48,1.48,0,0,0,1.5-1.46V235a1.48,1.48,0,0,1,1.5-1.46h0A1.48,1.48,0,0,1,54.8,235v.09a1.48,1.48,0,0,0,1.46,1.49h.13a1.47,1.47,0,0,0,1.5-1.45v-.09a1.47,1.47,0,0,1,1.5-1.45h0a1.47,1.47,0,0,1,1.45,1.49v.08a1.48,1.48,0,0,0,1.46,1.5h.13a1.48,1.48,0,0,0,1.5-1.46v-.08a1.48,1.48,0,0,1,1.49-1.46h0a1.48,1.48,0,0,1,1.46,1.5v.08a1.48,1.48,0,0,0,1.46,1.5h.13A1.47,1.47,0,0,0,70,235.32v-.08a1.49,1.49,0,0,1,1.5-1.46h0a1.48,1.48,0,0,1,1.46,1.5v.08a1.49,1.49,0,0,0,1.46,1.5h.13A1.48,1.48,0,0,0,76,235.4v-.08a1.48,1.48,0,0,1,1.5-1.46h0a1.48,1.48,0,0,1,1.46,1.5"/><path id="_Path_48" data-name="&lt;Path&gt;" class="cls-12" d="M74.46,241.59a1.48,1.48,0,0,0,1.5-1.46v-.08a1.48,1.48,0,0,1,1.49-1.46h0a1.49,1.49,0,0,1,1.46,1.5v.08a1.48,1.48,0,0,0,1.46,1.5h.13A1.47,1.47,0,0,0,82,240.21v-.08a1.48,1.48,0,0,1,1.49-1.46h0a1.48,1.48,0,0,1,1.46,1.5v.08a1.48,1.48,0,0,0,1.46,1.5h.13A1.47,1.47,0,0,0,88,240.29v-.08a1.48,1.48,0,0,1,1.5-1.46h0a1.48,1.48,0,0,1,1.46,1.5v.08a1.47,1.47,0,0,0,1.46,1.49h.12a1.48,1.48,0,0,0,1.5-1.46v-.08a1.48,1.48,0,0,1,1.5-1.46h0A1.48,1.48,0,0,1,97,240.32v.09a1.47,1.47,0,0,0,1.45,1.49h.13a1.47,1.47,0,0,0,1.5-1.45v-.09a1.47,1.47,0,0,1,1.5-1.45h0a1.47,1.47,0,0,1,1.45,1.49v.08a1.48,1.48,0,0,0,1.46,1.5h.13a1.48,1.48,0,0,0,1.5-1.46v-.08a1.48,1.48,0,0,1,1.49-1.46h0a1.48,1.48,0,0,1,1.46,1.5v.08a1.48,1.48,0,0,0,1.46,1.5h.13a1.47,1.47,0,0,0,1.49-1.46v-.08a1.47,1.47,0,0,1,1.49-1.46h0a1.48,1.48,0,0,1,1.46,1.5v.08a1.49,1.49,0,0,0,1.46,1.5h.13a1.48,1.48,0,0,0,1.49-1.46v-.08a1.48,1.48,0,0,1,1.5-1.46h0a1.48,1.48,0,0,1,1.46,1.5l0,1.55"/><path id="_Path_49" data-name="&lt;Path&gt;" class="cls-12" d="M32.23,241a1.48,1.48,0,0,0,1.5-1.46v-.08A1.47,1.47,0,0,1,35.22,238h0a1.48,1.48,0,0,1,1.46,1.5v.08a1.49,1.49,0,0,0,1.46,1.5h.13a1.48,1.48,0,0,0,1.49-1.46v-.08a1.49,1.49,0,0,1,1.5-1.46h0a1.48,1.48,0,0,1,1.46,1.5v.08a1.47,1.47,0,0,0,1.46,1.49h.13a1.47,1.47,0,0,0,1.49-1.45v-.08a1.48,1.48,0,0,1,1.5-1.46h0a1.47,1.47,0,0,1,1.46,1.49v.08a1.48,1.48,0,0,0,1.46,1.5h.12a1.48,1.48,0,0,0,1.5-1.46v-.08a1.48,1.48,0,0,1,1.5-1.46h0a1.5,1.5,0,0,1,1.46,1.5v.08a1.48,1.48,0,0,0,1.46,1.5h.13a1.48,1.48,0,0,0,1.5-1.46v-.08a1.48,1.48,0,0,1,1.5-1.46h0a1.47,1.47,0,0,1,1.45,1.5v.08a1.48,1.48,0,0,0,1.46,1.5h.13a1.48,1.48,0,0,0,1.5-1.46v-.08a1.47,1.47,0,0,1,1.49-1.46h0a1.48,1.48,0,0,1,1.46,1.5V240a1.47,1.47,0,0,0,1.46,1.49h.13A1.48,1.48,0,0,0,70,240v-.08a1.49,1.49,0,0,1,1.5-1.46h0a1.47,1.47,0,0,1,1.46,1.49V240a1.47,1.47,0,0,0,1.46,1.49h.13A1.47,1.47,0,0,0,76,240.06V240a1.47,1.47,0,0,1,1.5-1.45h0A1.47,1.47,0,0,1,79,240"/><path id="_Path_50" data-name="&lt;Path&gt;" class="cls-12" d="M74.46,246.26A1.48,1.48,0,0,0,76,244.8v-.08a1.47,1.47,0,0,1,1.49-1.46h0a1.48,1.48,0,0,1,1.46,1.5v.08a1.47,1.47,0,0,0,1.46,1.49h.13A1.48,1.48,0,0,0,82,244.88v-.08a1.47,1.47,0,0,1,1.49-1.46h0a1.48,1.48,0,0,1,1.46,1.5v.08a1.47,1.47,0,0,0,1.46,1.49h.13A1.47,1.47,0,0,0,88,245v-.08a1.48,1.48,0,0,1,1.5-1.46h0A1.47,1.47,0,0,1,91,244.91V245a1.48,1.48,0,0,0,1.46,1.5h.12a1.48,1.48,0,0,0,1.5-1.46V245a1.48,1.48,0,0,1,1.5-1.46h0A1.48,1.48,0,0,1,97,245v.08a1.47,1.47,0,0,0,1.45,1.5h.13a1.48,1.48,0,0,0,1.5-1.46V245a1.48,1.48,0,0,1,1.5-1.46h0a1.47,1.47,0,0,1,1.45,1.5v.08a1.48,1.48,0,0,0,1.46,1.5h.13a1.48,1.48,0,0,0,1.5-1.46v-.08a1.47,1.47,0,0,1,1.49-1.46h0a1.48,1.48,0,0,1,1.46,1.5v.08a1.47,1.47,0,0,0,1.46,1.49h.13a1.48,1.48,0,0,0,1.49-1.46v-.08a1.47,1.47,0,0,1,1.49-1.46h0a1.47,1.47,0,0,1,1.46,1.49v.08a1.48,1.48,0,0,0,1.46,1.5h.13a1.47,1.47,0,0,0,1.49-1.46v-.08a1.47,1.47,0,0,1,1.5-1.45h0a1.47,1.47,0,0,1,1.46,1.49l0,1.56"/><path id="_Path_51" data-name="&lt;Path&gt;" class="cls-12" d="M32.23,245.65a1.48,1.48,0,0,0,1.5-1.46v-.08a1.47,1.47,0,0,1,1.49-1.46h0a1.47,1.47,0,0,1,1.46,1.49v.09a1.47,1.47,0,0,0,1.46,1.49h.13a1.47,1.47,0,0,0,1.49-1.46v-.08a1.48,1.48,0,0,1,1.5-1.45h0a1.47,1.47,0,0,1,1.46,1.49v.08a1.48,1.48,0,0,0,1.46,1.5h.13a1.47,1.47,0,0,0,1.49-1.46v-.08a1.48,1.48,0,0,1,1.5-1.46h0a1.48,1.48,0,0,1,1.46,1.5v.08a1.48,1.48,0,0,0,1.46,1.5h.12a1.48,1.48,0,0,0,1.5-1.46v-.08a1.48,1.48,0,0,1,1.5-1.46h0a1.48,1.48,0,0,1,1.46,1.5v.08A1.48,1.48,0,0,0,56.25,246h.13a1.48,1.48,0,0,0,1.5-1.46v-.08a1.48,1.48,0,0,1,1.5-1.46h0a1.47,1.47,0,0,1,1.45,1.5v.08A1.48,1.48,0,0,0,62.29,246h.13a1.47,1.47,0,0,0,1.5-1.45v-.09A1.47,1.47,0,0,1,65.41,243h0a1.47,1.47,0,0,1,1.46,1.49v.08a1.48,1.48,0,0,0,1.46,1.5h.13A1.47,1.47,0,0,0,70,244.65v-.08a1.5,1.5,0,0,1,1.5-1.46h0a1.48,1.48,0,0,1,1.46,1.5v.08a1.48,1.48,0,0,0,1.46,1.5h.13A1.47,1.47,0,0,0,76,244.73v-.08a1.48,1.48,0,0,1,1.5-1.46h0a1.48,1.48,0,0,1,1.46,1.5"/></g></g></g></g></g><path id="_Path_52" data-name="&lt;Path&gt;" class="cls-13" d="M68.45,287.86a.5.5,0,0,1-.5-.5V248.11L12.34,234.92a.5.5,0,0,1,.23-1l56,13.29a.5.5,0,0,1,.38.49v39.64A.5.5,0,0,1,68.45,287.86Z"/><path id="_Path_53" data-name="&lt;Path&gt;" class="cls-13" d="M68.45,248.22a.5.5,0,0,1-.48-.36.5.5,0,0,1,.34-.62l64.86-18.79a.5.5,0,0,1,.62.34.51.51,0,0,1-.34.62L68.59,248.2Z"/></g><g id="_Group_3" data-name="&lt;Group&gt;"><path id="_Path_54" data-name="&lt;Path&gt;" class="cls-14" d="M103.11,105.06h3.58a.75.75,0,0,0,0-1.49.75.75,0,1,0,0-1.49l-20.66,0a.75.75,0,0,0-.74.75.74.74,0,0,0,.74.74.75.75,0,0,0,0,1.5H89.6a6.28,6.28,0,0,0-6.26,6.25v21.19a6.27,6.27,0,0,0,6.25,6.26h13.51a6.27,6.27,0,0,0,6.26-6.25l0-21.19A6.28,6.28,0,0,0,103.11,105.06Z"/><line id="_Path_55" data-name="&lt;Path&gt;" class="cls-14" x1="86.03" y1="103.55" x2="106.69" y2="103.57"/><polygon id="_Path_56" data-name="&lt;Path&gt;" class="cls-5" points="92.64 108.52 103.59 110.4 104.31 133.28 92.78 131.65 92.64 108.52"/><rect id="_Rectangle_" data-name="&lt;Rectangle&gt;" class="cls-15" x="85.06" y="96.99" width="22.61" height="5.08" rx="1.18" ry="1.18"/><polygon id="_Path_57" data-name="&lt;Path&gt;" class="cls-16" points="103.59 110.4 89.95 110.73 91.07 135.14 104.31 133.28 103.59 110.4"/><path id="_Path_58" data-name="&lt;Path&gt;" class="cls-15" d="M85.34,113.35l12.57-.42a4.36,4.36,0,0,1,4.5,4.27l.17,8.88a4.35,4.35,0,0,1-4.29,4.43l-13,.21"/><g id="_Clip_Group_3" data-name="&lt;Clip Group&gt;"><g class="cls-17"><rect id="_Rectangle_2" data-name="&lt;Rectangle&gt;" class="cls-2" x="82.28" y="109.31" width="6.25" height="24.08" rx="3.12" ry="3.12" transform="translate(207.08 36.41) rotate(90.22)"/></g></g></g><g id="_Group_4" data-name="&lt;Group&gt;"><path id="_Path_59" data-name="&lt;Path&gt;" class="cls-5" d="M72.88,38.78a1,1,0,0,1-1-1v-6a1,1,0,0,1,2,0v6A1,1,0,0,1,72.88,38.78Z"/><path id="_Path_60" data-name="&lt;Path&gt;" class="cls-5" d="M72.88,49.12a1,1,0,0,1-1-1V42.48a1,1,0,1,1,2,0v5.64A1,1,0,0,1,72.88,49.12Z"/><path id="_Compound_Path_" data-name="&lt;Compound Path&gt;" class="cls-5" d="M72.88,233.45a1,1,0,0,1-1-1v-5.64a1,1,0,0,1,2,0v5.64A1,1,0,0,1,72.88,233.45Zm0-10.34a1,1,0,0,1-1-1V210.82a1,1,0,0,1,2,0v11.29A1,1,0,0,1,72.88,223.11Zm0-16a1,1,0,0,1-1-1v-5.64a1,1,0,0,1,2,0v5.64A1,1,0,0,1,72.88,207.12Zm0-10.34a1,1,0,0,1-1-1V184.49a1,1,0,0,1,2,0v11.29A1,1,0,0,1,72.88,196.78Zm0-16a1,1,0,0,1-1-1v-5.65a1,1,0,0,1,2,0v5.65A1,1,0,0,1,72.88,180.79Zm0-10.35a1,1,0,0,1-1-1V158.16a1,1,0,0,1,2,0v11.28A1,1,0,0,1,72.88,170.44Zm0-16a1,1,0,0,1-1-1v-5.64a1,1,0,0,1,2,0v5.64A1,1,0,0,1,72.88,154.45Zm0-10.34a1,1,0,0,1-1-1V131.82a1,1,0,0,1,2,0v11.29A1,1,0,0,1,72.88,144.11Zm0-16a1,1,0,0,1-1-1v-5.64a1,1,0,0,1,2,0v5.64A1,1,0,0,1,72.88,128.12Zm0-10.34a1,1,0,0,1-1-1V105.49a1,1,0,0,1,2,0v11.29A1,1,0,0,1,72.88,117.78Zm0-16a1,1,0,0,1-1-1V95.14a1,1,0,1,1,2,0v5.65A1,1,0,0,1,72.88,101.79Zm0-10.35a1,1,0,0,1-1-1V79.16a1,1,0,0,1,2,0V90.44A1,1,0,0,1,72.88,91.44Zm0-16a1,1,0,0,1-1-1V68.81a1,1,0,0,1,2,0v5.64A1,1,0,0,1,72.88,75.45Zm0-10.34a1,1,0,0,1-1-1V52.82a1,1,0,1,1,2,0V64.11A1,1,0,0,1,72.88,65.11Z"/><path id="_Path_61" data-name="&lt;Path&gt;" class="cls-5" d="M72.88,244.16a1,1,0,0,1-1-1v-6a1,1,0,1,1,2,0v6A1,1,0,0,1,72.88,244.16Z"/></g><polygon id="_Path_62" data-name="&lt;Path&gt;" class="cls-4" points="9.21 30.78 68.21 45.12 68.21 34.78 9.21 20.78 9.21 30.78"/><polygon id="_Path_63" data-name="&lt;Path&gt;" class="cls-5" points="68.21 34.78 68.21 45.12 136.55 24.12 136.55 14.99 68.21 34.78"/><polygon id="_Path_64" data-name="&lt;Path&gt;" class="cls-16" points="26.72 71.94 81.05 56.2 127.96 67.33 73.63 83.07 26.72 71.94"/><g id="_Clip_Group_4" data-name="&lt;Clip Group&gt;"><g class="cls-18"><path id="_Path_65" data-name="&lt;Path&gt;" class="cls-2" d="M122.86,60.26c-.5-.06-88.25,24.84-88.25,24.84l40.09,15,80.41-27.2"/><path id="_Path_66" data-name="&lt;Path&gt;" class="cls-4" d="M84.5,76.07a22.45,22.45,0,0,1-4.83,0,7.32,7.32,0,0,0-2.34,0c-.2,0-.22.12-.08.19a3,3,0,0,0,.84.18l-.4.18-.57.15a8.16,8.16,0,0,1-2.26-.48c-.36-.18-.3-.36.19-.5a18.8,18.8,0,0,1,5.57-.06,8,8,0,0,0,2.35,0c.5-.15.16-.32-.66-.42-2.22-.26-3.1-.69-2.1-1a18.49,18.49,0,0,1,5.58-.07,12.48,12.48,0,0,0,1.41.08,4.56,4.56,0,0,0,.93-.09l.12,0c.39-.11,0-.28-.77-.37-2.22-.27-3.1-.7-2.1-1A18.48,18.48,0,0,1,91,72.75a12.44,12.44,0,0,0,1.4.08,4.67,4.67,0,0,0,.94-.09l.11,0c.4-.12,0-.29-.76-.38a8.45,8.45,0,0,1-2.28-.49c-.37-.18-.3-.35.18-.49a18.47,18.47,0,0,1,5.58-.07,8,8,0,0,0,2.34,0c.3-.09.33-.16.18-.23a2.81,2.81,0,0,0-.84-.18,8,8,0,0,1-2.27-.49c-.37-.18-.31-.35.18-.49a18.47,18.47,0,0,1,5.58-.07,10.36,10.36,0,0,0,1.4.08,4,4,0,0,0,.94-.09l.11,0c.19-.06.22-.13.07-.2a2.81,2.81,0,0,0-.84-.18c-2.22-.27-3.09-.7-2.09-1a10.51,10.51,0,0,1,2.38-.24,25.86,25.86,0,0,1,3.2.17c.63.07.89.21.59.29a5.39,5.39,0,0,1-1.69,0,10.53,10.53,0,0,0-1.26-.06,4,4,0,0,0-.94.09c-.4.11,0,.28.77.38a8.07,8.07,0,0,1,2.27.48c.37.18.31.36-.18.5l-.11,0a19.14,19.14,0,0,1-5.58.07,9,9,0,0,0-1.4-.08,3.59,3.59,0,0,0-.94.09c-.19,0-.22.12-.07.19a2.74,2.74,0,0,0,.84.19A8.07,8.07,0,0,1,101,71c.37.18.31.36-.18.5a18.83,18.83,0,0,1-5.69.1,7.66,7.66,0,0,0-2.34,0c-.19,0-.22.12-.07.19a3.08,3.08,0,0,0,.84.19,8,8,0,0,1,2.27.48c.37.18.31.36-.18.5l-.11,0a10.64,10.64,0,0,1-2.38.23A25.62,25.62,0,0,1,90,73.08a7.39,7.39,0,0,0-2.35,0c-.39.11,0,.28.77.38,2.22.26,3.1.69,2.1,1l-.11,0a10.74,10.74,0,0,1-2.39.23,27.81,27.81,0,0,1-3.19-.16,7.39,7.39,0,0,0-2.35,0c-.39.11,0,.28.77.38,2.22.26,3.1.69,2.1,1A5.11,5.11,0,0,1,84.5,76.07Z"/></g></g><path id="_Compound_Path_2" data-name="&lt;Compound Path&gt;" class="cls-13" d="M73.63,83.57h-.11L26.6,72.43a.51.51,0,0,1-.38-.48.48.48,0,0,1,.36-.49L80.91,55.72a.57.57,0,0,1,.26,0l46.91,11.13a.5.5,0,0,1,.38.48.48.48,0,0,1-.36.49L73.77,83.55ZM28.68,71.89,73.62,82.55,126,67.38,81.07,56.72Z"/><polygon id="_Path_67" data-name="&lt;Path&gt;" class="cls-7" points="9.21 30.78 9.21 20.78 77.55 0.99 136.55 14.99 136.55 24.12 68.21 45.12 9.21 30.78"/><polyline id="_Path_68" data-name="&lt;Path&gt;" class="cls-7" points="9.21 20.78 68.21 34.78 68.21 45.12"/><line id="_Path_69" data-name="&lt;Path&gt;" class="cls-7" x1="68.21" y1="34.78" x2="136.55" y2="14.99"/><line id="_Path_70" data-name="&lt;Path&gt;" class="cls-8" x1="9.21" y1="23.68" x2="21.88" y2="26.74"/><line id="_Path_71" data-name="&lt;Path&gt;" class="cls-8" x1="9.21" y1="25.98" x2="21.88" y2="29.05"/><line id="_Path_72" data-name="&lt;Path&gt;" class="cls-8" x1="9.21" y1="28.28" x2="21.88" y2="31.35"/><line id="_Path_73" data-name="&lt;Path&gt;" class="cls-8" x1="25.4" y1="27.51" x2="40.3" y2="31.15"/><line id="_Path_74" data-name="&lt;Path&gt;" class="cls-8" x1="25.4" y1="29.62" x2="36.63" y2="32.28"/><line id="_Path_75" data-name="&lt;Path&gt;" class="cls-8" x1="25.4" y1="31.93" x2="31.84" y2="33.46"/><line id="_Path_76" data-name="&lt;Path&gt;" class="cls-8" x1="136.64" y1="17.3" x2="98.49" y2="28.81"/><line id="_Path_77" data-name="&lt;Path&gt;" class="cls-8" x1="136.64" y1="19.61" x2="98.49" y2="31.12"/><line id="_Path_78" data-name="&lt;Path&gt;" class="cls-8" x1="136.64" y1="21.92" x2="98.49" y2="33.43"/><path id="_Path_79" data-name="&lt;Path&gt;" class="cls-2" d="M58.85,270.14h0a.5.5,0,0,1-.49-.51l0-1.25a.66.66,0,0,0-.64-.67,1.69,1.69,0,0,1-1.22-.51,1.66,1.66,0,0,1-.45-1.18,1.64,1.64,0,0,1,1.69-1.61.69.69,0,0,0,.73-.63v-.11a.67.67,0,0,0-.18-.46.65.65,0,0,0-.46-.2,1.65,1.65,0,0,1-1.21-.51,1.63,1.63,0,0,1-.46-1.18,1.66,1.66,0,0,1,.51-1.16,1.59,1.59,0,0,1,1.18-.45.79.79,0,0,0,.53-.18.69.69,0,0,0,.2-.45V259a.66.66,0,0,0-.64-.66,1.66,1.66,0,0,1-1.67-1.69A1.61,1.61,0,0,1,58,255a.67.67,0,0,0,.73-.64.71.71,0,0,0-.18-.56.61.61,0,0,0-.45-.2,1.65,1.65,0,0,1-1.22-.51,1.63,1.63,0,0,1-.46-1.18,1.65,1.65,0,0,1,1.65-1.61h.07a.71.71,0,0,0,.5-.18.65.65,0,0,0,.2-.46v-.1a.62.62,0,0,0-.18-.46.61.61,0,0,0-.45-.2A1.65,1.65,0,0,1,57,248.4a1.63,1.63,0,0,1-.46-1.18,1.66,1.66,0,0,1,1.69-1.61.74.74,0,0,0,.53-.18.61.61,0,0,0,.2-.46v-.1a.65.65,0,0,0-.63-.66,1.74,1.74,0,0,1-1.22-.52,1.63,1.63,0,0,1-.46-1.17.48.48,0,0,1,.52-.49.49.49,0,0,1,.48.51.65.65,0,0,0,.18.46.68.68,0,0,0,.46.21,1.69,1.69,0,0,1,1.22.51,1.78,1.78,0,0,1-.06,2.43,1.7,1.7,0,0,1-1.18.46.65.65,0,0,0-.55,1.1.7.7,0,0,0,.46.2,1.69,1.69,0,0,1,1.22.51,1.66,1.66,0,0,1,.45,1.18v.1a1.61,1.61,0,0,1-.51,1.15,1.73,1.73,0,0,1-1.18.46.66.66,0,0,0-.73.63.67.67,0,0,0,.18.47.7.7,0,0,0,.46.2,1.69,1.69,0,0,1,1.22.51,1.73,1.73,0,0,1-1.2,2.89H58a.67.67,0,0,0-.71.63.66.66,0,0,0,.64.67A1.66,1.66,0,0,1,59.6,259v.1a1.61,1.61,0,0,1-.51,1.15,1.73,1.73,0,0,1-1.18.46.75.75,0,0,0-.53.18.65.65,0,0,0-.2.45.67.67,0,0,0,.18.47.69.69,0,0,0,.45.2,1.65,1.65,0,0,1,1.22.51,1.63,1.63,0,0,1,.46,1.18,1.7,1.7,0,0,1-1.69,1.71.66.66,0,0,0-.73.63.63.63,0,0,0,.18.47.65.65,0,0,0,.45.2,1.67,1.67,0,0,1,1.68,1.69l0,1.25A.51.51,0,0,1,58.85,270.14Z"/><path id="_Path_80" data-name="&lt;Path&gt;" class="cls-2" d="M17.17,227.1a1.44,1.44,0,0,1-.45-.17,1.65,1.65,0,0,1,.36-3,.66.66,0,0,0,.51-.82l0-.09a.59.59,0,0,0-.3-.39.63.63,0,0,0-.5-.06,1.65,1.65,0,1,1-1-3.16.7.7,0,0,0,.45-.33.6.6,0,0,0,.06-.49.69.69,0,0,0-.83-.55,1.68,1.68,0,0,1-1.31-.13,1.63,1.63,0,0,1-.79-1,1.67,1.67,0,0,1,1.14-2,.7.7,0,0,0,.46-.32.67.67,0,0,0,0-.5l0-.09a.65.65,0,0,0-.81-.45,1.68,1.68,0,0,1-1.31-.13,1.65,1.65,0,0,1,.36-3,.76.76,0,0,0,.45-.33.64.64,0,0,0,.05-.49l0-.1a.66.66,0,0,0-.8-.45,1.65,1.65,0,1,1-1-3.16.67.67,0,0,0,.51-.82.73.73,0,0,0-.34-.48.61.61,0,0,0-.49-.06,1.68,1.68,0,0,1-2.1-1.12,1.65,1.65,0,0,1,1.14-2,.5.5,0,1,1,.27,1,.65.65,0,0,0,.35,1.25,1.7,1.7,0,0,1,1,3.26.65.65,0,1,0,.29,1.27,1.66,1.66,0,0,1,2.1,1.12l0,.1a1.61,1.61,0,0,1-.15,1.25,1.64,1.64,0,0,1-1,.78.67.67,0,0,0-.51.82.64.64,0,0,0,.31.39.6.6,0,0,0,.49.06,1.68,1.68,0,0,1,2.1,1.12l0,.1a1.65,1.65,0,0,1-1.14,2,.66.66,0,0,0-.45.32.63.63,0,0,0-.06.5.65.65,0,0,0,.3.39.73.73,0,0,0,.5.06,1.66,1.66,0,0,1,2.1,1.12,1.76,1.76,0,0,1-.12,1.35,1.63,1.63,0,0,1-1,.78.67.67,0,0,0-.5.82.64.64,0,0,0,.8.45,1.68,1.68,0,0,1,1.31.13,1.66,1.66,0,0,1,.79,1l0,.1a1.65,1.65,0,0,1-1.14,2,.67.67,0,0,0-.51.82.7.7,0,0,0,.31.39.72.72,0,0,0,.5.06.52.52,0,0,1,.64.33.47.47,0,0,1-.31.61A1.73,1.73,0,0,1,17.17,227.1Z"/><path id="_Path_81" data-name="&lt;Path&gt;" class="cls-2" d="M136.39,167.43h0a1.66,1.66,0,0,1-1.67-1.69,1.68,1.68,0,0,1,1.69-1.61.64.64,0,0,0,.72-.63v-.1a.67.67,0,0,0-.18-.47.7.7,0,0,0-.46-.2,1.69,1.69,0,0,1-1.22-.51,1.66,1.66,0,0,1-.45-1.18,1.61,1.61,0,0,1,.51-1.15,1.67,1.67,0,0,1,1.18-.46.68.68,0,0,0,.52-.18.66.66,0,0,0,.21-.45.69.69,0,0,0-.64-.77,1.65,1.65,0,1,1,0-3.3.67.67,0,0,0,.73-.63V154a.67.67,0,0,0-.18-.47.7.7,0,0,0-.46-.2,1.65,1.65,0,0,1-1.21-.51,1.64,1.64,0,0,1,.05-2.33,1.67,1.67,0,0,1,1.18-.46.74.74,0,0,0,.53-.18.69.69,0,0,0,.2-.45v-.1a.66.66,0,0,0-.64-.67,1.65,1.65,0,1,1,0-3.3.67.67,0,0,0,.73-.63v-.1a.63.63,0,0,0-.18-.47.65.65,0,0,0-.45-.2,1.65,1.65,0,0,1-1.22-.51,1.63,1.63,0,0,1-.46-1.18,1.66,1.66,0,0,1,.51-1.16,1.71,1.71,0,0,1,1.18-.45.5.5,0,0,1,.49.51.49.49,0,0,1-.51.49.65.65,0,0,0-.47.18.69.69,0,0,0-.2.45.67.67,0,0,0,.18.47.7.7,0,0,0,.46.2,1.69,1.69,0,0,1,1.22.51,1.66,1.66,0,0,1,.45,1.18v.1a1.65,1.65,0,0,1-1.69,1.61.67.67,0,0,0-.73.63.66.66,0,0,0,.64.67,1.66,1.66,0,0,1,1.67,1.69,1.64,1.64,0,0,1-1.69,1.71.71.71,0,0,0-.53.18.65.65,0,0,0-.2.46.67.67,0,0,0,.18.46.61.61,0,0,0,.45.2,1.65,1.65,0,0,1,1.22.51,1.63,1.63,0,0,1,.46,1.18v.1a1.65,1.65,0,0,1-1.69,1.61.7.7,0,0,0-.73.64.65.65,0,0,0,.63.66,1.67,1.67,0,0,1,1.68,1.69v.1a1.71,1.71,0,0,1-.52,1.16,1.64,1.64,0,0,1-1.17.45.69.69,0,0,0-.53.18.65.65,0,0,0,.43,1.12,1.66,1.66,0,0,1,1.68,1.69v.1a1.64,1.64,0,0,1-1.65,1.61h-.06a.65.65,0,0,0-.7.64.64.64,0,0,0,.63.66.53.53,0,0,1,.52.51A.47.47,0,0,1,136.39,167.43Z"/><path id="_Path_82" data-name="&lt;Path&gt;" class="cls-2" d="M115,192.94h0a1.67,1.67,0,0,1-1.68-1.69,1.69,1.69,0,0,1,1.69-1.61.67.67,0,0,0,.73-.63v-.1a.67.67,0,0,0-.18-.47.7.7,0,0,0-.46-.2,1.65,1.65,0,0,1-1.21-.51,1.63,1.63,0,0,1-.46-1.18,1.66,1.66,0,0,1,.51-1.16,1.72,1.72,0,0,1,1.18-.45.72.72,0,0,0,.53-.18.72.72,0,0,0-.43-1.22,1.65,1.65,0,1,1,0-3.3.67.67,0,0,0,.73-.63v-.1a.63.63,0,0,0-.18-.47.65.65,0,0,0-.45-.2,1.65,1.65,0,0,1-1.22-.51,1.63,1.63,0,0,1-.46-1.18,1.7,1.7,0,0,1,.51-1.16,1.72,1.72,0,0,1,1.18-.45.77.77,0,0,0,.53-.18.61.61,0,0,0,.2-.46v-.1a.65.65,0,0,0-.63-.66,1.65,1.65,0,1,1,0-3.3.68.68,0,0,0,.73-.64v-.1a.62.62,0,0,0-.17-.46.63.63,0,0,0-.46-.2,1.69,1.69,0,0,1-1.22-.51,1.67,1.67,0,0,1,.06-2.34,1.71,1.71,0,0,1,1.18-.45.5.5,0,0,1,0,1,.65.65,0,0,0-.66.63.63.63,0,0,0,.18.47.67.67,0,0,0,.45.2,1.69,1.69,0,0,1,1.22.51,1.66,1.66,0,0,1,.45,1.18v.1a1.65,1.65,0,0,1-1.69,1.61.65.65,0,1,0-.09,1.3,1.72,1.72,0,0,1,1.16,2.94,1.73,1.73,0,0,1-1.18.46.67.67,0,0,0-.53.18.69.69,0,0,0-.2.45.67.67,0,0,0,.18.47.7.7,0,0,0,.46.2,1.69,1.69,0,0,1,1.22.51,1.66,1.66,0,0,1,.45,1.18v.1a1.65,1.65,0,0,1-1.69,1.61.7.7,0,0,0-.73.63.66.66,0,0,0,.64.67,1.66,1.66,0,0,1,1.67,1.69v.1a1.66,1.66,0,0,1-.51,1.16,1.71,1.71,0,0,1-1.18.45.71.71,0,0,0-.53.18.65.65,0,0,0-.2.45.67.67,0,0,0,.18.47.65.65,0,0,0,.46.2,1.65,1.65,0,0,1,1.21.51,1.63,1.63,0,0,1,.46,1.18v.1a1.65,1.65,0,0,1-1.65,1.61H115a.67.67,0,0,0-.71.63.66.66,0,0,0,.63.67.53.53,0,0,1,.52.51A.47.47,0,0,1,115,192.94Z"/><path id="_Path_83" data-name="&lt;Path&gt;" class="cls-2" d="M124.41,223.4a1.65,1.65,0,1,1,1.58-2.9.72.72,0,0,0,.55.1.63.63,0,0,0,.39-.3l0-.09a.67.67,0,0,0,.07-.5.7.7,0,0,0-.31-.39,1.68,1.68,0,0,1-.83-1,1.65,1.65,0,0,1,2.41-1.87.72.72,0,0,0,.55.1.65.65,0,0,0,.4-.31l0-.08a.73.73,0,0,0,.06-.5.61.61,0,0,0-.31-.39,1.65,1.65,0,1,1,1.59-2.9.66.66,0,0,0,.55.09.62.62,0,0,0,.39-.3l.05-.09a.6.6,0,0,0,.06-.49.59.59,0,0,0-.3-.39,1.67,1.67,0,0,1-.67-2.29,1.65,1.65,0,0,1,2.25-.61.67.67,0,0,0,.55.09.59.59,0,0,0,.39-.3l0-.09a.65.65,0,0,0-.24-.89,1.65,1.65,0,1,1,1.58-2.9.72.72,0,0,0,.55.1.65.65,0,0,0,.4-.31l0-.08a.67.67,0,0,0,.07-.5.7.7,0,0,0-.31-.39,1.65,1.65,0,0,1-.67-2.28,1.66,1.66,0,0,1,1-.78,1.68,1.68,0,0,1,1.26.16.51.51,0,0,1,.18.69.49.49,0,0,1-.68.18.61.61,0,0,0-.49-.06.64.64,0,0,0-.4.3.67.67,0,0,0-.06.5.65.65,0,0,0,.3.39,1.67,1.67,0,0,1,.83,1,1.61,1.61,0,0,1-.16,1.25l-.05.09a1.65,1.65,0,0,1-2.25.61.67.67,0,0,0-.94.22.6.6,0,0,0-.06.49.59.59,0,0,0,.3.39,1.67,1.67,0,0,1,.67,2.29l0,.08a1.65,1.65,0,0,1-2.25.62.66.66,0,0,0-.94.21.65.65,0,0,0,.24.89,1.68,1.68,0,0,1,.83,1,1.65,1.65,0,0,1-.16,1.25l-.05.09a1.68,1.68,0,0,1-1,.77,1.61,1.61,0,0,1-1.25-.16.68.68,0,0,0-.95.21.66.66,0,0,0,.25.89,1.66,1.66,0,0,1,.82,1,1.61,1.61,0,0,1-.16,1.25l0,.09a1.66,1.66,0,0,1-2.26.61.66.66,0,0,0-.55-.09.65.65,0,0,0-.39.3.62.62,0,0,0-.06.5.65.65,0,0,0,.3.39,1.67,1.67,0,0,1,.83,1,1.61,1.61,0,0,1-.16,1.25l0,.09a1.65,1.65,0,0,1-2.25.61.68.68,0,0,0-.94.22.64.64,0,0,0,.24.88l-.19.47Z"/><path id="_Path_84" data-name="&lt;Path&gt;" class="cls-3" d="M8.08,131.57a1.15,1.15,0,0,0-1.18,1.12h0A1.17,1.17,0,0,0,8,133.87h.06a1.14,1.14,0,0,1,1.12,1.18v.1A1.15,1.15,0,0,1,8,136.27H8a1.15,1.15,0,0,0-1.18,1.12h0a1.16,1.16,0,0,0,1.13,1.18H8a1.14,1.14,0,0,1,1.12,1.18v.1A1.16,1.16,0,0,1,7.92,141H7.86a1.15,1.15,0,0,0-1.18,1.12h0a1.16,1.16,0,0,0,1.12,1.18h.07A1.14,1.14,0,0,1,9,144.45v.1a1.16,1.16,0,0,1-1.18,1.12H7.75a1.15,1.15,0,0,0-1.18,1.12h0A1.16,1.16,0,0,0,7.69,148h.07a1.16,1.16,0,0,1,1.12,1.18v.1a1.15,1.15,0,0,1-1.18,1.12H7.64a1.14,1.14,0,0,0-1.18,1.12h0a1.15,1.15,0,0,0,1.12,1.18h.07a1.16,1.16,0,0,1,1.12,1.18v.1a1.16,1.16,0,0,1-1.18,1.12H7.53a1.14,1.14,0,0,0-1.18,1.12h0a1.14,1.14,0,0,0,1.12,1.18h.06"/><path id="_Path_85" data-name="&lt;Path&gt;" class="cls-3" d="M136.94,65.31a1.16,1.16,0,0,0-1.18,1.12h0a1.15,1.15,0,0,0,1.13,1.18H137a1.15,1.15,0,0,1,1.12,1.18v.1A1.14,1.14,0,0,1,136.89,70h-.06a1.16,1.16,0,0,0-1.18,1.12h0a1.15,1.15,0,0,0,1.12,1.18h.07A1.16,1.16,0,0,1,138,73.49v.1a1.14,1.14,0,0,1-1.18,1.12h-.06a1.15,1.15,0,0,0-1.18,1.13h0A1.14,1.14,0,0,0,136.66,77h.07a1.16,1.16,0,0,1,1.12,1.18v.1a1.15,1.15,0,0,1-1.18,1.12h-.06a1.15,1.15,0,0,0-1.18,1.13h0a1.14,1.14,0,0,0,1.12,1.17h.06a1.17,1.17,0,0,1,1.13,1.18V83a1.17,1.17,0,0,1-1.18,1.13h-.07a1.15,1.15,0,0,0-1.17,1.13h0a1.14,1.14,0,0,0,1.12,1.17h.06a1.15,1.15,0,0,1,1.13,1.17v.1a1.15,1.15,0,0,1-1.17,1.13h-.07a1.15,1.15,0,0,0-1.17,1.13h0a1.14,1.14,0,0,0,1.12,1.17h.06"/><g id="_Group_5" data-name="&lt;Group&gt;"><path id="_Path_86" data-name="&lt;Path&gt;" class="cls-19" d="M50.1,124.54h0c-4.59,1.29-8.84-1.65-9.43-6.53h0a10.63,10.63,0,0,1,7.27-11.21h0c4.6-1.29,8.84,1.65,9.44,6.52h0A10.65,10.65,0,0,1,50.1,124.54Z"/><path id="_Path_87" data-name="&lt;Path&gt;" class="cls-20" d="M51.83,125.37h0c-4.6,1.29-8.84-1.65-9.43-6.53h0a10.62,10.62,0,0,1,7.27-11.21h0c4.6-1.29,8.84,1.65,9.43,6.53h0A10.62,10.62,0,0,1,51.83,125.37Z"/><path id="_Path_88" data-name="&lt;Path&gt;" class="cls-20" d="M52.61,125.8h0c-4.59,1.29-8.84-1.65-9.43-6.53h0a10.62,10.62,0,0,1,7.28-11.21h0c4.59-1.29,8.84,1.65,9.43,6.53h0A10.62,10.62,0,0,1,52.61,125.8Z"/><path id="_Path_89" data-name="&lt;Path&gt;" class="cls-20" d="M53.59,108.17a.49.49,0,0,1-.38-.19.4.4,0,0,1,.06-.58,2.47,2.47,0,0,0,1-1.92,3.15,3.15,0,0,0-.75-2.24,7.77,7.77,0,0,0-1-.88,9.85,9.85,0,0,1-.93-.8c-1.15-1.15-1.79-3.14-.86-4.48a4.33,4.33,0,0,1,.75-.79,2.34,2.34,0,0,0,.81-1.05c.24-.94-.85-2-1.34-2.38l-.35-.29a5.55,5.55,0,0,1-2.05-2.47,3.65,3.65,0,0,1,.35-2.64l.27-.54a5.71,5.71,0,0,0,.62-1.56,1.91,1.91,0,0,0-.61-1.84.44.44,0,0,1-.14-.59.4.4,0,0,1,.58-.06,2.79,2.79,0,0,1,1,2.73,6.52,6.52,0,0,1-.69,1.77l-.25.51A2.8,2.8,0,0,0,49.36,90a4.81,4.81,0,0,0,1.73,2l.36.29c.77.64,2,1.92,1.67,3.28a2.87,2.87,0,0,1-1,1.4,4.08,4.08,0,0,0-.65.67c-.68,1-.16,2.54.72,3.42a9.92,9.92,0,0,0,.83.71,7.64,7.64,0,0,1,1.13,1,4,4,0,0,1,1,2.88,3.19,3.19,0,0,1-1.31,2.49A.39.39,0,0,1,53.59,108.17Z"/><path id="_Path_90" data-name="&lt;Path&gt;" class="cls-15" d="M53.62,126.2h0c-4.6,1.29-8.84-1.65-9.44-6.53h0a10.64,10.64,0,0,1,7.28-11.22h0c4.59-1.29,8.84,1.65,9.43,6.53h0A10.64,10.64,0,0,1,53.62,126.2Z"/><path id="_Path_91" data-name="&lt;Path&gt;" class="cls-15" d="M52.87,120.08h0a2.29,2.29,0,0,1-2.93-2h0a3.31,3.31,0,0,1,2.26-3.48h0a2.28,2.28,0,0,1,2.93,2h0A3.29,3.29,0,0,1,52.87,120.08Z"/><path id="_Path_92" data-name="&lt;Path&gt;" class="cls-2" d="M52.87,120.08h0a2.29,2.29,0,0,1-2.93-2h0a3.31,3.31,0,0,1,2.26-3.48h0a2.28,2.28,0,0,1,2.93,2h0A3.29,3.29,0,0,1,52.87,120.08Z"/><path id="_Path_93" data-name="&lt;Path&gt;" class="cls-21" d="M52.36,120h0A1.85,1.85,0,0,1,50,118.39h0a2.68,2.68,0,0,1,1.84-2.82h0a1.84,1.84,0,0,1,2.37,1.64h0A2.66,2.66,0,0,1,52.36,120Z"/><path id="_Path_94" data-name="&lt;Path&gt;" class="cls-7" d="M52.87,120.08h0a2.29,2.29,0,0,1-2.93-2h0a3.31,3.31,0,0,1,2.26-3.48h0a2.28,2.28,0,0,1,2.93,2h0A3.29,3.29,0,0,1,52.87,120.08Z"/><path id="_Path_95" data-name="&lt;Path&gt;" class="cls-22" d="M46.73,122a8,8,0,0,1-.17-5.72,9.27,9.27,0,0,1,3-4.48"/><path id="_Path_96" data-name="&lt;Path&gt;" class="cls-2" d="M52.22,118.44h0a.76.76,0,0,1-.74-.92l0-.15a1.07,1.07,0,0,1,1-.92h0a.76.76,0,0,1,.74.92l0,.15A1.06,1.06,0,0,1,52.22,118.44Z"/></g><path id="_Path_97" data-name="&lt;Path&gt;" class="cls-3" d="M9.51,50.18a1.15,1.15,0,0,0-1.17,1.13h0a1.15,1.15,0,0,0,1.12,1.18h.06a1.15,1.15,0,0,1,1.13,1.17v.1a1.15,1.15,0,0,1-1.17,1.13H9.4A1.14,1.14,0,0,0,8.23,56h0a1.15,1.15,0,0,0,1.12,1.18h.06a1.14,1.14,0,0,1,1.12,1.17v.1a1.15,1.15,0,0,1-1.17,1.13H9.29a1.15,1.15,0,0,0-1.18,1.12h0a1.17,1.17,0,0,0,1.13,1.18H9.3a1.14,1.14,0,0,1,1.12,1.18v.1a1.15,1.15,0,0,1-1.18,1.12H9.18A1.15,1.15,0,0,0,8,65.41H8a1.17,1.17,0,0,0,1.13,1.18h.06a1.14,1.14,0,0,1,1.12,1.18v.1A1.15,1.15,0,0,1,9.13,69H9.07a1.15,1.15,0,0,0-1.18,1.12h0A1.16,1.16,0,0,0,9,71.29h.06a1.14,1.14,0,0,1,1.12,1.18v.1A1.16,1.16,0,0,1,9,73.69H9a1.15,1.15,0,0,0-1.18,1.12h0A1.16,1.16,0,0,0,8.9,76H9"/><g id="_Group_6" data-name="&lt;Group&gt;"><polygon id="_Path_98" data-name="&lt;Path&gt;" class="cls-23" points="28.5 161.01 14.23 145.41 54.22 134.55 68.94 149.64 28.5 161.01"/><polygon id="_Path_99" data-name="&lt;Path&gt;" class="cls-19" points="28.5 161.01 35.29 160.66 75.59 149.3 68.94 149.64 28.5 161.01"/><polygon id="_Path_100" data-name="&lt;Path&gt;" class="cls-5" points="47.34 140.28 81.44 131.55 80.63 134.27 35.29 160.66 47.34 140.28"/><polygon id="_Path_101" data-name="&lt;Path&gt;" class="cls-2" points="35.29 160.66 47.38 143.1 85.66 132.94 75.59 149.3 35.29 160.66"/><g id="_Clip_Group_5" data-name="&lt;Clip Group&gt;"><g class="cls-24"><polyline id="_Path_102" data-name="&lt;Path&gt;" class="cls-10" points="81.95 123.75 58.19 162.75 85.83 155.98 93.67 127.7"/><path id="_Path_103" data-name="&lt;Path&gt;" class="cls-10" d="M63.09,151.43l0,0c-.46.21-.75.22-.91,0a.44.44,0,0,1,0-.55,3.24,3.24,0,0,1,1.32-1.08,3.06,3.06,0,0,0,1.11-.84l-.15.06c-.46.21-.75.22-.91,0s-.17-.25,0-.55a3.29,3.29,0,0,1,1.33-1.08,3.1,3.1,0,0,0,1.1-.84l-.15.06c-.46.21-.75.22-.91,0s-.17-.25,0-.55a3.32,3.32,0,0,1,1.32-1.08,3,3,0,0,0,1.1-.83l-.15.05c-.46.21-.75.22-.91,0s-.16-.26,0-.56a3.4,3.4,0,0,1,1.32-1.08,3.16,3.16,0,0,0,1.11-.83l-.15.06c-.46.21-.75.21-.91,0s-.17-.26,0-.55A3.24,3.24,0,0,1,69,140.39a3.17,3.17,0,0,0,1.11-.84l-.15.06a.28.28,0,0,1-.36-.11.24.24,0,0,1,.1-.32l0,0c.41-.18.7-.19.86,0s.17.26,0,.56a3.32,3.32,0,0,1-1.35,1.13,3,3,0,0,0-1.06.78l.13-.06c.46-.21.75-.21.91,0a.45.45,0,0,1,0,.56,3.39,3.39,0,0,1-1.35,1.13,3,3,0,0,0-1.07.78l.14-.06c.46-.21.75-.21.91,0a.44.44,0,0,1,0,.55,3.27,3.27,0,0,1-1.36,1.13,3.21,3.21,0,0,0-1.06.79l.14-.06c.46-.21.75-.22.91,0a.44.44,0,0,1,0,.55,3.32,3.32,0,0,1-1.35,1.13,3.35,3.35,0,0,0-1.06.78l.13,0c.47-.21.76-.22.92,0s.16.25,0,.55a3.32,3.32,0,0,1-1.35,1.13,3.35,3.35,0,0,0-1.06.78l.13,0a.27.27,0,0,1,.36.11A.24.24,0,0,1,63.09,151.43Z"/><path id="_Path_104" data-name="&lt;Path&gt;" class="cls-10" d="M42,157.48c-.47.22-.76.23-.93.06s-.17-.27,0-.59a3.66,3.66,0,0,1,1.4-1.16,3.31,3.31,0,0,0,1.21-1l-.16.07c-.47.22-.77.23-.93.06s-.17-.27,0-.59A3.59,3.59,0,0,1,44,153.2a3.31,3.31,0,0,0,1.21-1l-.17.07c-.46.22-.76.23-.92.06s-.17-.27,0-.59a3.63,3.63,0,0,1,1.39-1.16,3.46,3.46,0,0,0,1.22-1l-.17.07c-.46.22-.76.23-.92.06s-.17-.27,0-.59A3.54,3.54,0,0,1,47.09,148a3.33,3.33,0,0,0,1.21-1l-.16.07c-.47.22-.76.23-.92.06s-.17-.27,0-.59a3.63,3.63,0,0,1,1.39-1.16,3.42,3.42,0,0,0,1.21-1l-.16.07-.16-.2-.1-.23,0,0c.41-.2.71-.21.87,0s.17.27,0,.58l0,.06a3.66,3.66,0,0,1-1.4,1.16,3.5,3.5,0,0,0-1.17.91l.16-.07c.46-.22.76-.23.92-.05s.17.27,0,.59l0,.05a3.7,3.7,0,0,1-1.39,1.16,3.55,3.55,0,0,0-1.18.91l.16-.07c.47-.22.76-.23.92-.05s.18.27,0,.59l0,.05A3.63,3.63,0,0,1,45.82,151a3.5,3.5,0,0,0-1.17.91l.15-.07c.47-.22.76-.23.92-.05s.18.27,0,.59l0,.05a3.63,3.63,0,0,1-1.39,1.16,3.5,3.5,0,0,0-1.17.91l.15-.07c.47-.22.76-.23.93-.05s.17.27,0,.59l0,.05a3.74,3.74,0,0,1-1.4,1.16,3.5,3.5,0,0,0-1.17.91l.15-.07.16.21Z"/><path id="_Path_105" data-name="&lt;Path&gt;" class="cls-10" d="M50.15,155.17h0c-.26.06-.3-.17-.1-.51l6.2-10.55a1.69,1.69,0,0,1,.82-.73h0c.26-.06.3.17.1.51L51,154.44A1.69,1.69,0,0,1,50.15,155.17Z"/><path id="_Path_106" data-name="&lt;Path&gt;" class="cls-10" d="M53.12,154.17h0c-.25.06-.3-.17-.1-.51l6.2-10.55a1.66,1.66,0,0,1,.83-.73h0c.25-.06.3.17.1.51l-6.21,10.55A1.69,1.69,0,0,1,53.12,154.17Z"/></g></g><path id="_Compound_Path_3" data-name="&lt;Compound Path&gt;" class="cls-13" d="M35.31,161.07a.44.44,0,0,1-.35-.17.41.41,0,0,1,0-.47l12.09-17.56a.46.46,0,0,1,.23-.16l38.27-10.16a.38.38,0,0,1,.43.15.39.39,0,0,1,0,.45L75.93,149.51a.41.41,0,0,1-.23.18L35.4,161.05Zm12.32-17.62L36.26,160l39.07-11,9.45-15.36Z"/><path id="_Path_107" data-name="&lt;Path&gt;" class="cls-4" d="M81.44,131.55s-7.39-6.28-15.65-5.86L28.9,134.4l18.44,5.88Z"/><path id="_Path_108" data-name="&lt;Path&gt;" class="cls-16" d="M28.5,161l-8.59-19.83s12.77-16.92,27.43-.9L35.29,160.66Z"/><path id="_Path_109" data-name="&lt;Path&gt;" class="cls-19" d="M28.5,161h0a1.79,1.79,0,0,0,1.87,1.69l5-.26-.09-1.78Z"/><path id="_Path_110" data-name="&lt;Path&gt;" class="cls-19" d="M35.38,162.44l38.4-10.63a2.48,2.48,0,0,0,1.81-2.51h0l-40.3,11.36Z"/><line id="_Path_111" data-name="&lt;Path&gt;" class="cls-20" x1="29" y1="160.82" x2="20.59" y2="140.36"/><line id="_Path_112" data-name="&lt;Path&gt;" class="cls-20" x1="29.75" y1="160.78" x2="22.28" y2="138.65"/><line id="_Path_113" data-name="&lt;Path&gt;" class="cls-20" x1="30.25" y1="160.75" x2="24.51" y2="136.82"/><line id="_Path_114" data-name="&lt;Path&gt;" class="cls-20" x1="30.86" y1="160.72" x2="26.69" y2="135.43"/><line id="_Path_115" data-name="&lt;Path&gt;" class="cls-20" x1="31.52" y1="160.69" x2="28.9" y2="134.4"/><line id="_Path_116" data-name="&lt;Path&gt;" class="cls-20" x1="32.47" y1="160.64" x2="31.11" y2="133.99"/><line id="_Path_117" data-name="&lt;Path&gt;" class="cls-20" x1="33.18" y1="160.6" x2="34.1" y2="133.37"/><line id="_Path_118" data-name="&lt;Path&gt;" class="cls-20" x1="33.73" y1="160.57" x2="36.74" y2="133.63"/><line id="_Path_119" data-name="&lt;Path&gt;" class="cls-20" x1="34.34" y1="160.54" x2="39.47" y2="134.46"/><line id="_Path_120" data-name="&lt;Path&gt;" class="cls-20" x1="34.94" y1="160.51" x2="42.26" y2="135.91"/><line id="_Path_121" data-name="&lt;Path&gt;" class="cls-20" x1="35.29" y1="160.66" x2="44.45" y2="137.51"/><line id="_Path_122" data-name="&lt;Path&gt;" class="cls-20" x1="36.9" y1="157.93" x2="45.92" y2="138.82"/><line id="_Path_123" data-name="&lt;Path&gt;" class="cls-20" x1="80.14" y1="130.56" x2="45.92" y2="138.82"/><line id="_Path_124" data-name="&lt;Path&gt;" class="cls-20" x1="75.33" y1="127.78" x2="42.25" y2="135.76"/><line id="_Path_125" data-name="&lt;Path&gt;" class="cls-20" x1="72.02" y1="126.57" x2="39.47" y2="134.49"/><line id="_Path_126" data-name="&lt;Path&gt;" class="cls-20" x1="69.17" y1="125.89" x2="36.74" y2="133.7"/><line id="_Path_127" data-name="&lt;Path&gt;" class="cls-20" x1="78.29" y1="129.36" x2="44.45" y2="137.51"/></g><g id="_Group_7" data-name="&lt;Group&gt;"><polyline id="_Path_128" data-name="&lt;Path&gt;" class="cls-25" points="125.15 151.57 92.23 145.52 91.58 147.62 97.22 154.34"/><rect id="_Rectangle_3" data-name="&lt;Rectangle&gt;" class="cls-14" x="89.94" y="146.27" width="39.43" height="5.19" rx="2.6" ry="2.6" transform="translate(-59.69 74.65) rotate(-29.96)"/><polygon id="_Path_129" data-name="&lt;Path&gt;" class="cls-14" points="99.2 155.19 127.08 155.19 125.15 151.57 109.66 148.87 99.2 155.19"/><polygon id="_Path_130" data-name="&lt;Path&gt;" class="cls-26" points="117.78 142.58 119.36 135.28 123.2 132.8 124.1 138.97 117.78 142.58"/><path id="_Path_131" data-name="&lt;Path&gt;" class="cls-26" d="M94.71,158.74c-1.24,1.84-4.37,1.13-4.37,1.13a4.5,4.5,0,0,1,2.73-3.16A1.54,1.54,0,0,1,94.71,158.74Z"/><line id="_Path_132" data-name="&lt;Path&gt;" class="cls-8" x1="108.06" y1="150.22" x2="118.38" y2="151.8"/><line id="_Path_133" data-name="&lt;Path&gt;" class="cls-8" x1="106.11" y1="151.01" x2="112.74" y2="152.03"/><line id="_Path_134" data-name="&lt;Path&gt;" class="cls-8" x1="104.8" y1="151.8" x2="109.42" y2="152.59"/><line id="_Path_135" data-name="&lt;Path&gt;" class="cls-8" x1="103.99" y1="149.14" x2="91.88" y2="146.67"/><line id="_Path_136" data-name="&lt;Path&gt;" class="cls-8" x1="102.11" y1="150.22" x2="91.81" y2="147.9"/><line id="_Path_137" data-name="&lt;Path&gt;" class="cls-8" x1="100.14" y1="151.36" x2="93.52" y2="149.93"/><line id="_Path_138" data-name="&lt;Path&gt;" class="cls-8" x1="97.93" y1="152.19" x2="94.76" y2="151.52"/><path id="_Path_139" data-name="&lt;Path&gt;" class="cls-8" d="M124.46,143.33a1.86,1.86,0,0,0,.39-2.37"/><path id="_Path_140" data-name="&lt;Path&gt;" class="cls-8" d="M122.71,144.34a1.86,1.86,0,0,0,.39-2.36"/><path id="_Path_141" data-name="&lt;Path&gt;" class="cls-8" d="M121,145.36a1.86,1.86,0,0,0,.4-2.36"/><path id="_Path_142" data-name="&lt;Path&gt;" class="cls-8" d="M119.2,146.38a1.87,1.87,0,0,0,.39-2.36"/><g id="_Group_8" data-name="&lt;Group&gt;"><path id="_Path_143" data-name="&lt;Path&gt;" class="cls-26" d="M103.63,145.72c-3,2.11-5.21,5.68-6.24,7.66a.46.46,0,0,0,.65.6l8.25-5A4,4,0,0,0,103.63,145.72Z"/><path id="_Path_144" data-name="&lt;Path&gt;" class="cls-25" d="M109.65,144.91c-.66-.8-2-1.33-4.73,0a10,10,0,0,0-1.29.77,4,4,0,0,1,2.66,3.28l2.95-1.78A1.55,1.55,0,0,0,109.65,144.91Z"/></g></g><path id="_Path_145" data-name="&lt;Path&gt;" class="cls-2" d="M88.58,66.77l-.13,0a2.72,2.72,0,0,1-1.81-.13c-.9-.6-.94-1.4-.13-2.38.17-.2.36-.4.55-.6A3.59,3.59,0,0,0,88,62.42c.15-.58-.32-1.18-1.27-1.6a4.08,4.08,0,0,0-.92-.29,5.25,5.25,0,0,0-2.8.31c-.66.34-.67.86,0,1.11.41.16.46.41.13.62a2.77,2.77,0,0,1-1.54.27,24.05,24.05,0,0,0-4.33-.13,4.87,4.87,0,0,0-2.71.83c-.38.5.56,1,1.69,1.22a22.6,22.6,0,0,0,4.9.15c.84,0,1.69-.09,2.52-.15s1.38.13,1.45.41-.47.55-1.21.61-1.79.12-2.69.16a28.43,28.43,0,0,1-6.31-.24c-2-.38-3.7-1.32-2.89-2.36.59-.78,2.58-1.44,4.93-1.64a24,24,0,0,1,2.93-.05c-.06-.47.3-1,1.1-1.38a11.2,11.2,0,0,1,6.19-.68,7.28,7.28,0,0,1,1.66.5c1.41.62,2.09,1.47,1.86,2.34A4.17,4.17,0,0,1,89.55,64c-.18.19-.35.37-.51.56-.57.69-.59,1.21-.07,1.56C89.3,66.31,89.12,66.6,88.58,66.77Z"/><g id="_Group_9" data-name="&lt;Group&gt;"><path id="_Path_146" data-name="&lt;Path&gt;" class="cls-2" d="M64.11,66.37l-20,6a3.17,3.17,0,0,1-1.23,0h0c-.38-.09-.46-.23-.17-.32l20-6a3.17,3.17,0,0,1,1.23,0h0C64.32,66.14,64.4,66.28,64.11,66.37Z"/><path id="_Path_147" data-name="&lt;Path&gt;" class="cls-2" d="M76,69.05l-20,6a3,3,0,0,1-1.23,0l-3.6-.82c-.39-.08-.47-.23-.18-.31l20-6a2.83,2.83,0,0,1,1.23,0l3.6.81C76.21,68.82,76.28,69,76,69.05Z"/><path id="_Path_148" data-name="&lt;Path&gt;" class="cls-10" d="M61.73,68.5,46.81,73a2.83,2.83,0,0,1-1.23,0h0c-.38-.08-.46-.23-.17-.31l14.92-4.5a3.17,3.17,0,0,1,1.23,0h0C62,68.27,62,68.41,61.73,68.5Z"/><path id="_Path_149" data-name="&lt;Path&gt;" class="cls-10" d="M69.45,67.57l-20,6a2.83,2.83,0,0,1-1.23,0h0c-.38-.09-.46-.23-.17-.32l20-6a2.83,2.83,0,0,1,1.23,0h0C69.66,67.34,69.74,67.49,69.45,67.57Z"/></g><g id="_Group_10" data-name="&lt;Group&gt;"><polygon id="_Path_150" data-name="&lt;Path&gt;" class="cls-15" points="43.88 178.92 39.25 184.17 39.25 213.67 43.88 217.76 67.25 224.03 67.25 183.5 43.88 178.92"/><polygon id="_Path_151" data-name="&lt;Path&gt;" class="cls-15" points="43.88 178.92 43.88 173.34 67.25 177.75 67.25 183.5 43.88 178.92"/><line id="_Path_152" data-name="&lt;Path&gt;" class="cls-8" x1="43.88" y1="176.13" x2="67.25" y2="180.71"/><path id="_Path_153" data-name="&lt;Path&gt;" class="cls-21" d="M56.38,199.73a1.94,1.94,0,0,1-1.19-1.84c0-3.61-2.34-7.2-5.21-8s-5.2,1.48-5.2,5.09c0,.83-.54,1.35-1.2,1.17a2,2,0,0,1-1.19-1.84c0-5.26,3.41-8.59,7.59-7.42s7.59,6.41,7.59,11.67C57.57,199.39,57,199.91,56.38,199.73Z"/><polyline id="_Path_154" data-name="&lt;Path&gt;" class="cls-27" points="64.45 185.6 60.3 188.92 60.3 217.59 64.46 221.09"/><path id="_Path_155" data-name="&lt;Path&gt;" class="cls-4" d="M54,213l-7.86-2a6.79,6.79,0,0,1-4.6-6.39v-.81c0-2.86,2.07-4.68,4.6-4l7.86,2a6.79,6.79,0,0,1,4.59,6.38v.82C58.59,211.78,56.52,213.59,54,213Z"/><polyline id="_Path_156" data-name="&lt;Path&gt;" class="cls-8" points="43.88 213.84 56.96 217.42 47.21 216.59"/><line id="_Path_157" data-name="&lt;Path&gt;" class="cls-8" x1="43.54" y1="184.75" x2="56.13" y2="187.25"/><path id="_Path_158" data-name="&lt;Path&gt;" class="cls-16" d="M47.54,205.29l-2.31-.59a2,2,0,0,1-1.35-1.88v-.24a1.08,1.08,0,0,1,1.35-1.18l2.31.59a2,2,0,0,1,1.35,1.88v.23A1.09,1.09,0,0,1,47.54,205.29Z"/></g><line id="_Path_159" data-name="&lt;Path&gt;" class="cls-7" x1="0.33" y1="267.26" x2="11.93" y2="267.26"/><line id="_Path_160" data-name="&lt;Path&gt;" class="cls-7" x1="145.4" y1="267.26" x2="133.81" y2="267.26"/><g id="_Group_11" data-name="&lt;Group&gt;"><polyline id="_Path_161" data-name="&lt;Path&gt;" class="cls-19" points="110.18 180.32 112.88 179.38 110.68 178.73 110.57 177.59 109.08 177.92 109.08 176.58 104.15 178.06"/><polygon id="_Path_162" data-name="&lt;Path&gt;" class="cls-7" points="84.71 184.32 86.83 182.05 92.19 183.54 90.13 185.94 84.71 184.32"/><polygon id="_Path_163" data-name="&lt;Path&gt;" class="cls-14" points="86.83 182.05 102.34 177.54 107.76 179.09 92.19 183.54 86.83 182.05"/><polygon id="_Path_164" data-name="&lt;Path&gt;" class="cls-19" points="90.13 185.94 92.19 187.54 107.76 182.82 110.18 180.32 107.76 179.09 92.19 183.54 90.13 185.94"/><polygon id="_Path_165" data-name="&lt;Path&gt;" class="cls-15" points="84.71 184.32 81.85 185.22 83.77 185.6 84.1 186.59 85.92 186.44 86.69 187.68 87.57 187.2 90.13 185.94 84.71 184.32"/><polygon id="_Path_166" data-name="&lt;Path&gt;" class="cls-19" points="92.19 187.54 88.78 186.6 90.13 185.94 92.19 187.54"/><line id="_Path_167" data-name="&lt;Path&gt;" class="cls-8" x1="90.49" y1="185.96" x2="109.89" y2="180.3"/><line id="_Path_168" data-name="&lt;Path&gt;" class="cls-8" x1="97.63" y1="178.91" x2="103" y2="180.45"/></g><polygon id="_Path_169" data-name="&lt;Path&gt;" class="cls-14" points="111.1 198.67 112.28 197.97 112.28 193.24 88.03 199.93 88.03 203.56 89.41 204.18 88.03 205.43 88.03 226.41 112.28 220.12 112.28 199.21 111.1 198.67"/><path id="_Path_170" data-name="&lt;Path&gt;" class="cls-8" d="M97.63,204.57l-2.63.72A3.83,3.83,0,0,0,92.19,209v2.76"/><path id="_Path_171" data-name="&lt;Path&gt;" class="cls-8" d="M92.19,218.49v.39a2.55,2.55,0,0,0,3.17,2.47L108,218.14a2.55,2.55,0,0,0,1.91-2.47V211"/><g id="_Clip_Group_7" data-name="&lt;Clip Group&gt;"><g class="cls-28"><g id="_Group_12" data-name="&lt;Group&gt;"><g id="_Group_13" data-name="&lt;Group&gt;"><ellipse id="_Path_172" data-name="&lt;Path&gt;" class="cls-13" cx="95.75" cy="211.13" rx="3.02" ry="2.3" transform="translate(-128.05 150.65) rotate(-50.48)"/><ellipse id="_Path_173" data-name="&lt;Path&gt;" class="cls-13" cx="99.63" cy="210.15" rx="3.02" ry="2.3" transform="translate(-125.88 153.28) rotate(-50.48)"/><ellipse id="_Path_174" data-name="&lt;Path&gt;" class="cls-13" cx="103.28" cy="209.26" rx="3.02" ry="2.3" transform="translate(-123.87 155.78) rotate(-50.48)"/><ellipse id="_Path_175" data-name="&lt;Path&gt;" class="cls-13" cx="106.93" cy="208.37" rx="3.02" ry="2.3" transform="translate(-121.86 158.27) rotate(-50.48)"/></g><g id="_Group_14" data-name="&lt;Group&gt;"><ellipse id="_Path_176" data-name="&lt;Path&gt;" class="cls-2" cx="95.75" cy="214.07" rx="3.02" ry="2.3" transform="translate(-130.32 151.72) rotate(-50.48)"/><ellipse id="_Path_177" data-name="&lt;Path&gt;" class="cls-2" cx="99.63" cy="213.1" rx="3.02" ry="2.3" transform="translate(-128.16 154.35) rotate(-50.48)"/><ellipse id="_Path_178" data-name="&lt;Path&gt;" class="cls-2" cx="103.28" cy="212.21" rx="3.02" ry="2.3" transform="translate(-126.14 156.85) rotate(-50.48)"/><ellipse id="_Path_179" data-name="&lt;Path&gt;" class="cls-2" cx="106.93" cy="211.32" rx="3.02" ry="2.3" transform="translate(-124.13 159.34) rotate(-50.48)"/></g><ellipse id="_Path_180" data-name="&lt;Path&gt;" class="cls-10" cx="95.75" cy="216.63" rx="3.02" ry="2.3" transform="translate(-132.29 152.65) rotate(-50.48)"/><ellipse id="_Path_181" data-name="&lt;Path&gt;" class="cls-10" cx="99.63" cy="215.65" rx="3.02" ry="2.3" transform="translate(-130.13 155.28) rotate(-50.48)"/><ellipse id="_Path_182" data-name="&lt;Path&gt;" class="cls-10" cx="103.28" cy="214.77" rx="3.02" ry="2.3" transform="translate(-128.11 157.78) rotate(-50.48)"/><ellipse id="_Path_183" data-name="&lt;Path&gt;" class="cls-10" cx="106.93" cy="213.88" rx="3.02" ry="2.3" transform="translate(-126.1 160.27) rotate(-50.48)"/></g></g></g><line id="_Path_184" data-name="&lt;Path&gt;" class="cls-8" x1="91.77" y1="203.74" x2="108.64" y2="199.19"/><line id="_Path_185" data-name="&lt;Path&gt;" class="cls-8" x1="89.68" y1="201.46" x2="110.6" y2="195.9"/></svg>