<?xml version="1.0" encoding="UTF-8"?>
<svg width="141px" height="202px" viewBox="0 0 141 202" version="1.1" xmlns="http://www.w3.org/2000/svg" xmlns:xlink="http://www.w3.org/1999/xlink">
    <!-- Generator: Sketch 51.1 (57501) - http://www.bohemiancoding.com/sketch -->
    <title>Artboard 2</title>
    <desc>Created with Sketch.</desc>
    <defs></defs>
    <g id="Artboard-2" stroke="none" stroke-width="1" fill="none" fill-rule="evenodd">
        <path d="M20.4151281,2.35852903 C20.2506177,3.36154708 20.092496,4.39180365 19.7219483,5.32752656 C18.9712698,7.23101769 18.1247599,9.10086126 17.2335288,10.941864 C11.1258805,23.5452826 8.35475869,37.0844241 6.50361737,50.8110306 C5.12204943,61.0559147 6.05800182,71.2863784 8.41704904,81.3325816 C9.6436897,86.5591709 11.1162974,91.7457035 12.8189002,96.8377026 C15.7689071,105.664582 20.7329685,113.480432 26.1075074,120.950192 C33.16708,130.764067 41.9100891,138.994904 51.287182,146.605664 C61.266415,154.703513 72.1736143,161.375345 83.4242092,167.377431 C93.3139996,172.65369 103.492881,177.473304 114.039116,181.405263 C115.690609,182.022135 117.255853,182.887359 118.819501,183.71573 C119.51268,184.084251 119.827326,185.779447 119.287477,186.503671 C118.865819,187.066066 118.225347,187.615643 117.575291,187.817529 C116.894889,188.027425 116.049976,187.94571 115.339227,187.756643 C113.863425,187.360883 112.390817,186.897828 110.983695,186.306593 C98.5032646,181.071992 86.0372094,175.795732 74.3569708,168.881958 C68.8626428,165.629359 63.3539402,162.371954 58.0736354,158.786084 C53.4306088,155.632826 48.955287,152.191161 44.6572531,148.57645 C35.6331388,140.983315 27.2878296,132.672365 20.4582521,123.007501 C11.7982968,110.74857 5.87113078,97.2430757 2.82529256,82.4782013 C1.42296117,75.6861988 0.779294259,68.8140831 0.126044217,61.9323538 C-0.388250438,56.5006745 0.790474578,51.1955743 1.51719529,45.8936785 C3.51368075,31.3499167 7.50824886,17.3573342 14.0710959,4.17229331 C14.6365005,3.03468497 15.2178771,1.87464492 15.9941107,0.887649515 C16.4077824,0.362106509 17.2574867,0.181050534 17.5897018,0.0096081507 C19.193279,-0.126584397 20.6019991,1.2113071 20.4151281,2.35852903 Z M115.148363,201.99998 C111.593022,201.693947 108.037681,201.370289 104.479145,201.081882 C101.172965,200.814303 97.8635906,200.602804 94.5574107,200.330419 C81.2208878,199.226459 68.2868564,196.611562 56.4516906,189.965365 C55.3496307,189.348493 54.3114582,188.605042 53.2940492,187.850375 C52.6088554,187.342457 52.4475394,185.817101 52.9282931,185.0384 C53.4968921,184.120302 54.3034723,183.431328 55.4103238,183.621997 C56.3925947,183.791837 57.4020177,184.121904 58.2708882,184.610595 C69.6492581,191.010042 82.0705921,193.648973 94.8864315,194.712877 C106.07793,195.642191 117.285401,196.653221 128.515233,195.175932 C129.511878,195.044546 130.518107,194.812218 131.449268,194.443697 C131.776691,194.315516 132.174391,193.506372 132.04981,193.238793 C131.517947,192.099583 130.837545,191.02286 130.145962,189.96857 C119.777015,174.152609 108.65739,158.817329 99.8648677,141.99835 C98.0760167,138.574309 96.4373014,135.126234 95.9006461,131.256764 C95.7968289,130.51171 95.7521076,129.731407 95.8575221,128.992763 C96.0172409,127.85195 96.8717367,127.150158 97.9115063,127.041204 C98.5631592,126.973909 99.401683,127.331214 99.927158,127.773439 C100.473396,128.231687 100.941373,128.975138 101.112272,129.673726 C102.905914,137.020112 106.97555,143.275356 110.712971,149.661985 C115.879875,158.495273 121.497187,167.036949 127.384423,175.421604 C131.193718,180.848476 134.614895,186.560552 138.595088,191.888084 C139.499097,193.099396 140.153944,194.510992 140.831152,195.877724 C141.359821,196.946435 140.581991,198.564723 139.401669,199.037391 C138.694114,199.320992 137.984962,199.724763 137.248659,199.795263 C129.888815,200.492248 122.604038,202.006389 115.148363,201.99998 Z" id="FIll-104" fill="#F8EA46" transform="translate(70.500000, 101.000000) scale(-1, 1) translate(-70.500000, -101.000000) "></path>
    </g>
</svg>