<?xml version="1.0" encoding="UTF-8"?>
<svg width="80px" height="188px" viewBox="0 0 80 188" version="1.1" xmlns="http://www.w3.org/2000/svg" xmlns:xlink="http://www.w3.org/1999/xlink">
    <!-- Generator: Sketch 51.1 (57501) - http://www.bohemiancoding.com/sketch -->
    <title>Fill 21</title>
    <desc>Created with Sketch.</desc>
    <defs></defs>
    <g id="Page-1" stroke="none" stroke-width="1" fill="none" fill-rule="evenodd">
        <g id="Artboard-3" fill="#F8EA46">
            <path d="M11.868516,130.542781 C11.361516,134.905781 10.843516,139.675781 10.248516,144.435781 C9.178516,153.001781 8.055516,161.562781 6.976516,170.127781 C6.898516,170.747781 6.990516,171.391781 7.034516,172.021781 C7.039516,172.088781 7.252516,172.178781 7.374516,172.189781 C7.520516,172.204781 7.749516,172.200781 7.813516,172.111781 C8.468516,171.217781 9.194516,170.355781 9.711516,169.384781 C11.301516,166.390781 13.340516,163.752781 15.667516,161.301781 C18.427516,158.394781 20.830516,155.190781 23.072516,151.876781 C30.698516,140.605781 39.156516,129.950781 47.376516,119.120781 C48.632516,117.467781 50.083516,115.964781 51.431516,114.380781 C53.400516,112.065781 55.633516,109.917781 57.268516,107.385781 C61.793516,100.379781 67.389516,94.1907808 72.181516,87.3977808 C72.456516,87.0097808 72.727516,86.6077808 72.925516,86.1777808 C73.128516,85.7337808 73.207516,85.2127808 72.700516,84.9117808 C72.017516,84.5067808 71.310516,84.1237808 70.575516,83.8277808 C67.906516,82.7527808 65.232516,81.6867808 62.539516,80.6747808 C58.344516,79.0987808 54.188516,77.4417808 50.358516,75.0737808 C49.950516,74.8217808 49.538516,74.5517808 49.091516,74.3937808 C43.649516,72.4797808 38.567516,69.7367808 33.255516,67.5297808 C28.672516,65.6247808 24.180516,63.5407808 19.794516,61.2287808 C16.678516,59.5847808 13.544516,58.0047808 10.165516,56.9507808 C9.255516,56.6667808 8.374516,56.2607808 7.523516,55.8237808 C6.393516,55.2447808 6.030516,53.5257808 6.827516,52.4887808 C7.408516,51.7327808 8.056516,51.0187808 8.750516,50.3627808 C12.946516,46.3967808 16.723516,42.0937808 20.127516,37.4057808 C22.275516,34.4477808 24.981516,31.8907808 27.473516,29.1867808 C30.941516,25.4217808 34.462516,21.7047808 37.919516,17.9307808 C38.996516,16.7537808 40.039516,15.5207808 40.928516,14.1977808 C44.169516,9.37778083 48.384516,5.44078083 52.442516,1.36178083 C52.887516,0.914780826 53.430516,0.561780826 53.944516,0.188780826 C54.438516,-0.167219174 55.495516,0.00378082574 55.626516,0.504780826 C55.737516,0.928780826 55.821516,1.53478083 55.605516,1.83878083 C54.870516,2.87478083 54.045516,3.85778083 53.168516,4.77978083 C49.419516,8.72578083 45.860516,12.7967808 42.755516,17.3047808 C39.487516,22.0467808 35.504516,26.2497808 31.562516,30.4497808 C27.726516,34.5387808 24.053516,38.7347808 20.922516,43.4147808 C19.419516,45.6607808 17.496516,47.6277808 15.757516,49.7167808 C15.143516,50.4527808 14.505516,51.1677808 13.891516,51.9047808 C13.645516,52.2007808 13.843516,52.9777808 14.208516,53.1447808 C20.308516,55.9317808 26.399516,58.7417808 32.520516,61.4837808 C35.583516,62.8547808 38.705516,64.0937808 41.796516,65.4007808 C42.680516,65.7737808 43.526516,66.2427808 44.429516,66.5617808 C48.962516,68.1627808 53.340516,70.0877808 57.507516,72.5027808 C58.602516,73.1387808 59.842516,73.5447808 61.044516,73.9787808 C66.784516,76.0477808 72.089516,79.0277808 77.478516,81.8277808 C78.035516,82.1177808 78.525516,82.5547808 79.005516,82.9717808 C79.526516,83.4237808 79.749516,84.5927808 79.407516,85.1997808 C78.939516,86.0317808 78.457516,86.8667808 77.885516,87.6287808 C74.331516,92.3607808 70.746516,97.0697808 67.181516,101.792781 C66.411516,102.813781 65.585516,103.807781 64.944516,104.905781 C62.187516,109.630781 58.691516,113.792781 55.209516,117.973781 C53.264516,120.307781 51.325516,122.654781 49.543516,125.111781 C42.030516,135.471781 34.319516,145.686781 27.166516,156.307781 C25.117516,159.348781 22.781516,162.220781 20.362516,164.981781 C18.141516,167.516781 16.003516,170.077781 14.231516,172.951781 C13.480516,174.170781 12.542516,175.275781 11.701516,176.440781 C11.613516,176.563781 11.535516,176.768781 11.577516,176.892781 C11.708516,177.277781 11.970516,177.312781 12.334516,177.135781 C15.208516,175.738781 18.191516,174.530781 20.945516,172.929781 C24.963516,170.592781 29.092516,168.501781 33.306516,166.566781 C36.655516,165.030781 39.843516,163.208781 43.049516,161.402781 C47.365516,158.972781 51.809516,156.769781 56.210516,154.489781 C56.770516,154.199781 57.390516,154.006781 58.001516,153.832781 C58.839516,153.593781 59.951516,154.217781 60.350516,155.096781 C60.749516,155.976781 60.514516,157.147781 59.739516,157.680781 C58.952516,158.220781 58.126516,158.712781 57.279516,159.151781 C54.584516,160.553781 51.796516,161.793781 49.179516,163.326781 C42.548516,167.208781 35.516516,170.328781 28.803516,174.014781 C21.082516,178.251781 12.973516,181.680781 5.287516,185.954781 C4.590516,186.342781 3.862516,186.683781 3.122516,186.978781 C1.928516,187.454781 0.338516,186.594781 0.146516,185.348781 C0.0265160002,184.564781 -0.0394839998,183.752781 0.0255160002,182.966781 C0.223516,180.575781 0.345516,178.164781 0.772516,175.811781 C2.206516,167.932781 2.569516,159.928781 3.672516,152.011781 C4.663516,144.889781 5.072516,137.686781 6.628516,130.644781 C6.971516,129.091781 7.411516,127.551781 7.941516,126.054781 C8.304516,125.032781 9.898516,124.674781 10.826516,125.243781 C11.416516,125.605781 11.796516,126.146781 11.845516,126.783781 C11.930516,127.893781 11.868516,129.013781 11.868516,130.542781" id="Fill-21"></path>
        </g>
    </g>
</svg>