<?xml version="1.0" encoding="UTF-8"?>
<svg width="184px" height="125px" viewBox="0 0 184 125" version="1.1" xmlns="http://www.w3.org/2000/svg" xmlns:xlink="http://www.w3.org/1999/xlink">
    <!-- Generator: Sketch 51.1 (57501) - http://www.bohemiancoding.com/sketch -->
    <title>Artboard</title>
    <desc>Created with Sketch.</desc>
    <defs></defs>
    <g id="Artboard" stroke="none" stroke-width="1" fill="none" fill-rule="evenodd">
        <path d="M0,83.3306763 C0,106.341469 18.7179862,125 41.8181818,125 C64.9111778,125 83.6363636,106.348643 83.6363636,83.3306763 C83.6363636,60.6008673 65.3637581,42.1356375 42.6621451,41.6852661 C53.2162862,31.3709626 67.6770575,24.9956159 83.6363636,24.9956159 L83.628544,0 C37.4425521,0 0.000183992,37.3110831 0.000183992,83.3306763 L0,83.3306763 Z M183.992,0 C137.806008,0 100.363636,37.3110831 100.363636,83.3306763 C100.363636,106.341469 119.089422,125 142.181818,125 C165.274214,125 184,106.348643 184,83.3306763 C184,60.6008673 165.727394,42.1356375 143.025781,41.6852661 C153.579923,31.3709626 168.048694,24.9956159 184,24.9956159 L183.992,0 Z" id="Fill-1" fill="#F8EA46"></path>
    </g>
</svg>